<svg width="1600" height="900" viewBox="0 0 1600 900" fill="none" xmlns="http://www.w3.org/2000/svg">
  <defs>
    <linearGradient id="bg" x1="160" y1="80" x2="1470" y2="818" gradientUnits="userSpaceOnUse">
      <stop stop-color="#F4EFE5"/>
      <stop offset="1" stop-color="#D2E0E1"/>
    </linearGradient>
  </defs>
  <rect width="1600" height="900" fill="url(#bg)"/>
  <circle cx="1260" cy="180" r="150" fill="#F8F3EB"/>
  <circle cx="1215" cy="590" r="208" fill="#E8EFEF" opacity="0.8"/>
  <rect x="720" y="224" width="246" height="246" rx="38" fill="#1C2630"/>
  <rect x="776" y="278" width="138" height="20" rx="10" fill="#ECE5D8" opacity="0.92"/>
  <rect x="776" y="320" width="94" height="20" rx="10" fill="#ECE5D8" opacity="0.66"/>
  <rect x="776" y="362" width="158" height="20" rx="10" fill="#ECE5D8" opacity="0.78"/>
  <rect x="776" y="404" width="112" height="20" rx="10" fill="#ECE5D8" opacity="0.56"/>
  <circle cx="842" cy="565" r="22" fill="#1C2630"/>
  <circle cx="1072" cy="390" r="22" fill="#1C2630"/>
  <circle cx="1218" cy="678" r="22" fill="#1C2630"/>
  <circle cx="594" cy="396" r="22" fill="#1C2630"/>
  <path d="M943 314C997 317 1036 334 1051 367" stroke="#1C2630" stroke-width="9" stroke-linecap="round"/>
  <path d="M942 410C1034 470 1110 560 1192 659" stroke="#1C2630" stroke-width="9" stroke-linecap="round"/>
  <path d="M720 333C674 334 642 350 615 381" stroke="#1C2630" stroke-width="9" stroke-linecap="round"/>
  <path d="M842 565C928 621 1050 658 1189 675" stroke="#C4663A" stroke-width="8" stroke-linecap="round" opacity="0.9"/>
  <path d="M1072 390C1128 346 1172 292 1202 223" stroke="#2C7285" stroke-width="8" stroke-linecap="round" opacity="0.88"/>
  <path d="M594 396C638 466 714 526 812 558" stroke="#8A9D43" stroke-width="8" stroke-linecap="round" opacity="0.82"/>
  <path d="M300 220H486" stroke="#2C7285" stroke-width="6" stroke-linecap="round"/>
  <path d="M300 244H448" stroke="#C4663A" stroke-width="6" stroke-linecap="round"/>
</svg>
