<?xml version="1.0" encoding="UTF-8"?>
<svg xmlns="http://www.w3.org/2000/svg" width="1672" height="941" viewBox="0 0 1672 941" fill="none">
  <defs>
    <linearGradient id="bgGradient" x1="0" y1="0" x2="1672" y2="941">
      <stop offset="0%" stop-color="#080D1E"/>
      <stop offset="42%" stop-color="#131D45"/>
      <stop offset="100%" stop-color="#090C18"/>
    </linearGradient>
    <radialGradient id="violetGlow" cx="0" cy="0" r="1" gradientUnits="userSpaceOnUse" gradientTransform="translate(133.76 75.28) rotate(40) scale(752.4 489.32)">
      <stop offset="0%" stop-color="#5D49FF" stop-opacity="0.9"/>
      <stop offset="100%" stop-color="#5D49FF" stop-opacity="0"/>
    </radialGradient>
    <radialGradient id="emberGlow" cx="0" cy="0" r="1" gradientUnits="userSpaceOnUse" gradientTransform="translate(1404.48 583.42) rotate(210) scale(468.16 357.58)">
      <stop offset="0%" stop-color="#F08A45" stop-opacity="0.65"/>
      <stop offset="100%" stop-color="#F08A45" stop-opacity="0"/>
    </radialGradient>
    <filter id="softGlow" x="-40%" y="-40%" width="180%" height="180%">
      <feGaussianBlur stdDeviation="13.376" result="blur"/>
      <feMerge>
        <feMergeNode in="blur"/>
        <feMergeNode in="SourceGraphic"/>
      </feMerge>
    </filter>
    <filter id="fineGlow" x="-30%" y="-30%" width="160%" height="160%">
      <feGaussianBlur stdDeviation="3.6784000000000003" result="blur"/>
      <feMerge>
        <feMergeNode in="blur"/>
        <feMergeNode in="SourceGraphic"/>
      </feMerge>
    </filter>
  </defs>
  
  <rect width="1672" height="941" fill="url(#bgGradient)"/>
  <rect width="1672" height="941" fill="url(#violetGlow)" opacity="0.78"/>
  <rect width="1672" height="941" fill="url(#emberGlow)" opacity="0.34"/>
  
  
  <g>
    <line x1="1039.984" y1="178.79000000000002" x2="1039.984" y2="762.21" stroke="rgba(112,150,255,0.08)" stroke-width="1.5048"/>
<line x1="1116.896" y1="178.79000000000002" x2="1116.896" y2="762.21" stroke="rgba(112,150,255,0.08)" stroke-width="1.5048"/>
<line x1="1193.808" y1="178.79000000000002" x2="1193.808" y2="762.21" stroke="rgba(112,150,255,0.08)" stroke-width="1.5048"/>
<line x1="1270.7199999999998" y1="178.79000000000002" x2="1270.7199999999998" y2="762.21" stroke="rgba(112,150,255,0.08)" stroke-width="1.5048"/>
<line x1="1347.6319999999998" y1="178.79000000000002" x2="1347.6319999999998" y2="762.21" stroke="rgba(112,150,255,0.08)" stroke-width="1.5048"/>
<line x1="1424.5439999999999" y1="178.79000000000002" x2="1424.5439999999999" y2="762.21" stroke="rgba(112,150,255,0.08)" stroke-width="1.5048"/>
    <rect x="1070.08" y="216.43" width="434.72" height="150.56" rx="20.064" fill="rgba(110,132,255,0.08)" stroke="rgba(185,205,255,0.2)" stroke-width="1.8392000000000002"/>
<rect x="1136.96" y="287.005" width="434.72" height="150.56" rx="20.064" fill="rgba(110,132,255,0.115)" stroke="rgba(185,205,255,0.23)" stroke-width="1.8392000000000002"/>
<rect x="1203.84" y="357.58000000000004" width="434.72" height="150.56" rx="20.064" fill="rgba(110,132,255,0.15000000000000002)" stroke="rgba(185,205,255,0.26)" stroke-width="1.8392000000000002"/>
<rect x="1270.72" y="428.155" width="434.72" height="150.56" rx="20.064" fill="rgba(110,132,255,0.185)" stroke="rgba(185,205,255,0.29000000000000004)" stroke-width="1.8392000000000002"/>
<rect x="1337.6" y="498.73" width="434.72" height="150.56" rx="20.064" fill="rgba(110,132,255,0.22000000000000003)" stroke="rgba(185,205,255,0.32)" stroke-width="1.8392000000000002"/>
    <path d="M 1011.56 284.182
             C 1104.8575999999998 264.6092, 1304.8288 254.07, 1496.1055999999999 243.5308
             C 1609.1327999999999 237.5084, 1700.424 246.542, 1756.9376 252.5644"
          stroke="rgba(255,242,232,0.72)" stroke-width="4.18" stroke-linecap="round" fill="none" filter="url(#softGlow)"/>
    <path d="M 836 169.38 C 702.24 169.38, 1135.288 188.20000000000002, 1638.56 184.436" stroke="rgba(255,161,97,0.42)" stroke-width="2.0063999999999997" stroke-linecap="round" fill="none" filter="url(#fineGlow)"/>
<path d="M 836 201.374 C 702.24 201.374, 1135.288 214.548, 1638.56 214.548" stroke="rgba(192,213,255,0.5)" stroke-width="2.0063999999999997" stroke-linecap="round" fill="none" filter="url(#fineGlow)"/>
<path d="M 836 233.368 C 702.24 233.368, 1135.288 240.89600000000002, 1638.56 244.66000000000003" stroke="rgba(192,213,255,0.5)" stroke-width="2.0063999999999997" stroke-linecap="round" fill="none" filter="url(#fineGlow)"/>
<path d="M 836 265.362 C 702.24 265.362, 1135.288 267.244, 1638.56 263.48" stroke="rgba(192,213,255,0.5)" stroke-width="2.0063999999999997" stroke-linecap="round" fill="none" filter="url(#fineGlow)"/>
<path d="M 836 297.356 C 702.24 297.356, 1135.288 293.592, 1638.56 293.592" stroke="rgba(255,161,97,0.42)" stroke-width="2.0063999999999997" stroke-linecap="round" fill="none" filter="url(#fineGlow)"/>
<path d="M 836 329.34999999999997 C 702.24 329.34999999999997, 1135.288 319.94, 1638.56 323.704" stroke="rgba(192,213,255,0.5)" stroke-width="2.0063999999999997" stroke-linecap="round" fill="none" filter="url(#fineGlow)"/>
<path d="M 836 361.344 C 702.24 361.344, 1135.288 346.288, 1638.56 342.524" stroke="rgba(192,213,255,0.5)" stroke-width="2.0063999999999997" stroke-linecap="round" fill="none" filter="url(#fineGlow)"/>
<path d="M 836 393.338 C 702.24 393.338, 1135.288 372.636, 1638.56 372.636" stroke="rgba(192,213,255,0.5)" stroke-width="2.0063999999999997" stroke-linecap="round" fill="none" filter="url(#fineGlow)"/>
<path d="M 836 425.332 C 702.24 425.332, 1135.288 398.98400000000004, 1638.56 402.74800000000005" stroke="rgba(255,161,97,0.42)" stroke-width="2.0063999999999997" stroke-linecap="round" fill="none" filter="url(#fineGlow)"/>
<path d="M 836 457.326 C 702.24 457.326, 1135.288 425.332, 1638.56 421.568" stroke="rgba(192,213,255,0.5)" stroke-width="2.0063999999999997" stroke-linecap="round" fill="none" filter="url(#fineGlow)"/>
<path d="M 836 489.32 C 702.24 489.32, 1135.288 451.68000000000006, 1638.56 451.68000000000006" stroke="rgba(192,213,255,0.5)" stroke-width="2.0063999999999997" stroke-linecap="round" fill="none" filter="url(#fineGlow)"/>
<path d="M 836 521.3140000000001 C 702.24 521.3140000000001, 1135.288 478.028, 1638.56 481.79200000000003" stroke="rgba(192,213,255,0.5)" stroke-width="2.0063999999999997" stroke-linecap="round" fill="none" filter="url(#fineGlow)"/>
<path d="M 836 553.3080000000001 C 702.24 553.3080000000001, 1135.288 504.37600000000003, 1638.56 500.612" stroke="rgba(255,161,97,0.42)" stroke-width="2.0063999999999997" stroke-linecap="round" fill="none" filter="url(#fineGlow)"/>
<path d="M 836 585.3020000000001 C 702.24 585.3020000000001, 1135.288 530.724, 1638.56 530.724" stroke="rgba(192,213,255,0.5)" stroke-width="2.0063999999999997" stroke-linecap="round" fill="none" filter="url(#fineGlow)"/>
<path d="M 836 617.296 C 702.24 617.296, 1135.288 557.0720000000001, 1638.56 560.8360000000001" stroke="rgba(192,213,255,0.5)" stroke-width="2.0063999999999997" stroke-linecap="round" fill="none" filter="url(#fineGlow)"/>
<path d="M 836 649.29 C 702.24 649.29, 1135.288 583.42, 1638.56 579.656" stroke="rgba(192,213,255,0.5)" stroke-width="2.0063999999999997" stroke-linecap="round" fill="none" filter="url(#fineGlow)"/>
    <g filter="url(#fineGlow)"><circle cx="1475.16" cy="611.16" r="0.60" fill="rgba(255,161,97,0.58)"/><circle cx="1215.83" cy="403.59" r="3.16" fill="rgba(112,150,255,0.54)"/><circle cx="1313.66" cy="714.18" r="3.52" fill="rgba(255,161,97,0.58)"/><circle cx="1086.31" cy="490.30" r="2.09" fill="rgba(255,161,97,0.58)"/><circle cx="1056.08" cy="297.02" r="1.80" fill="rgba(197,214,255,0.8)"/><circle cx="1137.55" cy="623.99" r="0.75" fill="rgba(112,150,255,0.54)"/><circle cx="1569.91" cy="694.25" r="2.67" fill="rgba(197,214,255,0.8)"/><circle cx="1235.40" cy="764.89" r="0.60" fill="rgba(112,150,255,0.54)"/><circle cx="1585.93" cy="525.38" r="0.60" fill="rgba(197,214,255,0.8)"/><circle cx="1212.94" cy="498.50" r="0.60" fill="rgba(112,150,255,0.54)"/><circle cx="1543.71" cy="247.49" r="2.34" fill="rgba(255,161,97,0.58)"/><circle cx="1364.55" cy="280.77" r="0.60" fill="rgba(255,161,97,0.58)"/><circle cx="1172.82" cy="194.36" r="2.64" fill="rgba(112,150,255,0.54)"/><circle cx="1057.66" cy="627.18" r="1.13" fill="rgba(112,150,255,0.54)"/><circle cx="1450.89" cy="344.26" r="3.25" fill="rgba(112,150,255,0.54)"/><circle cx="1570.09" cy="347.92" r="0.60" fill="rgba(112,150,255,0.54)"/><circle cx="1481.10" cy="330.25" r="3.41" fill="rgba(112,150,255,0.54)"/><circle cx="1533.27" cy="753.34" r="1.26" fill="rgba(197,214,255,0.8)"/><circle cx="1218.64" cy="583.81" r="3.31" fill="rgba(112,150,255,0.54)"/><circle cx="1099.57" cy="569.39" r="3.33" fill="rgba(255,161,97,0.58)"/><circle cx="1243.19" cy="325.94" r="2.64" fill="rgba(255,161,97,0.58)"/><circle cx="1573.00" cy="250.37" r="1.18" fill="rgba(255,161,97,0.58)"/><circle cx="1560.13" cy="446.72" r="2.60" fill="rgba(112,150,255,0.54)"/><circle cx="1371.65" cy="552.09" r="2.91" fill="rgba(112,150,255,0.54)"/><circle cx="1450.33" cy="252.59" r="1.64" fill="rgba(112,150,255,0.54)"/><circle cx="1401.87" cy="665.44" r="1.38" fill="rgba(197,214,255,0.8)"/><circle cx="1259.70" cy="338.16" r="0.78" fill="rgba(255,161,97,0.58)"/><circle cx="1499.60" cy="591.81" r="2.99" fill="rgba(197,214,255,0.8)"/><circle cx="1286.17" cy="640.08" r="1.80" fill="rgba(197,214,255,0.8)"/><circle cx="1457.42" cy="495.77" r="0.60" fill="rgba(197,214,255,0.8)"/><circle cx="1581.83" cy="429.31" r="3.58" fill="rgba(197,214,255,0.8)"/><circle cx="1180.96" cy="670.38" r="1.10" fill="rgba(197,214,255,0.8)"/><circle cx="1307.83" cy="463.88" r="1.32" fill="rgba(255,161,97,0.58)"/><circle cx="1052.91" cy="491.47" r="0.60" fill="rgba(112,150,255,0.54)"/><circle cx="1537.35" cy="398.98" r="1.88" fill="rgba(255,161,97,0.58)"/><circle cx="1072.44" cy="237.38" r="3.02" fill="rgba(197,214,255,0.8)"/><circle cx="1039.98" cy="587.78" r="1.08" fill="rgba(255,161,97,0.58)"/><circle cx="1191.31" cy="466.84" r="1.55" fill="rgba(112,150,255,0.54)"/><circle cx="1408.51" cy="684.89" r="2.97" fill="rgba(197,214,255,0.8)"/><circle cx="1131.95" cy="731.48" r="1.59" fill="rgba(197,214,255,0.8)"/><circle cx="1504.67" cy="475.31" r="1.92" fill="rgba(112,150,255,0.54)"/><circle cx="1165.36" cy="570.84" r="1.04" fill="rgba(197,214,255,0.8)"/><circle cx="1537.47" cy="630.14" r="3.45" fill="rgba(197,214,255,0.8)"/><circle cx="1378.54" cy="386.42" r="2.06" fill="rgba(255,161,97,0.58)"/><circle cx="1354.19" cy="530.47" r="3.22" fill="rgba(255,161,97,0.58)"/><circle cx="1528.10" cy="675.50" r="2.33" fill="rgba(197,214,255,0.8)"/><circle cx="1543.40" cy="169.67" r="2.16" fill="rgba(255,161,97,0.58)"/><circle cx="1092.71" cy="735.01" r="3.40" fill="rgba(112,150,255,0.54)"/><circle cx="1031.44" cy="297.70" r="1.64" fill="rgba(112,150,255,0.54)"/><circle cx="1355.76" cy="722.89" r="3.61" fill="rgba(255,161,97,0.58)"/><circle cx="1242.99" cy="433.08" r="1.15" fill="rgba(197,214,255,0.8)"/><circle cx="1394.59" cy="396.66" r="0.60" fill="rgba(197,214,255,0.8)"/><circle cx="1142.40" cy="449.01" r="0.60" fill="rgba(112,150,255,0.54)"/><circle cx="1389.99" cy="481.40" r="0.62" fill="rgba(197,214,255,0.8)"/><circle cx="1491.16" cy="202.07" r="1.09" fill="rgba(255,161,97,0.58)"/><circle cx="1132.20" cy="282.44" r="3.65" fill="rgba(255,161,97,0.58)"/><circle cx="1118.15" cy="443.51" r="1.16" fill="rgba(255,161,97,0.58)"/><circle cx="1231.55" cy="207.88" r="1.25" fill="rgba(255,161,97,0.58)"/><circle cx="1295.67" cy="435.09" r="1.35" fill="rgba(197,214,255,0.8)"/><circle cx="1092.64" cy="273.51" r="1.86" fill="rgba(112,150,255,0.54)"/><circle cx="1456.66" cy="462.80" r="0.60" fill="rgba(197,214,255,0.8)"/><circle cx="1199.33" cy="502.91" r="2.68" fill="rgba(112,150,255,0.54)"/><circle cx="1365.62" cy="441.61" r="2.24" fill="rgba(112,150,255,0.54)"/><circle cx="1578.02" cy="328.51" r="0.60" fill="rgba(197,214,255,0.8)"/><circle cx="1029.40" cy="283.82" r="1.81" fill="rgba(112,150,255,0.54)"/><circle cx="1506.60" cy="552.99" r="3.01" fill="rgba(112,150,255,0.54)"/><circle cx="1561.77" cy="633.59" r="1.38" fill="rgba(255,161,97,0.58)"/><circle cx="1465.56" cy="604.69" r="2.39" fill="rgba(112,150,255,0.54)"/><circle cx="1212.69" cy="644.38" r="2.02" fill="rgba(255,161,97,0.58)"/><circle cx="1473.87" cy="486.28" r="0.84" fill="rgba(112,150,255,0.54)"/><circle cx="1491.16" cy="529.89" r="3.44" fill="rgba(112,150,255,0.54)"/><circle cx="1510.28" cy="525.00" r="2.70" fill="rgba(112,150,255,0.54)"/><circle cx="1194.43" cy="742.54" r="2.12" fill="rgba(255,161,97,0.58)"/><circle cx="1421.80" cy="631.77" r="0.61" fill="rgba(112,150,255,0.54)"/><circle cx="1210.56" cy="384.13" r="0.87" fill="rgba(255,161,97,0.58)"/><circle cx="1528.81" cy="698.02" r="0.60" fill="rgba(197,214,255,0.8)"/><circle cx="1253.18" cy="306.88" r="3.37" fill="rgba(255,161,97,0.58)"/><circle cx="1323.60" cy="729.93" r="2.13" fill="rgba(255,161,97,0.58)"/><circle cx="1443.10" cy="537.74" r="0.60" fill="rgba(197,214,255,0.8)"/><circle cx="1417.43" cy="670.71" r="0.60" fill="rgba(112,150,255,0.54)"/><circle cx="1211.55" cy="632.26" r="3.21" fill="rgba(255,161,97,0.58)"/><circle cx="1120.80" cy="683.66" r="0.60" fill="rgba(255,161,97,0.58)"/><circle cx="1546.42" cy="729.31" r="3.30" fill="rgba(197,214,255,0.8)"/><circle cx="1424.93" cy="715.91" r="2.55" fill="rgba(255,161,97,0.58)"/><circle cx="1374.13" cy="616.45" r="2.08" fill="rgba(255,161,97,0.58)"/><circle cx="1583.07" cy="525.27" r="0.60" fill="rgba(197,214,255,0.8)"/><circle cx="1399.82" cy="361.17" r="3.67" fill="rgba(112,150,255,0.54)"/><circle cx="1176.54" cy="704.73" r="1.32" fill="rgba(197,214,255,0.8)"/><circle cx="1462.26" cy="522.17" r="3.11" fill="rgba(255,161,97,0.58)"/><circle cx="1275.22" cy="228.48" r="0.60" fill="rgba(112,150,255,0.54)"/><circle cx="1505.47" cy="221.83" r="3.19" fill="rgba(255,161,97,0.58)"/><circle cx="1457.41" cy="472.57" r="3.58" fill="rgba(112,150,255,0.54)"/><circle cx="1343.86" cy="392.18" r="2.92" fill="rgba(255,161,97,0.58)"/><circle cx="1425.85" cy="731.57" r="3.43" fill="rgba(112,150,255,0.54)"/><circle cx="1216.92" cy="311.11" r="1.67" fill="rgba(255,161,97,0.58)"/><circle cx="1076.71" cy="597.62" r="1.83" fill="rgba(255,161,97,0.58)"/><circle cx="1462.54" cy="625.71" r="3.55" fill="rgba(255,161,97,0.58)"/><circle cx="1540.07" cy="221.16" r="0.60" fill="rgba(255,161,97,0.58)"/><circle cx="1316.23" cy="735.57" r="0.93" fill="rgba(197,214,255,0.8)"/><circle cx="1103.12" cy="737.63" r="2.62" fill="rgba(255,161,97,0.58)"/><circle cx="1074.90" cy="620.84" r="0.60" fill="rgba(112,150,255,0.54)"/><circle cx="1359.08" cy="352.50" r="1.84" fill="rgba(255,161,97,0.58)"/><circle cx="1503.78" cy="357.86" r="0.94" fill="rgba(255,161,97,0.58)"/><circle cx="1320.87" cy="216.47" r="1.93" fill="rgba(197,214,255,0.8)"/><circle cx="1397.21" cy="445.30" r="1.65" fill="rgba(112,150,255,0.54)"/><circle cx="1070.05" cy="321.88" r="3.34" fill="rgba(197,214,255,0.8)"/><circle cx="1263.18" cy="627.53" r="1.20" fill="rgba(112,150,255,0.54)"/><circle cx="1191.74" cy="181.29" r="0.60" fill="rgba(255,161,97,0.58)"/><circle cx="1182.51" cy="262.74" r="0.60" fill="rgba(112,150,255,0.54)"/><circle cx="1453.88" cy="506.63" r="0.61" fill="rgba(197,214,255,0.8)"/><circle cx="1439.26" cy="365.49" r="2.83" fill="rgba(255,161,97,0.58)"/><circle cx="1126.42" cy="380.95" r="3.08" fill="rgba(255,161,97,0.58)"/><circle cx="1518.61" cy="405.66" r="2.78" fill="rgba(197,214,255,0.8)"/><circle cx="1429.41" cy="538.42" r="2.12" fill="rgba(197,214,255,0.8)"/><circle cx="1560.47" cy="734.65" r="1.50" fill="rgba(255,161,97,0.58)"/><circle cx="1482.36" cy="211.30" r="0.60" fill="rgba(112,150,255,0.54)"/><circle cx="1298.55" cy="384.21" r="1.73" fill="rgba(255,161,97,0.58)"/><circle cx="1426.61" cy="446.83" r="3.34" fill="rgba(255,161,97,0.58)"/><circle cx="1338.72" cy="718.05" r="1.75" fill="rgba(197,214,255,0.8)"/><circle cx="1282.59" cy="630.69" r="0.74" fill="rgba(255,161,97,0.58)"/><circle cx="1579.65" cy="328.10" r="0.60" fill="rgba(112,150,255,0.54)"/><circle cx="1132.05" cy="273.21" r="1.66" fill="rgba(112,150,255,0.54)"/><circle cx="1405.00" cy="674.47" r="0.60" fill="rgba(197,214,255,0.8)"/><circle cx="1422.37" cy="679.74" r="1.22" fill="rgba(197,214,255,0.8)"/><circle cx="1509.41" cy="193.08" r="3.43" fill="rgba(112,150,255,0.54)"/><circle cx="1498.98" cy="254.18" r="1.29" fill="rgba(112,150,255,0.54)"/><circle cx="1256.06" cy="296.82" r="1.83" fill="rgba(112,150,255,0.54)"/><circle cx="1346.56" cy="213.38" r="2.25" fill="rgba(197,214,255,0.8)"/><circle cx="1340.93" cy="700.43" r="3.41" fill="rgba(255,161,97,0.58)"/><circle cx="1527.87" cy="344.83" r="0.60" fill="rgba(112,150,255,0.54)"/><circle cx="1356.11" cy="718.57" r="3.02" fill="rgba(112,150,255,0.54)"/><circle cx="1385.34" cy="387.63" r="1.52" fill="rgba(255,161,97,0.58)"/><circle cx="1259.24" cy="464.79" r="0.60" fill="rgba(112,150,255,0.54)"/><circle cx="1225.29" cy="526.40" r="2.24" fill="rgba(255,161,97,0.58)"/><circle cx="1308.77" cy="204.86" r="0.60" fill="rgba(255,161,97,0.58)"/><circle cx="1374.18" cy="319.94" r="2.02" fill="rgba(112,150,255,0.54)"/><circle cx="1318.86" cy="664.88" r="2.56" fill="rgba(112,150,255,0.54)"/><circle cx="1223.99" cy="570.48" r="1.49" fill="rgba(112,150,255,0.54)"/><circle cx="1556.83" cy="617.16" r="0.60" fill="rgba(197,214,255,0.8)"/><circle cx="1090.39" cy="685.34" r="3.13" fill="rgba(112,150,255,0.54)"/></g>
  </g>
  
</svg>