<?xml version="1.0" encoding="UTF-8"?>
<svg xmlns="http://www.w3.org/2000/svg" width="1254" height="1254" viewBox="0 0 1254 1254" fill="none">
  <defs>
    <linearGradient id="bgGradient" x1="0" y1="0" x2="1254" y2="1254">
      <stop offset="0%" stop-color="#F3F1FF"/>
      <stop offset="42%" stop-color="#ECE8FF"/>
      <stop offset="100%" stop-color="#E6E1FF"/>
    </linearGradient>
    <radialGradient id="violetGlow" cx="0" cy="0" r="1" gradientUnits="userSpaceOnUse" gradientTransform="translate(100.32000000000001 100.32000000000001) rotate(40) scale(564.3000000000001 652.08)">
      <stop offset="0%" stop-color="#4736FE" stop-opacity="0.9"/>
      <stop offset="100%" stop-color="#4736FE" stop-opacity="0"/>
    </radialGradient>
    <radialGradient id="emberGlow" cx="0" cy="0" r="1" gradientUnits="userSpaceOnUse" gradientTransform="translate(1053.36 777.48) rotate(210) scale(351.12000000000006 476.52)">
      <stop offset="0%" stop-color="#EF4523" stop-opacity="0.65"/>
      <stop offset="100%" stop-color="#EF4523" stop-opacity="0"/>
    </radialGradient>
    <filter id="softGlow" x="-40%" y="-40%" width="180%" height="180%">
      <feGaussianBlur stdDeviation="10.032" result="blur"/>
      <feMerge>
        <feMergeNode in="blur"/>
        <feMergeNode in="SourceGraphic"/>
      </feMerge>
    </filter>
    <filter id="fineGlow" x="-30%" y="-30%" width="160%" height="160%">
      <feGaussianBlur stdDeviation="3" result="blur"/>
      <feMerge>
        <feMergeNode in="blur"/>
        <feMergeNode in="SourceGraphic"/>
      </feMerge>
    </filter>
  </defs>
  
  <rect width="1254" height="1254" fill="url(#bgGradient)"/>
  <rect width="1254" height="1254" fill="url(#violetGlow)" opacity="0.04"/>
  <ellipse cx="978.12" cy="351.12000000000006" rx="275.88" ry="275.88" fill="rgba(71,54,254,0.05)"/>
  <ellipse cx="225.72" cy="1028.28" rx="225.72" ry="225.72" fill="rgba(239,69,35,0.035)"/>
  <g><line x1="62.7" y1="125.4" x2="62.7" y2="1128.6000000000001" stroke="rgba(71,54,254,0.05)" stroke-width="1.0032"/>
<line x1="175.56" y1="125.4" x2="175.56" y2="1128.6000000000001" stroke="rgba(71,54,254,0.05)" stroke-width="1.0032"/>
<line x1="288.42" y1="125.4" x2="288.42" y2="1128.6000000000001" stroke="rgba(71,54,254,0.05)" stroke-width="1.0032"/>
<line x1="401.28000000000003" y1="125.4" x2="401.28000000000003" y2="1128.6000000000001" stroke="rgba(71,54,254,0.05)" stroke-width="1.0032"/>
<line x1="514.1400000000001" y1="125.4" x2="514.1400000000001" y2="1128.6000000000001" stroke="rgba(71,54,254,0.05)" stroke-width="1.0032"/>
<line x1="627.0000000000001" y1="125.4" x2="627.0000000000001" y2="1128.6000000000001" stroke="rgba(71,54,254,0.05)" stroke-width="1.0032"/>
<line x1="739.8600000000001" y1="125.4" x2="739.8600000000001" y2="1128.6000000000001" stroke="rgba(71,54,254,0.05)" stroke-width="1.0032"/>
<line x1="852.7200000000001" y1="125.4" x2="852.7200000000001" y2="1128.6000000000001" stroke="rgba(71,54,254,0.05)" stroke-width="1.0032"/>
<line x1="965.5800000000002" y1="125.4" x2="965.5800000000002" y2="1128.6000000000001" stroke="rgba(71,54,254,0.05)" stroke-width="1.0032"/>
<line x1="1078.44" y1="125.4" x2="1078.44" y2="1128.6000000000001" stroke="rgba(71,54,254,0.05)" stroke-width="1.0032"/>
<line x1="1191.3000000000002" y1="125.4" x2="1191.3000000000002" y2="1128.6000000000001" stroke="rgba(71,54,254,0.05)" stroke-width="1.0032"/>
<line x1="62.7" y1="125.4" x2="1191.3" y2="125.4" stroke="rgba(71,54,254,0.05)" stroke-width="1.0032"/>
<line x1="62.7" y1="268.7142857142857" x2="1191.3" y2="268.7142857142857" stroke="rgba(71,54,254,0.05)" stroke-width="1.0032"/>
<line x1="62.7" y1="412.02857142857147" x2="1191.3" y2="412.02857142857147" stroke="rgba(71,54,254,0.05)" stroke-width="1.0032"/>
<line x1="62.7" y1="555.3428571428572" x2="1191.3" y2="555.3428571428572" stroke="rgba(71,54,254,0.05)" stroke-width="1.0032"/>
<line x1="62.7" y1="698.6571428571428" x2="1191.3" y2="698.6571428571428" stroke="rgba(71,54,254,0.05)" stroke-width="1.0032"/>
<line x1="62.7" y1="841.9714285714285" x2="1191.3" y2="841.9714285714285" stroke="rgba(71,54,254,0.05)" stroke-width="1.0032"/>
<line x1="62.7" y1="985.2857142857143" x2="1191.3" y2="985.2857142857143" stroke="rgba(71,54,254,0.05)" stroke-width="1.0032"/>
<line x1="62.7" y1="1128.6000000000001" x2="1191.3" y2="1128.6000000000001" stroke="rgba(71,54,254,0.05)" stroke-width="1.0032"/></g>
  <rect x="90.288" y="106.59" width="137.94" height="11.286" rx="2.508" fill="rgba(71,54,254,0.9)"/>
  <rect x="1053.36" y="1109.79" width="100.32000000000001" height="11.286" rx="2.508" fill="rgba(239,69,35,0.82)"/>
  
  
  <g>
    <path d="M 672.8964 326.04 C 746.757 310.992, 836.1672 341.088, 1092.7356 326.04"
      stroke="rgba(239,69,35,0.32)"
      stroke-width="1.6929" fill="none" stroke-linecap="round"/>
<path d="M 672.8964 407.55 C 746.757 392.502, 836.1672 422.598, 1092.7356 407.55"
      stroke="rgba(71,54,254,0.28)"
      stroke-width="1.6929" fill="none" stroke-linecap="round"/>
<path d="M 672.8964 489.06 C 746.757 474.012, 836.1672 504.108, 1092.7356 489.06"
      stroke="rgba(71,54,254,0.28)"
      stroke-width="1.6929" fill="none" stroke-linecap="round"/>
<path d="M 672.8964 570.5699999999999 C 746.757 555.5219999999999, 836.1672 585.6179999999999, 1092.7356 570.5699999999999"
      stroke="rgba(239,69,35,0.32)"
      stroke-width="1.6929" fill="none" stroke-linecap="round"/>
<path d="M 672.8964 652.0799999999999 C 746.757 637.0319999999999, 836.1672 667.1279999999999, 1092.7356 652.0799999999999"
      stroke="rgba(71,54,254,0.28)"
      stroke-width="1.6929" fill="none" stroke-linecap="round"/>
<path d="M 672.8964 733.5899999999999 C 746.757 718.5419999999999, 836.1672 748.6379999999999, 1092.7356 733.5899999999999"
      stroke="rgba(71,54,254,0.28)"
      stroke-width="1.6929" fill="none" stroke-linecap="round"/>
    
      <rect x="735.0948" y="300.96" width="171.0456" height="137.94"
            rx="15.048"
            fill="rgba(255,255,255,0.56)"
            stroke="rgba(71,54,254,0.16)"
            stroke-width="1.3794000000000002"/>
    

      <rect x="859.4916" y="376.2" width="178.8204" height="137.94"
            rx="15.048"
            fill="rgba(255,255,255,0.66)"
            stroke="rgba(71,54,254,0.16)"
            stroke-width="1.3794000000000002"/>
    

      <rect x="766.194" y="539.22" width="163.2708" height="150.48"
            rx="15.048"
            fill="rgba(255,255,255,0.74)"
            stroke="rgba(71,54,254,0.16)"
            stroke-width="1.3794000000000002"/>
    

      <rect x="913.9151999999999" y="589.38" width="147.7212" height="112.86"
            rx="15.048"
            fill="rgba(255,255,255,0.82)"
            stroke="rgba(71,54,254,0.16)"
            stroke-width="1.3794000000000002"/>
    

      <rect x="836.1672" y="727.3199999999999" width="186.5952" height="112.86"
            rx="15.048"
            fill="rgba(255,255,255,0.9)"
            stroke="rgba(71,54,254,0.16)"
            stroke-width="1.3794000000000002"/>
    
    <rect x="742.8696" y="282.15" width="46.6488" height="28.215" rx="7.524" fill="rgba(71,54,254,0.1)"/>
<rect x="851.7167999999999" y="282.15" width="46.6488" height="28.215" rx="7.524" fill="rgba(239,69,35,0.1)"/>
<rect x="960.564" y="282.15" width="46.6488" height="28.215" rx="7.524" fill="rgba(71,54,254,0.1)"/>
<rect x="742.8696" y="495.33000000000004" width="46.6488" height="28.215" rx="7.524" fill="rgba(239,69,35,0.1)"/>
<rect x="851.7167999999999" y="495.33000000000004" width="46.6488" height="28.215" rx="7.524" fill="rgba(71,54,254,0.1)"/>
    <path d="M 820.6175999999999 369.93 L 948.9017999999999 445.17" stroke="rgba(71,54,254,0.18)" stroke-width="1.5048" stroke-dasharray="6 8" fill="none"/>
<circle cx="820.6175999999999" cy="369.93" r="3.5112" fill="rgba(239,69,35,0.86)"/>
<path d="M 948.9017999999999 445.17 L 847.8294 614.46" stroke="rgba(71,54,254,0.18)" stroke-width="1.5048" stroke-dasharray="6 8" fill="none"/>
<circle cx="948.9017999999999" cy="445.17" r="3.5112" fill="rgba(71,54,254,0.86)"/>
<path d="M 847.8294 614.46 L 987.7757999999999 645.81" stroke="rgba(71,54,254,0.18)" stroke-width="1.5048" stroke-dasharray="6 8" fill="none"/>
<circle cx="847.8294" cy="614.46" r="3.5112" fill="rgba(239,69,35,0.86)"/>
<path d="M 987.7757999999999 645.81 L 906.1404 783.75" stroke="rgba(71,54,254,0.18)" stroke-width="1.5048" stroke-dasharray="6 8" fill="none"/>
<circle cx="987.7757999999999" cy="645.81" r="3.5112" fill="rgba(71,54,254,0.86)"/>
<circle cx="906.1404" cy="783.75" r="3.5112" fill="rgba(71,54,254,0.86)"/>
    <g filter="url(#fineGlow)"><circle cx="814.13" cy="676.36" r="2.66" fill="rgba(71,54,254,0.12)"/><circle cx="846.45" cy="706.97" r="1.22" fill="rgba(71,54,254,0.12)"/><circle cx="792.99" cy="547.24" r="1.24" fill="rgba(71,54,254,0.12)"/><circle cx="1026.94" cy="744.31" r="2.42" fill="rgba(71,54,254,0.12)"/><circle cx="811.22" cy="747.55" r="1.35" fill="rgba(71,54,254,0.12)"/><circle cx="1081.03" cy="353.83" r="0.94" fill="rgba(71,54,254,0.22)"/><circle cx="832.40" cy="300.38" r="1.38" fill="rgba(71,54,254,0.22)"/><circle cx="885.81" cy="559.24" r="0.60" fill="rgba(71,54,254,0.12)"/><circle cx="889.32" cy="748.54" r="1.10" fill="rgba(71,54,254,0.12)"/><circle cx="864.09" cy="542.87" r="1.76" fill="rgba(71,54,254,0.12)"/><circle cx="1104.19" cy="425.52" r="0.60" fill="rgba(71,54,254,0.12)"/><circle cx="899.14" cy="795.73" r="2.36" fill="rgba(71,54,254,0.22)"/><circle cx="911.77" cy="293.81" r="1.91" fill="rgba(239,69,35,0.22)"/><circle cx="737.19" cy="596.32" r="1.48" fill="rgba(71,54,254,0.22)"/><circle cx="764.09" cy="579.35" r="1.08" fill="rgba(71,54,254,0.12)"/><circle cx="897.69" cy="711.75" r="1.66" fill="rgba(239,69,35,0.22)"/><circle cx="839.81" cy="680.10" r="0.77" fill="rgba(71,54,254,0.12)"/><circle cx="1107.66" cy="666.49" r="1.63" fill="rgba(239,69,35,0.22)"/><circle cx="874.64" cy="629.30" r="2.59" fill="rgba(71,54,254,0.22)"/><circle cx="847.79" cy="476.58" r="0.60" fill="rgba(239,69,35,0.22)"/><circle cx="698.67" cy="782.56" r="1.13" fill="rgba(71,54,254,0.22)"/><circle cx="930.72" cy="379.21" r="2.09" fill="rgba(71,54,254,0.12)"/><circle cx="1094.88" cy="479.88" r="0.92" fill="rgba(71,54,254,0.12)"/><circle cx="963.48" cy="776.89" r="2.06" fill="rgba(239,69,35,0.22)"/><circle cx="698.56" cy="401.12" r="1.20" fill="rgba(71,54,254,0.12)"/><circle cx="978.15" cy="732.43" r="1.54" fill="rgba(71,54,254,0.22)"/><circle cx="727.63" cy="416.44" r="2.31" fill="rgba(71,54,254,0.22)"/><circle cx="819.14" cy="645.81" r="0.91" fill="rgba(71,54,254,0.22)"/><circle cx="753.66" cy="558.70" r="0.60" fill="rgba(71,54,254,0.12)"/><circle cx="899.14" cy="451.63" r="0.63" fill="rgba(239,69,35,0.22)"/><circle cx="782.44" cy="334.26" r="2.29" fill="rgba(71,54,254,0.12)"/><circle cx="726.18" cy="486.12" r="0.74" fill="rgba(71,54,254,0.12)"/></g>
  </g>
  
  <g>
    <text x="92.79599999999999" y="150.48" fill="rgba(71,54,254,0.72)" font-size="21.669120000000003" font-family="Geist, 'Helvetica Neue', Arial, sans-serif" font-weight="700" letter-spacing="0.12em">ORG DESIGN / AI</text>
    <text x="92.79599999999999" y="238.26" fill="#4736FE" font-size="105.33600000000001" font-family="Geist, 'Helvetica Neue', Arial, sans-serif" font-weight="500" letter-spacing="-0.06em">AI-Native</text>
<text x="92.79599999999999" y="373.692" fill="#4736FE" font-size="105.33600000000001" font-family="Geist, 'Helvetica Neue', Arial, sans-serif" font-weight="300" letter-spacing="-0.06em">is not</text>
<text x="92.79599999999999" y="509.12399999999997" fill="#6F5BFF" font-size="105.33600000000001" font-family="Geist, 'Helvetica Neue', Arial, sans-serif" font-weight="700" letter-spacing="-0.05em">AI-First.</text>
    <text x="92.79599999999999" y="685.1855999999999" fill="#4736FE" opacity="0.96" font-size="40.128" font-family="Geist, 'Helvetica Neue', Arial, sans-serif" font-weight="700" letter-spacing="-0.02em">The org design is the AI strategy.</text>
    <text x="92.79599999999999" y="790.5215999999999" fill="#161616" opacity="0.76" font-size="27.587999999999997" font-family="Geist, 'Helvetica Neue', Arial, sans-serif" font-weight="500">
      <tspan x="92.79599999999999" dy="0">What changes when the cost of carrying context collapses.</tspan>
    </text>
  </g>
</svg>