<?xml version="1.0" encoding="UTF-8"?>
<svg xmlns="http://www.w3.org/2000/svg" width="1254" height="1254" viewBox="0 0 1254 1254" fill="none">
  <defs>
    <linearGradient id="bgGradient" x1="0" y1="0" x2="1254" y2="1254">
      <stop offset="0%" stop-color="#F3F1FF"/>
      <stop offset="42%" stop-color="#ECE8FF"/>
      <stop offset="100%" stop-color="#E6E1FF"/>
    </linearGradient>
    <radialGradient id="violetGlow" cx="0" cy="0" r="1" gradientUnits="userSpaceOnUse" gradientTransform="translate(100.32000000000001 100.32000000000001) rotate(40) scale(564.3000000000001 652.08)">
      <stop offset="0%" stop-color="#4736FE" stop-opacity="0.9"/>
      <stop offset="100%" stop-color="#4736FE" stop-opacity="0"/>
    </radialGradient>
    <radialGradient id="emberGlow" cx="0" cy="0" r="1" gradientUnits="userSpaceOnUse" gradientTransform="translate(1053.36 777.48) rotate(210) scale(351.12000000000006 476.52)">
      <stop offset="0%" stop-color="#EF4523" stop-opacity="0.65"/>
      <stop offset="100%" stop-color="#EF4523" stop-opacity="0"/>
    </radialGradient>
    <filter id="softGlow" x="-40%" y="-40%" width="180%" height="180%">
      <feGaussianBlur stdDeviation="10.032" result="blur"/>
      <feMerge>
        <feMergeNode in="blur"/>
        <feMergeNode in="SourceGraphic"/>
      </feMerge>
    </filter>
    <filter id="fineGlow" x="-30%" y="-30%" width="160%" height="160%">
      <feGaussianBlur stdDeviation="3" result="blur"/>
      <feMerge>
        <feMergeNode in="blur"/>
        <feMergeNode in="SourceGraphic"/>
      </feMerge>
    </filter>
  </defs>
  
  <rect width="1254" height="1254" fill="url(#bgGradient)"/>
  <rect width="1254" height="1254" fill="url(#violetGlow)" opacity="0.04"/>
  <ellipse cx="978.12" cy="351.12000000000006" rx="275.88" ry="275.88" fill="rgba(71,54,254,0.05)"/>
  <ellipse cx="225.72" cy="1028.28" rx="225.72" ry="225.72" fill="rgba(239,69,35,0.035)"/>
  <g><line x1="62.7" y1="125.4" x2="62.7" y2="1128.6000000000001" stroke="rgba(71,54,254,0.05)" stroke-width="1.0032"/>
<line x1="175.56" y1="125.4" x2="175.56" y2="1128.6000000000001" stroke="rgba(71,54,254,0.05)" stroke-width="1.0032"/>
<line x1="288.42" y1="125.4" x2="288.42" y2="1128.6000000000001" stroke="rgba(71,54,254,0.05)" stroke-width="1.0032"/>
<line x1="401.28000000000003" y1="125.4" x2="401.28000000000003" y2="1128.6000000000001" stroke="rgba(71,54,254,0.05)" stroke-width="1.0032"/>
<line x1="514.1400000000001" y1="125.4" x2="514.1400000000001" y2="1128.6000000000001" stroke="rgba(71,54,254,0.05)" stroke-width="1.0032"/>
<line x1="627.0000000000001" y1="125.4" x2="627.0000000000001" y2="1128.6000000000001" stroke="rgba(71,54,254,0.05)" stroke-width="1.0032"/>
<line x1="739.8600000000001" y1="125.4" x2="739.8600000000001" y2="1128.6000000000001" stroke="rgba(71,54,254,0.05)" stroke-width="1.0032"/>
<line x1="852.7200000000001" y1="125.4" x2="852.7200000000001" y2="1128.6000000000001" stroke="rgba(71,54,254,0.05)" stroke-width="1.0032"/>
<line x1="965.5800000000002" y1="125.4" x2="965.5800000000002" y2="1128.6000000000001" stroke="rgba(71,54,254,0.05)" stroke-width="1.0032"/>
<line x1="1078.44" y1="125.4" x2="1078.44" y2="1128.6000000000001" stroke="rgba(71,54,254,0.05)" stroke-width="1.0032"/>
<line x1="1191.3000000000002" y1="125.4" x2="1191.3000000000002" y2="1128.6000000000001" stroke="rgba(71,54,254,0.05)" stroke-width="1.0032"/>
<line x1="62.7" y1="125.4" x2="1191.3" y2="125.4" stroke="rgba(71,54,254,0.05)" stroke-width="1.0032"/>
<line x1="62.7" y1="268.7142857142857" x2="1191.3" y2="268.7142857142857" stroke="rgba(71,54,254,0.05)" stroke-width="1.0032"/>
<line x1="62.7" y1="412.02857142857147" x2="1191.3" y2="412.02857142857147" stroke="rgba(71,54,254,0.05)" stroke-width="1.0032"/>
<line x1="62.7" y1="555.3428571428572" x2="1191.3" y2="555.3428571428572" stroke="rgba(71,54,254,0.05)" stroke-width="1.0032"/>
<line x1="62.7" y1="698.6571428571428" x2="1191.3" y2="698.6571428571428" stroke="rgba(71,54,254,0.05)" stroke-width="1.0032"/>
<line x1="62.7" y1="841.9714285714285" x2="1191.3" y2="841.9714285714285" stroke="rgba(71,54,254,0.05)" stroke-width="1.0032"/>
<line x1="62.7" y1="985.2857142857143" x2="1191.3" y2="985.2857142857143" stroke="rgba(71,54,254,0.05)" stroke-width="1.0032"/>
<line x1="62.7" y1="1128.6000000000001" x2="1191.3" y2="1128.6000000000001" stroke="rgba(71,54,254,0.05)" stroke-width="1.0032"/></g>
  <rect x="90.288" y="106.59" width="137.94" height="11.286" rx="2.508" fill="rgba(71,54,254,0.9)"/>
  <rect x="1053.36" y="1109.79" width="100.32000000000001" height="11.286" rx="2.508" fill="rgba(239,69,35,0.82)"/>
  
  
  <g>
    
    <rect x="125.4" y="175.56000000000003" width="1003.2" height="877.8" rx="20" fill="rgba(255,255,255,0.28)" stroke="rgba(71,54,254,0.09)" stroke-width="1.254"/>
    <ellipse cx="988.152" cy="316.00800000000004" rx="220.704" ry="219.45" fill="rgba(71,54,254,0.05)"/>
    <ellipse cx="205.656" cy="965.58" rx="200.64000000000001" ry="193.11599999999999" fill="rgba(239,69,35,0.04)"/>
    <line x1="125.4" y1="175.56000000000003" x2="125.4" y2="1053.36" stroke="rgba(71,54,254,0.06)" stroke-width="1.1286"/>
<line x1="292.6" y1="175.56000000000003" x2="292.6" y2="1053.36" stroke="rgba(71,54,254,0.06)" stroke-width="1.1286"/>
<line x1="459.80000000000007" y1="175.56000000000003" x2="459.80000000000007" y2="1053.36" stroke="rgba(71,54,254,0.06)" stroke-width="1.1286"/>
<line x1="627.0000000000001" y1="175.56000000000003" x2="627.0000000000001" y2="1053.36" stroke="rgba(71,54,254,0.06)" stroke-width="1.1286"/>
<line x1="794.2" y1="175.56000000000003" x2="794.2" y2="1053.36" stroke="rgba(71,54,254,0.06)" stroke-width="1.1286"/>
<line x1="961.4" y1="175.56000000000003" x2="961.4" y2="1053.36" stroke="rgba(71,54,254,0.06)" stroke-width="1.1286"/>
<line x1="1128.6000000000001" y1="175.56000000000003" x2="1128.6000000000001" y2="1053.36" stroke="rgba(71,54,254,0.06)" stroke-width="1.1286"/>
<line x1="125.4" y1="175.56000000000003" x2="1128.6000000000001" y2="175.56000000000003" stroke="rgba(71,54,254,0.07)" stroke-width="1.1286"/>
<line x1="125.4" y1="351.12" x2="1128.6000000000001" y2="351.12" stroke="rgba(71,54,254,0.07)" stroke-width="1.1286"/>
<line x1="125.4" y1="526.6800000000001" x2="1128.6000000000001" y2="526.6800000000001" stroke="rgba(71,54,254,0.07)" stroke-width="1.1286"/>
<line x1="125.4" y1="702.24" x2="1128.6000000000001" y2="702.24" stroke="rgba(71,54,254,0.07)" stroke-width="1.1286"/>
<line x1="125.4" y1="877.8000000000001" x2="1128.6000000000001" y2="877.8000000000001" stroke="rgba(71,54,254,0.07)" stroke-width="1.1286"/>
<line x1="125.4" y1="1053.36" x2="1128.6000000000001" y2="1053.36" stroke="rgba(71,54,254,0.07)" stroke-width="1.1286"/>
    <line x1="627" y1="263.34000000000003" x2="627" y2="912.912" stroke="rgba(71,54,254,0.24)" stroke-width="2.6"/>
  
    
    <g>
      <rect x="165.52800000000002" y="245.78400000000005" width="240.768" height="122.89200000000001" rx="12" fill="rgba(255,255,255,0.94)" stroke="rgba(71,54,254,0.16)" stroke-width="1"/>
      <rect x="184.78944" y="267.90456000000006" width="57.78432" height="14.74704" rx="6.1446000000000005" fill="rgba(71,54,254,0.14)"/>
      <rect x="184.78944" y="297.39864000000006" width="125.19936" height="12.289200000000001" rx="6.1446000000000005" fill="rgba(22,22,22,0.08)"/>
      <rect x="184.78944" y="321.97704000000004" width="96.30720000000001" height="9.831360000000002" rx="6.1446000000000005" fill="rgba(22,22,22,0.05)"/>
    </g>
  
    <g>
      <rect x="165.52800000000002" y="421.34400000000005" width="240.768" height="122.89200000000001" rx="12" fill="rgba(255,255,255,0.94)" stroke="rgba(71,54,254,0.16)" stroke-width="1"/>
      <rect x="184.78944" y="443.46456000000006" width="57.78432" height="14.74704" rx="6.1446000000000005" fill="rgba(239,69,35,0.14)"/>
      <rect x="184.78944" y="472.95864000000006" width="125.19936" height="12.289200000000001" rx="6.1446000000000005" fill="rgba(22,22,22,0.08)"/>
      <rect x="184.78944" y="497.53704000000005" width="96.30720000000001" height="9.831360000000002" rx="6.1446000000000005" fill="rgba(22,22,22,0.05)"/>
    </g>
  
    <g>
      <rect x="165.52800000000002" y="596.904" width="240.768" height="122.89200000000001" rx="12" fill="rgba(255,255,255,0.94)" stroke="rgba(71,54,254,0.16)" stroke-width="1"/>
      <rect x="184.78944" y="619.02456" width="57.78432" height="14.74704" rx="6.1446000000000005" fill="rgba(71,54,254,0.14)"/>
      <rect x="184.78944" y="648.51864" width="125.19936" height="12.289200000000001" rx="6.1446000000000005" fill="rgba(22,22,22,0.08)"/>
      <rect x="184.78944" y="673.09704" width="96.30720000000001" height="9.831360000000002" rx="6.1446000000000005" fill="rgba(22,22,22,0.05)"/>
    </g>
  
    <g>
      <rect x="165.52800000000002" y="772.464" width="240.768" height="122.89200000000001" rx="12" fill="rgba(255,255,255,0.94)" stroke="rgba(71,54,254,0.16)" stroke-width="1"/>
      <rect x="184.78944" y="794.58456" width="57.78432" height="14.74704" rx="6.1446000000000005" fill="rgba(239,69,35,0.14)"/>
      <rect x="184.78944" y="824.0786400000001" width="125.19936" height="12.289200000000001" rx="6.1446000000000005" fill="rgba(22,22,22,0.08)"/>
      <rect x="184.78944" y="848.65704" width="96.30720000000001" height="9.831360000000002" rx="6.1446000000000005" fill="rgba(22,22,22,0.05)"/>
    </g>
  
    
    <g>
      <rect x="807.576" y="298.45200000000006" width="240.768" height="140.448" rx="12" fill="rgba(255,255,255,0.94)" stroke="rgba(71,54,254,0.16)" stroke-width="1"/>
      <rect x="826.83744" y="323.73264000000006" width="57.78432" height="16.85376" rx="7.022400000000001" fill="rgba(71,54,254,0.14)"/>
      <rect x="826.83744" y="357.44016000000005" width="125.19936" height="14.044800000000002" rx="7.022400000000001" fill="rgba(22,22,22,0.08)"/>
      <rect x="826.83744" y="385.52976000000007" width="96.30720000000001" height="11.235840000000001" rx="7.022400000000001" fill="rgba(22,22,22,0.05)"/>
    </g>
  
    <g>
      <rect x="807.576" y="544.236" width="240.768" height="140.448" rx="12" fill="rgba(255,255,255,0.94)" stroke="rgba(71,54,254,0.16)" stroke-width="1"/>
      <rect x="826.83744" y="569.5166399999999" width="57.78432" height="16.85376" rx="7.022400000000001" fill="rgba(239,69,35,0.14)"/>
      <rect x="826.83744" y="603.22416" width="125.19936" height="14.044800000000002" rx="7.022400000000001" fill="rgba(22,22,22,0.08)"/>
      <rect x="826.83744" y="631.31376" width="96.30720000000001" height="11.235840000000001" rx="7.022400000000001" fill="rgba(22,22,22,0.05)"/>
    </g>
  
    <g>
      <rect x="807.576" y="790.02" width="240.768" height="140.448" rx="12" fill="rgba(255,255,255,0.94)" stroke="rgba(71,54,254,0.16)" stroke-width="1"/>
      <rect x="826.83744" y="815.3006399999999" width="57.78432" height="16.85376" rx="7.022400000000001" fill="rgba(71,54,254,0.14)"/>
      <rect x="826.83744" y="849.00816" width="125.19936" height="14.044800000000002" rx="7.022400000000001" fill="rgba(22,22,22,0.08)"/>
      <rect x="826.83744" y="877.09776" width="96.30720000000001" height="11.235840000000001" rx="7.022400000000001" fill="rgba(22,22,22,0.05)"/>
    </g>
  
    <path d="M 406.29600000000005 307.2300000000001 C 466.48800000000006 307.2300000000001, 546.744 368.67600000000004, 606.936 368.67600000000004"
      stroke="rgba(71,54,254,0.52)"
      stroke-width="2.4" fill="none" stroke-linecap="round"/>
<path d="M 406.29600000000005 482.7900000000001 C 466.48800000000006 482.7900000000001, 546.744 614.46, 606.936 614.46"
      stroke="rgba(239,69,35,0.46)"
      stroke-width="2.4" fill="none" stroke-linecap="round"/>
<path d="M 406.29600000000005 658.35 C 466.48800000000006 658.35, 546.744 860.244, 606.936 860.244"
      stroke="rgba(71,54,254,0.52)"
      stroke-width="2.4" fill="none" stroke-linecap="round"/>
<path d="M 406.29600000000005 833.9100000000001 C 466.48800000000006 833.9100000000001, 546.744 368.67600000000004, 606.936 368.67600000000004"
      stroke="rgba(239,69,35,0.46)"
      stroke-width="2.4" fill="none" stroke-linecap="round"/>
<path d="M 647.064 368.67600000000004 C 707.256 368.67600000000004, 737.352 368.67600000000004, 807.576 368.67600000000004"
      stroke="rgba(71,54,254,0.52)"
      stroke-width="2.6" fill="none" stroke-linecap="round"/>
<path d="M 647.064 614.46 C 707.256 614.46, 737.352 614.46, 807.576 614.46"
      stroke="rgba(239,69,35,0.48)"
      stroke-width="2.6" fill="none" stroke-linecap="round"/>
<path d="M 647.064 860.244 C 707.256 860.244, 737.352 860.244, 807.576 860.244"
      stroke="rgba(71,54,254,0.52)"
      stroke-width="2.6" fill="none" stroke-linecap="round"/>
    
      <g filter="url(#fineGlow)">
        <circle cx="627" cy="368.67600000000004" r="18" fill="rgba(255,255,255,0.96)" stroke="rgba(71,54,254,0.24)" stroke-width="1.5048"/>
        <circle cx="627" cy="368.67600000000004" r="6" fill="rgba(71,54,254,0.96)"/>
      </g>
    
      <g filter="url(#fineGlow)">
        <circle cx="627" cy="614.46" r="18" fill="rgba(255,255,255,0.96)" stroke="rgba(71,54,254,0.24)" stroke-width="1.5048"/>
        <circle cx="627" cy="614.46" r="6" fill="rgba(239,69,35,0.96)"/>
      </g>
    
      <g filter="url(#fineGlow)">
        <circle cx="627" cy="860.244" r="18" fill="rgba(255,255,255,0.96)" stroke="rgba(71,54,254,0.24)" stroke-width="1.5048"/>
        <circle cx="627" cy="860.244" r="6" fill="rgba(71,54,254,0.96)"/>
      </g>
    
    <g filter="url(#fineGlow)"><circle cx="588.14" cy="994.81" r="2.07" fill="rgba(239,69,35,0.16)"/><circle cx="1064.52" cy="763.52" r="2.36" fill="rgba(71,54,254,0.08)"/><circle cx="542.44" cy="891.45" r="1.61" fill="rgba(71,54,254,0.16)"/><circle cx="1023.35" cy="718.45" r="1.71" fill="rgba(71,54,254,0.16)"/><circle cx="821.11" cy="318.60" r="0.60" fill="rgba(71,54,254,0.08)"/><circle cx="259.06" cy="346.94" r="1.09" fill="rgba(239,69,35,0.16)"/><circle cx="657.91" cy="640.92" r="1.20" fill="rgba(239,69,35,0.16)"/><circle cx="541.55" cy="633.97" r="1.58" fill="rgba(239,69,35,0.16)"/><circle cx="302.00" cy="472.34" r="2.58" fill="rgba(71,54,254,0.08)"/><circle cx="547.01" cy="514.02" r="0.60" fill="rgba(71,54,254,0.08)"/><circle cx="458.49" cy="403.08" r="0.63" fill="rgba(71,54,254,0.08)"/><circle cx="136.24" cy="359.06" r="2.72" fill="rgba(239,69,35,0.16)"/><circle cx="177.86" cy="674.92" r="1.29" fill="rgba(71,54,254,0.16)"/><circle cx="175.08" cy="610.49" r="0.87" fill="rgba(71,54,254,0.08)"/><circle cx="204.79" cy="752.34" r="1.81" fill="rgba(239,69,35,0.16)"/><circle cx="273.41" cy="878.72" r="0.60" fill="rgba(239,69,35,0.16)"/><circle cx="496.42" cy="764.97" r="2.65" fill="rgba(71,54,254,0.08)"/><circle cx="324.81" cy="939.69" r="0.71" fill="rgba(239,69,35,0.16)"/><circle cx="942.28" cy="469.07" r="2.41" fill="rgba(239,69,35,0.16)"/><circle cx="848.42" cy="721.72" r="1.90" fill="rgba(239,69,35,0.16)"/><circle cx="217.51" cy="839.43" r="0.73" fill="rgba(71,54,254,0.08)"/><circle cx="1006.34" cy="229.27" r="1.63" fill="rgba(71,54,254,0.08)"/><circle cx="1056.05" cy="590.11" r="0.60" fill="rgba(71,54,254,0.08)"/><circle cx="332.32" cy="305.73" r="1.96" fill="rgba(239,69,35,0.16)"/><circle cx="641.81" cy="916.62" r="1.90" fill="rgba(71,54,254,0.16)"/><circle cx="615.42" cy="930.80" r="1.46" fill="rgba(71,54,254,0.16)"/><circle cx="394.53" cy="474.77" r="2.59" fill="rgba(71,54,254,0.08)"/><circle cx="631.40" cy="190.78" r="0.98" fill="rgba(71,54,254,0.16)"/><circle cx="1118.24" cy="551.88" r="0.60" fill="rgba(239,69,35,0.16)"/><circle cx="132.98" cy="187.25" r="0.93" fill="rgba(71,54,254,0.16)"/><circle cx="490.63" cy="469.97" r="1.86" fill="rgba(71,54,254,0.08)"/><circle cx="380.21" cy="761.75" r="0.85" fill="rgba(71,54,254,0.08)"/><circle cx="575.98" cy="371.47" r="1.74" fill="rgba(71,54,254,0.08)"/><circle cx="180.32" cy="449.62" r="0.70" fill="rgba(239,69,35,0.16)"/></g>
  </g>
  
  <g>
    <text x="92.79599999999999" y="150.48" fill="rgba(71,54,254,0.72)" font-size="21.669120000000003" font-family="Geist, 'Helvetica Neue', Arial, sans-serif" font-weight="700" letter-spacing="0.12em">ORG DESIGN / AI</text>
    <text x="92.79599999999999" y="238.26" fill="#4736FE" font-size="105.33600000000001" font-family="Geist, 'Helvetica Neue', Arial, sans-serif" font-weight="500" letter-spacing="-0.06em">AI-Native</text>
<text x="92.79599999999999" y="373.692" fill="#4736FE" font-size="105.33600000000001" font-family="Geist, 'Helvetica Neue', Arial, sans-serif" font-weight="300" letter-spacing="-0.06em">is not</text>
<text x="92.79599999999999" y="509.12399999999997" fill="#6F5BFF" font-size="105.33600000000001" font-family="Geist, 'Helvetica Neue', Arial, sans-serif" font-weight="700" letter-spacing="-0.05em">AI-First.</text>
    <text x="92.79599999999999" y="685.1855999999999" fill="#4736FE" opacity="0.96" font-size="40.128" font-family="Geist, 'Helvetica Neue', Arial, sans-serif" font-weight="700" letter-spacing="-0.02em">The org design is the AI strategy.</text>
    <text x="92.79599999999999" y="790.5215999999999" fill="#161616" opacity="0.76" font-size="27.587999999999997" font-family="Geist, 'Helvetica Neue', Arial, sans-serif" font-weight="500">
      <tspan x="92.79599999999999" dy="0">What changes when the cost of carrying context collapses.</tspan>
    </text>
  </g>
</svg>