<?xml version="1.0" encoding="UTF-8"?>
<svg xmlns="http://www.w3.org/2000/svg" width="1003" height="1568" viewBox="0 0 1003 1568" fill="none">
  <defs>
    <linearGradient id="bgGradient" x1="0" y1="0" x2="1003" y2="1568">
      <stop offset="0%" stop-color="#F3F1FF"/>
      <stop offset="42%" stop-color="#ECE8FF"/>
      <stop offset="100%" stop-color="#E6E1FF"/>
    </linearGradient>
    <radialGradient id="violetGlow" cx="0" cy="0" r="1" gradientUnits="userSpaceOnUse" gradientTransform="translate(80.24 125.44) rotate(40) scale(451.35 815.36)">
      <stop offset="0%" stop-color="#4736FE" stop-opacity="0.9"/>
      <stop offset="100%" stop-color="#4736FE" stop-opacity="0"/>
    </radialGradient>
    <radialGradient id="emberGlow" cx="0" cy="0" r="1" gradientUnits="userSpaceOnUse" gradientTransform="translate(842.52 972.16) rotate(210) scale(280.84000000000003 595.84)">
      <stop offset="0%" stop-color="#EF4523" stop-opacity="0.65"/>
      <stop offset="100%" stop-color="#EF4523" stop-opacity="0"/>
    </radialGradient>
    <filter id="softGlow" x="-40%" y="-40%" width="180%" height="180%">
      <feGaussianBlur stdDeviation="10" result="blur"/>
      <feMerge>
        <feMergeNode in="blur"/>
        <feMergeNode in="SourceGraphic"/>
      </feMerge>
    </filter>
    <filter id="fineGlow" x="-30%" y="-30%" width="160%" height="160%">
      <feGaussianBlur stdDeviation="3" result="blur"/>
      <feMerge>
        <feMergeNode in="blur"/>
        <feMergeNode in="SourceGraphic"/>
      </feMerge>
    </filter>
  </defs>
  
  <rect width="1003" height="1568" fill="url(#bgGradient)"/>
  <rect width="1003" height="1568" fill="url(#violetGlow)" opacity="0.04"/>
  <ellipse cx="782.34" cy="439.04" rx="220.66" ry="344.96" fill="rgba(71,54,254,0.05)"/>
  <ellipse cx="180.54" cy="1285.76" rx="180.54" ry="282.24" fill="rgba(239,69,35,0.035)"/>
  <g><line x1="50.150000000000006" y1="156.8" x2="50.150000000000006" y2="1411.2" stroke="rgba(71,54,254,0.05)" stroke-width="1"/>
<line x1="140.42000000000002" y1="156.8" x2="140.42000000000002" y2="1411.2" stroke="rgba(71,54,254,0.05)" stroke-width="1"/>
<line x1="230.69000000000003" y1="156.8" x2="230.69000000000003" y2="1411.2" stroke="rgba(71,54,254,0.05)" stroke-width="1"/>
<line x1="320.96000000000004" y1="156.8" x2="320.96000000000004" y2="1411.2" stroke="rgba(71,54,254,0.05)" stroke-width="1"/>
<line x1="411.23" y1="156.8" x2="411.23" y2="1411.2" stroke="rgba(71,54,254,0.05)" stroke-width="1"/>
<line x1="501.5" y1="156.8" x2="501.5" y2="1411.2" stroke="rgba(71,54,254,0.05)" stroke-width="1"/>
<line x1="591.7700000000001" y1="156.8" x2="591.7700000000001" y2="1411.2" stroke="rgba(71,54,254,0.05)" stroke-width="1"/>
<line x1="682.0400000000001" y1="156.8" x2="682.0400000000001" y2="1411.2" stroke="rgba(71,54,254,0.05)" stroke-width="1"/>
<line x1="772.3100000000001" y1="156.8" x2="772.3100000000001" y2="1411.2" stroke="rgba(71,54,254,0.05)" stroke-width="1"/>
<line x1="862.58" y1="156.8" x2="862.58" y2="1411.2" stroke="rgba(71,54,254,0.05)" stroke-width="1"/>
<line x1="952.85" y1="156.8" x2="952.85" y2="1411.2" stroke="rgba(71,54,254,0.05)" stroke-width="1"/>
<line x1="50.150000000000006" y1="156.8" x2="952.8499999999999" y2="156.8" stroke="rgba(71,54,254,0.05)" stroke-width="1"/>
<line x1="50.150000000000006" y1="336" x2="952.8499999999999" y2="336" stroke="rgba(71,54,254,0.05)" stroke-width="1"/>
<line x1="50.150000000000006" y1="515.2" x2="952.8499999999999" y2="515.2" stroke="rgba(71,54,254,0.05)" stroke-width="1"/>
<line x1="50.150000000000006" y1="694.4000000000001" x2="952.8499999999999" y2="694.4000000000001" stroke="rgba(71,54,254,0.05)" stroke-width="1"/>
<line x1="50.150000000000006" y1="873.6000000000001" x2="952.8499999999999" y2="873.6000000000001" stroke="rgba(71,54,254,0.05)" stroke-width="1"/>
<line x1="50.150000000000006" y1="1052.8" x2="952.8499999999999" y2="1052.8" stroke="rgba(71,54,254,0.05)" stroke-width="1"/>
<line x1="50.150000000000006" y1="1232" x2="952.8499999999999" y2="1232" stroke="rgba(71,54,254,0.05)" stroke-width="1"/>
<line x1="50.150000000000006" y1="1411.2" x2="952.8499999999999" y2="1411.2" stroke="rgba(71,54,254,0.05)" stroke-width="1"/></g>
  <rect x="72.216" y="133.28" width="110.33" height="14.111999999999998" rx="3.136" fill="rgba(71,54,254,0.9)"/>
  <rect x="842.52" y="1387.68" width="80.24" height="14.111999999999998" rx="3.136" fill="rgba(239,69,35,0.82)"/>
  
  
  <g>
    <path d="M 493.8772 617.1648 C 558.671 598.3488, 637.1056 635.9808, 862.1788 617.1648"
      stroke="rgba(239,69,35,0.32)"
      stroke-width="1.4" fill="none" stroke-linecap="round"/>
<path d="M 493.8772 702.7776 C 558.671 683.9616, 637.1056 721.5936, 862.1788 702.7776"
      stroke="rgba(71,54,254,0.28)"
      stroke-width="1.4" fill="none" stroke-linecap="round"/>
<path d="M 493.8772 788.3904 C 558.671 769.5744, 637.1056 807.2064, 862.1788 788.3904"
      stroke="rgba(71,54,254,0.28)"
      stroke-width="1.4" fill="none" stroke-linecap="round"/>
<path d="M 493.8772 874.0032 C 558.671 855.1872, 637.1056 892.8192, 862.1788 874.0032"
      stroke="rgba(239,69,35,0.32)"
      stroke-width="1.4" fill="none" stroke-linecap="round"/>
<path d="M 493.8772 959.616 C 558.671 940.8, 637.1056 978.432, 862.1788 959.616"
      stroke="rgba(71,54,254,0.28)"
      stroke-width="1.4" fill="none" stroke-linecap="round"/>
<path d="M 493.8772 1045.2287999999999 C 558.671 1026.4127999999998, 637.1056 1064.0448, 862.1788 1045.2287999999999"
      stroke="rgba(71,54,254,0.28)"
      stroke-width="1.4" fill="none" stroke-linecap="round"/>
    
      <rect x="548.4404" y="590.8224" width="150.04880000000003" height="144.8832"
            rx="12.036"
            fill="rgba(255,255,255,0.56)"
            stroke="rgba(71,54,254,0.16)"
            stroke-width="1.2"/>
    

      <rect x="657.5668000000001" y="669.8496" width="156.86920000000003" height="144.8832"
            rx="12.036"
            fill="rgba(255,255,255,0.66)"
            stroke="rgba(71,54,254,0.16)"
            stroke-width="1.2"/>
    

      <rect x="575.722" y="841.0752" width="143.22840000000002" height="158.0544"
            rx="12.036"
            fill="rgba(255,255,255,0.74)"
            stroke="rgba(71,54,254,0.16)"
            stroke-width="1.2"/>
    

      <rect x="705.3096" y="893.76" width="129.5876" height="118.54079999999999"
            rx="12.036"
            fill="rgba(255,255,255,0.82)"
            stroke="rgba(71,54,254,0.16)"
            stroke-width="1.2"/>
    

      <rect x="637.1056" y="1038.6432" width="163.6896" height="118.54079999999999"
            rx="12.036"
            fill="rgba(255,255,255,0.9)"
            stroke="rgba(71,54,254,0.16)"
            stroke-width="1.2"/>
    
    <rect x="555.2608" y="571.0656" width="40.9224" height="29.635199999999998" rx="7.9027199999999995" fill="rgba(71,54,254,0.1)"/>
<rect x="650.7464" y="571.0656" width="40.9224" height="29.635199999999998" rx="7.9027199999999995" fill="rgba(239,69,35,0.1)"/>
<rect x="746.2320000000001" y="571.0656" width="40.9224" height="29.635199999999998" rx="7.9027199999999995" fill="rgba(71,54,254,0.1)"/>
<rect x="555.2608" y="794.976" width="40.9224" height="29.635199999999998" rx="7.9027199999999995" fill="rgba(239,69,35,0.1)"/>
<rect x="650.7464" y="794.976" width="40.9224" height="29.635199999999998" rx="7.9027199999999995" fill="rgba(71,54,254,0.1)"/>
<rect x="746.2320000000001" y="794.976" width="40.9224" height="29.635199999999998" rx="7.9027199999999995" fill="rgba(239,69,35,0.1)"/>
<rect x="555.2608" y="1018.8864000000001" width="40.9224" height="29.635199999999998" rx="7.9027199999999995" fill="rgba(71,54,254,0.1)"/>
    <path d="M 623.4648 663.264 L 736.0014 742.2912" stroke="rgba(71,54,254,0.18)" stroke-width="1.3" stroke-dasharray="6 8" fill="none"/>
<circle cx="623.4648" cy="663.264" r="3.5" fill="rgba(239,69,35,0.86)"/>
<path d="M 736.0014 742.2912 L 647.3362 920.1024" stroke="rgba(71,54,254,0.18)" stroke-width="1.3" stroke-dasharray="6 8" fill="none"/>
<circle cx="736.0014" cy="742.2912" r="3.5" fill="rgba(71,54,254,0.86)"/>
<path d="M 647.3362 920.1024 L 770.1034000000001 953.0304" stroke="rgba(71,54,254,0.18)" stroke-width="1.3" stroke-dasharray="6 8" fill="none"/>
<circle cx="647.3362" cy="920.1024" r="3.5" fill="rgba(239,69,35,0.86)"/>
<path d="M 770.1034000000001 953.0304 L 698.4892 1097.9135999999999" stroke="rgba(71,54,254,0.18)" stroke-width="1.3" stroke-dasharray="6 8" fill="none"/>
<circle cx="770.1034000000001" cy="953.0304" r="3.5" fill="rgba(71,54,254,0.86)"/>
<circle cx="698.4892" cy="1097.9135999999999" r="3.5" fill="rgba(71,54,254,0.86)"/>
    <g filter="url(#fineGlow)"><circle cx="772.84" cy="1003.83" r="1.05" fill="rgba(71,54,254,0.12)"/><circle cx="792.77" cy="1100.52" r="1.89" fill="rgba(239,69,35,0.22)"/><circle cx="677.66" cy="572.46" r="1.51" fill="rgba(239,69,35,0.22)"/><circle cx="680.46" cy="557.90" r="0.60" fill="rgba(239,69,35,0.22)"/><circle cx="813.82" cy="700.24" r="0.69" fill="rgba(71,54,254,0.12)"/><circle cx="685.19" cy="803.24" r="1.38" fill="rgba(71,54,254,0.22)"/><circle cx="547.72" cy="808.25" r="0.71" fill="rgba(239,69,35,0.22)"/><circle cx="759.32" cy="601.24" r="1.91" fill="rgba(71,54,254,0.12)"/><circle cx="701.85" cy="821.95" r="0.95" fill="rgba(71,54,254,0.12)"/><circle cx="761.82" cy="1147.04" r="0.78" fill="rgba(71,54,254,0.12)"/><circle cx="584.01" cy="910.84" r="0.99" fill="rgba(71,54,254,0.22)"/><circle cx="655.11" cy="1212.90" r="1.19" fill="rgba(239,69,35,0.22)"/><circle cx="534.14" cy="1014.49" r="0.60" fill="rgba(71,54,254,0.12)"/><circle cx="663.78" cy="819.41" r="2.13" fill="rgba(71,54,254,0.22)"/><circle cx="835.30" cy="786.24" r="1.97" fill="rgba(71,54,254,0.12)"/><circle cx="805.30" cy="1034.37" r="1.70" fill="rgba(71,54,254,0.22)"/><circle cx="872.90" cy="564.14" r="2.12" fill="rgba(239,69,35,0.22)"/><circle cx="819.99" cy="897.57" r="0.66" fill="rgba(239,69,35,0.22)"/><circle cx="685.81" cy="936.95" r="1.60" fill="rgba(71,54,254,0.12)"/><circle cx="534.72" cy="907.48" r="2.11" fill="rgba(239,69,35,0.22)"/><circle cx="842.55" cy="1050.32" r="1.79" fill="rgba(71,54,254,0.22)"/><circle cx="734.55" cy="989.84" r="1.73" fill="rgba(71,54,254,0.22)"/><circle cx="872.74" cy="568.33" r="2.00" fill="rgba(71,54,254,0.22)"/><circle cx="606.09" cy="634.09" r="2.14" fill="rgba(239,69,35,0.22)"/><circle cx="844.00" cy="566.88" r="0.60" fill="rgba(71,54,254,0.22)"/><circle cx="805.13" cy="680.52" r="1.38" fill="rgba(71,54,254,0.22)"/><circle cx="582.17" cy="845.16" r="1.00" fill="rgba(71,54,254,0.12)"/><circle cx="874.75" cy="1018.30" r="1.76" fill="rgba(71,54,254,0.12)"/><circle cx="827.55" cy="987.07" r="1.35" fill="rgba(239,69,35,0.22)"/><circle cx="557.23" cy="754.14" r="1.90" fill="rgba(239,69,35,0.22)"/><circle cx="570.71" cy="1137.78" r="0.60" fill="rgba(71,54,254,0.12)"/><circle cx="649.58" cy="587.76" r="1.58" fill="rgba(71,54,254,0.22)"/></g>
  </g>
  
  <g>
    <text x="80.24" y="156.8" fill="rgba(71,54,254,0.72)" font-size="20.58156" font-family="Geist, 'Helvetica Neue', Arial, sans-serif" font-weight="700" letter-spacing="0.12em">ORG DESIGN / AI</text>
    <text x="80.24" y="250.88" fill="#4736FE" font-size="100.30000000000001" font-family="Geist, 'Helvetica Neue', Arial, sans-serif" font-weight="500" letter-spacing="-0.06em">AI-Native</text>
<text x="80.24" y="388.864" fill="#4736FE" font-size="100.30000000000001" font-family="Geist, 'Helvetica Neue', Arial, sans-serif" font-weight="300" letter-spacing="-0.06em">is not</text>
<text x="80.24" y="526.848" fill="#6F5BFF" font-size="100.30000000000001" font-family="Geist, 'Helvetica Neue', Arial, sans-serif" font-weight="700" letter-spacing="-0.05em">AI-First.</text>
    <text x="80.24" y="706.2271999999999" fill="#4736FE" opacity="0.96" font-size="38.114" font-family="Geist, 'Helvetica Neue', Arial, sans-serif" font-weight="700" letter-spacing="-0.02em">The org design is the AI strategy.</text>
    <text x="80.24" y="815.9871999999999" fill="#161616" opacity="0.76" font-size="25.075000000000003" font-family="Geist, 'Helvetica Neue', Arial, sans-serif" font-weight="500">
      <tspan x="80.24" dy="0">What changes when the cost of carrying context collapses.</tspan>
    </text>
  </g>
</svg>