<?xml version="1.0" encoding="UTF-8"?>
<svg xmlns="http://www.w3.org/2000/svg" width="1200" height="630" viewBox="0 0 1200 630" fill="none">
  <defs>
    <linearGradient id="bgGradient" x1="0" y1="0" x2="1200" y2="630">
      <stop offset="0%" stop-color="#F3F1FF"/>
      <stop offset="42%" stop-color="#ECE8FF"/>
      <stop offset="100%" stop-color="#E6E1FF"/>
    </linearGradient>
    <radialGradient id="violetGlow" cx="0" cy="0" r="1" gradientUnits="userSpaceOnUse" gradientTransform="translate(96 50.4) rotate(40) scale(540 327.6)">
      <stop offset="0%" stop-color="#4736FE" stop-opacity="0.9"/>
      <stop offset="100%" stop-color="#4736FE" stop-opacity="0"/>
    </radialGradient>
    <radialGradient id="emberGlow" cx="0" cy="0" r="1" gradientUnits="userSpaceOnUse" gradientTransform="translate(1008 390.6) rotate(210) scale(336.00000000000006 239.4)">
      <stop offset="0%" stop-color="#EF4523" stop-opacity="0.65"/>
      <stop offset="100%" stop-color="#EF4523" stop-opacity="0"/>
    </radialGradient>
    <filter id="softGlow" x="-40%" y="-40%" width="180%" height="180%">
      <feGaussianBlur stdDeviation="10" result="blur"/>
      <feMerge>
        <feMergeNode in="blur"/>
        <feMergeNode in="SourceGraphic"/>
      </feMerge>
    </filter>
    <filter id="fineGlow" x="-30%" y="-30%" width="160%" height="160%">
      <feGaussianBlur stdDeviation="3" result="blur"/>
      <feMerge>
        <feMergeNode in="blur"/>
        <feMergeNode in="SourceGraphic"/>
      </feMerge>
    </filter>
  </defs>
  
  <rect width="1200" height="630" fill="url(#bgGradient)"/>
  <rect width="1200" height="630" fill="url(#violetGlow)" opacity="0.04"/>
  <ellipse cx="936" cy="176.4" rx="264" ry="138.6" fill="rgba(71,54,254,0.05)"/>
  <ellipse cx="216" cy="516.6" rx="216" ry="113.39999999999999" fill="rgba(239,69,35,0.035)"/>
  <g><line x1="60" y1="63" x2="60" y2="567" stroke="rgba(71,54,254,0.05)" stroke-width="1"/>
<line x1="168" y1="63" x2="168" y2="567" stroke="rgba(71,54,254,0.05)" stroke-width="1"/>
<line x1="276" y1="63" x2="276" y2="567" stroke="rgba(71,54,254,0.05)" stroke-width="1"/>
<line x1="384" y1="63" x2="384" y2="567" stroke="rgba(71,54,254,0.05)" stroke-width="1"/>
<line x1="492" y1="63" x2="492" y2="567" stroke="rgba(71,54,254,0.05)" stroke-width="1"/>
<line x1="600" y1="63" x2="600" y2="567" stroke="rgba(71,54,254,0.05)" stroke-width="1"/>
<line x1="708" y1="63" x2="708" y2="567" stroke="rgba(71,54,254,0.05)" stroke-width="1"/>
<line x1="816" y1="63" x2="816" y2="567" stroke="rgba(71,54,254,0.05)" stroke-width="1"/>
<line x1="924" y1="63" x2="924" y2="567" stroke="rgba(71,54,254,0.05)" stroke-width="1"/>
<line x1="1032" y1="63" x2="1032" y2="567" stroke="rgba(71,54,254,0.05)" stroke-width="1"/>
<line x1="1140" y1="63" x2="1140" y2="567" stroke="rgba(71,54,254,0.05)" stroke-width="1"/>
<line x1="60" y1="63" x2="1140" y2="63" stroke="rgba(71,54,254,0.05)" stroke-width="1"/>
<line x1="60" y1="135" x2="1140" y2="135" stroke="rgba(71,54,254,0.05)" stroke-width="1"/>
<line x1="60" y1="207" x2="1140" y2="207" stroke="rgba(71,54,254,0.05)" stroke-width="1"/>
<line x1="60" y1="279" x2="1140" y2="279" stroke="rgba(71,54,254,0.05)" stroke-width="1"/>
<line x1="60" y1="351" x2="1140" y2="351" stroke="rgba(71,54,254,0.05)" stroke-width="1"/>
<line x1="60" y1="423" x2="1140" y2="423" stroke="rgba(71,54,254,0.05)" stroke-width="1"/>
<line x1="60" y1="495" x2="1140" y2="495" stroke="rgba(71,54,254,0.05)" stroke-width="1"/>
<line x1="60" y1="567" x2="1140" y2="567" stroke="rgba(71,54,254,0.05)" stroke-width="1"/></g>
  <rect x="86.39999999999999" y="53.550000000000004" width="132" height="8" rx="2" fill="rgba(71,54,254,0.9)"/>
  <rect x="1008" y="557.55" width="96" height="8" rx="2" fill="rgba(239,69,35,0.82)"/>
  
  
  <g>
    
    <rect x="648" y="100.8" width="456" height="365.4" rx="20" fill="rgba(255,255,255,0.28)" stroke="rgba(71,54,254,0.09)" stroke-width="1.2"/>
    <ellipse cx="1040.1599999999999" cy="159.264" rx="100.32000000000001" ry="91.35" fill="rgba(71,54,254,0.05)"/>
    <ellipse cx="684.48" cy="429.66" rx="91.2" ry="80.38799999999999" fill="rgba(239,69,35,0.04)"/>
    <line x1="648" y1="100.8" x2="648" y2="466.2" stroke="rgba(71,54,254,0.06)" stroke-width="1.08"/>
<line x1="724" y1="100.8" x2="724" y2="466.2" stroke="rgba(71,54,254,0.06)" stroke-width="1.08"/>
<line x1="800" y1="100.8" x2="800" y2="466.2" stroke="rgba(71,54,254,0.06)" stroke-width="1.08"/>
<line x1="876" y1="100.8" x2="876" y2="466.2" stroke="rgba(71,54,254,0.06)" stroke-width="1.08"/>
<line x1="952" y1="100.8" x2="952" y2="466.2" stroke="rgba(71,54,254,0.06)" stroke-width="1.08"/>
<line x1="1028" y1="100.8" x2="1028" y2="466.2" stroke="rgba(71,54,254,0.06)" stroke-width="1.08"/>
<line x1="1104" y1="100.8" x2="1104" y2="466.2" stroke="rgba(71,54,254,0.06)" stroke-width="1.08"/>
<line x1="648" y1="100.8" x2="1104" y2="100.8" stroke="rgba(71,54,254,0.07)" stroke-width="1.08"/>
<line x1="648" y1="173.88" x2="1104" y2="173.88" stroke="rgba(71,54,254,0.07)" stroke-width="1.08"/>
<line x1="648" y1="246.95999999999998" x2="1104" y2="246.95999999999998" stroke="rgba(71,54,254,0.07)" stroke-width="1.08"/>
<line x1="648" y1="320.03999999999996" x2="1104" y2="320.03999999999996" stroke="rgba(71,54,254,0.07)" stroke-width="1.08"/>
<line x1="648" y1="393.12" x2="1104" y2="393.12" stroke="rgba(71,54,254,0.07)" stroke-width="1.08"/>
<line x1="648" y1="466.2" x2="1104" y2="466.2" stroke="rgba(71,54,254,0.07)" stroke-width="1.08"/>
    <line x1="876" y1="137.34" x2="876" y2="407.736" stroke="rgba(71,54,254,0.24)" stroke-width="2.6"/>
  
    
    <g>
      <rect x="666.24" y="130.03199999999998" width="109.44" height="51.156" rx="12" fill="rgba(255,255,255,0.94)" stroke="rgba(71,54,254,0.16)" stroke-width="1"/>
      <rect x="674.9952" y="139.24007999999998" width="26.2656" height="6.138719999999999" rx="2.5578000000000003" fill="rgba(71,54,254,0.14)"/>
      <rect x="674.9952" y="151.51752" width="56.9088" height="5.115600000000001" rx="2.5578000000000003" fill="rgba(22,22,22,0.08)"/>
      <rect x="674.9952" y="161.74872" width="43.776" height="4.09248" rx="2.5578000000000003" fill="rgba(22,22,22,0.05)"/>
    </g>
  
    <g>
      <rect x="666.24" y="203.112" width="109.44" height="51.156" rx="12" fill="rgba(255,255,255,0.94)" stroke="rgba(71,54,254,0.16)" stroke-width="1"/>
      <rect x="674.9952" y="212.32008" width="26.2656" height="6.138719999999999" rx="2.5578000000000003" fill="rgba(239,69,35,0.14)"/>
      <rect x="674.9952" y="224.59752" width="56.9088" height="5.115600000000001" rx="2.5578000000000003" fill="rgba(22,22,22,0.08)"/>
      <rect x="674.9952" y="234.82872" width="43.776" height="4.09248" rx="2.5578000000000003" fill="rgba(22,22,22,0.05)"/>
    </g>
  
    <g>
      <rect x="666.24" y="276.192" width="109.44" height="51.156" rx="12" fill="rgba(255,255,255,0.94)" stroke="rgba(71,54,254,0.16)" stroke-width="1"/>
      <rect x="674.9952" y="285.40008" width="26.2656" height="6.138719999999999" rx="2.5578000000000003" fill="rgba(71,54,254,0.14)"/>
      <rect x="674.9952" y="297.67752" width="56.9088" height="5.115600000000001" rx="2.5578000000000003" fill="rgba(22,22,22,0.08)"/>
      <rect x="674.9952" y="307.90872" width="43.776" height="4.09248" rx="2.5578000000000003" fill="rgba(22,22,22,0.05)"/>
    </g>
  
    <g>
      <rect x="666.24" y="349.272" width="109.44" height="51.156" rx="12" fill="rgba(255,255,255,0.94)" stroke="rgba(71,54,254,0.16)" stroke-width="1"/>
      <rect x="674.9952" y="358.48008" width="26.2656" height="6.138719999999999" rx="2.5578000000000003" fill="rgba(239,69,35,0.14)"/>
      <rect x="674.9952" y="370.75752" width="56.9088" height="5.115600000000001" rx="2.5578000000000003" fill="rgba(22,22,22,0.08)"/>
      <rect x="674.9952" y="380.98872" width="43.776" height="4.09248" rx="2.5578000000000003" fill="rgba(22,22,22,0.05)"/>
    </g>
  
    
    <g>
      <rect x="958.08" y="151.956" width="109.44" height="58.464" rx="12" fill="rgba(255,255,255,0.94)" stroke="rgba(71,54,254,0.16)" stroke-width="1"/>
      <rect x="966.8352" y="162.47951999999998" width="26.2656" height="7.01568" rx="2.9232" fill="rgba(71,54,254,0.14)"/>
      <rect x="966.8352" y="176.51088" width="56.9088" height="5.8464" rx="2.9232" fill="rgba(22,22,22,0.08)"/>
      <rect x="966.8352" y="188.20368" width="43.776" height="4.67712" rx="2.9232" fill="rgba(22,22,22,0.05)"/>
    </g>
  
    <g>
      <rect x="958.08" y="254.268" width="109.44" height="58.464" rx="12" fill="rgba(255,255,255,0.94)" stroke="rgba(71,54,254,0.16)" stroke-width="1"/>
      <rect x="966.8352" y="264.79152" width="26.2656" height="7.01568" rx="2.9232" fill="rgba(239,69,35,0.14)"/>
      <rect x="966.8352" y="278.82288" width="56.9088" height="5.8464" rx="2.9232" fill="rgba(22,22,22,0.08)"/>
      <rect x="966.8352" y="290.51568" width="43.776" height="4.67712" rx="2.9232" fill="rgba(22,22,22,0.05)"/>
    </g>
  
    <g>
      <rect x="958.08" y="356.58000000000004" width="109.44" height="58.464" rx="12" fill="rgba(255,255,255,0.94)" stroke="rgba(71,54,254,0.16)" stroke-width="1"/>
      <rect x="966.8352" y="367.10352000000006" width="26.2656" height="7.01568" rx="2.9232" fill="rgba(71,54,254,0.14)"/>
      <rect x="966.8352" y="381.13488000000007" width="56.9088" height="5.8464" rx="2.9232" fill="rgba(22,22,22,0.08)"/>
      <rect x="966.8352" y="392.82768000000004" width="43.776" height="4.67712" rx="2.9232" fill="rgba(22,22,22,0.05)"/>
    </g>
  
    <path d="M 775.6800000000001 155.60999999999999 C 803.04 155.60999999999999, 839.52 181.188, 866.88 181.188"
      stroke="rgba(71,54,254,0.52)"
      stroke-width="2.4" fill="none" stroke-linecap="round"/>
<path d="M 775.6800000000001 228.69 C 803.04 228.69, 839.52 283.5, 866.88 283.5"
      stroke="rgba(239,69,35,0.46)"
      stroke-width="2.4" fill="none" stroke-linecap="round"/>
<path d="M 775.6800000000001 301.77 C 803.04 301.77, 839.52 385.812, 866.88 385.812"
      stroke="rgba(71,54,254,0.52)"
      stroke-width="2.4" fill="none" stroke-linecap="round"/>
<path d="M 775.6800000000001 374.84999999999997 C 803.04 374.84999999999997, 839.52 181.188, 866.88 181.188"
      stroke="rgba(239,69,35,0.46)"
      stroke-width="2.4" fill="none" stroke-linecap="round"/>
<path d="M 885.12 181.188 C 912.48 181.188, 926.16 181.188, 958.08 181.188"
      stroke="rgba(71,54,254,0.52)"
      stroke-width="2.6" fill="none" stroke-linecap="round"/>
<path d="M 885.12 283.5 C 912.48 283.5, 926.16 283.5, 958.08 283.5"
      stroke="rgba(239,69,35,0.48)"
      stroke-width="2.6" fill="none" stroke-linecap="round"/>
<path d="M 885.12 385.812 C 912.48 385.812, 926.16 385.812, 958.08 385.812"
      stroke="rgba(71,54,254,0.52)"
      stroke-width="2.6" fill="none" stroke-linecap="round"/>
    
      <g filter="url(#fineGlow)">
        <circle cx="876" cy="181.188" r="18" fill="rgba(255,255,255,0.96)" stroke="rgba(71,54,254,0.24)" stroke-width="1.5"/>
        <circle cx="876" cy="181.188" r="6" fill="rgba(71,54,254,0.96)"/>
      </g>
    
      <g filter="url(#fineGlow)">
        <circle cx="876" cy="283.5" r="18" fill="rgba(255,255,255,0.96)" stroke="rgba(71,54,254,0.24)" stroke-width="1.5"/>
        <circle cx="876" cy="283.5" r="6" fill="rgba(239,69,35,0.96)"/>
      </g>
    
      <g filter="url(#fineGlow)">
        <circle cx="876" cy="385.812" r="18" fill="rgba(255,255,255,0.96)" stroke="rgba(71,54,254,0.24)" stroke-width="1.5"/>
        <circle cx="876" cy="385.812" r="6" fill="rgba(71,54,254,0.96)"/>
      </g>
    
    <g filter="url(#fineGlow)"><circle cx="874.77" cy="153.40" r="0.95" fill="rgba(71,54,254,0.08)"/><circle cx="987.49" cy="203.78" r="0.60" fill="rgba(71,54,254,0.08)"/><circle cx="814.07" cy="430.12" r="2.22" fill="rgba(71,54,254,0.08)"/><circle cx="742.73" cy="197.48" r="1.56" fill="rgba(71,54,254,0.08)"/><circle cx="833.24" cy="261.24" r="0.64" fill="rgba(71,54,254,0.16)"/><circle cx="704.22" cy="308.26" r="0.60" fill="rgba(71,54,254,0.16)"/><circle cx="677.64" cy="273.60" r="1.39" fill="rgba(71,54,254,0.08)"/><circle cx="901.37" cy="314.25" r="1.75" fill="rgba(239,69,35,0.16)"/><circle cx="1064.96" cy="213.22" r="1.73" fill="rgba(71,54,254,0.16)"/><circle cx="1055.56" cy="367.09" r="2.42" fill="rgba(71,54,254,0.08)"/><circle cx="984.26" cy="362.73" r="2.22" fill="rgba(71,54,254,0.08)"/><circle cx="1040.03" cy="103.91" r="2.11" fill="rgba(71,54,254,0.16)"/><circle cx="923.59" cy="334.32" r="1.41" fill="rgba(71,54,254,0.16)"/><circle cx="803.95" cy="283.03" r="2.54" fill="rgba(71,54,254,0.16)"/><circle cx="729.37" cy="112.90" r="1.55" fill="rgba(71,54,254,0.16)"/><circle cx="685.46" cy="297.96" r="1.55" fill="rgba(71,54,254,0.08)"/><circle cx="927.84" cy="153.58" r="2.56" fill="rgba(239,69,35,0.16)"/><circle cx="1024.76" cy="417.73" r="0.77" fill="rgba(71,54,254,0.16)"/><circle cx="734.36" cy="368.45" r="1.30" fill="rgba(71,54,254,0.16)"/><circle cx="1045.73" cy="379.72" r="2.59" fill="rgba(239,69,35,0.16)"/><circle cx="934.90" cy="210.46" r="1.83" fill="rgba(239,69,35,0.16)"/><circle cx="1092.00" cy="128.85" r="2.46" fill="rgba(239,69,35,0.16)"/><circle cx="1040.97" cy="168.96" r="0.63" fill="rgba(239,69,35,0.16)"/><circle cx="884.97" cy="430.29" r="1.08" fill="rgba(71,54,254,0.08)"/><circle cx="879.65" cy="130.46" r="0.85" fill="rgba(71,54,254,0.08)"/><circle cx="692.06" cy="116.45" r="2.14" fill="rgba(71,54,254,0.16)"/></g>
  </g>
  
  <g>
    <text x="86.39999999999999" y="81.9" fill="rgba(71,54,254,0.72)" font-size="19.44" font-family="Geist, 'Helvetica Neue', Arial, sans-serif" font-weight="700" letter-spacing="0.12em">ORG DESIGN / AI</text>
    <text x="86.39999999999999" y="138.6" fill="#4736FE" font-size="103.19999999999999" font-family="Geist, 'Helvetica Neue', Arial, sans-serif" font-weight="500" letter-spacing="-0.06em">AI-Native</text>
<text x="86.39999999999999" y="245.7" fill="#4736FE" font-size="103.19999999999999" font-family="Geist, 'Helvetica Neue', Arial, sans-serif" font-weight="300" letter-spacing="-0.06em">is not</text>
<text x="86.39999999999999" y="352.8" fill="#6F5BFF" font-size="103.19999999999999" font-family="Geist, 'Helvetica Neue', Arial, sans-serif" font-weight="700" letter-spacing="-0.05em">AI-First.</text>
    <text x="86.39999999999999" y="492.03" fill="#4736FE" opacity="0.96" font-size="36" font-family="Geist, 'Helvetica Neue', Arial, sans-serif" font-weight="700" letter-spacing="-0.02em">The org design is the AI strategy.</text>
    <text x="86.39999999999999" y="555.03" fill="#161616" opacity="0.76" font-size="22.8" font-family="Geist, 'Helvetica Neue', Arial, sans-serif" font-weight="500">
      <tspan x="86.39999999999999" dy="0">What changes when the cost of carrying context collapses.</tspan>
    </text>
  </g>
</svg>