<?xml version="1.0" encoding="UTF-8"?>
<svg xmlns="http://www.w3.org/2000/svg" width="1672" height="941" viewBox="0 0 1672 941" fill="none">
  <defs>
    <linearGradient id="bgGradient" x1="0" y1="0" x2="1672" y2="941">
      <stop offset="0%" stop-color="#F3F1FF"/>
      <stop offset="42%" stop-color="#ECE8FF"/>
      <stop offset="100%" stop-color="#E6E1FF"/>
    </linearGradient>
    <radialGradient id="violetGlow" cx="0" cy="0" r="1" gradientUnits="userSpaceOnUse" gradientTransform="translate(133.76 75.28) rotate(40) scale(752.4 489.32)">
      <stop offset="0%" stop-color="#4736FE" stop-opacity="0.9"/>
      <stop offset="100%" stop-color="#4736FE" stop-opacity="0"/>
    </radialGradient>
    <radialGradient id="emberGlow" cx="0" cy="0" r="1" gradientUnits="userSpaceOnUse" gradientTransform="translate(1404.48 583.42) rotate(210) scale(468.16 357.58)">
      <stop offset="0%" stop-color="#EF4523" stop-opacity="0.65"/>
      <stop offset="100%" stop-color="#EF4523" stop-opacity="0"/>
    </radialGradient>
    <filter id="softGlow" x="-40%" y="-40%" width="180%" height="180%">
      <feGaussianBlur stdDeviation="13.376" result="blur"/>
      <feMerge>
        <feMergeNode in="blur"/>
        <feMergeNode in="SourceGraphic"/>
      </feMerge>
    </filter>
    <filter id="fineGlow" x="-30%" y="-30%" width="160%" height="160%">
      <feGaussianBlur stdDeviation="3.6784000000000003" result="blur"/>
      <feMerge>
        <feMergeNode in="blur"/>
        <feMergeNode in="SourceGraphic"/>
      </feMerge>
    </filter>
  </defs>
  
  <rect width="1672" height="941" fill="url(#bgGradient)"/>
  <rect width="1672" height="941" fill="url(#violetGlow)" opacity="0.04"/>
  <ellipse cx="1304.16" cy="263.48" rx="367.84" ry="207.02" fill="rgba(71,54,254,0.05)"/>
  <ellipse cx="300.96" cy="771.62" rx="300.96" ry="169.38" fill="rgba(239,69,35,0.035)"/>
  <g><line x1="83.60000000000001" y1="94.10000000000001" x2="83.60000000000001" y2="846.9" stroke="rgba(71,54,254,0.05)" stroke-width="1.3376000000000001"/>
<line x1="234.07999999999998" y1="94.10000000000001" x2="234.07999999999998" y2="846.9" stroke="rgba(71,54,254,0.05)" stroke-width="1.3376000000000001"/>
<line x1="384.56" y1="94.10000000000001" x2="384.56" y2="846.9" stroke="rgba(71,54,254,0.05)" stroke-width="1.3376000000000001"/>
<line x1="535.04" y1="94.10000000000001" x2="535.04" y2="846.9" stroke="rgba(71,54,254,0.05)" stroke-width="1.3376000000000001"/>
<line x1="685.52" y1="94.10000000000001" x2="685.52" y2="846.9" stroke="rgba(71,54,254,0.05)" stroke-width="1.3376000000000001"/>
<line x1="836" y1="94.10000000000001" x2="836" y2="846.9" stroke="rgba(71,54,254,0.05)" stroke-width="1.3376000000000001"/>
<line x1="986.4799999999999" y1="94.10000000000001" x2="986.4799999999999" y2="846.9" stroke="rgba(71,54,254,0.05)" stroke-width="1.3376000000000001"/>
<line x1="1136.96" y1="94.10000000000001" x2="1136.96" y2="846.9" stroke="rgba(71,54,254,0.05)" stroke-width="1.3376000000000001"/>
<line x1="1287.4399999999998" y1="94.10000000000001" x2="1287.4399999999998" y2="846.9" stroke="rgba(71,54,254,0.05)" stroke-width="1.3376000000000001"/>
<line x1="1437.9199999999998" y1="94.10000000000001" x2="1437.9199999999998" y2="846.9" stroke="rgba(71,54,254,0.05)" stroke-width="1.3376000000000001"/>
<line x1="1588.3999999999999" y1="94.10000000000001" x2="1588.3999999999999" y2="846.9" stroke="rgba(71,54,254,0.05)" stroke-width="1.3376000000000001"/>
<line x1="83.60000000000001" y1="94.10000000000001" x2="1588.3999999999999" y2="94.10000000000001" stroke="rgba(71,54,254,0.05)" stroke-width="1.3376000000000001"/>
<line x1="83.60000000000001" y1="201.64285714285717" x2="1588.3999999999999" y2="201.64285714285717" stroke="rgba(71,54,254,0.05)" stroke-width="1.3376000000000001"/>
<line x1="83.60000000000001" y1="309.1857142857143" x2="1588.3999999999999" y2="309.1857142857143" stroke="rgba(71,54,254,0.05)" stroke-width="1.3376000000000001"/>
<line x1="83.60000000000001" y1="416.72857142857146" x2="1588.3999999999999" y2="416.72857142857146" stroke="rgba(71,54,254,0.05)" stroke-width="1.3376000000000001"/>
<line x1="83.60000000000001" y1="524.2714285714286" x2="1588.3999999999999" y2="524.2714285714286" stroke="rgba(71,54,254,0.05)" stroke-width="1.3376000000000001"/>
<line x1="83.60000000000001" y1="631.8142857142858" x2="1588.3999999999999" y2="631.8142857142858" stroke="rgba(71,54,254,0.05)" stroke-width="1.3376000000000001"/>
<line x1="83.60000000000001" y1="739.3571428571429" x2="1588.3999999999999" y2="739.3571428571429" stroke="rgba(71,54,254,0.05)" stroke-width="1.3376000000000001"/>
<line x1="83.60000000000001" y1="846.9000000000001" x2="1588.3999999999999" y2="846.9000000000001" stroke="rgba(71,54,254,0.05)" stroke-width="1.3376000000000001"/></g>
  <rect x="120.38399999999999" y="79.985" width="183.92" height="8.469" rx="2" fill="rgba(71,54,254,0.9)"/>
  <rect x="1404.48" y="832.785" width="133.76" height="8.469" rx="2" fill="rgba(239,69,35,0.82)"/>
  
  
  <g>
    <path d="M 637.3663999999999 235.25 C 770.7919999999999 223.958, 932.3072 246.542, 1395.7856 235.25"
      stroke="rgba(239,69,35,0.32)"
      stroke-width="2.2572" fill="none" stroke-linecap="round"/>
<path d="M 637.3663999999999 296.41499999999996 C 770.7919999999999 285.123, 932.3072 307.70699999999994, 1395.7856 296.41499999999996"
      stroke="rgba(71,54,254,0.28)"
      stroke-width="2.2572" fill="none" stroke-linecap="round"/>
<path d="M 637.3663999999999 357.58 C 770.7919999999999 346.288, 932.3072 368.87199999999996, 1395.7856 357.58"
      stroke="rgba(71,54,254,0.28)"
      stroke-width="2.2572" fill="none" stroke-linecap="round"/>
<path d="M 637.3663999999999 418.745 C 770.7919999999999 407.45300000000003, 932.3072 430.037, 1395.7856 418.745"
      stroke="rgba(239,69,35,0.32)"
      stroke-width="2.2572" fill="none" stroke-linecap="round"/>
<path d="M 637.3663999999999 479.90999999999997 C 770.7919999999999 468.618, 932.3072 491.20199999999994, 1395.7856 479.90999999999997"
      stroke="rgba(71,54,254,0.28)"
      stroke-width="2.2572" fill="none" stroke-linecap="round"/>
<path d="M 637.3663999999999 541.0749999999999 C 770.7919999999999 529.7829999999999, 932.3072 552.367, 1395.7856 541.0749999999999"
      stroke="rgba(71,54,254,0.28)"
      stroke-width="2.2572" fill="none" stroke-linecap="round"/>
<path d="M 637.3663999999999 602.24 C 770.7919999999999 590.948, 932.3072 613.532, 1395.7856 602.24"
      stroke="rgba(239,69,35,0.32)"
      stroke-width="2.2572" fill="none" stroke-linecap="round"/>
<path d="M 637.3663999999999 663.405 C 770.7919999999999 652.1129999999999, 932.3072 674.697, 1395.7856 663.405"
      stroke="rgba(71,54,254,0.28)"
      stroke-width="2.2572" fill="none" stroke-linecap="round"/>
    
      <rect x="749.7248" y="216.42999999999998" width="308.98560000000003" height="103.51"
            rx="20.064"
            fill="rgba(255,255,255,0.56)"
            stroke="rgba(71,54,254,0.16)"
            stroke-width="1.8392000000000002"/>
    

      <rect x="974.4416" y="272.89" width="323.03040000000004" height="103.51"
            rx="20.064"
            fill="rgba(255,255,255,0.66)"
            stroke="rgba(71,54,254,0.16)"
            stroke-width="1.8392000000000002"/>
    

      <rect x="805.904" y="395.21999999999997" width="294.94079999999997" height="112.92"
            rx="20.064"
            fill="rgba(255,255,255,0.74)"
            stroke="rgba(71,54,254,0.16)"
            stroke-width="1.8392000000000002"/>
    

      <rect x="1072.7552" y="432.86" width="266.8512" height="84.69"
            rx="20.064"
            fill="rgba(255,255,255,0.82)"
            stroke="rgba(71,54,254,0.16)"
            stroke-width="1.8392000000000002"/>
    

      <rect x="932.3072" y="536.37" width="337.0752" height="84.69"
            rx="20.064"
            fill="rgba(255,255,255,0.9)"
            stroke="rgba(71,54,254,0.16)"
            stroke-width="1.8392000000000002"/>
    
    <rect x="763.7696" y="202.315" width="84.2688" height="21.1725" rx="5.646" fill="rgba(71,54,254,0.1)"/>
<rect x="960.3968" y="202.315" width="84.2688" height="21.1725" rx="5.646" fill="rgba(239,69,35,0.1)"/>
<rect x="1157.024" y="202.315" width="84.2688" height="21.1725" rx="5.646" fill="rgba(71,54,254,0.1)"/>
<rect x="763.7696" y="362.28499999999997" width="84.2688" height="21.1725" rx="5.646" fill="rgba(239,69,35,0.1)"/>
<rect x="960.3968" y="362.28499999999997" width="84.2688" height="21.1725" rx="5.646" fill="rgba(71,54,254,0.1)"/>
    <path d="M 904.2176 268.185 L 1135.9568 324.645" stroke="rgba(71,54,254,0.18)" stroke-width="2.0063999999999997" stroke-dasharray="6.688 10.032" fill="none"/>
<circle cx="904.2176" cy="268.185" r="4.6815999999999995" fill="rgba(239,69,35,0.86)"/>
<path d="M 1135.9568 324.645 L 953.3743999999999 451.68" stroke="rgba(71,54,254,0.18)" stroke-width="2.0063999999999997" stroke-dasharray="6.688 10.032" fill="none"/>
<circle cx="1135.9568" cy="324.645" r="4.6815999999999995" fill="rgba(71,54,254,0.86)"/>
<path d="M 953.3743999999999 451.68 L 1206.1808 475.2049999999999" stroke="rgba(71,54,254,0.18)" stroke-width="2.0063999999999997" stroke-dasharray="6.688 10.032" fill="none"/>
<circle cx="953.3743999999999" cy="451.68" r="4.6815999999999995" fill="rgba(239,69,35,0.86)"/>
<path d="M 1206.1808 475.2049999999999 L 1058.7104 578.715" stroke="rgba(71,54,254,0.18)" stroke-width="2.0063999999999997" stroke-dasharray="6.688 10.032" fill="none"/>
<circle cx="1206.1808" cy="475.2049999999999" r="4.6815999999999995" fill="rgba(71,54,254,0.86)"/>
<circle cx="1058.7104" cy="578.715" r="4.6815999999999995" fill="rgba(71,54,254,0.86)"/>
    <g filter="url(#fineGlow)"><circle cx="680.87" cy="325.67" r="1.41" fill="rgba(71,54,254,0.22)"/><circle cx="1148.59" cy="494.85" r="3.17" fill="rgba(71,54,254,0.22)"/><circle cx="1129.04" cy="300.08" r="0.63" fill="rgba(71,54,254,0.12)"/><circle cx="1383.86" cy="256.98" r="2.60" fill="rgba(71,54,254,0.12)"/><circle cx="960.87" cy="335.71" r="3.39" fill="rgba(71,54,254,0.12)"/><circle cx="1177.76" cy="381.74" r="2.06" fill="rgba(71,54,254,0.22)"/><circle cx="1218.84" cy="587.67" r="3.24" fill="rgba(71,54,254,0.12)"/><circle cx="700.17" cy="214.11" r="1.70" fill="rgba(71,54,254,0.22)"/><circle cx="1267.10" cy="224.40" r="1.58" fill="rgba(71,54,254,0.12)"/><circle cx="1221.00" cy="375.97" r="2.56" fill="rgba(71,54,254,0.22)"/><circle cx="1314.02" cy="582.07" r="2.89" fill="rgba(239,69,35,0.22)"/><circle cx="759.60" cy="326.18" r="1.42" fill="rgba(71,54,254,0.22)"/><circle cx="790.04" cy="578.08" r="1.07" fill="rgba(71,54,254,0.12)"/><circle cx="1025.96" cy="438.11" r="0.60" fill="rgba(239,69,35,0.22)"/><circle cx="691.61" cy="370.36" r="3.03" fill="rgba(71,54,254,0.22)"/><circle cx="1096.00" cy="362.09" r="2.11" fill="rgba(239,69,35,0.22)"/><circle cx="1406.62" cy="610.95" r="0.66" fill="rgba(71,54,254,0.22)"/><circle cx="801.93" cy="594.43" r="0.79" fill="rgba(239,69,35,0.22)"/><circle cx="911.37" cy="366.84" r="2.45" fill="rgba(71,54,254,0.12)"/><circle cx="809.52" cy="498.61" r="0.74" fill="rgba(239,69,35,0.22)"/><circle cx="1207.73" cy="645.73" r="1.93" fill="rgba(71,54,254,0.12)"/><circle cx="1416.38" cy="641.70" r="2.33" fill="rgba(239,69,35,0.22)"/><circle cx="796.94" cy="295.79" r="3.49" fill="rgba(71,54,254,0.12)"/><circle cx="1318.20" cy="242.21" r="1.62" fill="rgba(239,69,35,0.22)"/><circle cx="988.51" cy="433.74" r="2.44" fill="rgba(71,54,254,0.12)"/><circle cx="1368.54" cy="260.58" r="2.08" fill="rgba(71,54,254,0.12)"/><circle cx="834.73" cy="627.17" r="3.13" fill="rgba(71,54,254,0.22)"/><circle cx="920.81" cy="363.22" r="2.49" fill="rgba(239,69,35,0.22)"/><circle cx="741.79" cy="214.00" r="3.58" fill="rgba(239,69,35,0.22)"/><circle cx="1336.18" cy="591.03" r="0.60" fill="rgba(71,54,254,0.22)"/><circle cx="738.00" cy="450.33" r="3.23" fill="rgba(239,69,35,0.22)"/><circle cx="1341.56" cy="589.17" r="0.90" fill="rgba(71,54,254,0.12)"/><circle cx="824.54" cy="555.77" r="2.93" fill="rgba(71,54,254,0.22)"/><circle cx="878.85" cy="204.73" r="2.79" fill="rgba(71,54,254,0.22)"/><circle cx="1213.92" cy="422.66" r="3.00" fill="rgba(71,54,254,0.12)"/><circle cx="766.89" cy="527.07" r="1.27" fill="rgba(71,54,254,0.22)"/><circle cx="1347.81" cy="609.66" r="2.15" fill="rgba(71,54,254,0.12)"/><circle cx="1019.67" cy="638.98" r="3.35" fill="rgba(71,54,254,0.22)"/><circle cx="1125.39" cy="572.32" r="1.00" fill="rgba(71,54,254,0.12)"/><circle cx="706.02" cy="583.86" r="2.25" fill="rgba(239,69,35,0.22)"/></g>
  </g>
  
</svg>