<?xml version="1.0" encoding="UTF-8"?>
<svg xmlns="http://www.w3.org/2000/svg" width="1200" height="630" viewBox="0 0 1200 630" fill="none">
  <defs>
    <linearGradient id="bgGradient" x1="0" y1="0" x2="1200" y2="630">
      <stop offset="0%" stop-color="#F3F1FF"/>
      <stop offset="42%" stop-color="#ECE8FF"/>
      <stop offset="100%" stop-color="#E6E1FF"/>
    </linearGradient>
    <radialGradient id="violetGlow" cx="0" cy="0" r="1" gradientUnits="userSpaceOnUse" gradientTransform="translate(96 50.4) rotate(40) scale(540 327.6)">
      <stop offset="0%" stop-color="#4736FE" stop-opacity="0.9"/>
      <stop offset="100%" stop-color="#4736FE" stop-opacity="0"/>
    </radialGradient>
    <radialGradient id="emberGlow" cx="0" cy="0" r="1" gradientUnits="userSpaceOnUse" gradientTransform="translate(1008 390.6) rotate(210) scale(336.00000000000006 239.4)">
      <stop offset="0%" stop-color="#EF4523" stop-opacity="0.65"/>
      <stop offset="100%" stop-color="#EF4523" stop-opacity="0"/>
    </radialGradient>
    <filter id="softGlow" x="-40%" y="-40%" width="180%" height="180%">
      <feGaussianBlur stdDeviation="10" result="blur"/>
      <feMerge>
        <feMergeNode in="blur"/>
        <feMergeNode in="SourceGraphic"/>
      </feMerge>
    </filter>
    <filter id="fineGlow" x="-30%" y="-30%" width="160%" height="160%">
      <feGaussianBlur stdDeviation="3" result="blur"/>
      <feMerge>
        <feMergeNode in="blur"/>
        <feMergeNode in="SourceGraphic"/>
      </feMerge>
    </filter>
  </defs>
  
  <rect width="1200" height="630" fill="url(#bgGradient)"/>
  <rect width="1200" height="630" fill="url(#violetGlow)" opacity="0.04"/>
  <ellipse cx="936" cy="176.4" rx="264" ry="138.6" fill="rgba(71,54,254,0.05)"/>
  <ellipse cx="216" cy="516.6" rx="216" ry="113.39999999999999" fill="rgba(239,69,35,0.035)"/>
  <g><line x1="60" y1="63" x2="60" y2="567" stroke="rgba(71,54,254,0.05)" stroke-width="1"/>
<line x1="168" y1="63" x2="168" y2="567" stroke="rgba(71,54,254,0.05)" stroke-width="1"/>
<line x1="276" y1="63" x2="276" y2="567" stroke="rgba(71,54,254,0.05)" stroke-width="1"/>
<line x1="384" y1="63" x2="384" y2="567" stroke="rgba(71,54,254,0.05)" stroke-width="1"/>
<line x1="492" y1="63" x2="492" y2="567" stroke="rgba(71,54,254,0.05)" stroke-width="1"/>
<line x1="600" y1="63" x2="600" y2="567" stroke="rgba(71,54,254,0.05)" stroke-width="1"/>
<line x1="708" y1="63" x2="708" y2="567" stroke="rgba(71,54,254,0.05)" stroke-width="1"/>
<line x1="816" y1="63" x2="816" y2="567" stroke="rgba(71,54,254,0.05)" stroke-width="1"/>
<line x1="924" y1="63" x2="924" y2="567" stroke="rgba(71,54,254,0.05)" stroke-width="1"/>
<line x1="1032" y1="63" x2="1032" y2="567" stroke="rgba(71,54,254,0.05)" stroke-width="1"/>
<line x1="1140" y1="63" x2="1140" y2="567" stroke="rgba(71,54,254,0.05)" stroke-width="1"/>
<line x1="60" y1="63" x2="1140" y2="63" stroke="rgba(71,54,254,0.05)" stroke-width="1"/>
<line x1="60" y1="135" x2="1140" y2="135" stroke="rgba(71,54,254,0.05)" stroke-width="1"/>
<line x1="60" y1="207" x2="1140" y2="207" stroke="rgba(71,54,254,0.05)" stroke-width="1"/>
<line x1="60" y1="279" x2="1140" y2="279" stroke="rgba(71,54,254,0.05)" stroke-width="1"/>
<line x1="60" y1="351" x2="1140" y2="351" stroke="rgba(71,54,254,0.05)" stroke-width="1"/>
<line x1="60" y1="423" x2="1140" y2="423" stroke="rgba(71,54,254,0.05)" stroke-width="1"/>
<line x1="60" y1="495" x2="1140" y2="495" stroke="rgba(71,54,254,0.05)" stroke-width="1"/>
<line x1="60" y1="567" x2="1140" y2="567" stroke="rgba(71,54,254,0.05)" stroke-width="1"/></g>
  <rect x="86.39999999999999" y="53.550000000000004" width="132" height="8" rx="2" fill="rgba(71,54,254,0.9)"/>
  <rect x="1008" y="557.55" width="96" height="8" rx="2" fill="rgba(239,69,35,0.82)"/>
  
  
  <g>
    <path d="M 684.96 144.9 C 748.8 137.34, 826.08 152.46, 1047.8400000000001 144.9"
      stroke="rgba(239,69,35,0.32)"
      stroke-width="1.62" fill="none" stroke-linecap="round"/>
<path d="M 684.96 185.85000000000002 C 748.8 178.29000000000002, 826.08 193.41000000000003, 1047.8400000000001 185.85000000000002"
      stroke="rgba(71,54,254,0.28)"
      stroke-width="1.62" fill="none" stroke-linecap="round"/>
<path d="M 684.96 226.8 C 748.8 219.24, 826.08 234.36, 1047.8400000000001 226.8"
      stroke="rgba(71,54,254,0.28)"
      stroke-width="1.62" fill="none" stroke-linecap="round"/>
<path d="M 684.96 267.75 C 748.8 260.19, 826.08 275.31, 1047.8400000000001 267.75"
      stroke="rgba(239,69,35,0.32)"
      stroke-width="1.62" fill="none" stroke-linecap="round"/>
<path d="M 684.96 308.7 C 748.8 301.14, 826.08 316.26, 1047.8400000000001 308.7"
      stroke="rgba(71,54,254,0.28)"
      stroke-width="1.62" fill="none" stroke-linecap="round"/>
<path d="M 684.96 349.65 C 748.8 342.09, 826.08 357.21, 1047.8400000000001 349.65"
      stroke="rgba(71,54,254,0.28)"
      stroke-width="1.62" fill="none" stroke-linecap="round"/>
    
      <rect x="738.72" y="132.3" width="147.84000000000003" height="69.3"
            rx="14.4"
            fill="rgba(255,255,255,0.56)"
            stroke="rgba(71,54,254,0.16)"
            stroke-width="1.32"/>
    

      <rect x="846.24" y="170.1" width="154.56000000000003" height="69.3"
            rx="14.4"
            fill="rgba(255,255,255,0.66)"
            stroke="rgba(71,54,254,0.16)"
            stroke-width="1.32"/>
    

      <rect x="765.6" y="252" width="141.12" height="75.6"
            rx="14.4"
            fill="rgba(255,255,255,0.74)"
            stroke="rgba(71,54,254,0.16)"
            stroke-width="1.32"/>
    

      <rect x="893.28" y="277.2" width="127.68000000000002" height="56.699999999999996"
            rx="14.4"
            fill="rgba(255,255,255,0.82)"
            stroke="rgba(71,54,254,0.16)"
            stroke-width="1.32"/>
    

      <rect x="826.08" y="346.5" width="161.28000000000003" height="56.699999999999996"
            rx="14.4"
            fill="rgba(255,255,255,0.9)"
            stroke="rgba(71,54,254,0.16)"
            stroke-width="1.32"/>
    
    <rect x="745.44" y="122.85000000000001" width="40.32000000000001" height="14.174999999999999" rx="3.7800000000000002" fill="rgba(71,54,254,0.1)"/>
<rect x="839.52" y="122.85000000000001" width="40.32000000000001" height="14.174999999999999" rx="3.7800000000000002" fill="rgba(239,69,35,0.1)"/>
<rect x="933.6" y="122.85000000000001" width="40.32000000000001" height="14.174999999999999" rx="3.7800000000000002" fill="rgba(71,54,254,0.1)"/>
<rect x="745.44" y="229.95000000000002" width="40.32000000000001" height="14.174999999999999" rx="3.7800000000000002" fill="rgba(239,69,35,0.1)"/>
<rect x="839.52" y="229.95000000000002" width="40.32000000000001" height="14.174999999999999" rx="3.7800000000000002" fill="rgba(71,54,254,0.1)"/>
    <path d="M 812.64 166.95 L 923.52 204.75" stroke="rgba(71,54,254,0.18)" stroke-width="1.44" stroke-dasharray="6 8" fill="none"/>
<circle cx="812.64" cy="166.95" r="3.5" fill="rgba(239,69,35,0.86)"/>
<path d="M 923.52 204.75 L 836.16 289.8" stroke="rgba(71,54,254,0.18)" stroke-width="1.44" stroke-dasharray="6 8" fill="none"/>
<circle cx="923.52" cy="204.75" r="3.5" fill="rgba(71,54,254,0.86)"/>
<path d="M 836.16 289.8 L 957.1200000000001 305.55" stroke="rgba(71,54,254,0.18)" stroke-width="1.44" stroke-dasharray="6 8" fill="none"/>
<circle cx="836.16" cy="289.8" r="3.5" fill="rgba(239,69,35,0.86)"/>
<path d="M 957.1200000000001 305.55 L 886.5600000000001 374.85" stroke="rgba(71,54,254,0.18)" stroke-width="1.44" stroke-dasharray="6 8" fill="none"/>
<circle cx="957.1200000000001" cy="305.55" r="3.5" fill="rgba(71,54,254,0.86)"/>
<circle cx="886.5600000000001" cy="374.85" r="3.5" fill="rgba(71,54,254,0.86)"/>
    <g filter="url(#fineGlow)"><circle cx="1066.53" cy="330.43" r="0.60" fill="rgba(239,69,35,0.22)"/><circle cx="1010.14" cy="199.72" r="0.89" fill="rgba(239,69,35,0.22)"/><circle cx="791.91" cy="167.43" r="1.80" fill="rgba(239,69,35,0.22)"/><circle cx="843.93" cy="324.95" r="0.60" fill="rgba(71,54,254,0.22)"/><circle cx="916.80" cy="122.42" r="1.88" fill="rgba(71,54,254,0.22)"/><circle cx="983.84" cy="272.12" r="2.31" fill="rgba(239,69,35,0.22)"/><circle cx="998.86" cy="409.34" r="1.75" fill="rgba(71,54,254,0.22)"/><circle cx="1040.78" cy="266.19" r="1.10" fill="rgba(71,54,254,0.12)"/><circle cx="904.16" cy="338.92" r="0.78" fill="rgba(71,54,254,0.22)"/><circle cx="955.32" cy="321.17" r="1.76" fill="rgba(71,54,254,0.12)"/><circle cx="828.80" cy="308.42" r="1.37" fill="rgba(239,69,35,0.22)"/><circle cx="1058.24" cy="196.61" r="0.82" fill="rgba(71,54,254,0.22)"/><circle cx="792.12" cy="214.64" r="2.12" fill="rgba(71,54,254,0.22)"/><circle cx="913.50" cy="162.35" r="0.60" fill="rgba(71,54,254,0.12)"/><circle cx="948.64" cy="150.06" r="0.95" fill="rgba(239,69,35,0.22)"/><circle cx="708.94" cy="226.47" r="2.34" fill="rgba(239,69,35,0.22)"/><circle cx="724.44" cy="279.11" r="0.60" fill="rgba(71,54,254,0.22)"/><circle cx="964.52" cy="388.94" r="1.89" fill="rgba(239,69,35,0.22)"/><circle cx="994.88" cy="298.91" r="1.52" fill="rgba(71,54,254,0.12)"/><circle cx="754.11" cy="316.62" r="0.63" fill="rgba(71,54,254,0.12)"/><circle cx="902.88" cy="104.65" r="2.47" fill="rgba(239,69,35,0.22)"/><circle cx="943.62" cy="227.02" r="2.27" fill="rgba(239,69,35,0.22)"/><circle cx="968.74" cy="111.99" r="0.60" fill="rgba(71,54,254,0.22)"/><circle cx="943.35" cy="354.74" r="0.60" fill="rgba(71,54,254,0.12)"/><circle cx="959.85" cy="173.74" r="1.57" fill="rgba(239,69,35,0.22)"/><circle cx="962.64" cy="226.37" r="1.46" fill="rgba(71,54,254,0.22)"/></g>
  </g>
  
  <g>
    <text x="86.39999999999999" y="81.9" fill="rgba(71,54,254,0.72)" font-size="19.44" font-family="Geist, 'Helvetica Neue', Arial, sans-serif" font-weight="700" letter-spacing="0.12em">ORG DESIGN / AI</text>
    <text x="86.39999999999999" y="138.6" fill="#4736FE" font-size="103.19999999999999" font-family="Geist, 'Helvetica Neue', Arial, sans-serif" font-weight="500" letter-spacing="-0.06em">AI-Native</text>
<text x="86.39999999999999" y="245.7" fill="#4736FE" font-size="103.19999999999999" font-family="Geist, 'Helvetica Neue', Arial, sans-serif" font-weight="300" letter-spacing="-0.06em">is not</text>
<text x="86.39999999999999" y="352.8" fill="#6F5BFF" font-size="103.19999999999999" font-family="Geist, 'Helvetica Neue', Arial, sans-serif" font-weight="700" letter-spacing="-0.05em">AI-First.</text>
    <text x="86.39999999999999" y="492.03" fill="#4736FE" opacity="0.96" font-size="36" font-family="Geist, 'Helvetica Neue', Arial, sans-serif" font-weight="700" letter-spacing="-0.02em">The org design is the AI strategy.</text>
    <text x="86.39999999999999" y="555.03" fill="#161616" opacity="0.76" font-size="22.8" font-family="Geist, 'Helvetica Neue', Arial, sans-serif" font-weight="500">
      <tspan x="86.39999999999999" dy="0">What changes when the cost of carrying context collapses.</tspan>
    </text>
  </g>
</svg>