<?xml version="1.0" encoding="UTF-8"?>
<svg xmlns="http://www.w3.org/2000/svg" width="1672" height="941" viewBox="0 0 1672 941" fill="none">

    <defs>
    <filter id="softGlow" x="-40%" y="-40%" width="180%" height="180%">
      <feGaussianBlur stdDeviation="10" result="blur"/>
      <feMerge>
        <feMergeNode in="blur"/>
        <feMergeNode in="SourceGraphic"/>
      </feMerge>
    </filter>
  </defs>
    <rect width="1672" height="941" fill="#f4f2ff"/>
    
    <rect x="138" y="120" width="1372" height="700" rx="34" fill="rgba(255,255,255,0.3)" stroke="rgba(93,82,255,0.08)" stroke-width="2"/>
    <ellipse cx="1330" cy="222" rx="270" ry="190" fill="rgba(93,82,255,0.05)"/>
    <ellipse cx="242" cy="740" rx="270" ry="170" fill="rgba(239,107,80,0.04)"/>
  
    <rect x="168" y="82" width="160" height="9" rx="4.5" fill="#544eff"/>
    <rect x="1380" y="804" width="126" height="9" rx="4.5" fill="#ef5d43"/>
    
    <path d="M 260 252 C 356 252, 442 252, 546 252 C 642 252, 702 252, 836 252 C 972 252, 1040 300, 1168 300 C 1260 300, 1320 300, 1410 300"
      stroke="rgba(93,82,255,0.62)" stroke-width="8" fill="none" stroke-linecap="round"/>
    <path d="M 382 418 C 462 418, 562 418, 696 418 C 770 418, 802 418, 836 418 C 920 418, 972 484, 1090 484 C 1200 484, 1288 484, 1360 484"
      stroke="rgba(239,107,80,0.58)" stroke-width="8" fill="none" stroke-linecap="round"/>
    <path d="M 468 476 C 530 520, 610 570, 704 620 C 766 654, 802 666, 836 666 C 916 666, 922 622, 968 622 C 1042 622, 1102 666, 1248 666"
      stroke="rgba(239,107,80,0.48)" stroke-width="7" fill="none" stroke-linecap="round"/>
    <path d="M 836 176 C 836 252, 836 330, 836 418 C 836 508, 836 574, 836 748"
      stroke="rgba(93,82,255,0.36)" stroke-width="7" fill="none" stroke-linecap="round"/>
    <path d="M 836 418 C 868 418, 888 418, 888 452 C 888 522, 884 610, 900 666"
      stroke="rgba(93,82,255,0.5)" stroke-width="6" fill="none" stroke-linecap="round"/>
  
    
    <g>
      <circle cx="260" cy="252" r="13" fill="#fffdfa" stroke="#5d52ff" stroke-width="5"/>
      <circle cx="260" cy="252" r="4.5" fill="#5d52ff"/>
    </g>
  
    <g>
      <circle cx="546" cy="252" r="13" fill="#fffdfa" stroke="#5d52ff" stroke-width="5"/>
      <circle cx="546" cy="252" r="4.5" fill="#5d52ff"/>
    </g>
  
    <g>
      <circle cx="836" cy="252" r="13" fill="#fffdfa" stroke="#5d52ff" stroke-width="5"/>
      <circle cx="836" cy="252" r="4.5" fill="#5d52ff"/>
    </g>
  
    <g>
      <circle cx="1168" cy="300" r="13" fill="#fffdfa" stroke="#5d52ff" stroke-width="5"/>
      <circle cx="1168" cy="300" r="4.5" fill="#5d52ff"/>
    </g>
  
    <g>
      <circle cx="1410" cy="300" r="13" fill="#fffdfa" stroke="#5d52ff" stroke-width="5"/>
      <circle cx="1410" cy="300" r="4.5" fill="#5d52ff"/>
    </g>
  
    <g>
      <circle cx="382" cy="418" r="13" fill="#fffdfa" stroke="#5d52ff" stroke-width="5"/>
      <circle cx="382" cy="418" r="4.5" fill="#5d52ff"/>
    </g>
  
    <g>
      <circle cx="696" cy="418" r="13" fill="#fffdfa" stroke="#5d52ff" stroke-width="5"/>
      <circle cx="696" cy="418" r="4.5" fill="#5d52ff"/>
    </g>
  
    <g>
      <circle cx="836" cy="418" r="13" fill="#fffdfa" stroke="#ef6b50" stroke-width="5"/>
      <circle cx="836" cy="418" r="4.5" fill="#ef6b50"/>
    </g>
  
    <g>
      <circle cx="1090" cy="484" r="13" fill="#fffdfa" stroke="#5d52ff" stroke-width="5"/>
      <circle cx="1090" cy="484" r="4.5" fill="#5d52ff"/>
    </g>
  
    <g>
      <circle cx="1360" cy="484" r="13" fill="#fffdfa" stroke="#5d52ff" stroke-width="5"/>
      <circle cx="1360" cy="484" r="4.5" fill="#5d52ff"/>
    </g>
  
    <g>
      <circle cx="468" cy="476" r="13" fill="#fffdfa" stroke="#5d52ff" stroke-width="5"/>
      <circle cx="468" cy="476" r="4.5" fill="#5d52ff"/>
    </g>
  
    <g>
      <circle cx="836" cy="666" r="13" fill="#fffdfa" stroke="#5d52ff" stroke-width="5"/>
      <circle cx="836" cy="666" r="4.5" fill="#5d52ff"/>
    </g>
  
    <g>
      <circle cx="900" cy="666" r="13" fill="#fffdfa" stroke="#5d52ff" stroke-width="5"/>
      <circle cx="900" cy="666" r="4.5" fill="#5d52ff"/>
    </g>
  
    <g>
      <circle cx="1248" cy="666" r="13" fill="#fffdfa" stroke="#5d52ff" stroke-width="5"/>
      <circle cx="1248" cy="666" r="4.5" fill="#5d52ff"/>
    </g>
  
    
    
    <g>
      <rect x="250" y="198" width="106" height="32" rx="16" fill="rgba(255,255,255,0.92)" stroke="rgba(93,82,255,0.14)" stroke-width="2"/>
      <text x="268" y="219" fill="rgba(37,32,92,0.72)" font-size="15" font-family="'Avenir Next','Helvetica Neue',Arial,sans-serif" font-weight="600">signal</text>
    </g>
  
    
    <g>
      <rect x="976" y="236" width="102" height="32" rx="16" fill="rgba(255,255,255,0.92)" stroke="rgba(93,82,255,0.14)" stroke-width="2"/>
      <text x="994" y="257" fill="rgba(37,32,92,0.72)" font-size="15" font-family="'Avenir Next','Helvetica Neue',Arial,sans-serif" font-weight="600">truth</text>
    </g>
  
    
    <g>
      <rect x="1100" y="432" width="106" height="32" rx="16" fill="rgba(255,255,255,0.92)" stroke="rgba(93,82,255,0.14)" stroke-width="2"/>
      <text x="1118" y="453" fill="rgba(37,32,92,0.72)" font-size="15" font-family="'Avenir Next','Helvetica Neue',Arial,sans-serif" font-weight="600">agency</text>
    </g>
  
    
    <g>
      <rect x="912" y="612" width="118" height="32" rx="16" fill="rgba(255,255,255,0.92)" stroke="rgba(93,82,255,0.14)" stroke-width="2"/>
      <text x="930" y="633" fill="rgba(37,32,92,0.72)" font-size="15" font-family="'Avenir Next','Helvetica Neue',Arial,sans-serif" font-weight="600">decisions</text>
    </g>
  
    
    <g>
      <rect x="384" y="358" width="114" height="32" rx="16" fill="rgba(255,255,255,0.92)" stroke="rgba(93,82,255,0.14)" stroke-width="2"/>
      <text x="402" y="379" fill="rgba(37,32,92,0.72)" font-size="15" font-family="'Avenir Next','Helvetica Neue',Arial,sans-serif" font-weight="600">handoffs</text>
    </g>
  
  
  
</svg>