<?xml version="1.0" encoding="UTF-8"?>
<svg xmlns="http://www.w3.org/2000/svg" width="1672" height="941" viewBox="0 0 1672 941" fill="none">
  <defs>
    <linearGradient id="bgGradient" x1="0" y1="0" x2="1672" y2="941">
      <stop offset="0%" stop-color="#6356FF"/>
      <stop offset="42%" stop-color="#4736FE"/>
      <stop offset="100%" stop-color="#2B1EB0"/>
    </linearGradient>
    <radialGradient id="violetGlow" cx="0" cy="0" r="1" gradientUnits="userSpaceOnUse" gradientTransform="translate(133.76 75.28) rotate(40) scale(752.4 489.32)">
      <stop offset="0%" stop-color="#FFFFFF" stop-opacity="0.9"/>
      <stop offset="100%" stop-color="#FFFFFF" stop-opacity="0"/>
    </radialGradient>
    <radialGradient id="emberGlow" cx="0" cy="0" r="1" gradientUnits="userSpaceOnUse" gradientTransform="translate(1404.48 583.42) rotate(210) scale(468.16 357.58)">
      <stop offset="0%" stop-color="#EF4523" stop-opacity="0.65"/>
      <stop offset="100%" stop-color="#EF4523" stop-opacity="0"/>
    </radialGradient>
    <filter id="softGlow" x="-40%" y="-40%" width="180%" height="180%">
      <feGaussianBlur stdDeviation="13.376" result="blur"/>
      <feMerge>
        <feMergeNode in="blur"/>
        <feMergeNode in="SourceGraphic"/>
      </feMerge>
    </filter>
    <filter id="fineGlow" x="-30%" y="-30%" width="160%" height="160%">
      <feGaussianBlur stdDeviation="3.6784000000000003" result="blur"/>
      <feMerge>
        <feMergeNode in="blur"/>
        <feMergeNode in="SourceGraphic"/>
      </feMerge>
    </filter>
  </defs>
  
  <rect width="1672" height="941" fill="url(#bgGradient)"/>
  <rect width="1672" height="941" fill="url(#violetGlow)" opacity="0.16"/>
  <rect width="1672" height="941" fill="url(#emberGlow)" opacity="0.18"/>
  <ellipse cx="1371.04" cy="225.84" rx="367.84" ry="207.02" fill="rgba(255,255,255,0.05)"/>
  <ellipse cx="234.08" cy="752.8000000000001" rx="300.96" ry="188.20000000000002" fill="rgba(239,69,35,0.08)"/>
  <rect x="120.38399999999999" y="79.985" width="183.92" height="8.469" rx="2" fill="rgba(255,255,255,0.82)"/>
  <rect x="1404.48" y="832.785" width="133.76" height="8.469" rx="2" fill="rgba(239,69,35,0.82)"/>
  
  
  <g>
    <rect x="167.20000000000002" y="131.74" width="1304.16" height="677.52" rx="24" fill="rgba(255,255,255,0.06)" stroke="rgba(255,255,255,0.08)" stroke-width="1.672"/>
    <line x1="167.20000000000002" y1="253.6936" x2="1471.3600000000001" y2="253.6936" stroke="rgba(255,255,255,0.08)" stroke-width="1.5048"/>
<line x1="167.20000000000002" y1="362.0968" x2="1471.3600000000001" y2="362.0968" stroke="rgba(255,255,255,0.08)" stroke-width="1.5048"/>
<line x1="167.20000000000002" y1="470.5" x2="1471.3600000000001" y2="470.5" stroke="rgba(255,255,255,0.08)" stroke-width="1.5048"/>
<line x1="167.20000000000002" y1="578.9032" x2="1471.3600000000001" y2="578.9032" stroke="rgba(255,255,255,0.08)" stroke-width="1.5048"/>
<line x1="167.20000000000002" y1="687.3064" x2="1471.3600000000001" y2="687.3064" stroke="rgba(255,255,255,0.08)" stroke-width="1.5048"/>
    
      <rect x="271.5328" y="687.3063999999999" width="156.4992" height="121.9536" rx="18" fill="rgba(255,255,255,0.12)" stroke="rgba(255,255,255,0.18)" stroke-width="1.672"/>
      <rect x="295.00768" y="701.9408319999999" width="109.54944000000002" height="17.073504" rx="10.032" fill="rgba(255,255,255,0.8)"/>
    

      <rect x="506.2816" y="578.9032" width="156.4992" height="230.35680000000002" rx="18" fill="rgba(255,255,255,0.12)" stroke="rgba(255,255,255,0.18)" stroke-width="1.672"/>
      <rect x="529.75648" y="606.546016" width="109.54944000000002" height="32.24995200000001" rx="10.032" fill="rgba(255,255,255,0.8)"/>
    

      <rect x="741.0304000000001" y="443.39919999999995" width="156.4992" height="365.86080000000004" rx="18" fill="rgba(255,255,255,0.12)" stroke="rgba(255,255,255,0.18)" stroke-width="1.672"/>
      <rect x="764.5052800000001" y="487.30249599999996" width="109.54944000000002" height="51.220512000000014" rx="10.032" fill="rgba(255,255,255,0.8)"/>
    

      <rect x="975.7792000000001" y="280.7944" width="156.4992" height="528.4656" rx="18" fill="rgba(255,255,255,0.12)" stroke="rgba(255,255,255,0.18)" stroke-width="1.672"/>
      <rect x="999.25408" y="344.210272" width="109.54944000000002" height="73.985184" rx="10.032" fill="rgba(239,69,35,0.88)"/>
    
    <path d="M 245.44960000000003 687.3063999999999 C 454.1152000000001 633.1048000000001, 714.9472000000001 524.7016, 1158.3616 267.244" stroke="rgba(239,69,35,0.92)" stroke-width="4.6815999999999995" fill="none" stroke-linecap="round"/>
  </g>
  
</svg>