<?xml version="1.0" encoding="UTF-8"?>
<svg xmlns="http://www.w3.org/2000/svg" width="1200" height="630" viewBox="0 0 1200 630" fill="none">
  <defs>
    <linearGradient id="bgGradient" x1="0" y1="0" x2="1200" y2="630">
      <stop offset="0%" stop-color="#EBE9FF"/>
      <stop offset="42%" stop-color="#F2F1FF"/>
      <stop offset="100%" stop-color="#DFDBFF"/>
    </linearGradient>
    <radialGradient id="violetGlow" cx="0" cy="0" r="1" gradientUnits="userSpaceOnUse" gradientTransform="translate(96 50.4) rotate(40) scale(540 327.6)">
      <stop offset="0%" stop-color="#4736FE" stop-opacity="0.9"/>
      <stop offset="100%" stop-color="#4736FE" stop-opacity="0"/>
    </radialGradient>
    <radialGradient id="emberGlow" cx="0" cy="0" r="1" gradientUnits="userSpaceOnUse" gradientTransform="translate(1008 390.6) rotate(210) scale(336.00000000000006 239.4)">
      <stop offset="0%" stop-color="#4736FE" stop-opacity="0.65"/>
      <stop offset="100%" stop-color="#4736FE" stop-opacity="0"/>
    </radialGradient>
    <filter id="softGlow" x="-40%" y="-40%" width="180%" height="180%">
      <feGaussianBlur stdDeviation="10" result="blur"/>
      <feMerge>
        <feMergeNode in="blur"/>
        <feMergeNode in="SourceGraphic"/>
      </feMerge>
    </filter>
    <filter id="fineGlow" x="-30%" y="-30%" width="160%" height="160%">
      <feGaussianBlur stdDeviation="3" result="blur"/>
      <feMerge>
        <feMergeNode in="blur"/>
        <feMergeNode in="SourceGraphic"/>
      </feMerge>
    </filter>
  </defs>
  
  <rect width="1200" height="630" fill="url(#bgGradient)"/>
  <rect width="1200" height="630" fill="url(#violetGlow)" opacity="0.08"/>
  <rect x="84.00000000000001" y="50.4" width="156" height="8" rx="2" fill="rgba(239,69,35,0.9)"/>
  <rect x="948" y="567" width="144" height="8" rx="2" fill="rgba(71,54,254,0.8)"/>
  
  
  <g>
    <g filter="url(#fineGlow)"><circle cx="708.45" cy="171.57" r="2.42" fill="rgba(71,54,254,0.05)"/><circle cx="924.02" cy="181.78" r="0.60" fill="rgba(71,54,254,0.12)"/><circle cx="708.20" cy="280.42" r="1.44" fill="rgba(71,54,254,0.05)"/><circle cx="1070.98" cy="215.22" r="0.60" fill="rgba(71,54,254,0.12)"/><circle cx="1029.45" cy="269.34" r="1.10" fill="rgba(71,54,254,0.05)"/><circle cx="888.18" cy="143.34" r="0.60" fill="rgba(71,54,254,0.05)"/><circle cx="749.40" cy="368.22" r="1.35" fill="rgba(71,54,254,0.09)"/><circle cx="1059.12" cy="370.31" r="1.85" fill="rgba(71,54,254,0.09)"/><circle cx="909.39" cy="416.11" r="1.12" fill="rgba(71,54,254,0.12)"/><circle cx="842.68" cy="113.84" r="2.04" fill="rgba(71,54,254,0.12)"/><circle cx="844.83" cy="164.15" r="0.60" fill="rgba(71,54,254,0.12)"/><circle cx="745.44" cy="322.73" r="0.60" fill="rgba(71,54,254,0.05)"/><circle cx="898.36" cy="216.27" r="0.60" fill="rgba(71,54,254,0.12)"/><circle cx="913.17" cy="197.18" r="1.66" fill="rgba(71,54,254,0.05)"/><circle cx="1090.62" cy="222.67" r="2.22" fill="rgba(71,54,254,0.05)"/><circle cx="805.82" cy="343.75" r="2.16" fill="rgba(71,54,254,0.05)"/><circle cx="823.16" cy="115.68" r="2.09" fill="rgba(71,54,254,0.05)"/><circle cx="823.61" cy="371.35" r="0.60" fill="rgba(71,54,254,0.12)"/><circle cx="807.06" cy="288.53" r="1.71" fill="rgba(71,54,254,0.05)"/><circle cx="1101.28" cy="399.76" r="2.03" fill="rgba(71,54,254,0.09)"/><circle cx="1100.03" cy="437.67" r="0.81" fill="rgba(71,54,254,0.05)"/><circle cx="829.33" cy="329.96" r="1.78" fill="rgba(71,54,254,0.05)"/><circle cx="910.80" cy="198.94" r="0.81" fill="rgba(71,54,254,0.05)"/><circle cx="926.25" cy="311.62" r="2.62" fill="rgba(71,54,254,0.12)"/><circle cx="1102.19" cy="315.65" r="1.47" fill="rgba(71,54,254,0.12)"/><circle cx="1086.34" cy="235.16" r="1.75" fill="rgba(71,54,254,0.05)"/><circle cx="1094.28" cy="257.40" r="1.87" fill="rgba(71,54,254,0.09)"/><circle cx="986.67" cy="54.04" r="1.67" fill="rgba(71,54,254,0.09)"/><circle cx="849.05" cy="221.29" r="2.14" fill="rgba(71,54,254,0.05)"/><circle cx="1092.65" cy="150.55" r="1.15" fill="rgba(71,54,254,0.12)"/><circle cx="955.08" cy="66.55" r="0.92" fill="rgba(71,54,254,0.09)"/><circle cx="824.06" cy="96.85" r="0.60" fill="rgba(71,54,254,0.05)"/><circle cx="654.72" cy="289.79" r="1.02" fill="rgba(71,54,254,0.12)"/><circle cx="742.90" cy="85.71" r="0.60" fill="rgba(71,54,254,0.12)"/><circle cx="737.28" cy="205.32" r="1.21" fill="rgba(71,54,254,0.05)"/><circle cx="657.98" cy="154.89" r="2.16" fill="rgba(71,54,254,0.09)"/><circle cx="938.65" cy="322.32" r="2.00" fill="rgba(71,54,254,0.09)"/><circle cx="1049.71" cy="178.05" r="0.89" fill="rgba(71,54,254,0.12)"/><circle cx="787.06" cy="53.25" r="0.60" fill="rgba(71,54,254,0.12)"/><circle cx="823.79" cy="184.44" r="1.14" fill="rgba(71,54,254,0.05)"/><circle cx="671.83" cy="268.81" r="0.83" fill="rgba(71,54,254,0.05)"/><circle cx="662.06" cy="129.81" r="0.60" fill="rgba(71,54,254,0.09)"/><circle cx="979.51" cy="244.59" r="1.72" fill="rgba(71,54,254,0.12)"/><circle cx="697.63" cy="314.22" r="1.90" fill="rgba(71,54,254,0.05)"/><circle cx="990.25" cy="419.46" r="1.89" fill="rgba(71,54,254,0.05)"/><circle cx="940.34" cy="123.36" r="0.60" fill="rgba(71,54,254,0.12)"/><circle cx="985.04" cy="130.99" r="2.59" fill="rgba(71,54,254,0.12)"/><circle cx="809.04" cy="128.00" r="1.42" fill="rgba(71,54,254,0.05)"/><circle cx="826.77" cy="410.00" r="0.98" fill="rgba(71,54,254,0.09)"/><circle cx="973.70" cy="187.80" r="1.96" fill="rgba(71,54,254,0.12)"/><circle cx="1098.42" cy="255.91" r="1.87" fill="rgba(71,54,254,0.05)"/><circle cx="734.46" cy="143.77" r="1.79" fill="rgba(71,54,254,0.05)"/><circle cx="782.12" cy="190.57" r="2.54" fill="rgba(71,54,254,0.12)"/><circle cx="999.92" cy="213.42" r="1.75" fill="rgba(71,54,254,0.09)"/><circle cx="779.91" cy="99.74" r="2.33" fill="rgba(71,54,254,0.05)"/><circle cx="821.68" cy="381.40" r="1.00" fill="rgba(71,54,254,0.12)"/><circle cx="1103.37" cy="139.36" r="0.60" fill="rgba(71,54,254,0.12)"/><circle cx="725.33" cy="297.92" r="2.50" fill="rgba(71,54,254,0.12)"/><circle cx="1098.78" cy="286.14" r="0.61" fill="rgba(71,54,254,0.12)"/><circle cx="979.39" cy="364.49" r="0.65" fill="rgba(71,54,254,0.09)"/><circle cx="929.68" cy="205.61" r="1.01" fill="rgba(71,54,254,0.09)"/><circle cx="928.83" cy="366.89" r="2.23" fill="rgba(71,54,254,0.09)"/><circle cx="954.89" cy="408.67" r="0.60" fill="rgba(71,54,254,0.09)"/><circle cx="688.51" cy="381.92" r="0.60" fill="rgba(71,54,254,0.12)"/><circle cx="1099.10" cy="86.60" r="2.59" fill="rgba(71,54,254,0.05)"/><circle cx="662.95" cy="332.65" r="1.48" fill="rgba(71,54,254,0.05)"/><circle cx="944.93" cy="246.82" r="1.63" fill="rgba(71,54,254,0.05)"/><circle cx="678.91" cy="370.10" r="1.11" fill="rgba(71,54,254,0.09)"/><circle cx="670.19" cy="220.66" r="0.60" fill="rgba(71,54,254,0.09)"/><circle cx="854.63" cy="192.05" r="1.71" fill="rgba(71,54,254,0.12)"/></g>
    
    <rect x="744" y="100.8" width="312" height="315" rx="19.2"
          fill="rgba(255,255,255,0.42)" stroke="rgba(71,54,254,0.16)" stroke-width="1.44"/>
    <rect x="765.84" y="138.6" width="268.32" height="1" fill="rgba(71,54,254,0.11)"/>
    <rect x="765.84" y="258.3" width="268.32" height="1" fill="rgba(71,54,254,0.11)"/>
  
    
    <path d="M 750.24 189
             L 762.72 189
             L 762.72 187.425
             L 841.9680000000001 187.425"
          stroke="rgba(71,54,254,0.24)" stroke-width="2.28" stroke-linecap="round" stroke-linejoin="round" fill="none" stroke-dasharray="8 8"/>
    <path d="M 848.2080000000001 187.425
             L 868.8 187.425
             L 868.8 204.75"
          stroke="rgba(71,54,254,0.24)" stroke-width="2.28" stroke-linecap="round" stroke-linejoin="round" fill="none" stroke-dasharray="8 8"/>
    <path d="M 887.52 204.75
             L 883.152 204.75
             L 883.152 247.275"
          stroke="rgba(71,54,254,0.24)" stroke-width="2.28" stroke-linecap="round" stroke-linejoin="round" fill="none" stroke-dasharray="8 8"/>
    <path d="M 937.3152000000001 267.75
             L 943.68 267.75
             L 943.68 283.5"
          stroke="rgba(71,54,254,0.24)" stroke-width="2.28" stroke-linecap="round" stroke-linejoin="round" fill="none" stroke-dasharray="8 8"/>
    <path d="M 962.4 283.5
             L 959.7792 283.5
             L 959.7792 324.45000000000005"
          stroke="rgba(71,54,254,0.24)" stroke-width="2.28" stroke-linecap="round" stroke-linejoin="round" fill="none" stroke-dasharray="8 8"/>
    <circle cx="878.16" cy="204.75" r="4.08" fill="rgba(239,69,35,0.92)"/>
    <circle cx="953.04" cy="283.5" r="4.08" fill="rgba(239,69,35,0.92)"/>
  
    
    
    <g>
      <rect x="772.08" y="138.6" width="87.36000000000001" height="78.75" rx="12" fill="rgba(255,255,255,0.82)" stroke="rgba(71,54,254,0.12)" stroke-width="1"/>
      <rect x="784.3104000000001" y="152.775" width="29.702400000000008" height="4.725" rx="1.575" fill="rgba(22,22,22,0.1)"/>
      <rect x="784.3104000000001" y="163.0125" width="41.93280000000001" height="4.725" rx="1.575" fill="rgba(22,22,22,0.08)"/>
      <rect x="784.3104000000001" y="173.25" width="24.460800000000006" height="4.725" rx="1.575" fill="rgba(22,22,22,0.06)"/>
      
      <path d="M 834.9792 175.36679999999998
               L 825.54432 192.978576
               L 844.41408 192.978576 Z"
            fill="rgba(255,255,255,0.92)" stroke="rgba(239,69,35,0.95)" stroke-width="1.8"/>
    
    </g>
  

    <g>
      <rect x="865.6800000000001" y="217.35" width="87.36000000000001" height="78.75" rx="12" fill="rgba(255,255,255,0.82)" stroke="rgba(71,54,254,0.12)" stroke-width="1"/>
      <rect x="877.9104000000001" y="231.525" width="29.702400000000008" height="4.725" rx="1.575" fill="rgba(22,22,22,0.1)"/>
      <rect x="877.9104000000001" y="241.7625" width="41.93280000000001" height="4.725" rx="1.575" fill="rgba(22,22,22,0.08)"/>
      <rect x="877.9104000000001" y="252" width="24.460800000000006" height="4.725" rx="1.575" fill="rgba(22,22,22,0.06)"/>
      
      <rect x="921.5904000000002" y="261.45252" width="13.977600000000002" height="3.14496" rx="0.8736000000000002" fill="rgba(71,54,254,0.92)"/>
      <rect x="927.0067200000001" y="256.03619999999995" width="3.14496" height="13.977600000000002" rx="0.8736000000000002" fill="rgba(71,54,254,0.92)"/>
    
    </g>
  

    <g>
      <rect x="940.56" y="296.1" width="87.36000000000001" height="78.75" rx="12" fill="rgba(255,255,255,0.82)" stroke="rgba(71,54,254,0.12)" stroke-width="1"/>
      <rect x="952.7904" y="310.27500000000003" width="29.702400000000008" height="4.725" rx="1.575" fill="rgba(22,22,22,0.1)"/>
      <rect x="952.7904" y="320.51250000000005" width="41.93280000000001" height="4.725" rx="1.575" fill="rgba(22,22,22,0.08)"/>
      <rect x="952.7904" y="330.75" width="24.460800000000006" height="4.725" rx="1.575" fill="rgba(22,22,22,0.06)"/>
      
      <rect x="994.7231999999999" y="333.1125" width="17.472000000000005" height="18.9" rx="1.7472000000000003" fill="rgba(71,54,254,0.08)" stroke="rgba(71,54,254,0.92)" stroke-width="1.4"/>
      <rect x="997.8681599999999" y="336.8925" width="11.182080000000003" height="2.268" rx="0.8736000000000002" fill="rgba(71,54,254,0.92)" opacity="0.9"/>
      <rect x="997.8681599999999" y="341.4285" width="7.687680000000002" height="2.268" rx="0.8736000000000002" fill="rgba(71,54,254,0.92)" opacity="0.55"/>
    
    </g>
  
  </g>
  
  <g>
    <text x="90" y="94.5" fill="rgba(71,54,254,0.82)" font-size="18.096" font-family="Geist, 'Helvetica Neue', Arial, sans-serif" font-weight="700" letter-spacing="0.14em">ROAD SAFETY / INDIA</text>
    <text x="90" y="170.10000000000002" fill="#4736FE" font-size="86.39999999999999" font-family="Geist, 'Helvetica Neue', Arial, sans-serif" font-weight="700" letter-spacing="-0.055em">India&apos;s road</text>
<text x="90" y="264.6" fill="#4736FE" font-size="86.39999999999999" font-family="Geist, 'Helvetica Neue', Arial, sans-serif" font-weight="300" letter-spacing="-0.045em">deaths are a</text>
<text x="90" y="359.1" fill="#4736FE" font-size="86.39999999999999" font-family="Geist, 'Helvetica Neue', Arial, sans-serif" font-weight="800" letter-spacing="-0.055em">trust problem.</text>
    <text x="90" y="472.50000000000006" fill="#4736FE" opacity="0.96" font-size="31.2" font-family="Geist, 'Helvetica Neue', Arial, sans-serif" font-weight="700" letter-spacing="-0.02em">Not a traffic problem.</text>
    <text x="90" y="524.1600000000001" fill="#161616" opacity="0.72" font-size="22.8" font-family="Geist, 'Helvetica Neue', Arial, sans-serif" font-weight="500">
      <tspan x="90" dy="0">Road safety fails when truth dies at each handoff.</tspan>
    </text>
  </g>
</svg>