<?xml version="1.0" encoding="UTF-8"?>
<svg xmlns="http://www.w3.org/2000/svg" width="1254" height="1254" viewBox="0 0 1254 1254" fill="none">
  <defs>
    <linearGradient id="bgGradient" x1="0" y1="0" x2="1254" y2="1254">
      <stop offset="0%" stop-color="#EBE9FF"/>
      <stop offset="42%" stop-color="#F2F1FF"/>
      <stop offset="100%" stop-color="#DFDBFF"/>
    </linearGradient>
    <radialGradient id="violetGlow" cx="0" cy="0" r="1" gradientUnits="userSpaceOnUse" gradientTransform="translate(100.32000000000001 100.32000000000001) rotate(40) scale(564.3000000000001 652.08)">
      <stop offset="0%" stop-color="#4736FE" stop-opacity="0.9"/>
      <stop offset="100%" stop-color="#4736FE" stop-opacity="0"/>
    </radialGradient>
    <radialGradient id="emberGlow" cx="0" cy="0" r="1" gradientUnits="userSpaceOnUse" gradientTransform="translate(1053.36 777.48) rotate(210) scale(351.12000000000006 476.52)">
      <stop offset="0%" stop-color="#4736FE" stop-opacity="0.65"/>
      <stop offset="100%" stop-color="#4736FE" stop-opacity="0"/>
    </radialGradient>
    <filter id="softGlow" x="-40%" y="-40%" width="180%" height="180%">
      <feGaussianBlur stdDeviation="10.032" result="blur"/>
      <feMerge>
        <feMergeNode in="blur"/>
        <feMergeNode in="SourceGraphic"/>
      </feMerge>
    </filter>
    <filter id="fineGlow" x="-30%" y="-30%" width="160%" height="160%">
      <feGaussianBlur stdDeviation="3" result="blur"/>
      <feMerge>
        <feMergeNode in="blur"/>
        <feMergeNode in="SourceGraphic"/>
      </feMerge>
    </filter>
  </defs>
  
  <rect width="1254" height="1254" fill="url(#bgGradient)"/>
  <rect width="1254" height="1254" fill="url(#violetGlow)" opacity="0.08"/>
  <rect x="87.78000000000002" y="100.32000000000001" width="163.02" height="12.540000000000001" rx="2.508" fill="rgba(239,69,35,0.9)"/>
  <rect x="990.6600000000001" y="1128.6000000000001" width="150.48" height="12.540000000000001" rx="2.508" fill="rgba(71,54,254,0.8)"/>
  
  
  <g>
    <g filter="url(#fineGlow)"><circle cx="1021.60" cy="476.90" r="1.92" fill="rgba(71,54,254,0.05)"/><circle cx="615.46" cy="324.29" r="1.77" fill="rgba(71,54,254,0.09)"/><circle cx="678.50" cy="426.51" r="0.60" fill="rgba(71,54,254,0.12)"/><circle cx="753.27" cy="536.45" r="2.58" fill="rgba(71,54,254,0.05)"/><circle cx="1074.14" cy="413.96" r="1.04" fill="rgba(71,54,254,0.12)"/><circle cx="993.13" cy="643.83" r="0.60" fill="rgba(71,54,254,0.09)"/><circle cx="917.35" cy="495.20" r="2.42" fill="rgba(71,54,254,0.12)"/><circle cx="1115.61" cy="597.76" r="0.88" fill="rgba(71,54,254,0.12)"/><circle cx="1017.47" cy="347.69" r="1.61" fill="rgba(71,54,254,0.09)"/><circle cx="669.42" cy="221.52" r="2.29" fill="rgba(71,54,254,0.05)"/><circle cx="670.19" cy="741.55" r="0.61" fill="rgba(71,54,254,0.09)"/><circle cx="1062.66" cy="322.89" r="0.92" fill="rgba(71,54,254,0.09)"/><circle cx="934.38" cy="686.72" r="1.94" fill="rgba(71,54,254,0.05)"/><circle cx="921.35" cy="633.83" r="2.50" fill="rgba(71,54,254,0.09)"/><circle cx="786.40" cy="758.00" r="1.50" fill="rgba(71,54,254,0.09)"/><circle cx="823.01" cy="241.01" r="2.75" fill="rgba(71,54,254,0.12)"/><circle cx="709.40" cy="657.83" r="2.14" fill="rgba(71,54,254,0.09)"/><circle cx="1025.12" cy="385.40" r="2.22" fill="rgba(71,54,254,0.05)"/><circle cx="796.67" cy="414.76" r="1.55" fill="rgba(71,54,254,0.12)"/><circle cx="885.63" cy="413.45" r="0.91" fill="rgba(71,54,254,0.09)"/><circle cx="789.87" cy="513.16" r="1.24" fill="rgba(71,54,254,0.05)"/><circle cx="997.81" cy="583.63" r="0.94" fill="rgba(71,54,254,0.05)"/><circle cx="1060.73" cy="553.63" r="0.60" fill="rgba(71,54,254,0.12)"/><circle cx="577.26" cy="760.10" r="0.60" fill="rgba(71,54,254,0.09)"/><circle cx="816.53" cy="305.79" r="2.25" fill="rgba(71,54,254,0.05)"/><circle cx="961.71" cy="414.20" r="0.60" fill="rgba(71,54,254,0.05)"/><circle cx="710.47" cy="619.47" r="0.60" fill="rgba(71,54,254,0.05)"/><circle cx="1062.73" cy="720.45" r="0.66" fill="rgba(71,54,254,0.05)"/><circle cx="634.52" cy="890.80" r="0.60" fill="rgba(71,54,254,0.05)"/><circle cx="809.65" cy="377.21" r="2.25" fill="rgba(71,54,254,0.12)"/><circle cx="833.31" cy="697.61" r="0.60" fill="rgba(71,54,254,0.09)"/><circle cx="777.33" cy="289.05" r="1.31" fill="rgba(71,54,254,0.12)"/><circle cx="944.89" cy="428.46" r="0.83" fill="rgba(71,54,254,0.05)"/><circle cx="998.81" cy="876.10" r="0.87" fill="rgba(71,54,254,0.12)"/><circle cx="883.33" cy="771.14" r="0.96" fill="rgba(71,54,254,0.05)"/><circle cx="948.67" cy="285.10" r="1.67" fill="rgba(71,54,254,0.09)"/><circle cx="622.92" cy="164.70" r="0.60" fill="rgba(71,54,254,0.05)"/><circle cx="887.26" cy="283.13" r="1.13" fill="rgba(71,54,254,0.05)"/><circle cx="1069.78" cy="265.56" r="1.03" fill="rgba(71,54,254,0.09)"/><circle cx="882.87" cy="603.40" r="1.91" fill="rgba(71,54,254,0.12)"/><circle cx="661.22" cy="843.36" r="1.78" fill="rgba(71,54,254,0.09)"/><circle cx="1075.30" cy="878.77" r="2.69" fill="rgba(71,54,254,0.05)"/><circle cx="1045.98" cy="364.28" r="0.60" fill="rgba(71,54,254,0.05)"/><circle cx="831.67" cy="382.49" r="0.60" fill="rgba(71,54,254,0.12)"/><circle cx="1038.71" cy="607.65" r="2.36" fill="rgba(71,54,254,0.12)"/><circle cx="790.59" cy="517.61" r="1.45" fill="rgba(71,54,254,0.09)"/><circle cx="652.89" cy="368.98" r="0.60" fill="rgba(71,54,254,0.05)"/><circle cx="767.37" cy="843.13" r="2.74" fill="rgba(71,54,254,0.09)"/><circle cx="932.89" cy="311.55" r="0.86" fill="rgba(71,54,254,0.12)"/><circle cx="638.67" cy="616.03" r="0.60" fill="rgba(71,54,254,0.12)"/><circle cx="1060.21" cy="741.01" r="1.37" fill="rgba(71,54,254,0.05)"/><circle cx="947.27" cy="472.23" r="2.20" fill="rgba(71,54,254,0.12)"/><circle cx="718.57" cy="756.02" r="1.17" fill="rgba(71,54,254,0.12)"/><circle cx="661.48" cy="506.70" r="2.23" fill="rgba(71,54,254,0.05)"/><circle cx="817.10" cy="499.88" r="1.14" fill="rgba(71,54,254,0.09)"/><circle cx="1114.66" cy="881.58" r="1.21" fill="rgba(71,54,254,0.09)"/><circle cx="1091.47" cy="710.58" r="1.94" fill="rgba(71,54,254,0.05)"/><circle cx="1092.40" cy="201.63" r="1.99" fill="rgba(71,54,254,0.05)"/><circle cx="611.10" cy="196.52" r="2.38" fill="rgba(71,54,254,0.12)"/><circle cx="597.64" cy="591.77" r="1.02" fill="rgba(71,54,254,0.09)"/><circle cx="715.32" cy="402.16" r="0.76" fill="rgba(71,54,254,0.12)"/><circle cx="667.54" cy="223.84" r="2.24" fill="rgba(71,54,254,0.09)"/><circle cx="867.28" cy="840.36" r="2.51" fill="rgba(71,54,254,0.05)"/><circle cx="889.32" cy="791.55" r="1.33" fill="rgba(71,54,254,0.09)"/><circle cx="897.56" cy="689.32" r="0.60" fill="rgba(71,54,254,0.12)"/><circle cx="677.45" cy="244.04" r="0.60" fill="rgba(71,54,254,0.09)"/><circle cx="1054.01" cy="478.66" r="0.92" fill="rgba(71,54,254,0.05)"/><circle cx="1074.96" cy="224.34" r="1.02" fill="rgba(71,54,254,0.05)"/><circle cx="845.64" cy="668.10" r="1.77" fill="rgba(71,54,254,0.05)"/><circle cx="681.96" cy="404.56" r="0.88" fill="rgba(71,54,254,0.12)"/><circle cx="1037.23" cy="861.90" r="2.42" fill="rgba(71,54,254,0.09)"/><circle cx="789.83" cy="496.64" r="0.68" fill="rgba(71,54,254,0.05)"/><circle cx="920.49" cy="854.93" r="2.64" fill="rgba(71,54,254,0.12)"/><circle cx="809.95" cy="636.90" r="0.60" fill="rgba(71,54,254,0.09)"/><circle cx="780.68" cy="407.11" r="0.60" fill="rgba(71,54,254,0.05)"/><circle cx="644.01" cy="542.79" r="0.60" fill="rgba(71,54,254,0.12)"/><circle cx="898.81" cy="754.06" r="0.61" fill="rgba(71,54,254,0.12)"/><circle cx="949.15" cy="283.69" r="1.44" fill="rgba(71,54,254,0.12)"/><circle cx="628.51" cy="143.26" r="0.71" fill="rgba(71,54,254,0.09)"/><circle cx="1039.47" cy="635.44" r="2.67" fill="rgba(71,54,254,0.05)"/><circle cx="952.11" cy="899.74" r="1.57" fill="rgba(71,54,254,0.05)"/><circle cx="790.82" cy="740.07" r="1.61" fill="rgba(71,54,254,0.05)"/><circle cx="867.86" cy="904.43" r="0.62" fill="rgba(71,54,254,0.09)"/><circle cx="715.46" cy="898.35" r="2.52" fill="rgba(71,54,254,0.12)"/><circle cx="827.57" cy="572.90" r="2.12" fill="rgba(71,54,254,0.12)"/><circle cx="687.25" cy="914.59" r="2.25" fill="rgba(71,54,254,0.05)"/><circle cx="982.94" cy="907.06" r="1.34" fill="rgba(71,54,254,0.12)"/><circle cx="831.27" cy="404.42" r="0.88" fill="rgba(71,54,254,0.09)"/><circle cx="929.89" cy="793.32" r="1.58" fill="rgba(71,54,254,0.12)"/><circle cx="807.65" cy="234.55" r="0.60" fill="rgba(71,54,254,0.09)"/><circle cx="1030.21" cy="910.47" r="0.73" fill="rgba(71,54,254,0.12)"/><circle cx="832.55" cy="853.89" r="0.95" fill="rgba(71,54,254,0.12)"/><circle cx="736.27" cy="342.62" r="2.17" fill="rgba(71,54,254,0.12)"/><circle cx="881.77" cy="842.63" r="0.80" fill="rgba(71,54,254,0.12)"/><circle cx="1031.96" cy="364.72" r="1.80" fill="rgba(71,54,254,0.12)"/></g>
    
    <rect x="677.1600000000001" y="238.26" width="388.74" height="627" rx="20.064"
          fill="rgba(255,255,255,0.42)" stroke="rgba(71,54,254,0.16)" stroke-width="1.5048"/>
    <rect x="704.3718000000001" y="313.5" width="334.3164" height="1.6301999999999999" fill="rgba(71,54,254,0.11)"/>
    <rect x="704.3718000000001" y="551.76" width="334.3164" height="1.6301999999999999" fill="rgba(71,54,254,0.11)"/>
  
    
    <path d="M 684.9348000000001 413.82000000000005
             L 700.4844 413.82000000000005
             L 700.4844 410.685
             L 799.22436 410.685"
          stroke="rgba(71,54,254,0.24)" stroke-width="2.3826" stroke-linecap="round" stroke-linejoin="round" fill="none" stroke-dasharray="8 8"/>
    <path d="M 806.9991600000001 410.685
             L 832.6560000000001 410.685
             L 832.6560000000001 445.16999999999996"
          stroke="rgba(71,54,254,0.24)" stroke-width="2.3826" stroke-linecap="round" stroke-linejoin="round" fill="none" stroke-dasharray="8 8"/>
    <path d="M 855.9804 445.16999999999996
             L 850.5380400000001 445.16999999999996
             L 850.5380400000001 529.815"
          stroke="rgba(71,54,254,0.24)" stroke-width="2.3826" stroke-linecap="round" stroke-linejoin="round" fill="none" stroke-dasharray="8 8"/>
    <path d="M 918.023304 570.57
             L 925.9536 570.57
             L 925.9536 601.92"
          stroke="rgba(71,54,254,0.24)" stroke-width="2.3826" stroke-linecap="round" stroke-linejoin="round" fill="none" stroke-dasharray="8 8"/>
    <path d="M 949.278 601.92
             L 946.0125840000001 601.92
             L 946.0125840000001 683.43"
          stroke="rgba(71,54,254,0.24)" stroke-width="2.3826" stroke-linecap="round" stroke-linejoin="round" fill="none" stroke-dasharray="8 8"/>
    <circle cx="844.3182" cy="445.16999999999996" r="4.263599999999999" fill="rgba(239,69,35,0.92)"/>
    <circle cx="937.6158" cy="601.92" r="4.263599999999999" fill="rgba(239,69,35,0.92)"/>
  
    
    
    <g>
      <rect x="712.1466" y="313.5" width="108.84720000000002" height="156.75" rx="12" fill="rgba(255,255,255,0.82)" stroke="rgba(71,54,254,0.12)" stroke-width="1.088472"/>
      <rect x="727.385208" y="341.715" width="37.00804800000001" height="9.405" rx="3.1350000000000002" fill="rgba(22,22,22,0.1)"/>
      <rect x="727.385208" y="362.0925" width="52.24665600000001" height="9.405" rx="3.1350000000000002" fill="rgba(22,22,22,0.08)"/>
      <rect x="727.385208" y="382.47" width="30.477216000000006" height="9.405" rx="3.1350000000000002" fill="rgba(22,22,22,0.06)"/>
      
      <path d="M 790.5165840000001 394.488336
               L 778.7610864000001 416.43193152000003
               L 802.2720816000001 416.43193152000003 Z"
            fill="rgba(255,255,255,0.92)" stroke="rgba(239,69,35,0.95)" stroke-width="2.176944"/>
    
    </g>
  

    <g>
      <rect x="828.7686000000001" y="470.25" width="108.84720000000002" height="156.75" rx="12" fill="rgba(255,255,255,0.82)" stroke="rgba(71,54,254,0.12)" stroke-width="1.088472"/>
      <rect x="844.0072080000001" y="498.465" width="37.00804800000001" height="9.405" rx="3.1350000000000002" fill="rgba(22,22,22,0.1)"/>
      <rect x="844.0072080000001" y="518.8425" width="52.24665600000001" height="9.405" rx="3.1350000000000002" fill="rgba(22,22,22,0.08)"/>
      <rect x="844.0072080000001" y="539.22" width="30.477216000000006" height="9.405" rx="3.1350000000000002" fill="rgba(22,22,22,0.06)"/>
      
      <rect x="898.4308080000002" y="559.2057503999999" width="17.415552" height="3.9184992000000003" rx="1.088472" fill="rgba(71,54,254,0.92)"/>
      <rect x="905.1793344000001" y="552.457224" width="3.9184992000000003" height="17.415552" rx="1.088472" fill="rgba(71,54,254,0.92)"/>
    
    </g>
  

    <g>
      <rect x="922.0662000000001" y="627" width="108.84720000000002" height="156.75" rx="12" fill="rgba(255,255,255,0.82)" stroke="rgba(71,54,254,0.12)" stroke-width="1.088472"/>
      <rect x="937.3048080000001" y="655.215" width="37.00804800000001" height="9.405" rx="3.1350000000000002" fill="rgba(22,22,22,0.1)"/>
      <rect x="937.3048080000001" y="675.5925" width="52.24665600000001" height="9.405" rx="3.1350000000000002" fill="rgba(22,22,22,0.08)"/>
      <rect x="937.3048080000001" y="695.97" width="30.477216000000006" height="9.405" rx="3.1350000000000002" fill="rgba(22,22,22,0.06)"/>
      
      <rect x="989.5514640000001" y="700.6725" width="21.769440000000003" height="37.62" rx="2.176944" fill="rgba(71,54,254,0.08)" stroke="rgba(71,54,254,0.92)" stroke-width="1.4"/>
      <rect x="993.4699632000002" y="708.1965" width="13.932441600000002" height="4.514399999999999" rx="1.088472" fill="rgba(71,54,254,0.92)" opacity="0.9"/>
      <rect x="993.4699632000002" y="717.2253000000001" width="9.578553600000001" height="4.514399999999999" rx="1.088472" fill="rgba(71,54,254,0.92)" opacity="0.55"/>
    
    </g>
  
  </g>
  
  <g>
    <text x="94.05" y="150.48" fill="rgba(71,54,254,0.82)" font-size="21.09228" font-family="Geist, 'Helvetica Neue', Arial, sans-serif" font-weight="700" letter-spacing="0.14em">ROAD SAFETY / INDIA</text>
    <text x="94.05" y="250.8" fill="#4736FE" font-size="102.828" font-family="Geist, 'Helvetica Neue', Arial, sans-serif" font-weight="700" letter-spacing="-0.055em">India&apos;s road</text>
<text x="94.05" y="395.01" fill="#4736FE" font-size="102.828" font-family="Geist, 'Helvetica Neue', Arial, sans-serif" font-weight="300" letter-spacing="-0.045em">deaths are a</text>
<text x="94.05" y="539.22" fill="#4736FE" font-size="102.828" font-family="Geist, 'Helvetica Neue', Arial, sans-serif" font-weight="800" letter-spacing="-0.055em">trust problem.</text>
    <text x="94.05" y="712.272" fill="#4736FE" opacity="0.96" font-size="36.366" font-family="Geist, 'Helvetica Neue', Arial, sans-serif" font-weight="700" letter-spacing="-0.02em">Not a traffic problem.</text>
    <text x="94.05" y="810.0840000000001" fill="#161616" opacity="0.72" font-size="26.334000000000003" font-family="Geist, 'Helvetica Neue', Arial, sans-serif" font-weight="500">
      <tspan x="94.05" dy="0">Road safety fails when truth dies at each handoff.</tspan>
    </text>
  </g>
</svg>