<?xml version="1.0" encoding="UTF-8"?>
<svg xmlns="http://www.w3.org/2000/svg" width="1200" height="630" viewBox="0 0 1200 630" fill="none">
  <defs>
    <linearGradient id="bgGradient" x1="0" y1="0" x2="1200" y2="630">
      <stop offset="0%" stop-color="#EBE9FF"/>
      <stop offset="42%" stop-color="#F2F1FF"/>
      <stop offset="100%" stop-color="#DFDBFF"/>
    </linearGradient>
    <radialGradient id="violetGlow" cx="0" cy="0" r="1" gradientUnits="userSpaceOnUse" gradientTransform="translate(96 50.4) rotate(40) scale(540 327.6)">
      <stop offset="0%" stop-color="#4736FE" stop-opacity="0.9"/>
      <stop offset="100%" stop-color="#4736FE" stop-opacity="0"/>
    </radialGradient>
    <radialGradient id="emberGlow" cx="0" cy="0" r="1" gradientUnits="userSpaceOnUse" gradientTransform="translate(1008 390.6) rotate(210) scale(336.00000000000006 239.4)">
      <stop offset="0%" stop-color="#4736FE" stop-opacity="0.65"/>
      <stop offset="100%" stop-color="#4736FE" stop-opacity="0"/>
    </radialGradient>
    <filter id="softGlow" x="-40%" y="-40%" width="180%" height="180%">
      <feGaussianBlur stdDeviation="10" result="blur"/>
      <feMerge>
        <feMergeNode in="blur"/>
        <feMergeNode in="SourceGraphic"/>
      </feMerge>
    </filter>
    <filter id="fineGlow" x="-30%" y="-30%" width="160%" height="160%">
      <feGaussianBlur stdDeviation="3" result="blur"/>
      <feMerge>
        <feMergeNode in="blur"/>
        <feMergeNode in="SourceGraphic"/>
      </feMerge>
    </filter>
  </defs>
  
  <rect width="1200" height="630" fill="url(#bgGradient)"/>
  <rect width="1200" height="630" fill="url(#violetGlow)" opacity="0.08"/>
  <rect x="84.00000000000001" y="50.4" width="156" height="8" rx="2" fill="rgba(239,69,35,0.9)"/>
  <rect x="948" y="567" width="144" height="8" rx="2" fill="rgba(71,54,254,0.8)"/>
  
  
  <g>
    <g opacity="0.74"><line x1="658.6800000000001" y1="76.671" x2="658.6800000000001" y2="468.65700000000004" stroke="rgba(71,54,254,0.07)" stroke-width="1"/>
<line x1="731.94" y1="76.671" x2="731.94" y2="468.65700000000004" stroke="rgba(71,54,254,0.07)" stroke-width="1"/>
<line x1="805.2" y1="76.671" x2="805.2" y2="468.65700000000004" stroke="rgba(71,54,254,0.07)" stroke-width="1"/>
<line x1="878.46" y1="76.671" x2="878.46" y2="468.65700000000004" stroke="rgba(71,54,254,0.07)" stroke-width="1"/>
<line x1="951.72" y1="76.671" x2="951.72" y2="468.65700000000004" stroke="rgba(71,54,254,0.07)" stroke-width="1"/>
<line x1="1024.98" y1="76.671" x2="1024.98" y2="468.65700000000004" stroke="rgba(71,54,254,0.07)" stroke-width="1"/>
<line x1="1098.2400000000002" y1="76.671" x2="1098.2400000000002" y2="468.65700000000004" stroke="rgba(71,54,254,0.07)" stroke-width="1"/>
<line x1="658.6800000000001" y1="76.671" x2="1098.24" y2="76.671" stroke="rgba(71,54,254,0.07)" stroke-width="1"/>
<line x1="658.6800000000001" y1="174.66750000000002" x2="1098.24" y2="174.66750000000002" stroke="rgba(71,54,254,0.07)" stroke-width="1"/>
<line x1="658.6800000000001" y1="272.66400000000004" x2="1098.24" y2="272.66400000000004" stroke="rgba(71,54,254,0.07)" stroke-width="1"/>
<line x1="658.6800000000001" y1="370.6605" x2="1098.24" y2="370.6605" stroke="rgba(71,54,254,0.07)" stroke-width="1"/>
<line x1="658.6800000000001" y1="468.65700000000004" x2="1098.24" y2="468.65700000000004" stroke="rgba(71,54,254,0.07)" stroke-width="1"/></g>
    <g filter="url(#fineGlow)"><circle cx="726.60" cy="114.22" r="2.34" fill="rgba(71,54,254,0.05)"/><circle cx="872.78" cy="300.72" r="0.72" fill="rgba(71,54,254,0.03)"/><circle cx="850.24" cy="175.37" r="0.74" fill="rgba(71,54,254,0.03)"/><circle cx="799.84" cy="308.88" r="1.97" fill="rgba(71,54,254,0.03)"/><circle cx="740.04" cy="338.52" r="0.60" fill="rgba(71,54,254,0.05)"/><circle cx="864.57" cy="223.09" r="0.60" fill="rgba(71,54,254,0.05)"/><circle cx="752.73" cy="434.98" r="0.96" fill="rgba(71,54,254,0.05)"/><circle cx="972.66" cy="297.18" r="1.13" fill="rgba(71,54,254,0.03)"/><circle cx="686.34" cy="167.23" r="0.99" fill="rgba(71,54,254,0.03)"/><circle cx="860.96" cy="278.41" r="2.05" fill="rgba(71,54,254,0.05)"/><circle cx="1024.30" cy="281.06" r="1.90" fill="rgba(71,54,254,0.05)"/><circle cx="820.99" cy="294.46" r="0.85" fill="rgba(71,54,254,0.03)"/><circle cx="1050.81" cy="90.52" r="1.64" fill="rgba(71,54,254,0.05)"/><circle cx="762.77" cy="315.51" r="0.60" fill="rgba(71,54,254,0.03)"/><circle cx="1054.30" cy="332.80" r="0.60" fill="rgba(71,54,254,0.05)"/><circle cx="1004.38" cy="142.70" r="2.46" fill="rgba(71,54,254,0.05)"/><circle cx="1024.79" cy="279.73" r="1.70" fill="rgba(71,54,254,0.03)"/><circle cx="979.76" cy="124.17" r="0.60" fill="rgba(71,54,254,0.03)"/><circle cx="792.16" cy="138.22" r="1.58" fill="rgba(71,54,254,0.05)"/><circle cx="897.19" cy="219.73" r="0.60" fill="rgba(71,54,254,0.03)"/><circle cx="677.03" cy="313.17" r="2.35" fill="rgba(71,54,254,0.03)"/><circle cx="1081.84" cy="288.00" r="0.60" fill="rgba(71,54,254,0.05)"/><circle cx="714.32" cy="364.08" r="1.94" fill="rgba(71,54,254,0.05)"/><circle cx="1023.96" cy="413.24" r="0.60" fill="rgba(71,54,254,0.05)"/><circle cx="1069.09" cy="252.02" r="1.69" fill="rgba(71,54,254,0.03)"/><circle cx="821.37" cy="361.73" r="2.39" fill="rgba(71,54,254,0.03)"/><circle cx="902.47" cy="120.97" r="0.60" fill="rgba(71,54,254,0.05)"/><circle cx="1076.38" cy="134.04" r="2.10" fill="rgba(71,54,254,0.03)"/><circle cx="919.73" cy="295.23" r="1.04" fill="rgba(71,54,254,0.03)"/><circle cx="994.04" cy="137.84" r="1.18" fill="rgba(71,54,254,0.03)"/><circle cx="985.36" cy="100.04" r="2.44" fill="rgba(71,54,254,0.03)"/><circle cx="1016.39" cy="391.82" r="2.54" fill="rgba(71,54,254,0.03)"/><circle cx="734.82" cy="91.02" r="0.60" fill="rgba(71,54,254,0.03)"/><circle cx="796.87" cy="413.88" r="2.64" fill="rgba(71,54,254,0.05)"/><circle cx="799.08" cy="103.23" r="1.31" fill="rgba(71,54,254,0.05)"/><circle cx="881.13" cy="429.24" r="1.14" fill="rgba(71,54,254,0.05)"/><circle cx="878.15" cy="79.92" r="1.21" fill="rgba(71,54,254,0.03)"/><circle cx="1058.51" cy="283.83" r="1.88" fill="rgba(71,54,254,0.05)"/></g>
    
    <rect x="695.9760000000001" y="124.3242" width="297.48" height="299.754" rx="10" fill="rgba(71,54,254,0.05)"/>
    <rect x="689.7600000000001" y="118.944" width="297.48" height="299.754" rx="10" fill="rgba(255,255,255,0.94)" stroke="rgba(71,54,254,0.2)" stroke-width="1.44"/>
    <rect x="707.6088000000001" y="142.92432" width="56.52120000000001" height="23.980320000000003" rx="5.995080000000001" fill="rgba(239,69,35,0.12)"/>
    <rect x="707.6088000000001" y="178.8948" width="104.118" height="8.99262" rx="2.9975400000000003" fill="rgba(22,22,22,0.12)"/>
    <rect x="707.6088000000001" y="199.87758000000002" width="157.66440000000003" height="7.194096000000001" rx="2.9975400000000003" fill="rgba(22,22,22,0.08)"/>
    <rect x="707.6088000000001" y="214.86528" width="130.8912" height="7.194096000000001" rx="2.9975400000000003" fill="rgba(22,22,22,0.06)"/>
    <line x1="707.6088000000001" y1="241.84314" x2="969.3912" y2="241.84314" stroke="rgba(71,54,254,0.12)" stroke-width="1.2"/>
    <line x1="832.5504000000001" y1="265.82346" x2="832.5504000000001" y2="376.73244000000005" stroke="rgba(71,54,254,0.12)" stroke-width="1.2"/>
  
    
    <rect x="713.5584000000001" y="268.821" width="101.14320000000001" height="80.93358" rx="8" fill="rgba(71,54,254,0.04)" stroke="rgba(71,54,254,0.16)" stroke-width="1.2"/>
    <path d="M 725.6955840000002 286.62638760000004 L 798.5186880000001 286.62638760000004" stroke="rgba(71,54,254,0.26)" stroke-width="2.16"/>
    <path d="M 731.7641760000001 276.91435800000005 L 731.7641760000001 340.04255040000004" stroke="rgba(71,54,254,0.22)" stroke-width="2.16"/>
    <path d="M 725.6955840000002 325.474506 L 800.5415520000001 304.43177520000006" stroke="rgba(71,54,254,0.18)" stroke-width="2"/>
    <circle cx="770.1985920000001" cy="302.81310360000003" r="6" fill="rgba(239,69,35,0.9)"/>
    <circle cx="770.1985920000001" cy="302.81310360000003" r="11" fill="none" stroke="rgba(239,69,35,0.3)" stroke-width="1.32"/>
  
    
    <rect x="844.4496000000001" y="289.80378" width="89.244" height="53.95572" rx="8" fill="rgba(255,255,255,0.88)" stroke="rgba(71,54,254,0.14)" stroke-width="1.2"/>
    <rect x="855.1588800000002" y="299.5158096" width="41.052240000000005" height="6.4746863999999995" rx="2.1582288" fill="rgba(22,22,22,0.1)"/>
    <rect x="855.1588800000002" y="312.4651824" width="51.76152" height="4.8560148" rx="2.1582288" fill="rgba(22,22,22,0.07)"/>
    <rect x="855.1588800000002" y="323.25632640000003" width="28.55808" height="4.3164576" rx="2.1582288" fill="rgba(239,69,35,0.18)"/>
  
    
    <g transform="rotate(-4 1042.74 232.3125)">
      <rect x="980.1360000000001" y="178.8948" width="137.64" height="119.133" rx="10" fill="rgba(71,54,254,0.05)"/>
      <rect x="973.9200000000001" y="172.746" width="137.64" height="119.133" rx="10" fill="rgba(255,255,255,0.94)" stroke="rgba(71,54,254,0.2)" stroke-width="1.2"/>
      <rect x="993.1896" y="195.38127" width="57.80879999999999" height="9.53064" rx="3.57399" fill="rgba(22,22,22,0.09)"/>
      <rect x="993.1896" y="213.25122000000002" width="77.0784" height="7.14798" rx="2.978325" fill="rgba(22,22,22,0.06)"/>
      <rect x="993.1896" y="227.54718000000003" width="49.550399999999996" height="7.14798" rx="2.978325" fill="rgba(22,22,22,0.05)"/>
      <rect x="993.1896" y="247.79979" width="22.022399999999998" height="22.022399999999998" rx="4.8174" fill="rgba(71,54,254,0.08)" stroke="rgba(71,54,254,0.38)" stroke-width="1.44"/>
      <rect x="1002.1362" y="254.94777" width="4.129199999999999" height="9.6348" rx="1.3763999999999998" fill="rgba(71,54,254,0.9)"/>
      <rect x="999.3834" y="257.33043" width="9.6348" height="4.129199999999999" rx="1.3763999999999998" fill="rgba(71,54,254,0.9)"/>
      <path d="M 1059.2568 253.75644 L 1084.0320000000002 253.75644" stroke="rgba(71,54,254,0.24)" stroke-width="2"/>
      <path d="M 1071.6444000000001 241.84314 L 1071.6444000000001 265.66974" stroke="rgba(71,54,254,0.24)" stroke-width="2"/>
      <circle cx="1071.6444000000001" cy="253.75644" r="4" fill="rgba(239,69,35,0.92)"/>
    </g>
  
    
    
    <g>
      <path d="M 921.7944000000001 205.87266 L 957.6385200000001 205.87266 L 957.6385200000001 196.57260000000002 L 1001.4480000000001 196.57260000000002"
            stroke="rgba(71,54,254,0.32)" stroke-width="1.5" stroke-linecap="round" stroke-linejoin="round" fill="none"/>
      <circle cx="921.7944000000001" cy="205.87266" r="11" fill="rgba(239,69,35,0.92)"/>
      <text x="921.7944000000001" y="209.87266" fill="#FFFFFF" text-anchor="middle" font-size="9" font-family="Geist, 'Helvetica Neue', Arial, sans-serif" font-weight="700" letter-spacing="0.04em">01</text>
    </g>
  
    
    <g>
      <path d="M 811.7268000000001 367.73982 L 793.0391064000002 367.73982 L 793.0391064000002 302.81310360000003 L 770.1985920000001 302.81310360000003"
            stroke="rgba(71,54,254,0.32)" stroke-width="1.5" stroke-linecap="round" stroke-linejoin="round" fill="none"/>
      <circle cx="811.7268000000001" cy="367.73982" r="11" fill="rgba(239,69,35,0.92)"/>
      <text x="811.7268000000001" y="371.73982" fill="#FFFFFF" text-anchor="middle" font-size="9" font-family="Geist, 'Helvetica Neue', Arial, sans-serif" font-weight="700" letter-spacing="0.04em">02</text>
    </g>
  
    
    <g>
      <path d="M 939.6432000000001 334.76688 L 906.4444320000001 334.76688 L 906.4444320000001 323.25632640000003 L 865.8681600000001 323.25632640000003"
            stroke="rgba(71,54,254,0.32)" stroke-width="1.5" stroke-linecap="round" stroke-linejoin="round" fill="none"/>
      <circle cx="939.6432000000001" cy="334.76688" r="11" fill="rgba(239,69,35,0.92)"/>
      <text x="939.6432000000001" y="338.76688" fill="#FFFFFF" text-anchor="middle" font-size="9" font-family="Geist, 'Helvetica Neue', Arial, sans-serif" font-weight="700" letter-spacing="0.04em">03</text>
    </g>
  
  
  </g>
  
  <g>
    <text x="90" y="94.5" fill="rgba(71,54,254,0.82)" font-size="18.096" font-family="Geist, 'Helvetica Neue', Arial, sans-serif" font-weight="700" letter-spacing="0.14em">ROAD SAFETY / INDIA</text>
    <text x="90" y="170.10000000000002" fill="#4736FE" font-size="86.39999999999999" font-family="Geist, 'Helvetica Neue', Arial, sans-serif" font-weight="700" letter-spacing="-0.055em">India&apos;s road</text>
<text x="90" y="264.6" fill="#4736FE" font-size="86.39999999999999" font-family="Geist, 'Helvetica Neue', Arial, sans-serif" font-weight="300" letter-spacing="-0.045em">deaths are a</text>
<text x="90" y="359.1" fill="#4736FE" font-size="86.39999999999999" font-family="Geist, 'Helvetica Neue', Arial, sans-serif" font-weight="800" letter-spacing="-0.055em">trust problem.</text>
    <text x="90" y="472.50000000000006" fill="#4736FE" opacity="0.96" font-size="31.2" font-family="Geist, 'Helvetica Neue', Arial, sans-serif" font-weight="700" letter-spacing="-0.02em">Not a traffic problem.</text>
    <text x="90" y="524.1600000000001" fill="#161616" opacity="0.72" font-size="22.8" font-family="Geist, 'Helvetica Neue', Arial, sans-serif" font-weight="500">
      <tspan x="90" dy="0">Road safety fails when truth dies at each handoff.</tspan>
    </text>
  </g>
</svg>