<svg width="1200" height="630" viewBox="0 0 1200 630" fill="none" xmlns="http://www.w3.org/2000/svg">
  <defs>
    <linearGradient id="bg" x1="70" y1="24" x2="1116" y2="604" gradientUnits="userSpaceOnUse">
      <stop stop-color="#5A4DFF"/>
      <stop offset="0.46" stop-color="#4839FE"/>
      <stop offset="1" stop-color="#241A7D"/>
    </linearGradient>
    <radialGradient id="glowLeft" cx="0" cy="0" r="1" gradientUnits="userSpaceOnUse" gradientTransform="translate(222 114) rotate(38) scale(376 244)">
      <stop stop-color="#FFFFFF" stop-opacity="0.7"/>
      <stop offset="1" stop-color="#FFFFFF" stop-opacity="0"/>
    </radialGradient>
    <radialGradient id="glowRight" cx="0" cy="0" r="1" gradientUnits="userSpaceOnUse" gradientTransform="translate(972 410) rotate(216) scale(284 212)">
      <stop stop-color="#EF4523" stop-opacity="0.42"/>
      <stop offset="1" stop-color="#EF4523" stop-opacity="0"/>
    </radialGradient>
  </defs>

  <rect width="1200" height="630" fill="url(#bg)"/>
  <rect width="1200" height="630" fill="url(#glowLeft)" opacity="0.18"/>
  <rect width="1200" height="630" fill="url(#glowRight)" opacity="0.22"/>

  <ellipse cx="968" cy="136" rx="170" ry="98" fill="#FFFFFF" opacity="0.05"/>
  <ellipse cx="220" cy="514" rx="214" ry="120" fill="#FFFFFF" opacity="0.035"/>

  <rect x="86" y="56" width="104" height="6" rx="3" fill="#FFFFFF" opacity="0.9"/>
  <rect x="1012" y="564" width="86" height="6" rx="3" fill="#EF4523" opacity="0.88"/>

  <path d="M758 332C832 294 902 280 978 288C1056 296 1112 330 1150 392" stroke="#FFFFFF" stroke-opacity="0.22" stroke-width="3" stroke-linecap="round"/>
  <path d="M842 290L936 270L1042 302L1120 388" stroke="#FFFFFF" stroke-opacity="0.22" stroke-width="5" stroke-linecap="round" stroke-linejoin="round"/>
  <circle cx="842" cy="290" r="8" fill="#FFFFFF" opacity="0.9"/>
  <circle cx="936" cy="270" r="8" fill="#FFFFFF" opacity="0.9"/>
  <circle cx="1042" cy="302" r="8" fill="#FFFFFF" opacity="0.9"/>
  <circle cx="1120" cy="388" r="10" fill="#EF4523" opacity="0.96"/>

  <text x="86" y="110" fill="#FFFFFF" opacity="0.68" font-family="'Helvetica Neue', Arial, sans-serif" font-size="16" font-weight="700" letter-spacing="0.18em">ESSAYS</text>
  <text x="86" y="230" fill="#FFFFFF" font-family="Georgia, 'Times New Roman', serif" font-size="92" letter-spacing="-1.8">
    <tspan x="86" dy="0">Vikram Chopra</tspan>
  </text>
  <text x="86" y="334" fill="#FFFFFF" opacity="0.96" font-family="'Helvetica Neue', Arial, sans-serif" font-size="31" font-weight="700" letter-spacing="-0.3">
    <tspan x="86" dy="0">I write to think.</tspan>
    <tspan x="86" dy="40">I publish to be argued with.</tspan>
  </text>
</svg>
