<?xml version="1.0" encoding="UTF-8"?>
<svg xmlns="http://www.w3.org/2000/svg" width="1200" height="630" viewBox="0 0 1200 630" fill="none">
  <defs>
    <linearGradient id="bg" x1="0" y1="0" x2="1200" y2="630">
      <stop offset="0%" stop-color="#F5F2FF"/>
      <stop offset="100%" stop-color="#E8E1FF"/>
    </linearGradient>
    <linearGradient id="halo" x1="0" y1="0" x2="1" y2="1">
      <stop offset="0%" stop-color="#6B5BFF" stop-opacity="0.34"/>
      <stop offset="100%" stop-color="#63FFB1" stop-opacity="0.14"/>
    </linearGradient>
    <linearGradient id="metal" x1="0" y1="0" x2="1" y2="1">
      <stop offset="0%" stop-color="#FBFCFF"/>
      <stop offset="100%" stop-color="#D7DDFB"/>
    </linearGradient>
    <filter id="soft" x="-30%" y="-30%" width="160%" height="160%">
      <feGaussianBlur stdDeviation="24"/>
    </filter>
    <filter id="grain">
      <feTurbulence type="fractalNoise" baseFrequency="0.8" numOctaves="2" stitchTiles="stitch"/>
      <feColorMatrix type="saturate" values="0"/>
      <feComponentTransfer>
        <feFuncA type="table" tableValues="0 0 0.035 0.05"/>
      </feComponentTransfer>
    </filter>
  </defs>
  <rect width="1200" height="630" rx="36" fill="url(#bg)"/>
  <ellipse cx="216" cy="516.6" rx="204.00000000000003" ry="138.6" fill="#EF4523" opacity="0.07"/>
  <ellipse cx="983.9999999999999" cy="113.39999999999999" rx="216" ry="126" fill="#6B5BFF" opacity="0.1"/>

  <ellipse cx="672.0000000000001" cy="327.6" rx="192" ry="138.6" fill="#6B5BFF" opacity="0.08" filter="url(#soft)"/>
  <ellipse cx="672.0000000000001" cy="327.6" rx="264" ry="189" stroke="#6B5BFF" stroke-width="5" opacity="0.18"/>
  <ellipse cx="672.0000000000001" cy="327.6" rx="216" ry="154.35" stroke="#6B5BFF" stroke-width="3.36" opacity="0.14"/>
  <path d="M 540.0000000000001 223.65000000000003 A 264 189 0 0 1 846.0000000000001 302.40000000000003" stroke="#63FFB1" stroke-width="7.2" stroke-linecap="round" opacity="0.8"/>
  <path d="M 854.4000000000001 301.14000000000004 l 24 -6.3 l -9.6 16.38" fill="none" stroke="#63FFB1" stroke-width="7.2" stroke-linecap="round" stroke-linejoin="round"/>

  <g transform="translate(456.0000000000001 289.8)">
    <path d="M 24 56.699999999999996 C 48 18.9, 132 0, 252 0 H 336.00000000000006 C 420 0, 468 18.9, 504 47.25 L 576 50.4 C 612 51.660000000000004, 648 63, 654 81.9 L 654 100.8 C 648 119.7, 612 129.15, 564 132.29999999999998 H 66 C 24 129.15, 0 118.44, 0 100.8 V 81.9 C 0 68.04, 6 63, 24 56.699999999999996 Z" fill="url(#metal)" stroke="#6470FF" stroke-width="3.1199999999999997"/>
    <path d="M 144 25.2 H 276 C 336.00000000000006 25.2, 372 34.65, 408.00000000000006 55.44 H 180 C 156 55.44, 139.20000000000002 49.14, 132 40.32 Z" fill="#EEF2FF" opacity="0.82"/>
    <circle cx="144" cy="132.29999999999998" r="33.6" fill="#20263B"/>
    <circle cx="144" cy="132.29999999999998" r="18" fill="#DDE3FF"/>
    <circle cx="480" cy="132.29999999999998" r="33.6" fill="#20263B"/>
    <circle cx="480" cy="132.29999999999998" r="18" fill="#DDE3FF"/>
  </g>

  <g opacity="0.72">
    <rect x="552.0000000000001" y="415.8" width="48" height="22.05" rx="5.04" fill="#E7EBFF" stroke="#6B5BFF" stroke-opacity="0.25"/>
    <rect x="606.0000000000001" y="415.8" width="48" height="22.05" rx="5.04" fill="#E7EBFF" stroke="#6B5BFF" stroke-opacity="0.25"/>
    <rect x="660.0000000000001" y="415.8" width="48" height="22.05" rx="5.04" fill="#E7EBFF" stroke="#6B5BFF" stroke-opacity="0.25"/>
    <rect x="714.0000000000001" y="415.8" width="48" height="22.05" rx="5.04" fill="#E7EBFF" stroke="#6B5BFF" stroke-opacity="0.25"/>
    <rect x="768.0000000000001" y="415.8" width="48" height="22.05" rx="5.04" fill="#E7EBFF" stroke="#6B5BFF" stroke-opacity="0.25"/>
  </g>

  <rect width="1200" height="630" rx="36" filter="url(#grain)" opacity="0.4"/>
</svg>