<?xml version="1.0" encoding="UTF-8"?>
<svg xmlns="http://www.w3.org/2000/svg" width="1672" height="941" viewBox="0 0 1672 941" fill="none">
  <defs>
    <linearGradient id="bgGradient" x1="0" y1="0" x2="1672" y2="941">
      <stop offset="0%" stop-color="#F7F4FF"/>
      <stop offset="42%" stop-color="#EFEAFF"/>
      <stop offset="100%" stop-color="#E7E1FF"/>
    </linearGradient>
    <radialGradient id="violetGlow" cx="0" cy="0" r="1" gradientUnits="userSpaceOnUse" gradientTransform="translate(133.76 75.28) rotate(40) scale(752.4 489.32)">
      <stop offset="0%" stop-color="#4736FE" stop-opacity="0.9"/>
      <stop offset="100%" stop-color="#4736FE" stop-opacity="0"/>
    </radialGradient>
    <radialGradient id="emberGlow" cx="0" cy="0" r="1" gradientUnits="userSpaceOnUse" gradientTransform="translate(1404.48 583.42) rotate(210) scale(468.16 357.58)">
      <stop offset="0%" stop-color="#EF4523" stop-opacity="0.65"/>
      <stop offset="100%" stop-color="#EF4523" stop-opacity="0"/>
    </radialGradient>
    <filter id="softGlow" x="-40%" y="-40%" width="180%" height="180%">
      <feGaussianBlur stdDeviation="13.376" result="blur"/>
      <feMerge>
        <feMergeNode in="blur"/>
        <feMergeNode in="SourceGraphic"/>
      </feMerge>
    </filter>
    <filter id="fineGlow" x="-30%" y="-30%" width="160%" height="160%">
      <feGaussianBlur stdDeviation="3.6784000000000003" result="blur"/>
      <feMerge>
        <feMergeNode in="blur"/>
        <feMergeNode in="SourceGraphic"/>
      </feMerge>
    </filter>
  </defs>
  
  <rect width="1672" height="941" fill="url(#bgGradient)"/>
  <rect width="1672" height="941" fill="url(#violetGlow)" opacity="0.04"/>
  <ellipse cx="1304.16" cy="263.48" rx="367.84" ry="207.02" fill="rgba(71,54,254,0.05)"/>
  <ellipse cx="300.96" cy="771.62" rx="300.96" ry="169.38" fill="rgba(239,69,35,0.035)"/>
  <g><line x1="83.60000000000001" y1="94.10000000000001" x2="83.60000000000001" y2="846.9" stroke="rgba(71,54,254,0.05)" stroke-width="1.3376000000000001"/>
<line x1="234.07999999999998" y1="94.10000000000001" x2="234.07999999999998" y2="846.9" stroke="rgba(71,54,254,0.05)" stroke-width="1.3376000000000001"/>
<line x1="384.56" y1="94.10000000000001" x2="384.56" y2="846.9" stroke="rgba(71,54,254,0.05)" stroke-width="1.3376000000000001"/>
<line x1="535.04" y1="94.10000000000001" x2="535.04" y2="846.9" stroke="rgba(71,54,254,0.05)" stroke-width="1.3376000000000001"/>
<line x1="685.52" y1="94.10000000000001" x2="685.52" y2="846.9" stroke="rgba(71,54,254,0.05)" stroke-width="1.3376000000000001"/>
<line x1="836" y1="94.10000000000001" x2="836" y2="846.9" stroke="rgba(71,54,254,0.05)" stroke-width="1.3376000000000001"/>
<line x1="986.4799999999999" y1="94.10000000000001" x2="986.4799999999999" y2="846.9" stroke="rgba(71,54,254,0.05)" stroke-width="1.3376000000000001"/>
<line x1="1136.96" y1="94.10000000000001" x2="1136.96" y2="846.9" stroke="rgba(71,54,254,0.05)" stroke-width="1.3376000000000001"/>
<line x1="1287.4399999999998" y1="94.10000000000001" x2="1287.4399999999998" y2="846.9" stroke="rgba(71,54,254,0.05)" stroke-width="1.3376000000000001"/>
<line x1="1437.9199999999998" y1="94.10000000000001" x2="1437.9199999999998" y2="846.9" stroke="rgba(71,54,254,0.05)" stroke-width="1.3376000000000001"/>
<line x1="1588.3999999999999" y1="94.10000000000001" x2="1588.3999999999999" y2="846.9" stroke="rgba(71,54,254,0.05)" stroke-width="1.3376000000000001"/>
<line x1="83.60000000000001" y1="94.10000000000001" x2="1588.3999999999999" y2="94.10000000000001" stroke="rgba(71,54,254,0.05)" stroke-width="1.3376000000000001"/>
<line x1="83.60000000000001" y1="201.64285714285717" x2="1588.3999999999999" y2="201.64285714285717" stroke="rgba(71,54,254,0.05)" stroke-width="1.3376000000000001"/>
<line x1="83.60000000000001" y1="309.1857142857143" x2="1588.3999999999999" y2="309.1857142857143" stroke="rgba(71,54,254,0.05)" stroke-width="1.3376000000000001"/>
<line x1="83.60000000000001" y1="416.72857142857146" x2="1588.3999999999999" y2="416.72857142857146" stroke="rgba(71,54,254,0.05)" stroke-width="1.3376000000000001"/>
<line x1="83.60000000000001" y1="524.2714285714286" x2="1588.3999999999999" y2="524.2714285714286" stroke="rgba(71,54,254,0.05)" stroke-width="1.3376000000000001"/>
<line x1="83.60000000000001" y1="631.8142857142858" x2="1588.3999999999999" y2="631.8142857142858" stroke="rgba(71,54,254,0.05)" stroke-width="1.3376000000000001"/>
<line x1="83.60000000000001" y1="739.3571428571429" x2="1588.3999999999999" y2="739.3571428571429" stroke="rgba(71,54,254,0.05)" stroke-width="1.3376000000000001"/>
<line x1="83.60000000000001" y1="846.9000000000001" x2="1588.3999999999999" y2="846.9000000000001" stroke="rgba(71,54,254,0.05)" stroke-width="1.3376000000000001"/></g>
  <rect x="120.38399999999999" y="79.985" width="183.92" height="8.469" rx="2" fill="rgba(71,54,254,0.9)"/>
  <rect x="1404.48" y="832.785" width="133.76" height="8.469" rx="2" fill="rgba(239,69,35,0.82)"/>
  
  
  <g>
    <rect x="133.76" y="112.92" width="1371.04" height="677.52" rx="25.08" fill="rgba(255,255,255,0.26)" stroke="rgba(71,54,254,0.08)" stroke-width="1.672"/>
    <ellipse cx="1258.0128" cy="234.8736" rx="219.3664" ry="121.9536" fill="rgba(71,54,254,0.05)"/>
    <circle cx="161.18079999999998" cy="126.4704" r="3.1768" fill="rgba(239,69,35,0.24)"/>
<circle cx="380.5472" cy="126.4704" r="3.1768" fill="rgba(71,54,254,0.14)"/>
<circle cx="599.9136000000001" cy="126.4704" r="3.1768" fill="rgba(71,54,254,0.14)"/>
<circle cx="819.28" cy="126.4704" r="3.1768" fill="rgba(71,54,254,0.14)"/>
<circle cx="1038.6464" cy="126.4704" r="3.1768" fill="rgba(71,54,254,0.14)"/>
<circle cx="1258.0128" cy="126.4704" r="3.1768" fill="rgba(239,69,35,0.24)"/>
<circle cx="161.18079999999998" cy="329.7264" r="3.1768" fill="rgba(71,54,254,0.14)"/>
<circle cx="380.5472" cy="329.7264" r="3.1768" fill="rgba(71,54,254,0.14)"/>
<circle cx="599.9136000000001" cy="329.7264" r="3.1768" fill="rgba(71,54,254,0.14)"/>
<circle cx="819.28" cy="329.7264" r="3.1768" fill="rgba(71,54,254,0.14)"/>
<circle cx="1038.6464" cy="329.7264" r="3.1768" fill="rgba(239,69,35,0.24)"/>
<circle cx="1258.0128" cy="329.7264" r="3.1768" fill="rgba(71,54,254,0.14)"/>
<circle cx="161.18079999999998" cy="532.9824" r="3.1768" fill="rgba(71,54,254,0.14)"/>
<circle cx="380.5472" cy="532.9824" r="3.1768" fill="rgba(71,54,254,0.14)"/>
<circle cx="599.9136000000001" cy="532.9824" r="3.1768" fill="rgba(71,54,254,0.14)"/>
<circle cx="819.28" cy="532.9824" r="3.1768" fill="rgba(239,69,35,0.24)"/>
<circle cx="1038.6464" cy="532.9824" r="3.1768" fill="rgba(71,54,254,0.14)"/>
<circle cx="1258.0128" cy="532.9824" r="3.1768" fill="rgba(71,54,254,0.14)"/>
    
      <rect x="243.4432" y="167.1216" width="795.2031999999999" height="81.30239999999999" rx="16.72"
            fill="rgba(255,255,255,0.95)" stroke="rgba(71,54,254,0.16)" stroke-width="1.672"/>
      <rect x="298.2848" y="185.008128" width="174.94470399999997" height="11.382336" rx="3.252096" fill="rgba(71,54,254,0.14)"/>
      <rect x="298.2848" y="207.7728" width="333.98534399999994" height="8.130239999999999" rx="3.252096" fill="rgba(22,22,22,0.08)"/>
      <circle cx="1285.4335999999998" cy="207.7728" r="8.36" fill="rgba(71,54,254,0.88)"/>
    

      <rect x="243.4432" y="272.81471999999997" width="959.728" height="81.30239999999999" rx="16.72"
            fill="rgba(255,255,255,0.95)" stroke="rgba(71,54,254,0.16)" stroke-width="1.672"/>
      <rect x="298.2848" y="290.70124799999996" width="211.14015999999998" height="11.382336" rx="3.252096" fill="rgba(71,54,254,0.14)"/>
      <rect x="298.2848" y="313.46592" width="403.08575999999994" height="8.130239999999999" rx="3.252096" fill="rgba(22,22,22,0.08)"/>
      <circle cx="1285.4335999999998" cy="313.46592" r="8.36" fill="rgba(239,69,35,0.88)"/>
    

      <rect x="243.4432" y="378.50784000000004" width="795.2031999999999" height="81.30239999999999" rx="16.72"
            fill="rgba(255,255,255,0.95)" stroke="rgba(71,54,254,0.16)" stroke-width="1.672"/>
      <rect x="298.2848" y="396.39436800000004" width="174.94470399999997" height="11.382336" rx="3.252096" fill="rgba(71,54,254,0.14)"/>
      <rect x="298.2848" y="419.15904000000006" width="333.98534399999994" height="8.130239999999999" rx="3.252096" fill="rgba(22,22,22,0.08)"/>
      <circle cx="1285.4335999999998" cy="419.15904000000006" r="8.36" fill="rgba(71,54,254,0.88)"/>
    

      <rect x="243.4432" y="484.20095999999995" width="959.728" height="81.30239999999999" rx="16.72"
            fill="rgba(255,255,255,0.95)" stroke="rgba(71,54,254,0.16)" stroke-width="1.672"/>
      <rect x="298.2848" y="502.08748799999995" width="211.14015999999998" height="11.382336" rx="3.252096" fill="rgba(71,54,254,0.14)"/>
      <rect x="298.2848" y="524.8521599999999" width="403.08575999999994" height="8.130239999999999" rx="3.252096" fill="rgba(22,22,22,0.08)"/>
      <circle cx="1285.4335999999998" cy="524.8521599999999" r="8.36" fill="rgba(239,69,35,0.88)"/>
    

      <rect x="243.4432" y="589.8940799999999" width="795.2031999999999" height="81.30239999999999" rx="16.72"
            fill="rgba(255,255,255,0.95)" stroke="rgba(71,54,254,0.16)" stroke-width="1.672"/>
      <rect x="298.2848" y="607.7806079999999" width="174.94470399999997" height="11.382336" rx="3.252096" fill="rgba(71,54,254,0.14)"/>
      <rect x="298.2848" y="630.5452799999999" width="333.98534399999994" height="8.130239999999999" rx="3.252096" fill="rgba(22,22,22,0.08)"/>
      <circle cx="1285.4335999999998" cy="630.5452799999999" r="8.36" fill="rgba(71,54,254,0.88)"/>
    
    <path d="M 1285.4335999999998 207.7728 C 1395.1167999999998 207.7728, 1395.1167999999998 313.46592, 1285.4335999999998 313.46592" stroke="rgba(71,54,254,0.26)" stroke-width="2.508" fill="none" stroke-dasharray="6.688 10.032"/>
<path d="M 1285.4335999999998 313.46592 C 1395.1167999999998 313.46592, 1395.1167999999998 419.15904000000006, 1285.4335999999998 419.15904000000006" stroke="rgba(71,54,254,0.26)" stroke-width="2.508" fill="none" stroke-dasharray="6.688 10.032"/>
<path d="M 1285.4335999999998 419.15904000000006 C 1395.1167999999998 419.15904000000006, 1395.1167999999998 524.8521599999999, 1285.4335999999998 524.8521599999999" stroke="rgba(71,54,254,0.26)" stroke-width="2.508" fill="none" stroke-dasharray="6.688 10.032"/>
<path d="M 1285.4335999999998 524.8521599999999 C 1395.1167999999998 524.8521599999999, 1395.1167999999998 630.5452799999999, 1285.4335999999998 630.5452799999999" stroke="rgba(71,54,254,0.26)" stroke-width="2.508" fill="none" stroke-dasharray="6.688 10.032"/>
  </g>
  
</svg>