<svg width="1200" height="630" viewBox="0 0 1200 630" fill="none" xmlns="http://www.w3.org/2000/svg">
  <defs>
    <linearGradient id="bg" x1="104" y1="38" x2="1096" y2="590" gradientUnits="userSpaceOnUse">
      <stop stop-color="#F4EEE4"/>
      <stop offset="1" stop-color="#E2D6C7"/>
    </linearGradient>
  </defs>
  <rect width="1200" height="630" fill="url(#bg)"/>
  <circle cx="1030" cy="110" r="92" fill="#FAF7F1" opacity="0.9"/>
  <path d="M104 92H244" stroke="#1A2A34" stroke-width="5" stroke-linecap="round"/>
  <path d="M104 106H228" stroke="#D1613D" stroke-width="5" stroke-linecap="round"/>
  <circle cx="716" cy="312" r="120" fill="#F9F4ED" stroke="#1A2A34" stroke-width="8"/>
  <path d="M716 192C782 192 836 246 836 312C836 378 782 432 716 432" fill="#D1613D"/>
  <path d="M716 192C782 192 836 246 836 312C836 378 782 432 716 432" stroke="#1A2A34" stroke-width="8"/>
  <path d="M716 192C650 192 596 246 596 312C596 378 650 432 716 432" fill="#365968"/>
  <path d="M716 192C650 192 596 246 596 312C596 378 650 432 716 432" stroke="#1A2A34" stroke-width="8"/>
  <path d="M716 224V400" stroke="#1A2A34" stroke-width="8" stroke-linecap="round"/>
  <path d="M566 278C516 286 471 307 430 342" stroke="#1A2A34" stroke-width="8" stroke-linecap="round" stroke-dasharray="12 16"/>
  <path d="M866 278C916 286 961 307 1002 342" stroke="#1A2A34" stroke-width="8" stroke-linecap="round" stroke-dasharray="12 16"/>
  <circle cx="390" cy="370" r="34" fill="#365968"/>
  <circle cx="1042" cy="370" r="34" fill="#D1613D"/>
  <text x="103" y="510" fill="#1A2A34" font-family="Georgia, 'Times New Roman', serif" font-size="54" letter-spacing="-1.1">
    <tspan x="103" dy="0">The Context We</tspan>
    <tspan x="103" dy="64">Refuse to See</tspan>
  </text>
</svg>
