<svg width="1200" height="630" viewBox="0 0 1200 630" fill="none" xmlns="http://www.w3.org/2000/svg">
  <defs>
    <linearGradient id="bg" x1="94" y1="52" x2="1118" y2="592" gradientUnits="userSpaceOnUse">
      <stop stop-color="#F6F1E8"/>
      <stop offset="1" stop-color="#E8DDCC"/>
    </linearGradient>
    <radialGradient id="glow" cx="0" cy="0" r="1" gradientUnits="userSpaceOnUse" gradientTransform="translate(777 223) rotate(90) scale(153 153)">
      <stop stop-color="#D85E3A" stop-opacity="0.28"/>
      <stop offset="1" stop-color="#D85E3A" stop-opacity="0"/>
    </radialGradient>
  </defs>
  <rect width="1200" height="630" fill="url(#bg)"/>
  <rect width="1200" height="630" fill="url(#glow)"/>
  <circle cx="1014" cy="112" r="96" fill="#FBF7F0" opacity="0.9"/>
  <path d="M102 96H242" stroke="#1D2C36" stroke-width="5" stroke-linecap="round"/>
  <path d="M102 110H218" stroke="#D85E3A" stroke-width="5" stroke-linecap="round"/>
  <circle cx="754" cy="315" r="44" fill="#D85E3A"/>
  <circle cx="754" cy="315" r="84" stroke="#D85E3A" stroke-opacity="0.22" stroke-width="22"/>
  <circle cx="754" cy="315" r="134" stroke="#D85E3A" stroke-opacity="0.1" stroke-width="18"/>
  <circle cx="340" cy="224" r="34" fill="#1D2C36"/>
  <circle cx="340" cy="224" r="70" stroke="#1D2C36" stroke-opacity="0.14" stroke-width="18"/>
  <circle cx="300" cy="426" r="34" fill="#1D2C36"/>
  <circle cx="300" cy="426" r="70" stroke="#1D2C36" stroke-opacity="0.14" stroke-width="18"/>
  <circle cx="544" cy="470" r="34" fill="#1D2C36"/>
  <circle cx="544" cy="470" r="70" stroke="#1D2C36" stroke-opacity="0.14" stroke-width="18"/>
  <path d="M386 234C473 240 559 254 673 292" stroke="#1D2C36" stroke-width="8" stroke-linecap="round" stroke-dasharray="12 16"/>
  <path d="M340 394C446 358 545 333 673 317" stroke="#1D2C36" stroke-width="8" stroke-linecap="round" stroke-dasharray="12 16"/>
  <path d="M574 442C626 402 665 372 712 337" stroke="#1D2C36" stroke-width="8" stroke-linecap="round" stroke-dasharray="12 16"/>
  <path d="M661 286L691 297L669 319" fill="#1D2C36"/>
  <path d="M661 286L691 297L669 319" stroke="#1D2C36" stroke-width="4" stroke-linejoin="round"/>
  <path d="M664 307L695 315L675 337" fill="#1D2C36"/>
  <path d="M664 307L695 315L675 337" stroke="#1D2C36" stroke-width="4" stroke-linejoin="round"/>
  <path d="M700 324L730 330L711 353" fill="#1D2C36"/>
  <path d="M700 324L730 330L711 353" stroke="#1D2C36" stroke-width="4" stroke-linejoin="round"/>
  <text x="101" y="510" fill="#1D2C36" font-family="Georgia, 'Times New Roman', serif" font-size="58" letter-spacing="-1.2">
    <tspan x="101" dy="0">Who Taught You</tspan>
    <tspan x="101" dy="68">to Want This?</tspan>
  </text>
</svg>
