<?xml version="1.0" encoding="UTF-8"?>
<svg xmlns="http://www.w3.org/2000/svg" width="1672" height="941" viewBox="0 0 1672 941" fill="none">
  <defs>
    <linearGradient id="bg" x1="118" y1="42" x2="1554" y2="902" gradientUnits="userSpaceOnUse">
      <stop stop-color="#0F1A4A"/>
      <stop offset="1" stop-color="#070D25"/>
    </linearGradient>
    <radialGradient id="glow" cx="0" cy="0" r="1" gradientUnits="userSpaceOnUse" gradientTransform="translate(1294 430) rotate(90) scale(258 258)">
      <stop stop-color="#FF7A45" stop-opacity="0.44"/>
      <stop offset="1" stop-color="#FF7A45" stop-opacity="0"/>
    </radialGradient>
    <filter id="soft" x="-30%" y="-30%" width="160%" height="160%">
      <feGaussianBlur stdDeviation="18"/>
    </filter>
  </defs>
  <rect width="1672" height="941" fill="url(#bg)"/>
  <rect width="1672" height="941" fill="url(#glow)"/>
  <circle cx="1452" cy="126" r="118" fill="#172560" opacity="0.9"/>
  <rect x="118" y="96" width="182" height="10" rx="4" fill="#D6E0FF" opacity="0.92"/>
  <rect x="118" y="116" width="136" height="8" rx="4" fill="#FF7A45"/>

  <circle cx="340" cy="238" r="34" fill="#D8E1FF"/>
  <circle cx="340" cy="238" r="80" stroke="#D8E1FF" stroke-opacity="0.18" stroke-width="24"/>
  <circle cx="286" cy="660" r="34" fill="#D8E1FF"/>
  <circle cx="286" cy="660" r="80" stroke="#D8E1FF" stroke-opacity="0.18" stroke-width="24"/>
  <circle cx="690" cy="746" r="34" fill="#D8E1FF"/>
  <circle cx="690" cy="746" r="80" stroke="#D8E1FF" stroke-opacity="0.18" stroke-width="24"/>
  <circle cx="936" cy="346" r="34" fill="#D8E1FF"/>
  <circle cx="936" cy="346" r="80" stroke="#D8E1FF" stroke-opacity="0.18" stroke-width="24"/>
  <circle cx="1108" cy="660" r="34" fill="#D8E1FF"/>
  <circle cx="1108" cy="660" r="80" stroke="#D8E1FF" stroke-opacity="0.16" stroke-width="24"/>

  <path d="M392 256C544 278 748 322 1180 446" stroke="#9EB3FF" stroke-width="14" stroke-linecap="round" stroke-dasharray="18 18"/>
  <path d="M334 622C612 548 838 504 1194 438" stroke="#9EB3FF" stroke-width="14" stroke-linecap="round" stroke-dasharray="18 18"/>
  <path d="M738 712C930 612 1052 536 1206 454" stroke="#9EB3FF" stroke-width="14" stroke-linecap="round" stroke-dasharray="18 18"/>
  <path d="M984 356C1090 390 1148 410 1212 430" stroke="#9EB3FF" stroke-width="14" stroke-linecap="round" stroke-dasharray="18 18"/>
  <path d="M1062 620C1136 562 1186 518 1228 472" stroke="#9EB3FF" stroke-width="14" stroke-linecap="round" stroke-dasharray="18 18"/>

  <circle cx="1284" cy="430" r="76" fill="#FF6A3A"/>
  <circle cx="1284" cy="430" r="146" stroke="#FF8D65" stroke-opacity="0.24" stroke-width="34"/>
  <circle cx="1284" cy="430" r="230" stroke="#FF8D65" stroke-opacity="0.1" stroke-width="24"/>

  <g filter="url(#soft)" opacity="0.22">
    <ellipse cx="1128" cy="760" rx="328" ry="118" fill="#FF7A45"/>
  </g>
</svg>
