<?xml version="1.0" encoding="UTF-8"?>
<svg xmlns="http://www.w3.org/2000/svg" width="1003" height="1568" viewBox="0 0 1003 1568" fill="none">
  <defs>
    <linearGradient id="bgGradient" x1="0" y1="0" x2="1003" y2="1568">
      <stop offset="0%" stop-color="#080D1E"/>
      <stop offset="42%" stop-color="#131D45"/>
      <stop offset="100%" stop-color="#090C18"/>
    </linearGradient>
    <radialGradient id="violetGlow" cx="0" cy="0" r="1" gradientUnits="userSpaceOnUse" gradientTransform="translate(80.24 125.44) rotate(40) scale(451.35 815.36)">
      <stop offset="0%" stop-color="#5D49FF" stop-opacity="0.9"/>
      <stop offset="100%" stop-color="#5D49FF" stop-opacity="0"/>
    </radialGradient>
    <radialGradient id="emberGlow" cx="0" cy="0" r="1" gradientUnits="userSpaceOnUse" gradientTransform="translate(842.52 972.16) rotate(210) scale(280.84000000000003 595.84)">
      <stop offset="0%" stop-color="#F08A45" stop-opacity="0.65"/>
      <stop offset="100%" stop-color="#F08A45" stop-opacity="0"/>
    </radialGradient>
    <filter id="softGlow" x="-40%" y="-40%" width="180%" height="180%">
      <feGaussianBlur stdDeviation="10" result="blur"/>
      <feMerge>
        <feMergeNode in="blur"/>
        <feMergeNode in="SourceGraphic"/>
      </feMerge>
    </filter>
    <filter id="fineGlow" x="-30%" y="-30%" width="160%" height="160%">
      <feGaussianBlur stdDeviation="3" result="blur"/>
      <feMerge>
        <feMergeNode in="blur"/>
        <feMergeNode in="SourceGraphic"/>
      </feMerge>
    </filter>
  </defs>
  
  <rect width="1003" height="1568" fill="url(#bgGradient)"/>
  <rect width="1003" height="1568" fill="url(#violetGlow)" opacity="0.78"/>
  <rect width="1003" height="1568" fill="url(#emberGlow)" opacity="0.34"/>
  
  
  <g>
    <line x1="674.016" y1="376.32000000000005" x2="674.016" y2="1317.12" stroke="rgba(112,150,255,0.08)" stroke-width="1"/>
<line x1="720.154" y1="376.32000000000005" x2="720.154" y2="1317.12" stroke="rgba(112,150,255,0.08)" stroke-width="1"/>
<line x1="766.2919999999999" y1="376.32000000000005" x2="766.2919999999999" y2="1317.12" stroke="rgba(112,150,255,0.08)" stroke-width="1"/>
<line x1="812.43" y1="376.32000000000005" x2="812.43" y2="1317.12" stroke="rgba(112,150,255,0.08)" stroke-width="1"/>
<line x1="858.568" y1="376.32000000000005" x2="858.568" y2="1317.12" stroke="rgba(112,150,255,0.08)" stroke-width="1"/>
<line x1="904.706" y1="376.32000000000005" x2="904.706" y2="1317.12" stroke="rgba(112,150,255,0.08)" stroke-width="1"/>
    <rect x="692.0699999999999" y="439.04" width="200.60000000000002" height="219.52" rx="12.036" fill="rgba(110,132,255,0.08)" stroke="rgba(185,205,255,0.2)" stroke-width="1.1033000000000002"/>
<rect x="732.1899999999999" y="556.64" width="200.60000000000002" height="219.52" rx="12.036" fill="rgba(110,132,255,0.115)" stroke="rgba(185,205,255,0.23)" stroke-width="1.1033000000000002"/>
<rect x="772.31" y="674.24" width="200.60000000000002" height="219.52" rx="12.036" fill="rgba(110,132,255,0.15000000000000002)" stroke="rgba(185,205,255,0.26)" stroke-width="1.1033000000000002"/>
<rect x="812.43" y="791.84" width="200.60000000000002" height="219.52" rx="12.036" fill="rgba(110,132,255,0.185)" stroke="rgba(185,205,255,0.29000000000000004)" stroke-width="1.1033000000000002"/>
<rect x="852.55" y="909.44" width="200.60000000000002" height="219.52" rx="12.036" fill="rgba(110,132,255,0.22000000000000003)" stroke="rgba(185,205,255,0.32)" stroke-width="1.1033000000000002"/>
    <path d="M 656.9649999999999 537.8240000000001
             C 708.1179999999999 509.2864, 800.394 493.92, 888.6579999999999 478.5536
             C 940.814 469.7728, 982.9399999999999 482.944, 1009.018 491.7248"
          stroke="rgba(255,242,232,0.72)" stroke-width="2.5075" stroke-linecap="round" fill="none" filter="url(#softGlow)"/>
    <path d="M 501.5 282.24 C 421.26 282.24, 722.16 313.6, 982.9399999999999 307.32800000000003" stroke="rgba(255,161,97,0.42)" stroke-width="1.2036" stroke-linecap="round" fill="none" filter="url(#fineGlow)"/>
<path d="M 501.5 335.552 C 421.26 335.552, 722.16 357.504, 982.9399999999999 357.504" stroke="rgba(192,213,255,0.5)" stroke-width="1.2036" stroke-linecap="round" fill="none" filter="url(#fineGlow)"/>
<path d="M 501.5 388.864 C 421.26 388.864, 722.16 401.408, 982.9399999999999 407.68" stroke="rgba(192,213,255,0.5)" stroke-width="1.2036" stroke-linecap="round" fill="none" filter="url(#fineGlow)"/>
<path d="M 501.5 442.17600000000004 C 421.26 442.17600000000004, 722.16 445.31200000000007, 982.9399999999999 439.0400000000001" stroke="rgba(192,213,255,0.5)" stroke-width="1.2036" stroke-linecap="round" fill="none" filter="url(#fineGlow)"/>
<path d="M 501.5 495.488 C 421.26 495.488, 722.16 489.216, 982.9399999999999 489.216" stroke="rgba(255,161,97,0.42)" stroke-width="1.2036" stroke-linecap="round" fill="none" filter="url(#fineGlow)"/>
<path d="M 501.5 548.8 C 421.26 548.8, 722.16 533.12, 982.9399999999999 539.392" stroke="rgba(192,213,255,0.5)" stroke-width="1.2036" stroke-linecap="round" fill="none" filter="url(#fineGlow)"/>
<path d="M 501.5 602.112 C 421.26 602.112, 722.16 577.024, 982.9399999999999 570.752" stroke="rgba(192,213,255,0.5)" stroke-width="1.2036" stroke-linecap="round" fill="none" filter="url(#fineGlow)"/>
<path d="M 501.5 655.4240000000001 C 421.26 655.4240000000001, 722.16 620.928, 982.9399999999999 620.928" stroke="rgba(192,213,255,0.5)" stroke-width="1.2036" stroke-linecap="round" fill="none" filter="url(#fineGlow)"/>
<path d="M 501.5 708.736 C 421.26 708.736, 722.16 664.8320000000001, 982.9399999999999 671.1040000000002" stroke="rgba(255,161,97,0.42)" stroke-width="1.2036" stroke-linecap="round" fill="none" filter="url(#fineGlow)"/>
<path d="M 501.5 762.0480000000001 C 421.26 762.0480000000001, 722.16 708.736, 982.9399999999999 702.4639999999999" stroke="rgba(192,213,255,0.5)" stroke-width="1.2036" stroke-linecap="round" fill="none" filter="url(#fineGlow)"/>
<path d="M 501.5 815.36 C 421.26 815.36, 722.16 752.6400000000001, 982.9399999999999 752.6400000000001" stroke="rgba(192,213,255,0.5)" stroke-width="1.2036" stroke-linecap="round" fill="none" filter="url(#fineGlow)"/>
<path d="M 501.5 868.672 C 421.26 868.672, 722.16 796.544, 982.9399999999999 802.816" stroke="rgba(192,213,255,0.5)" stroke-width="1.2036" stroke-linecap="round" fill="none" filter="url(#fineGlow)"/>
<path d="M 501.5 921.9840000000002 C 421.26 921.9840000000002, 722.16 840.4480000000001, 982.9399999999999 834.176" stroke="rgba(255,161,97,0.42)" stroke-width="1.2036" stroke-linecap="round" fill="none" filter="url(#fineGlow)"/>
<path d="M 501.5 975.2960000000002 C 421.26 975.2960000000002, 722.16 884.3520000000001, 982.9399999999999 884.3520000000001" stroke="rgba(192,213,255,0.5)" stroke-width="1.2036" stroke-linecap="round" fill="none" filter="url(#fineGlow)"/>
<path d="M 501.5 1028.608 C 421.26 1028.608, 722.16 928.2560000000001, 982.9399999999999 934.5280000000001" stroke="rgba(192,213,255,0.5)" stroke-width="1.2036" stroke-linecap="round" fill="none" filter="url(#fineGlow)"/>
<path d="M 501.5 1081.9199999999998 C 421.26 1081.9199999999998, 722.16 972.16, 982.9399999999999 965.8879999999999" stroke="rgba(192,213,255,0.5)" stroke-width="1.2036" stroke-linecap="round" fill="none" filter="url(#fineGlow)"/>
    <g filter="url(#fineGlow)"><circle cx="855.97" cy="963.13" r="0.94" fill="rgba(255,161,97,0.58)"/><circle cx="700.76" cy="628.78" r="1.65" fill="rgba(112,150,255,0.54)"/><circle cx="738.47" cy="1151.57" r="1.00" fill="rgba(197,214,255,0.8)"/><circle cx="878.48" cy="1212.98" r="1.24" fill="rgba(112,150,255,0.54)"/><circle cx="875.92" cy="576.29" r="2.08" fill="rgba(255,161,97,0.58)"/><circle cx="781.08" cy="929.75" r="0.68" fill="rgba(197,214,255,0.8)"/><circle cx="928.37" cy="808.01" r="1.99" fill="rgba(112,150,255,0.54)"/><circle cx="999.56" cy="860.36" r="1.92" fill="rgba(112,150,255,0.54)"/><circle cx="715.17" cy="598.08" r="1.82" fill="rgba(255,161,97,0.58)"/><circle cx="892.70" cy="761.09" r="0.60" fill="rgba(255,161,97,0.58)"/><circle cx="973.52" cy="592.27" r="1.48" fill="rgba(197,214,255,0.8)"/><circle cx="707.54" cy="570.08" r="2.05" fill="rgba(112,150,255,0.54)"/><circle cx="895.14" cy="1289.78" r="0.89" fill="rgba(197,214,255,0.8)"/><circle cx="942.65" cy="1125.82" r="0.60" fill="rgba(197,214,255,0.8)"/><circle cx="836.87" cy="576.66" r="1.61" fill="rgba(112,150,255,0.54)"/><circle cx="700.33" cy="395.04" r="1.91" fill="rgba(112,150,255,0.54)"/><circle cx="922.85" cy="503.66" r="1.07" fill="rgba(255,161,97,0.58)"/><circle cx="686.41" cy="1244.32" r="1.67" fill="rgba(112,150,255,0.54)"/><circle cx="708.67" cy="1034.32" r="1.43" fill="rgba(255,161,97,0.58)"/><circle cx="775.42" cy="799.42" r="0.89" fill="rgba(112,150,255,0.54)"/><circle cx="851.47" cy="1241.39" r="0.60" fill="rgba(255,161,97,0.58)"/><circle cx="945.78" cy="675.36" r="1.55" fill="rgba(112,150,255,0.54)"/><circle cx="861.06" cy="523.53" r="2.10" fill="rgba(255,161,97,0.58)"/><circle cx="828.71" cy="798.70" r="0.60" fill="rgba(197,214,255,0.8)"/><circle cx="1001.69" cy="1213.97" r="0.85" fill="rgba(197,214,255,0.8)"/><circle cx="885.89" cy="1013.39" r="1.37" fill="rgba(112,150,255,0.54)"/><circle cx="931.08" cy="1081.98" r="1.42" fill="rgba(112,150,255,0.54)"/><circle cx="849.04" cy="884.37" r="0.92" fill="rgba(112,150,255,0.54)"/><circle cx="883.11" cy="1008.74" r="0.60" fill="rgba(255,161,97,0.58)"/><circle cx="731.11" cy="1165.68" r="1.80" fill="rgba(255,161,97,0.58)"/><circle cx="792.36" cy="1248.38" r="0.69" fill="rgba(197,214,255,0.8)"/><circle cx="959.68" cy="764.36" r="0.76" fill="rgba(197,214,255,0.8)"/><circle cx="683.01" cy="839.47" r="1.77" fill="rgba(255,161,97,0.58)"/><circle cx="997.19" cy="632.16" r="0.72" fill="rgba(112,150,255,0.54)"/><circle cx="996.21" cy="1022.24" r="1.80" fill="rgba(112,150,255,0.54)"/><circle cx="908.17" cy="831.38" r="0.60" fill="rgba(112,150,255,0.54)"/><circle cx="967.66" cy="809.87" r="1.42" fill="rgba(112,150,255,0.54)"/><circle cx="858.54" cy="528.65" r="1.90" fill="rgba(197,214,255,0.8)"/><circle cx="712.07" cy="701.26" r="0.60" fill="rgba(197,214,255,0.8)"/><circle cx="939.63" cy="843.01" r="1.93" fill="rgba(112,150,255,0.54)"/><circle cx="694.53" cy="1136.91" r="0.60" fill="rgba(112,150,255,0.54)"/><circle cx="729.75" cy="1236.26" r="1.10" fill="rgba(197,214,255,0.8)"/><circle cx="968.58" cy="968.57" r="1.90" fill="rgba(255,161,97,0.58)"/><circle cx="998.92" cy="826.94" r="0.60" fill="rgba(197,214,255,0.8)"/><circle cx="852.75" cy="846.78" r="0.65" fill="rgba(255,161,97,0.58)"/><circle cx="708.40" cy="1148.99" r="0.60" fill="rgba(255,161,97,0.58)"/><circle cx="677.03" cy="480.86" r="0.68" fill="rgba(197,214,255,0.8)"/><circle cx="933.39" cy="553.35" r="1.15" fill="rgba(112,150,255,0.54)"/><circle cx="798.49" cy="1264.13" r="0.60" fill="rgba(255,161,97,0.58)"/><circle cx="797.27" cy="413.47" r="1.47" fill="rgba(255,161,97,0.58)"/><circle cx="930.80" cy="831.44" r="0.60" fill="rgba(255,161,97,0.58)"/><circle cx="744.52" cy="902.84" r="0.60" fill="rgba(112,150,255,0.54)"/><circle cx="755.19" cy="1181.13" r="0.60" fill="rgba(255,161,97,0.58)"/><circle cx="793.07" cy="466.69" r="0.60" fill="rgba(197,214,255,0.8)"/><circle cx="667.60" cy="623.33" r="1.18" fill="rgba(197,214,255,0.8)"/><circle cx="672.06" cy="819.06" r="0.60" fill="rgba(197,214,255,0.8)"/><circle cx="951.41" cy="863.05" r="2.03" fill="rgba(197,214,255,0.8)"/><circle cx="908.44" cy="730.94" r="1.45" fill="rgba(197,214,255,0.8)"/><circle cx="670.89" cy="505.26" r="0.60" fill="rgba(255,161,97,0.58)"/><circle cx="852.24" cy="597.31" r="1.63" fill="rgba(255,161,97,0.58)"/><circle cx="855.12" cy="823.86" r="1.27" fill="rgba(112,150,255,0.54)"/><circle cx="931.83" cy="593.73" r="1.62" fill="rgba(112,150,255,0.54)"/><circle cx="819.67" cy="1228.10" r="0.96" fill="rgba(197,214,255,0.8)"/><circle cx="848.74" cy="415.98" r="1.58" fill="rgba(255,161,97,0.58)"/><circle cx="914.42" cy="606.29" r="0.60" fill="rgba(197,214,255,0.8)"/><circle cx="676.44" cy="1015.80" r="1.94" fill="rgba(112,150,255,0.54)"/><circle cx="787.57" cy="956.08" r="0.60" fill="rgba(255,161,97,0.58)"/><circle cx="944.61" cy="609.65" r="2.14" fill="rgba(197,214,255,0.8)"/><circle cx="680.83" cy="523.30" r="0.78" fill="rgba(255,161,97,0.58)"/><circle cx="987.10" cy="543.75" r="1.91" fill="rgba(197,214,255,0.8)"/><circle cx="948.55" cy="659.55" r="1.14" fill="rgba(112,150,255,0.54)"/><circle cx="850.61" cy="386.94" r="2.05" fill="rgba(112,150,255,0.54)"/><circle cx="810.78" cy="732.31" r="1.68" fill="rgba(255,161,97,0.58)"/><circle cx="771.64" cy="965.70" r="2.05" fill="rgba(255,161,97,0.58)"/><circle cx="962.36" cy="460.91" r="0.83" fill="rgba(255,161,97,0.58)"/><circle cx="797.09" cy="643.22" r="0.86" fill="rgba(255,161,97,0.58)"/><circle cx="915.99" cy="677.48" r="0.60" fill="rgba(112,150,255,0.54)"/><circle cx="765.92" cy="396.02" r="0.92" fill="rgba(197,214,255,0.8)"/><circle cx="810.68" cy="742.83" r="2.19" fill="rgba(197,214,255,0.8)"/><circle cx="846.97" cy="1231.05" r="1.79" fill="rgba(197,214,255,0.8)"/><circle cx="742.64" cy="841.55" r="1.71" fill="rgba(197,214,255,0.8)"/><circle cx="977.82" cy="1295.23" r="1.48" fill="rgba(197,214,255,0.8)"/><circle cx="840.35" cy="712.71" r="0.89" fill="rgba(112,150,255,0.54)"/><circle cx="893.62" cy="1141.88" r="2.20" fill="rgba(197,214,255,0.8)"/><circle cx="782.04" cy="641.25" r="1.35" fill="rgba(255,161,97,0.58)"/><circle cx="919.75" cy="1294.95" r="1.72" fill="rgba(112,150,255,0.54)"/><circle cx="687.33" cy="1285.09" r="2.09" fill="rgba(255,161,97,0.58)"/><circle cx="777.99" cy="616.68" r="1.53" fill="rgba(255,161,97,0.58)"/><circle cx="836.08" cy="423.61" r="1.81" fill="rgba(197,214,255,0.8)"/><circle cx="904.48" cy="1054.22" r="0.60" fill="rgba(255,161,97,0.58)"/><circle cx="855.83" cy="962.28" r="1.10" fill="rgba(255,161,97,0.58)"/><circle cx="779.41" cy="374.38" r="0.60" fill="rgba(255,161,97,0.58)"/><circle cx="876.29" cy="768.87" r="0.70" fill="rgba(197,214,255,0.8)"/><circle cx="971.91" cy="612.45" r="2.18" fill="rgba(197,214,255,0.8)"/><circle cx="928.28" cy="881.68" r="0.60" fill="rgba(197,214,255,0.8)"/><circle cx="725.07" cy="533.60" r="1.63" fill="rgba(197,214,255,0.8)"/><circle cx="873.37" cy="817.66" r="0.60" fill="rgba(112,150,255,0.54)"/><circle cx="984.61" cy="1068.31" r="1.03" fill="rgba(112,150,255,0.54)"/><circle cx="991.93" cy="672.79" r="1.39" fill="rgba(197,214,255,0.8)"/><circle cx="674.05" cy="650.80" r="1.90" fill="rgba(112,150,255,0.54)"/><circle cx="842.99" cy="1289.81" r="1.64" fill="rgba(112,150,255,0.54)"/><circle cx="795.66" cy="1276.76" r="1.95" fill="rgba(255,161,97,0.58)"/><circle cx="682.11" cy="967.90" r="0.62" fill="rgba(197,214,255,0.8)"/><circle cx="916.29" cy="513.94" r="1.21" fill="rgba(255,161,97,0.58)"/><circle cx="931.94" cy="1206.37" r="0.76" fill="rgba(255,161,97,0.58)"/><circle cx="971.54" cy="564.01" r="0.60" fill="rgba(255,161,97,0.58)"/><circle cx="909.87" cy="1036.26" r="1.86" fill="rgba(255,161,97,0.58)"/><circle cx="750.92" cy="1187.21" r="1.32" fill="rgba(255,161,97,0.58)"/><circle cx="773.30" cy="652.36" r="0.78" fill="rgba(255,161,97,0.58)"/><circle cx="972.71" cy="895.22" r="1.27" fill="rgba(112,150,255,0.54)"/><circle cx="961.68" cy="883.39" r="1.71" fill="rgba(197,214,255,0.8)"/><circle cx="852.87" cy="1079.53" r="1.23" fill="rgba(255,161,97,0.58)"/><circle cx="947.79" cy="926.87" r="1.97" fill="rgba(197,214,255,0.8)"/><circle cx="820.67" cy="523.91" r="0.68" fill="rgba(255,161,97,0.58)"/><circle cx="813.61" cy="638.19" r="0.60" fill="rgba(255,161,97,0.58)"/><circle cx="939.07" cy="467.05" r="1.31" fill="rgba(197,214,255,0.8)"/><circle cx="877.86" cy="1201.99" r="2.03" fill="rgba(112,150,255,0.54)"/><circle cx="794.25" cy="619.63" r="0.60" fill="rgba(197,214,255,0.8)"/><circle cx="803.91" cy="1109.41" r="1.90" fill="rgba(112,150,255,0.54)"/><circle cx="928.85" cy="1005.48" r="0.60" fill="rgba(255,161,97,0.58)"/><circle cx="777.38" cy="439.88" r="0.80" fill="rgba(197,214,255,0.8)"/><circle cx="703.39" cy="494.30" r="2.01" fill="rgba(255,161,97,0.58)"/><circle cx="775.89" cy="1346.83" r="1.81" fill="rgba(197,214,255,0.8)"/><circle cx="770.57" cy="498.28" r="0.67" fill="rgba(112,150,255,0.54)"/><circle cx="892.32" cy="1221.73" r="2.00" fill="rgba(112,150,255,0.54)"/><circle cx="935.29" cy="926.51" r="2.07" fill="rgba(255,161,97,0.58)"/><circle cx="679.82" cy="1235.34" r="0.98" fill="rgba(255,161,97,0.58)"/><circle cx="693.50" cy="499.34" r="0.60" fill="rgba(255,161,97,0.58)"/><circle cx="909.54" cy="371.34" r="0.60" fill="rgba(197,214,255,0.8)"/><circle cx="701.34" cy="1066.36" r="1.14" fill="rgba(197,214,255,0.8)"/><circle cx="870.39" cy="966.51" r="2.19" fill="rgba(255,161,97,0.58)"/><circle cx="748.34" cy="383.25" r="1.60" fill="rgba(255,161,97,0.58)"/><circle cx="779.06" cy="1015.86" r="1.91" fill="rgba(255,161,97,0.58)"/><circle cx="890.55" cy="720.01" r="0.93" fill="rgba(112,150,255,0.54)"/><circle cx="741.52" cy="1067.16" r="2.07" fill="rgba(112,150,255,0.54)"/><circle cx="981.79" cy="782.89" r="2.08" fill="rgba(197,214,255,0.8)"/><circle cx="905.29" cy="456.56" r="1.04" fill="rgba(255,161,97,0.58)"/><circle cx="677.36" cy="1026.32" r="1.06" fill="rgba(197,214,255,0.8)"/><circle cx="982.44" cy="1208.13" r="1.47" fill="rgba(197,214,255,0.8)"/><circle cx="940.20" cy="1030.86" r="1.30" fill="rgba(112,150,255,0.54)"/><circle cx="835.23" cy="482.95" r="0.94" fill="rgba(112,150,255,0.54)"/><circle cx="771.59" cy="1000.10" r="0.77" fill="rgba(255,161,97,0.58)"/><circle cx="994.31" cy="467.11" r="1.04" fill="rgba(255,161,97,0.58)"/><circle cx="783.45" cy="629.71" r="2.15" fill="rgba(112,150,255,0.54)"/><circle cx="892.24" cy="1090.07" r="0.60" fill="rgba(112,150,255,0.54)"/><circle cx="686.03" cy="589.74" r="0.98" fill="rgba(112,150,255,0.54)"/><circle cx="723.17" cy="1139.37" r="1.09" fill="rgba(255,161,97,0.58)"/><circle cx="729.70" cy="1013.15" r="1.03" fill="rgba(197,214,255,0.8)"/><circle cx="688.53" cy="416.70" r="2.13" fill="rgba(255,161,97,0.58)"/><circle cx="866.73" cy="658.74" r="0.70" fill="rgba(197,214,255,0.8)"/><circle cx="736.69" cy="775.22" r="0.60" fill="rgba(112,150,255,0.54)"/><circle cx="776.56" cy="914.40" r="0.60" fill="rgba(255,161,97,0.58)"/><circle cx="888.53" cy="603.59" r="0.60" fill="rgba(112,150,255,0.54)"/><circle cx="668.80" cy="1206.36" r="0.82" fill="rgba(197,214,255,0.8)"/><circle cx="903.75" cy="613.30" r="1.20" fill="rgba(197,214,255,0.8)"/><circle cx="731.70" cy="1156.29" r="0.85" fill="rgba(112,150,255,0.54)"/><circle cx="687.41" cy="1171.27" r="2.00" fill="rgba(112,150,255,0.54)"/><circle cx="972.61" cy="511.36" r="2.11" fill="rgba(112,150,255,0.54)"/><circle cx="844.37" cy="1093.63" r="1.39" fill="rgba(112,150,255,0.54)"/><circle cx="776.72" cy="772.07" r="0.60" fill="rgba(255,161,97,0.58)"/><circle cx="740.90" cy="1086.44" r="1.09" fill="rgba(255,161,97,0.58)"/><circle cx="712.70" cy="714.28" r="0.60" fill="rgba(255,161,97,0.58)"/><circle cx="949.10" cy="1038.41" r="0.90" fill="rgba(197,214,255,0.8)"/><circle cx="852.00" cy="842.80" r="2.01" fill="rgba(255,161,97,0.58)"/><circle cx="769.42" cy="870.88" r="1.99" fill="rgba(112,150,255,0.54)"/><circle cx="825.84" cy="439.08" r="1.10" fill="rgba(255,161,97,0.58)"/><circle cx="702.24" cy="966.51" r="0.87" fill="rgba(112,150,255,0.54)"/><circle cx="777.42" cy="742.17" r="1.23" fill="rgba(255,161,97,0.58)"/><circle cx="700.26" cy="447.13" r="1.47" fill="rgba(255,161,97,0.58)"/><circle cx="739.52" cy="1182.42" r="0.60" fill="rgba(255,161,97,0.58)"/><circle cx="958.74" cy="786.67" r="2.12" fill="rgba(255,161,97,0.58)"/><circle cx="950.43" cy="1169.87" r="1.60" fill="rgba(197,214,255,0.8)"/><circle cx="938.53" cy="788.16" r="0.60" fill="rgba(112,150,255,0.54)"/><circle cx="930.48" cy="813.47" r="1.16" fill="rgba(255,161,97,0.58)"/><circle cx="794.48" cy="843.61" r="0.65" fill="rgba(112,150,255,0.54)"/><circle cx="936.98" cy="587.98" r="1.45" fill="rgba(112,150,255,0.54)"/><circle cx="944.37" cy="594.17" r="2.20" fill="rgba(197,214,255,0.8)"/><circle cx="819.70" cy="595.36" r="0.78" fill="rgba(112,150,255,0.54)"/><circle cx="854.74" cy="908.60" r="1.27" fill="rgba(255,161,97,0.58)"/><circle cx="891.04" cy="674.86" r="0.60" fill="rgba(197,214,255,0.8)"/><circle cx="809.13" cy="503.88" r="1.67" fill="rgba(112,150,255,0.54)"/><circle cx="747.45" cy="1281.23" r="1.72" fill="rgba(255,161,97,0.58)"/><circle cx="715.75" cy="724.97" r="1.85" fill="rgba(255,161,97,0.58)"/><circle cx="862.54" cy="773.10" r="1.24" fill="rgba(112,150,255,0.54)"/><circle cx="792.88" cy="1358.51" r="1.28" fill="rgba(112,150,255,0.54)"/><circle cx="748.55" cy="710.16" r="0.60" fill="rgba(255,161,97,0.58)"/><circle cx="979.63" cy="744.35" r="2.20" fill="rgba(197,214,255,0.8)"/><circle cx="960.51" cy="456.24" r="0.60" fill="rgba(197,214,255,0.8)"/><circle cx="828.61" cy="1291.62" r="1.25" fill="rgba(255,161,97,0.58)"/><circle cx="956.28" cy="1348.11" r="1.17" fill="rgba(255,161,97,0.58)"/><circle cx="864.36" cy="1090.22" r="0.60" fill="rgba(255,161,97,0.58)"/><circle cx="817.47" cy="998.86" r="1.09" fill="rgba(255,161,97,0.58)"/><circle cx="674.49" cy="709.50" r="0.60" fill="rgba(197,214,255,0.8)"/><circle cx="781.50" cy="884.74" r="1.29" fill="rgba(197,214,255,0.8)"/><circle cx="973.56" cy="1020.82" r="0.60" fill="rgba(255,161,97,0.58)"/><circle cx="918.09" cy="644.43" r="1.70" fill="rgba(112,150,255,0.54)"/><circle cx="755.60" cy="900.70" r="1.66" fill="rgba(112,150,255,0.54)"/><circle cx="950.82" cy="732.53" r="2.01" fill="rgba(197,214,255,0.8)"/><circle cx="764.93" cy="612.30" r="2.00" fill="rgba(112,150,255,0.54)"/><circle cx="845.34" cy="798.82" r="1.23" fill="rgba(197,214,255,0.8)"/></g>
  </g>
  
  <g>
    <path d="M 65.195 148.96 L 55.16499999999999 148.96 L 55.16499999999999 787.3868799999999 L 65.195 787.3868799999999"
          stroke="rgba(186,199,255,0.4)" stroke-width="1.5045" fill="none"/>
    <text x="75.225" y="282.24" fill="#FFF9F0" opacity="1" font-size="98.294" font-family="Geist, 'Helvetica Neue', Arial, sans-serif" font-weight="500" letter-spacing="-0.055em">AI-Native</text>
<text x="75.225" y="420.224" fill="#FFF9F0" opacity="0.92" font-size="98.294" font-family="Geist, 'Helvetica Neue', Arial, sans-serif" font-weight="300" letter-spacing="-0.055em">is not</text>
<text x="75.225" y="558.208" fill="#8E7BFF" opacity="1" font-size="98.294" font-family="Geist, 'Helvetica Neue', Arial, sans-serif" font-weight="600" letter-spacing="-0.045em">AI-First.</text>
    <text x="75.225" y="740.3468799999999" fill="#F2C7AB" opacity="0.96" font-size="38.114" font-family="Geist, 'Helvetica Neue', Arial, sans-serif" font-weight="700" letter-spacing="-0.02em">The org design is the AI strategy.</text>
    <text x="75.225" y="850.1068799999999" fill="#ECE6DC" opacity="0.9" font-size="26.078" font-family="Geist, 'Helvetica Neue', Arial, sans-serif" font-weight="400">
      <tspan x="75.225" dy="0">What changes when the cost of carrying context collapses.</tspan>
    </text>
  </g>
</svg>