<?xml version="1.0" encoding="UTF-8"?>
<svg xmlns="http://www.w3.org/2000/svg" width="1672" height="941" viewBox="0 0 1672 941" fill="none">
  <defs>
    <linearGradient id="bgGradient" x1="0" y1="0" x2="1672" y2="941">
      <stop offset="0%" stop-color="#F3F1FF"/>
      <stop offset="42%" stop-color="#ECE8FF"/>
      <stop offset="100%" stop-color="#E6E1FF"/>
    </linearGradient>
    <radialGradient id="violetGlow" cx="0" cy="0" r="1" gradientUnits="userSpaceOnUse" gradientTransform="translate(133.76 75.28) rotate(40) scale(752.4 489.32)">
      <stop offset="0%" stop-color="#4736FE" stop-opacity="0.9"/>
      <stop offset="100%" stop-color="#4736FE" stop-opacity="0"/>
    </radialGradient>
    <radialGradient id="emberGlow" cx="0" cy="0" r="1" gradientUnits="userSpaceOnUse" gradientTransform="translate(1404.48 583.42) rotate(210) scale(468.16 357.58)">
      <stop offset="0%" stop-color="#EF4523" stop-opacity="0.65"/>
      <stop offset="100%" stop-color="#EF4523" stop-opacity="0"/>
    </radialGradient>
    <filter id="softGlow" x="-40%" y="-40%" width="180%" height="180%">
      <feGaussianBlur stdDeviation="13.376" result="blur"/>
      <feMerge>
        <feMergeNode in="blur"/>
        <feMergeNode in="SourceGraphic"/>
      </feMerge>
    </filter>
    <filter id="fineGlow" x="-30%" y="-30%" width="160%" height="160%">
      <feGaussianBlur stdDeviation="3.6784000000000003" result="blur"/>
      <feMerge>
        <feMergeNode in="blur"/>
        <feMergeNode in="SourceGraphic"/>
      </feMerge>
    </filter>
  </defs>
  
  <rect width="1672" height="941" fill="url(#bgGradient)"/>
  <rect width="1672" height="941" fill="url(#violetGlow)" opacity="0.04"/>
  <ellipse cx="1304.16" cy="263.48" rx="367.84" ry="207.02" fill="rgba(71,54,254,0.05)"/>
  <ellipse cx="300.96" cy="771.62" rx="300.96" ry="169.38" fill="rgba(239,69,35,0.035)"/>
  <g><line x1="83.60000000000001" y1="94.10000000000001" x2="83.60000000000001" y2="846.9" stroke="rgba(71,54,254,0.05)" stroke-width="1.3376000000000001"/>
<line x1="234.07999999999998" y1="94.10000000000001" x2="234.07999999999998" y2="846.9" stroke="rgba(71,54,254,0.05)" stroke-width="1.3376000000000001"/>
<line x1="384.56" y1="94.10000000000001" x2="384.56" y2="846.9" stroke="rgba(71,54,254,0.05)" stroke-width="1.3376000000000001"/>
<line x1="535.04" y1="94.10000000000001" x2="535.04" y2="846.9" stroke="rgba(71,54,254,0.05)" stroke-width="1.3376000000000001"/>
<line x1="685.52" y1="94.10000000000001" x2="685.52" y2="846.9" stroke="rgba(71,54,254,0.05)" stroke-width="1.3376000000000001"/>
<line x1="836" y1="94.10000000000001" x2="836" y2="846.9" stroke="rgba(71,54,254,0.05)" stroke-width="1.3376000000000001"/>
<line x1="986.4799999999999" y1="94.10000000000001" x2="986.4799999999999" y2="846.9" stroke="rgba(71,54,254,0.05)" stroke-width="1.3376000000000001"/>
<line x1="1136.96" y1="94.10000000000001" x2="1136.96" y2="846.9" stroke="rgba(71,54,254,0.05)" stroke-width="1.3376000000000001"/>
<line x1="1287.4399999999998" y1="94.10000000000001" x2="1287.4399999999998" y2="846.9" stroke="rgba(71,54,254,0.05)" stroke-width="1.3376000000000001"/>
<line x1="1437.9199999999998" y1="94.10000000000001" x2="1437.9199999999998" y2="846.9" stroke="rgba(71,54,254,0.05)" stroke-width="1.3376000000000001"/>
<line x1="1588.3999999999999" y1="94.10000000000001" x2="1588.3999999999999" y2="846.9" stroke="rgba(71,54,254,0.05)" stroke-width="1.3376000000000001"/>
<line x1="83.60000000000001" y1="94.10000000000001" x2="1588.3999999999999" y2="94.10000000000001" stroke="rgba(71,54,254,0.05)" stroke-width="1.3376000000000001"/>
<line x1="83.60000000000001" y1="201.64285714285717" x2="1588.3999999999999" y2="201.64285714285717" stroke="rgba(71,54,254,0.05)" stroke-width="1.3376000000000001"/>
<line x1="83.60000000000001" y1="309.1857142857143" x2="1588.3999999999999" y2="309.1857142857143" stroke="rgba(71,54,254,0.05)" stroke-width="1.3376000000000001"/>
<line x1="83.60000000000001" y1="416.72857142857146" x2="1588.3999999999999" y2="416.72857142857146" stroke="rgba(71,54,254,0.05)" stroke-width="1.3376000000000001"/>
<line x1="83.60000000000001" y1="524.2714285714286" x2="1588.3999999999999" y2="524.2714285714286" stroke="rgba(71,54,254,0.05)" stroke-width="1.3376000000000001"/>
<line x1="83.60000000000001" y1="631.8142857142858" x2="1588.3999999999999" y2="631.8142857142858" stroke="rgba(71,54,254,0.05)" stroke-width="1.3376000000000001"/>
<line x1="83.60000000000001" y1="739.3571428571429" x2="1588.3999999999999" y2="739.3571428571429" stroke="rgba(71,54,254,0.05)" stroke-width="1.3376000000000001"/>
<line x1="83.60000000000001" y1="846.9000000000001" x2="1588.3999999999999" y2="846.9000000000001" stroke="rgba(71,54,254,0.05)" stroke-width="1.3376000000000001"/></g>
  <rect x="120.38399999999999" y="79.985" width="183.92" height="8.469" rx="2" fill="rgba(71,54,254,0.9)"/>
  <rect x="1404.48" y="832.785" width="133.76" height="8.469" rx="2" fill="rgba(239,69,35,0.82)"/>
  
  
  <g>
    
    <rect x="83.60000000000001" y="94.10000000000001" width="1471.36" height="752.8000000000001" rx="20.064" fill="rgba(255,255,255,0.28)" stroke="rgba(71,54,254,0.09)" stroke-width="1.672"/>
    <ellipse cx="1348.9696" cy="214.548" rx="323.69919999999996" ry="188.20000000000002" fill="rgba(71,54,254,0.05)"/>
    <ellipse cx="201.30880000000002" cy="771.6200000000001" rx="294.272" ry="165.616" fill="rgba(239,69,35,0.04)"/>
    <line x1="83.60000000000001" y1="94.10000000000001" x2="83.60000000000001" y2="846.9000000000001" stroke="rgba(71,54,254,0.06)" stroke-width="1.5048"/>
<line x1="267.52" y1="94.10000000000001" x2="267.52" y2="846.9000000000001" stroke="rgba(71,54,254,0.06)" stroke-width="1.5048"/>
<line x1="451.44" y1="94.10000000000001" x2="451.44" y2="846.9000000000001" stroke="rgba(71,54,254,0.06)" stroke-width="1.5048"/>
<line x1="635.36" y1="94.10000000000001" x2="635.36" y2="846.9000000000001" stroke="rgba(71,54,254,0.06)" stroke-width="1.5048"/>
<line x1="819.28" y1="94.10000000000001" x2="819.28" y2="846.9000000000001" stroke="rgba(71,54,254,0.06)" stroke-width="1.5048"/>
<line x1="1003.1999999999999" y1="94.10000000000001" x2="1003.1999999999999" y2="846.9000000000001" stroke="rgba(71,54,254,0.06)" stroke-width="1.5048"/>
<line x1="1187.12" y1="94.10000000000001" x2="1187.12" y2="846.9000000000001" stroke="rgba(71,54,254,0.06)" stroke-width="1.5048"/>
<line x1="1371.0399999999997" y1="94.10000000000001" x2="1371.0399999999997" y2="846.9000000000001" stroke="rgba(71,54,254,0.06)" stroke-width="1.5048"/>
<line x1="1554.9599999999998" y1="94.10000000000001" x2="1554.9599999999998" y2="846.9000000000001" stroke="rgba(71,54,254,0.06)" stroke-width="1.5048"/>
<line x1="83.60000000000001" y1="94.10000000000001" x2="1554.9599999999998" y2="94.10000000000001" stroke="rgba(71,54,254,0.07)" stroke-width="1.5048"/>
<line x1="83.60000000000001" y1="219.5666666666667" x2="1554.9599999999998" y2="219.5666666666667" stroke="rgba(71,54,254,0.07)" stroke-width="1.5048"/>
<line x1="83.60000000000001" y1="345.03333333333336" x2="1554.9599999999998" y2="345.03333333333336" stroke="rgba(71,54,254,0.07)" stroke-width="1.5048"/>
<line x1="83.60000000000001" y1="470.50000000000006" x2="1554.9599999999998" y2="470.50000000000006" stroke="rgba(71,54,254,0.07)" stroke-width="1.5048"/>
<line x1="83.60000000000001" y1="595.9666666666667" x2="1554.9599999999998" y2="595.9666666666667" stroke="rgba(71,54,254,0.07)" stroke-width="1.5048"/>
<line x1="83.60000000000001" y1="721.4333333333334" x2="1554.9599999999998" y2="721.4333333333334" stroke="rgba(71,54,254,0.07)" stroke-width="1.5048"/>
<line x1="83.60000000000001" y1="846.9000000000001" x2="1554.9599999999998" y2="846.9000000000001" stroke="rgba(71,54,254,0.07)" stroke-width="1.5048"/>
    <line x1="819.28" y1="169.38000000000002" x2="819.28" y2="726.4520000000001" stroke="rgba(71,54,254,0.24)" stroke-width="3.0096"/>
  
    
    <g>
      <rect x="142.45440000000002" y="154.324" width="294.272" height="90.336" rx="13.242239999999999" fill="rgba(255,255,255,0.94)" stroke="rgba(71,54,254,0.16)" stroke-width="1.177088"/>
      <rect x="165.99616000000003" y="170.58448" width="70.62527999999999" height="10.84032" rx="4.5168" fill="rgba(71,54,254,0.14)"/>
      <rect x="165.99616000000003" y="192.26512000000002" width="153.02144" height="9.0336" rx="4.5168" fill="rgba(22,22,22,0.08)"/>
      <rect x="165.99616000000003" y="210.33232" width="117.7088" height="7.22688" rx="4.5168" fill="rgba(22,22,22,0.05)"/>
    </g>
  
    <g>
      <rect x="142.45440000000002" y="274.772" width="294.272" height="90.336" rx="13.242239999999999" fill="rgba(255,255,255,0.94)" stroke="rgba(71,54,254,0.16)" stroke-width="1.177088"/>
      <rect x="165.99616000000003" y="291.03247999999996" width="70.62527999999999" height="10.84032" rx="4.5168" fill="rgba(239,69,35,0.14)"/>
      <rect x="165.99616000000003" y="312.71312" width="153.02144" height="9.0336" rx="4.5168" fill="rgba(22,22,22,0.08)"/>
      <rect x="165.99616000000003" y="330.78031999999996" width="117.7088" height="7.22688" rx="4.5168" fill="rgba(22,22,22,0.05)"/>
    </g>
  
    <g>
      <rect x="142.45440000000002" y="395.2200000000001" width="294.272" height="90.336" rx="13.242239999999999" fill="rgba(255,255,255,0.94)" stroke="rgba(71,54,254,0.16)" stroke-width="1.177088"/>
      <rect x="165.99616000000003" y="411.48048000000006" width="70.62527999999999" height="10.84032" rx="4.5168" fill="rgba(71,54,254,0.14)"/>
      <rect x="165.99616000000003" y="433.1611200000001" width="153.02144" height="9.0336" rx="4.5168" fill="rgba(22,22,22,0.08)"/>
      <rect x="165.99616000000003" y="451.22832000000005" width="117.7088" height="7.22688" rx="4.5168" fill="rgba(22,22,22,0.05)"/>
    </g>
  
    <g>
      <rect x="142.45440000000002" y="515.668" width="294.272" height="90.336" rx="13.242239999999999" fill="rgba(255,255,255,0.94)" stroke="rgba(71,54,254,0.16)" stroke-width="1.177088"/>
      <rect x="165.99616000000003" y="531.92848" width="70.62527999999999" height="10.84032" rx="4.5168" fill="rgba(239,69,35,0.14)"/>
      <rect x="165.99616000000003" y="553.60912" width="153.02144" height="9.0336" rx="4.5168" fill="rgba(22,22,22,0.08)"/>
      <rect x="165.99616000000003" y="571.67632" width="117.7088" height="7.22688" rx="4.5168" fill="rgba(22,22,22,0.05)"/>
    </g>
  
    <g>
      <rect x="142.45440000000002" y="636.1160000000001" width="294.272" height="90.336" rx="13.242239999999999" fill="rgba(255,255,255,0.94)" stroke="rgba(71,54,254,0.16)" stroke-width="1.177088"/>
      <rect x="165.99616000000003" y="652.3764800000001" width="70.62527999999999" height="10.84032" rx="4.5168" fill="rgba(71,54,254,0.14)"/>
      <rect x="165.99616000000003" y="674.05712" width="153.02144" height="9.0336" rx="4.5168" fill="rgba(22,22,22,0.08)"/>
      <rect x="165.99616000000003" y="692.1243200000001" width="117.7088" height="7.22688" rx="4.5168" fill="rgba(22,22,22,0.05)"/>
    </g>
  
    
    <g>
      <rect x="1084.1248" y="207.01999999999998" width="323.69919999999996" height="105.39200000000002" rx="14.566463999999998" fill="rgba(255,255,255,0.94)" stroke="rgba(71,54,254,0.16)" stroke-width="1.2947967999999999"/>
      <rect x="1110.020736" y="225.99056" width="77.68780799999999" height="12.647040000000002" rx="5.269600000000001" fill="rgba(71,54,254,0.14)"/>
      <rect x="1110.020736" y="251.28464" width="168.32358399999998" height="10.539200000000003" rx="5.269600000000001" fill="rgba(22,22,22,0.08)"/>
      <rect x="1110.020736" y="272.36304" width="129.47968" height="8.431360000000002" rx="5.269600000000001" fill="rgba(22,22,22,0.05)"/>
    </g>
  
    <g>
      <rect x="1084.1248" y="417.80400000000003" width="323.69919999999996" height="105.39200000000002" rx="14.566463999999998" fill="rgba(255,255,255,0.94)" stroke="rgba(71,54,254,0.16)" stroke-width="1.2947967999999999"/>
      <rect x="1110.020736" y="436.77456" width="77.68780799999999" height="12.647040000000002" rx="5.269600000000001" fill="rgba(239,69,35,0.14)"/>
      <rect x="1110.020736" y="462.06864" width="168.32358399999998" height="10.539200000000003" rx="5.269600000000001" fill="rgba(22,22,22,0.08)"/>
      <rect x="1110.020736" y="483.14704000000006" width="129.47968" height="8.431360000000002" rx="5.269600000000001" fill="rgba(22,22,22,0.05)"/>
    </g>
  
    <g>
      <rect x="1084.1248" y="628.5880000000001" width="323.69919999999996" height="105.39200000000002" rx="14.566463999999998" fill="rgba(255,255,255,0.94)" stroke="rgba(71,54,254,0.16)" stroke-width="1.2947967999999999"/>
      <rect x="1110.020736" y="647.55856" width="77.68780799999999" height="12.647040000000002" rx="5.269600000000001" fill="rgba(71,54,254,0.14)"/>
      <rect x="1110.020736" y="672.8526400000001" width="168.32358399999998" height="10.539200000000003" rx="5.269600000000001" fill="rgba(22,22,22,0.08)"/>
      <rect x="1110.020736" y="693.93104" width="129.47968" height="8.431360000000002" rx="5.269600000000001" fill="rgba(22,22,22,0.05)"/>
    </g>
  
    <path d="M 436.7264 199.49200000000002 C 583.8624 199.49200000000002, 701.5712 259.716, 789.8528 259.716"
      stroke="rgba(71,54,254,0.52)"
      stroke-width="2.6752000000000002" fill="none" stroke-linecap="round"/>
<path d="M 436.7264 319.94 C 583.8624 319.94, 701.5712 470.50000000000006, 789.8528 470.50000000000006"
      stroke="rgba(239,69,35,0.46)"
      stroke-width="2.6752000000000002" fill="none" stroke-linecap="round"/>
<path d="M 436.7264 440.3880000000001 C 583.8624 440.3880000000001, 701.5712 681.2840000000001, 789.8528 681.2840000000001"
      stroke="rgba(71,54,254,0.52)"
      stroke-width="2.6752000000000002" fill="none" stroke-linecap="round"/>
<path d="M 436.7264 560.836 C 583.8624 560.836, 701.5712 259.716, 789.8528 259.716"
      stroke="rgba(239,69,35,0.46)"
      stroke-width="2.6752000000000002" fill="none" stroke-linecap="round"/>
<path d="M 436.7264 681.2840000000001 C 583.8624 681.2840000000001, 701.5712 470.50000000000006, 789.8528 470.50000000000006"
      stroke="rgba(71,54,254,0.52)"
      stroke-width="2.6752000000000002" fill="none" stroke-linecap="round"/>
<path d="M 848.7072 259.716 C 936.9887999999999 259.716, 981.1296 259.716, 1084.1248 259.716"
      stroke="rgba(71,54,254,0.52)"
      stroke-width="2.8424" fill="none" stroke-linecap="round"/>
<path d="M 848.7072 470.50000000000006 C 936.9887999999999 470.50000000000006, 981.1296 470.50000000000006, 1084.1248 470.50000000000006"
      stroke="rgba(239,69,35,0.48)"
      stroke-width="2.8424" fill="none" stroke-linecap="round"/>
<path d="M 848.7072 681.2840000000001 C 936.9887999999999 681.2840000000001, 981.1296 681.2840000000001, 1084.1248 681.2840000000001"
      stroke="rgba(71,54,254,0.52)"
      stroke-width="2.8424" fill="none" stroke-linecap="round"/>
<path d="M 430.84096 442.1947200000001 C 613.2896 442.1947200000001, 686.8575999999999 681.2840000000001, 789.8528 681.2840000000001"
      stroke="rgba(71,54,254,0.46)" stroke-width="2.6752000000000002" fill="none" stroke-linecap="round"/>
    
      <g filter="url(#fineGlow)">
        <circle cx="819.28" cy="259.716" r="18.392" fill="rgba(255,255,255,0.96)" stroke="rgba(71,54,254,0.24)" stroke-width="2.0063999999999997"/>
        <circle cx="819.28" cy="259.716" r="6.0192" fill="rgba(71,54,254,0.96)"/>
      </g>
    
      <g filter="url(#fineGlow)">
        <circle cx="819.28" cy="470.50000000000006" r="18.392" fill="rgba(255,255,255,0.96)" stroke="rgba(71,54,254,0.24)" stroke-width="2.0063999999999997"/>
        <circle cx="819.28" cy="470.50000000000006" r="6.0192" fill="rgba(239,69,35,0.96)"/>
      </g>
    
      <g filter="url(#fineGlow)">
        <circle cx="819.28" cy="681.2840000000001" r="18.392" fill="rgba(255,255,255,0.96)" stroke="rgba(71,54,254,0.24)" stroke-width="2.0063999999999997"/>
        <circle cx="819.28" cy="681.2840000000001" r="6.0192" fill="rgba(71,54,254,0.96)"/>
      </g>
    
    <g filter="url(#fineGlow)"><circle cx="1442.38" cy="257.84" r="2.90" fill="rgba(71,54,254,0.08)"/><circle cx="351.71" cy="695.63" r="0.60" fill="rgba(71,54,254,0.16)"/><circle cx="537.11" cy="598.84" r="1.14" fill="rgba(239,69,35,0.16)"/><circle cx="1001.10" cy="130.26" r="2.00" fill="rgba(71,54,254,0.08)"/><circle cx="751.34" cy="636.72" r="2.47" fill="rgba(71,54,254,0.16)"/><circle cx="908.61" cy="804.84" r="0.60" fill="rgba(71,54,254,0.16)"/><circle cx="957.70" cy="426.71" r="1.16" fill="rgba(71,54,254,0.16)"/><circle cx="979.30" cy="501.29" r="2.59" fill="rgba(71,54,254,0.08)"/><circle cx="966.81" cy="458.29" r="1.79" fill="rgba(239,69,35,0.16)"/><circle cx="1510.17" cy="593.70" r="1.06" fill="rgba(71,54,254,0.16)"/><circle cx="627.58" cy="500.90" r="2.64" fill="rgba(71,54,254,0.08)"/><circle cx="979.21" cy="607.75" r="2.77" fill="rgba(71,54,254,0.16)"/><circle cx="558.08" cy="564.72" r="1.89" fill="rgba(71,54,254,0.16)"/><circle cx="409.82" cy="668.02" r="0.60" fill="rgba(71,54,254,0.16)"/><circle cx="1533.63" cy="212.50" r="1.34" fill="rgba(239,69,35,0.16)"/><circle cx="579.16" cy="147.42" r="0.60" fill="rgba(239,69,35,0.16)"/><circle cx="1061.16" cy="641.84" r="0.99" fill="rgba(71,54,254,0.16)"/><circle cx="502.44" cy="233.65" r="0.67" fill="rgba(71,54,254,0.16)"/><circle cx="102.03" cy="204.07" r="0.73" fill="rgba(239,69,35,0.16)"/><circle cx="697.66" cy="538.45" r="2.85" fill="rgba(239,69,35,0.16)"/><circle cx="163.01" cy="360.82" r="3.54" fill="rgba(71,54,254,0.08)"/><circle cx="652.81" cy="140.40" r="2.41" fill="rgba(71,54,254,0.08)"/><circle cx="1510.12" cy="175.64" r="3.59" fill="rgba(71,54,254,0.16)"/><circle cx="462.61" cy="691.03" r="2.84" fill="rgba(71,54,254,0.16)"/><circle cx="874.52" cy="203.38" r="3.56" fill="rgba(71,54,254,0.16)"/><circle cx="948.74" cy="382.76" r="3.16" fill="rgba(239,69,35,0.16)"/><circle cx="350.47" cy="195.05" r="3.33" fill="rgba(71,54,254,0.08)"/><circle cx="910.86" cy="164.61" r="2.79" fill="rgba(71,54,254,0.08)"/><circle cx="532.41" cy="382.36" r="1.41" fill="rgba(239,69,35,0.16)"/><circle cx="1311.27" cy="584.12" r="3.40" fill="rgba(71,54,254,0.16)"/><circle cx="1320.82" cy="242.71" r="0.60" fill="rgba(71,54,254,0.08)"/><circle cx="1177.01" cy="833.30" r="1.69" fill="rgba(239,69,35,0.16)"/><circle cx="782.39" cy="779.64" r="2.52" fill="rgba(239,69,35,0.16)"/><circle cx="299.76" cy="570.38" r="2.61" fill="rgba(71,54,254,0.08)"/><circle cx="1509.21" cy="186.54" r="0.60" fill="rgba(71,54,254,0.08)"/><circle cx="884.80" cy="375.56" r="2.58" fill="rgba(239,69,35,0.16)"/><circle cx="805.07" cy="269.19" r="2.29" fill="rgba(71,54,254,0.08)"/><circle cx="717.49" cy="470.82" r="1.65" fill="rgba(239,69,35,0.16)"/><circle cx="228.73" cy="199.12" r="3.22" fill="rgba(71,54,254,0.08)"/><circle cx="1327.06" cy="775.99" r="2.25" fill="rgba(71,54,254,0.16)"/><circle cx="936.51" cy="698.87" r="3.31" fill="rgba(239,69,35,0.16)"/><circle cx="154.96" cy="229.31" r="0.97" fill="rgba(71,54,254,0.16)"/></g>
  </g>
  
</svg>