<?xml version="1.0" encoding="UTF-8"?>
<svg xmlns="http://www.w3.org/2000/svg" width="1003" height="1568" viewBox="0 0 1003 1568" fill="none">
  <defs>
    <linearGradient id="bgGradient" x1="0" y1="0" x2="1003" y2="1568">
      <stop offset="0%" stop-color="#F3F1FF"/>
      <stop offset="42%" stop-color="#ECE8FF"/>
      <stop offset="100%" stop-color="#E6E1FF"/>
    </linearGradient>
    <radialGradient id="violetGlow" cx="0" cy="0" r="1" gradientUnits="userSpaceOnUse" gradientTransform="translate(80.24 125.44) rotate(40) scale(451.35 815.36)">
      <stop offset="0%" stop-color="#4736FE" stop-opacity="0.9"/>
      <stop offset="100%" stop-color="#4736FE" stop-opacity="0"/>
    </radialGradient>
    <radialGradient id="emberGlow" cx="0" cy="0" r="1" gradientUnits="userSpaceOnUse" gradientTransform="translate(842.52 972.16) rotate(210) scale(280.84000000000003 595.84)">
      <stop offset="0%" stop-color="#EF4523" stop-opacity="0.65"/>
      <stop offset="100%" stop-color="#EF4523" stop-opacity="0"/>
    </radialGradient>
    <filter id="softGlow" x="-40%" y="-40%" width="180%" height="180%">
      <feGaussianBlur stdDeviation="10" result="blur"/>
      <feMerge>
        <feMergeNode in="blur"/>
        <feMergeNode in="SourceGraphic"/>
      </feMerge>
    </filter>
    <filter id="fineGlow" x="-30%" y="-30%" width="160%" height="160%">
      <feGaussianBlur stdDeviation="3" result="blur"/>
      <feMerge>
        <feMergeNode in="blur"/>
        <feMergeNode in="SourceGraphic"/>
      </feMerge>
    </filter>
  </defs>
  
  <rect width="1003" height="1568" fill="url(#bgGradient)"/>
  <rect width="1003" height="1568" fill="url(#violetGlow)" opacity="0.04"/>
  <ellipse cx="782.34" cy="439.04" rx="220.66" ry="344.96" fill="rgba(71,54,254,0.05)"/>
  <ellipse cx="180.54" cy="1285.76" rx="180.54" ry="282.24" fill="rgba(239,69,35,0.035)"/>
  <g><line x1="50.150000000000006" y1="156.8" x2="50.150000000000006" y2="1411.2" stroke="rgba(71,54,254,0.05)" stroke-width="1"/>
<line x1="140.42000000000002" y1="156.8" x2="140.42000000000002" y2="1411.2" stroke="rgba(71,54,254,0.05)" stroke-width="1"/>
<line x1="230.69000000000003" y1="156.8" x2="230.69000000000003" y2="1411.2" stroke="rgba(71,54,254,0.05)" stroke-width="1"/>
<line x1="320.96000000000004" y1="156.8" x2="320.96000000000004" y2="1411.2" stroke="rgba(71,54,254,0.05)" stroke-width="1"/>
<line x1="411.23" y1="156.8" x2="411.23" y2="1411.2" stroke="rgba(71,54,254,0.05)" stroke-width="1"/>
<line x1="501.5" y1="156.8" x2="501.5" y2="1411.2" stroke="rgba(71,54,254,0.05)" stroke-width="1"/>
<line x1="591.7700000000001" y1="156.8" x2="591.7700000000001" y2="1411.2" stroke="rgba(71,54,254,0.05)" stroke-width="1"/>
<line x1="682.0400000000001" y1="156.8" x2="682.0400000000001" y2="1411.2" stroke="rgba(71,54,254,0.05)" stroke-width="1"/>
<line x1="772.3100000000001" y1="156.8" x2="772.3100000000001" y2="1411.2" stroke="rgba(71,54,254,0.05)" stroke-width="1"/>
<line x1="862.58" y1="156.8" x2="862.58" y2="1411.2" stroke="rgba(71,54,254,0.05)" stroke-width="1"/>
<line x1="952.85" y1="156.8" x2="952.85" y2="1411.2" stroke="rgba(71,54,254,0.05)" stroke-width="1"/>
<line x1="50.150000000000006" y1="156.8" x2="952.8499999999999" y2="156.8" stroke="rgba(71,54,254,0.05)" stroke-width="1"/>
<line x1="50.150000000000006" y1="336" x2="952.8499999999999" y2="336" stroke="rgba(71,54,254,0.05)" stroke-width="1"/>
<line x1="50.150000000000006" y1="515.2" x2="952.8499999999999" y2="515.2" stroke="rgba(71,54,254,0.05)" stroke-width="1"/>
<line x1="50.150000000000006" y1="694.4000000000001" x2="952.8499999999999" y2="694.4000000000001" stroke="rgba(71,54,254,0.05)" stroke-width="1"/>
<line x1="50.150000000000006" y1="873.6000000000001" x2="952.8499999999999" y2="873.6000000000001" stroke="rgba(71,54,254,0.05)" stroke-width="1"/>
<line x1="50.150000000000006" y1="1052.8" x2="952.8499999999999" y2="1052.8" stroke="rgba(71,54,254,0.05)" stroke-width="1"/>
<line x1="50.150000000000006" y1="1232" x2="952.8499999999999" y2="1232" stroke="rgba(71,54,254,0.05)" stroke-width="1"/>
<line x1="50.150000000000006" y1="1411.2" x2="952.8499999999999" y2="1411.2" stroke="rgba(71,54,254,0.05)" stroke-width="1"/></g>
  <rect x="72.216" y="133.28" width="110.33" height="14.111999999999998" rx="3.136" fill="rgba(71,54,254,0.9)"/>
  <rect x="842.52" y="1387.68" width="80.24" height="14.111999999999998" rx="3.136" fill="rgba(239,69,35,0.82)"/>
  
  
  <g>
    
    <rect x="80.24" y="627.2" width="842.52" height="658.56" rx="20" fill="rgba(255,255,255,0.28)" stroke="rgba(71,54,254,0.09)" stroke-width="1.2"/>
    <ellipse cx="804.8072" cy="732.5696" rx="185.3544" ry="164.64" fill="rgba(71,54,254,0.05)"/>
    <ellipse cx="147.64159999999998" cy="1219.904" rx="168.50400000000002" ry="144.8832" fill="rgba(239,69,35,0.04)"/>
    <line x1="80.24" y1="627.2" x2="80.24" y2="1285.76" stroke="rgba(71,54,254,0.06)" stroke-width="1"/>
<line x1="220.65999999999997" y1="627.2" x2="220.65999999999997" y2="1285.76" stroke="rgba(71,54,254,0.06)" stroke-width="1"/>
<line x1="361.08" y1="627.2" x2="361.08" y2="1285.76" stroke="rgba(71,54,254,0.06)" stroke-width="1"/>
<line x1="501.5" y1="627.2" x2="501.5" y2="1285.76" stroke="rgba(71,54,254,0.06)" stroke-width="1"/>
<line x1="641.92" y1="627.2" x2="641.92" y2="1285.76" stroke="rgba(71,54,254,0.06)" stroke-width="1"/>
<line x1="782.34" y1="627.2" x2="782.34" y2="1285.76" stroke="rgba(71,54,254,0.06)" stroke-width="1"/>
<line x1="922.76" y1="627.2" x2="922.76" y2="1285.76" stroke="rgba(71,54,254,0.06)" stroke-width="1"/>
<line x1="80.24" y1="627.2" x2="922.76" y2="627.2" stroke="rgba(71,54,254,0.07)" stroke-width="1"/>
<line x1="80.24" y1="758.912" x2="922.76" y2="758.912" stroke="rgba(71,54,254,0.07)" stroke-width="1"/>
<line x1="80.24" y1="890.624" x2="922.76" y2="890.624" stroke="rgba(71,54,254,0.07)" stroke-width="1"/>
<line x1="80.24" y1="1022.336" x2="922.76" y2="1022.336" stroke="rgba(71,54,254,0.07)" stroke-width="1"/>
<line x1="80.24" y1="1154.048" x2="922.76" y2="1154.048" stroke="rgba(71,54,254,0.07)" stroke-width="1"/>
<line x1="80.24" y1="1285.76" x2="922.76" y2="1285.76" stroke="rgba(71,54,254,0.07)" stroke-width="1"/>
    <line x1="501.5" y1="693.056" x2="501.5" y2="1180.3904" stroke="rgba(71,54,254,0.24)" stroke-width="2.6"/>
  
    
    <g>
      <rect x="113.9408" y="679.8848" width="202.20479999999998" height="92.1984" rx="12" fill="rgba(255,255,255,0.94)" stroke="rgba(71,54,254,0.16)" stroke-width="1"/>
      <rect x="130.117184" y="696.4805120000001" width="48.529151999999996" height="11.063808" rx="4.609920000000001" fill="rgba(71,54,254,0.14)"/>
      <rect x="130.117184" y="718.6081280000001" width="105.14649599999998" height="9.219840000000001" rx="4.609920000000001" fill="rgba(22,22,22,0.08)"/>
      <rect x="130.117184" y="737.047808" width="80.88192" height="7.375872000000001" rx="4.609920000000001" fill="rgba(22,22,22,0.05)"/>
    </g>
  
    <g>
      <rect x="113.9408" y="811.5968" width="202.20479999999998" height="92.1984" rx="12" fill="rgba(255,255,255,0.94)" stroke="rgba(71,54,254,0.16)" stroke-width="1"/>
      <rect x="130.117184" y="828.1925120000001" width="48.529151999999996" height="11.063808" rx="4.609920000000001" fill="rgba(239,69,35,0.14)"/>
      <rect x="130.117184" y="850.3201280000001" width="105.14649599999998" height="9.219840000000001" rx="4.609920000000001" fill="rgba(22,22,22,0.08)"/>
      <rect x="130.117184" y="868.759808" width="80.88192" height="7.375872000000001" rx="4.609920000000001" fill="rgba(22,22,22,0.05)"/>
    </g>
  
    <g>
      <rect x="113.9408" y="943.3088" width="202.20479999999998" height="92.1984" rx="12" fill="rgba(255,255,255,0.94)" stroke="rgba(71,54,254,0.16)" stroke-width="1"/>
      <rect x="130.117184" y="959.9045120000001" width="48.529151999999996" height="11.063808" rx="4.609920000000001" fill="rgba(71,54,254,0.14)"/>
      <rect x="130.117184" y="982.0321280000001" width="105.14649599999998" height="9.219840000000001" rx="4.609920000000001" fill="rgba(22,22,22,0.08)"/>
      <rect x="130.117184" y="1000.471808" width="80.88192" height="7.375872000000001" rx="4.609920000000001" fill="rgba(22,22,22,0.05)"/>
    </g>
  
    <g>
      <rect x="113.9408" y="1075.0208" width="202.20479999999998" height="92.1984" rx="12" fill="rgba(255,255,255,0.94)" stroke="rgba(71,54,254,0.16)" stroke-width="1"/>
      <rect x="130.117184" y="1091.616512" width="48.529151999999996" height="11.063808" rx="4.609920000000001" fill="rgba(239,69,35,0.14)"/>
      <rect x="130.117184" y="1113.744128" width="105.14649599999998" height="9.219840000000001" rx="4.609920000000001" fill="rgba(22,22,22,0.08)"/>
      <rect x="130.117184" y="1132.183808" width="80.88192" height="7.375872000000001" rx="4.609920000000001" fill="rgba(22,22,22,0.05)"/>
    </g>
  
    
    <g>
      <rect x="653.1536" y="719.3984" width="202.20479999999998" height="105.36959999999999" rx="12" fill="rgba(255,255,255,0.94)" stroke="rgba(71,54,254,0.16)" stroke-width="1"/>
      <rect x="669.329984" y="738.3649280000001" width="48.529151999999996" height="12.644351999999998" rx="5.26848" fill="rgba(71,54,254,0.14)"/>
      <rect x="669.329984" y="763.653632" width="105.14649599999998" height="10.53696" rx="5.26848" fill="rgba(22,22,22,0.08)"/>
      <rect x="669.329984" y="784.7275520000001" width="80.88192" height="8.429568" rx="5.26848" fill="rgba(22,22,22,0.05)"/>
    </g>
  
    <g>
      <rect x="653.1536" y="903.7952" width="202.20479999999998" height="105.36959999999999" rx="12" fill="rgba(255,255,255,0.94)" stroke="rgba(71,54,254,0.16)" stroke-width="1"/>
      <rect x="669.329984" y="922.7617280000001" width="48.529151999999996" height="12.644351999999998" rx="5.26848" fill="rgba(239,69,35,0.14)"/>
      <rect x="669.329984" y="948.050432" width="105.14649599999998" height="10.53696" rx="5.26848" fill="rgba(22,22,22,0.08)"/>
      <rect x="669.329984" y="969.124352" width="80.88192" height="8.429568" rx="5.26848" fill="rgba(22,22,22,0.05)"/>
    </g>
  
    <g>
      <rect x="653.1536" y="1088.192" width="202.20479999999998" height="105.36959999999999" rx="12" fill="rgba(255,255,255,0.94)" stroke="rgba(71,54,254,0.16)" stroke-width="1"/>
      <rect x="669.329984" y="1107.158528" width="48.529151999999996" height="12.644351999999998" rx="5.26848" fill="rgba(71,54,254,0.14)"/>
      <rect x="669.329984" y="1132.447232" width="105.14649599999998" height="10.53696" rx="5.26848" fill="rgba(22,22,22,0.08)"/>
      <rect x="669.329984" y="1153.521152" width="80.88192" height="8.429568" rx="5.26848" fill="rgba(22,22,22,0.05)"/>
    </g>
  
    <path d="M 316.14559999999994 725.984 C 366.6968 725.984, 434.09839999999997 772.0832, 484.6496 772.0832"
      stroke="rgba(71,54,254,0.52)"
      stroke-width="2.4" fill="none" stroke-linecap="round"/>
<path d="M 316.14559999999994 857.696 C 366.6968 857.696, 434.09839999999997 956.48, 484.6496 956.48"
      stroke="rgba(239,69,35,0.46)"
      stroke-width="2.4" fill="none" stroke-linecap="round"/>
<path d="M 316.14559999999994 989.408 C 366.6968 989.408, 434.09839999999997 1140.8768, 484.6496 1140.8768"
      stroke="rgba(71,54,254,0.52)"
      stroke-width="2.4" fill="none" stroke-linecap="round"/>
<path d="M 316.14559999999994 1121.1200000000001 C 366.6968 1121.1200000000001, 434.09839999999997 772.0832, 484.6496 772.0832"
      stroke="rgba(239,69,35,0.46)"
      stroke-width="2.4" fill="none" stroke-linecap="round"/>
<path d="M 518.3504 772.0832 C 568.9015999999999 772.0832, 594.1772 772.0832, 653.1536 772.0832"
      stroke="rgba(71,54,254,0.52)"
      stroke-width="2.6" fill="none" stroke-linecap="round"/>
<path d="M 518.3504 956.48 C 568.9015999999999 956.48, 594.1772 956.48, 653.1536 956.48"
      stroke="rgba(239,69,35,0.48)"
      stroke-width="2.6" fill="none" stroke-linecap="round"/>
<path d="M 518.3504 1140.8768 C 568.9015999999999 1140.8768, 594.1772 1140.8768, 653.1536 1140.8768"
      stroke="rgba(71,54,254,0.52)"
      stroke-width="2.6" fill="none" stroke-linecap="round"/>
    
      <g filter="url(#fineGlow)">
        <circle cx="501.5" cy="772.0832" r="18" fill="rgba(255,255,255,0.96)" stroke="rgba(71,54,254,0.24)" stroke-width="1.5"/>
        <circle cx="501.5" cy="772.0832" r="6" fill="rgba(71,54,254,0.96)"/>
      </g>
    
      <g filter="url(#fineGlow)">
        <circle cx="501.5" cy="956.48" r="18" fill="rgba(255,255,255,0.96)" stroke="rgba(71,54,254,0.24)" stroke-width="1.5"/>
        <circle cx="501.5" cy="956.48" r="6" fill="rgba(239,69,35,0.96)"/>
      </g>
    
      <g filter="url(#fineGlow)">
        <circle cx="501.5" cy="1140.8768" r="18" fill="rgba(255,255,255,0.96)" stroke="rgba(71,54,254,0.24)" stroke-width="1.5"/>
        <circle cx="501.5" cy="1140.8768" r="6" fill="rgba(71,54,254,0.96)"/>
      </g>
    
    <g filter="url(#fineGlow)"><circle cx="595.29" cy="1034.33" r="0.95" fill="rgba(71,54,254,0.08)"/><circle cx="779.90" cy="929.63" r="1.21" fill="rgba(71,54,254,0.16)"/><circle cx="736.49" cy="694.69" r="0.60" fill="rgba(71,54,254,0.08)"/><circle cx="515.72" cy="1150.73" r="0.96" fill="rgba(71,54,254,0.08)"/><circle cx="111.94" cy="1074.82" r="1.02" fill="rgba(71,54,254,0.08)"/><circle cx="111.48" cy="925.55" r="0.95" fill="rgba(71,54,254,0.08)"/><circle cx="690.20" cy="741.18" r="0.60" fill="rgba(71,54,254,0.16)"/><circle cx="835.07" cy="750.90" r="1.06" fill="rgba(71,54,254,0.16)"/><circle cx="788.40" cy="1074.09" r="1.91" fill="rgba(71,54,254,0.08)"/><circle cx="506.15" cy="679.94" r="2.16" fill="rgba(239,69,35,0.16)"/><circle cx="96.04" cy="1188.54" r="0.79" fill="rgba(239,69,35,0.16)"/><circle cx="663.19" cy="650.71" r="1.32" fill="rgba(71,54,254,0.08)"/><circle cx="811.86" cy="885.43" r="0.61" fill="rgba(71,54,254,0.16)"/><circle cx="562.75" cy="1021.36" r="1.08" fill="rgba(239,69,35,0.16)"/><circle cx="371.74" cy="1131.93" r="1.62" fill="rgba(71,54,254,0.16)"/><circle cx="694.36" cy="922.23" r="1.28" fill="rgba(239,69,35,0.16)"/><circle cx="522.67" cy="1020.23" r="1.96" fill="rgba(239,69,35,0.16)"/><circle cx="107.98" cy="1116.47" r="1.42" fill="rgba(71,54,254,0.16)"/><circle cx="447.01" cy="1260.48" r="0.60" fill="rgba(71,54,254,0.16)"/><circle cx="632.09" cy="1252.11" r="0.69" fill="rgba(71,54,254,0.16)"/><circle cx="323.97" cy="927.18" r="1.93" fill="rgba(71,54,254,0.08)"/><circle cx="382.15" cy="1155.01" r="0.66" fill="rgba(239,69,35,0.16)"/><circle cx="247.14" cy="920.72" r="2.13" fill="rgba(71,54,254,0.16)"/><circle cx="268.28" cy="1075.24" r="1.22" fill="rgba(71,54,254,0.08)"/><circle cx="104.81" cy="928.55" r="1.48" fill="rgba(71,54,254,0.16)"/><circle cx="377.62" cy="659.78" r="2.09" fill="rgba(71,54,254,0.16)"/><circle cx="758.76" cy="700.96" r="1.46" fill="rgba(71,54,254,0.16)"/><circle cx="875.88" cy="1247.67" r="1.49" fill="rgba(71,54,254,0.16)"/><circle cx="582.26" cy="1025.65" r="2.05" fill="rgba(239,69,35,0.16)"/><circle cx="874.85" cy="1084.25" r="1.81" fill="rgba(71,54,254,0.16)"/><circle cx="694.68" cy="771.72" r="1.78" fill="rgba(71,54,254,0.08)"/><circle cx="179.56" cy="943.27" r="0.60" fill="rgba(71,54,254,0.16)"/><circle cx="101.15" cy="780.59" r="0.62" fill="rgba(239,69,35,0.16)"/><circle cx="333.33" cy="1268.77" r="2.04" fill="rgba(71,54,254,0.08)"/></g>
  </g>
  
  <g>
    <text x="80.24" y="156.8" fill="rgba(71,54,254,0.72)" font-size="20.58156" font-family="Geist, 'Helvetica Neue', Arial, sans-serif" font-weight="700" letter-spacing="0.12em">ORG DESIGN / AI</text>
    <text x="80.24" y="250.88" fill="#4736FE" font-size="100.30000000000001" font-family="Geist, 'Helvetica Neue', Arial, sans-serif" font-weight="500" letter-spacing="-0.06em">AI-Native</text>
<text x="80.24" y="388.864" fill="#4736FE" font-size="100.30000000000001" font-family="Geist, 'Helvetica Neue', Arial, sans-serif" font-weight="300" letter-spacing="-0.06em">is not</text>
<text x="80.24" y="526.848" fill="#6F5BFF" font-size="100.30000000000001" font-family="Geist, 'Helvetica Neue', Arial, sans-serif" font-weight="700" letter-spacing="-0.05em">AI-First.</text>
    <text x="80.24" y="706.2271999999999" fill="#4736FE" opacity="0.96" font-size="38.114" font-family="Geist, 'Helvetica Neue', Arial, sans-serif" font-weight="700" letter-spacing="-0.02em">The org design is the AI strategy.</text>
    <text x="80.24" y="815.9871999999999" fill="#161616" opacity="0.76" font-size="25.075000000000003" font-family="Geist, 'Helvetica Neue', Arial, sans-serif" font-weight="500">
      <tspan x="80.24" dy="0">What changes when the cost of carrying context collapses.</tspan>
    </text>
  </g>
</svg>