<?xml version="1.0" encoding="UTF-8"?>
<svg xmlns="http://www.w3.org/2000/svg" width="1200" height="630" viewBox="0 0 1200 630" fill="none">
  <defs>
    <linearGradient id="bgGradient" x1="0" y1="0" x2="1200" y2="630">
      <stop offset="0%" stop-color="#080D1E"/>
      <stop offset="42%" stop-color="#131D45"/>
      <stop offset="100%" stop-color="#090C18"/>
    </linearGradient>
    <radialGradient id="violetGlow" cx="0" cy="0" r="1" gradientUnits="userSpaceOnUse" gradientTransform="translate(96 50.4) rotate(40) scale(540 327.6)">
      <stop offset="0%" stop-color="#5D49FF" stop-opacity="0.9"/>
      <stop offset="100%" stop-color="#5D49FF" stop-opacity="0"/>
    </radialGradient>
    <radialGradient id="emberGlow" cx="0" cy="0" r="1" gradientUnits="userSpaceOnUse" gradientTransform="translate(1008 390.6) rotate(210) scale(336.00000000000006 239.4)">
      <stop offset="0%" stop-color="#F08A45" stop-opacity="0.65"/>
      <stop offset="100%" stop-color="#F08A45" stop-opacity="0"/>
    </radialGradient>
    <filter id="softGlow" x="-40%" y="-40%" width="180%" height="180%">
      <feGaussianBlur stdDeviation="10" result="blur"/>
      <feMerge>
        <feMergeNode in="blur"/>
        <feMergeNode in="SourceGraphic"/>
      </feMerge>
    </filter>
    <filter id="fineGlow" x="-30%" y="-30%" width="160%" height="160%">
      <feGaussianBlur stdDeviation="3" result="blur"/>
      <feMerge>
        <feMergeNode in="blur"/>
        <feMergeNode in="SourceGraphic"/>
      </feMerge>
    </filter>
  </defs>
  
  <rect width="1200" height="630" fill="url(#bgGradient)"/>
  <rect width="1200" height="630" fill="url(#violetGlow)" opacity="0.78"/>
  <rect width="1200" height="630" fill="url(#emberGlow)" opacity="0.34"/>
  
  
  <g>
    <line x1="734.4" y1="100.8" x2="734.4" y2="541.8" stroke="rgba(112,150,255,0.08)" stroke-width="1.08"/>
<line x1="789.6" y1="100.8" x2="789.6" y2="541.8" stroke="rgba(112,150,255,0.08)" stroke-width="1.08"/>
<line x1="844.8" y1="100.8" x2="844.8" y2="541.8" stroke="rgba(112,150,255,0.08)" stroke-width="1.08"/>
<line x1="900" y1="100.8" x2="900" y2="541.8" stroke="rgba(112,150,255,0.08)" stroke-width="1.08"/>
<line x1="955.1999999999999" y1="100.8" x2="955.1999999999999" y2="541.8" stroke="rgba(112,150,255,0.08)" stroke-width="1.08"/>
<line x1="1010.4" y1="100.8" x2="1010.4" y2="541.8" stroke="rgba(112,150,255,0.08)" stroke-width="1.08"/>
    <rect x="756" y="126" width="204.00000000000003" height="151.2" rx="14.4" fill="rgba(110,132,255,0.08)" stroke="rgba(185,205,255,0.2)" stroke-width="1.32"/>
<rect x="804" y="195.3" width="204.00000000000003" height="151.2" rx="14.4" fill="rgba(110,132,255,0.115)" stroke="rgba(185,205,255,0.23)" stroke-width="1.32"/>
<rect x="852" y="264.6" width="204.00000000000003" height="151.2" rx="14.4" fill="rgba(110,132,255,0.15000000000000002)" stroke="rgba(185,205,255,0.26)" stroke-width="1.32"/>
<rect x="900" y="333.9" width="204.00000000000003" height="151.2" rx="14.4" fill="rgba(110,132,255,0.185)" stroke="rgba(185,205,255,0.29000000000000004)" stroke-width="1.32"/>
<rect x="948" y="403.2" width="204.00000000000003" height="151.2" rx="14.4" fill="rgba(110,132,255,0.22000000000000003)" stroke="rgba(185,205,255,0.32)" stroke-width="1.32"/>
    <path d="M 714 194.04
             C 772.32 174.38400000000001, 866.1600000000001 163.8, 955.9200000000001 153.216
             C 1008.96 147.168, 1051.8 156.24, 1078.3200000000002 162.288"
          stroke="rgba(255,242,232,0.72)" stroke-width="3" stroke-linecap="round" fill="none" filter="url(#softGlow)"/>
    <path d="M 600 176.4 C 600 176.4, 786.6 176.4, 1176 173.88" stroke="rgba(255,161,97,0.42)" stroke-width="1.44" stroke-linecap="round" fill="none" filter="url(#fineGlow)"/>
<path d="M 600 207.9 C 600 207.9, 786.6 201.6, 1176 201.6" stroke="rgba(192,213,255,0.5)" stroke-width="1.44" stroke-linecap="round" fill="none" filter="url(#fineGlow)"/>
<path d="M 600 239.4 C 600 239.4, 786.6 226.80000000000004, 1176 229.32000000000005" stroke="rgba(192,213,255,0.5)" stroke-width="1.44" stroke-linecap="round" fill="none" filter="url(#fineGlow)"/>
<path d="M 600 270.90000000000003 C 600 270.90000000000003, 786.6 252, 1176 249.48" stroke="rgba(192,213,255,0.5)" stroke-width="1.44" stroke-linecap="round" fill="none" filter="url(#fineGlow)"/>
<path d="M 600 302.40000000000003 C 600 302.40000000000003, 786.6 277.20000000000005, 1176 277.20000000000005" stroke="rgba(255,161,97,0.42)" stroke-width="1.44" stroke-linecap="round" fill="none" filter="url(#fineGlow)"/>
<path d="M 600 333.90000000000003 C 600 333.90000000000003, 786.6 302.40000000000003, 1176 304.92" stroke="rgba(192,213,255,0.5)" stroke-width="1.44" stroke-linecap="round" fill="none" filter="url(#fineGlow)"/>
<path d="M 600 365.40000000000003 C 600 365.40000000000003, 786.6 327.6, 1176 325.08000000000004" stroke="rgba(192,213,255,0.5)" stroke-width="1.44" stroke-linecap="round" fill="none" filter="url(#fineGlow)"/>
<path d="M 600 396.9000000000001 C 600 396.9000000000001, 786.6 352.8, 1176 352.8" stroke="rgba(192,213,255,0.5)" stroke-width="1.44" stroke-linecap="round" fill="none" filter="url(#fineGlow)"/>
<path d="M 600 428.40000000000003 C 600 428.40000000000003, 786.6 378.00000000000006, 1176 380.52000000000004" stroke="rgba(255,161,97,0.42)" stroke-width="1.44" stroke-linecap="round" fill="none" filter="url(#fineGlow)"/>
<path d="M 600 459.9 C 600 459.9, 786.6 403.2, 1176 400.68" stroke="rgba(192,213,255,0.5)" stroke-width="1.44" stroke-linecap="round" fill="none" filter="url(#fineGlow)"/>
    <g filter="url(#fineGlow)"><circle cx="736.04" cy="338.52" r="0.60" fill="rgba(112,150,255,0.54)"/><circle cx="1085.21" cy="393.59" r="0.67" fill="rgba(255,161,97,0.58)"/><circle cx="873.33" cy="420.48" r="1.04" fill="rgba(255,161,97,0.58)"/><circle cx="902.11" cy="236.21" r="1.13" fill="rgba(112,150,255,0.54)"/><circle cx="1002.21" cy="205.18" r="2.19" fill="rgba(197,214,255,0.8)"/><circle cx="854.73" cy="408.06" r="1.73" fill="rgba(112,150,255,0.54)"/><circle cx="941.68" cy="190.51" r="0.60" fill="rgba(197,214,255,0.8)"/><circle cx="1006.86" cy="333.47" r="2.51" fill="rgba(197,214,255,0.8)"/><circle cx="954.75" cy="362.70" r="1.12" fill="rgba(255,161,97,0.58)"/><circle cx="976.66" cy="123.66" r="2.23" fill="rgba(255,161,97,0.58)"/><circle cx="1063.69" cy="248.78" r="0.77" fill="rgba(197,214,255,0.8)"/><circle cx="732.77" cy="376.52" r="1.27" fill="rgba(112,150,255,0.54)"/><circle cx="836.46" cy="105.99" r="0.89" fill="rgba(112,150,255,0.54)"/><circle cx="974.85" cy="154.02" r="0.60" fill="rgba(197,214,255,0.8)"/><circle cx="1092.52" cy="300.81" r="1.03" fill="rgba(197,214,255,0.8)"/><circle cx="723.66" cy="266.86" r="1.70" fill="rgba(255,161,97,0.58)"/><circle cx="870.14" cy="449.87" r="2.53" fill="rgba(112,150,255,0.54)"/><circle cx="770.37" cy="477.11" r="2.30" fill="rgba(112,150,255,0.54)"/><circle cx="755.68" cy="156.61" r="1.47" fill="rgba(112,150,255,0.54)"/><circle cx="896.77" cy="316.90" r="2.63" fill="rgba(112,150,255,0.54)"/><circle cx="779.27" cy="397.06" r="1.01" fill="rgba(255,161,97,0.58)"/><circle cx="1048.81" cy="321.56" r="0.60" fill="rgba(255,161,97,0.58)"/><circle cx="962.38" cy="118.73" r="1.52" fill="rgba(112,150,255,0.54)"/><circle cx="839.88" cy="133.92" r="1.59" fill="rgba(112,150,255,0.54)"/><circle cx="925.00" cy="461.35" r="2.55" fill="rgba(197,214,255,0.8)"/><circle cx="1012.53" cy="374.26" r="0.72" fill="rgba(255,161,97,0.58)"/><circle cx="1059.33" cy="120.08" r="1.62" fill="rgba(112,150,255,0.54)"/><circle cx="801.90" cy="201.41" r="1.03" fill="rgba(112,150,255,0.54)"/><circle cx="1034.28" cy="433.33" r="0.60" fill="rgba(197,214,255,0.8)"/><circle cx="1098.47" cy="312.64" r="1.31" fill="rgba(112,150,255,0.54)"/><circle cx="903.28" cy="305.09" r="0.60" fill="rgba(197,214,255,0.8)"/><circle cx="745.85" cy="95.31" r="0.76" fill="rgba(112,150,255,0.54)"/><circle cx="781.03" cy="373.84" r="0.91" fill="rgba(197,214,255,0.8)"/><circle cx="772.83" cy="357.64" r="0.65" fill="rgba(255,161,97,0.58)"/><circle cx="1089.95" cy="372.92" r="2.27" fill="rgba(112,150,255,0.54)"/><circle cx="931.48" cy="394.49" r="1.37" fill="rgba(112,150,255,0.54)"/><circle cx="1057.30" cy="347.54" r="0.60" fill="rgba(197,214,255,0.8)"/><circle cx="737.01" cy="464.02" r="2.10" fill="rgba(197,214,255,0.8)"/><circle cx="750.08" cy="256.93" r="2.31" fill="rgba(112,150,255,0.54)"/><circle cx="755.93" cy="288.30" r="2.00" fill="rgba(112,150,255,0.54)"/><circle cx="814.01" cy="185.47" r="1.47" fill="rgba(112,150,255,0.54)"/><circle cx="793.54" cy="346.85" r="0.72" fill="rgba(255,161,97,0.58)"/><circle cx="979.07" cy="361.48" r="1.73" fill="rgba(255,161,97,0.58)"/><circle cx="1010.67" cy="194.33" r="0.60" fill="rgba(112,150,255,0.54)"/><circle cx="1094.83" cy="488.33" r="0.99" fill="rgba(112,150,255,0.54)"/><circle cx="1054.67" cy="363.83" r="1.23" fill="rgba(112,150,255,0.54)"/><circle cx="755.99" cy="274.91" r="1.82" fill="rgba(112,150,255,0.54)"/><circle cx="1108.48" cy="224.86" r="1.78" fill="rgba(197,214,255,0.8)"/><circle cx="1023.39" cy="225.96" r="1.23" fill="rgba(255,161,97,0.58)"/><circle cx="967.98" cy="462.52" r="0.60" fill="rgba(112,150,255,0.54)"/><circle cx="1090.53" cy="223.94" r="1.18" fill="rgba(112,150,255,0.54)"/><circle cx="794.75" cy="345.45" r="0.60" fill="rgba(255,161,97,0.58)"/><circle cx="774.62" cy="154.51" r="1.38" fill="rgba(197,214,255,0.8)"/><circle cx="831.64" cy="293.91" r="1.07" fill="rgba(255,161,97,0.58)"/><circle cx="894.77" cy="199.74" r="1.41" fill="rgba(255,161,97,0.58)"/><circle cx="971.19" cy="354.56" r="1.06" fill="rgba(255,161,97,0.58)"/><circle cx="836.96" cy="128.10" r="2.40" fill="rgba(197,214,255,0.8)"/><circle cx="1099.48" cy="140.92" r="0.62" fill="rgba(112,150,255,0.54)"/><circle cx="875.36" cy="108.50" r="2.26" fill="rgba(255,161,97,0.58)"/><circle cx="1118.33" cy="169.31" r="1.69" fill="rgba(112,150,255,0.54)"/><circle cx="774.07" cy="467.39" r="0.76" fill="rgba(255,161,97,0.58)"/><circle cx="745.64" cy="298.48" r="0.60" fill="rgba(255,161,97,0.58)"/><circle cx="835.58" cy="260.66" r="0.81" fill="rgba(197,214,255,0.8)"/><circle cx="755.11" cy="354.84" r="1.28" fill="rgba(255,161,97,0.58)"/><circle cx="751.85" cy="276.44" r="2.46" fill="rgba(197,214,255,0.8)"/><circle cx="1097.84" cy="294.87" r="1.09" fill="rgba(197,214,255,0.8)"/><circle cx="1063.97" cy="453.31" r="1.59" fill="rgba(255,161,97,0.58)"/><circle cx="863.46" cy="493.21" r="1.40" fill="rgba(112,150,255,0.54)"/><circle cx="787.23" cy="240.74" r="0.60" fill="rgba(112,150,255,0.54)"/><circle cx="1097.73" cy="241.05" r="1.28" fill="rgba(112,150,255,0.54)"/><circle cx="1025.85" cy="381.85" r="1.31" fill="rgba(197,214,255,0.8)"/><circle cx="823.53" cy="324.08" r="2.29" fill="rgba(197,214,255,0.8)"/><circle cx="832.43" cy="345.47" r="2.30" fill="rgba(112,150,255,0.54)"/><circle cx="1026.19" cy="290.19" r="1.41" fill="rgba(197,214,255,0.8)"/><circle cx="1033.40" cy="194.56" r="0.60" fill="rgba(112,150,255,0.54)"/><circle cx="910.56" cy="370.69" r="1.17" fill="rgba(255,161,97,0.58)"/><circle cx="1020.70" cy="115.03" r="0.60" fill="rgba(255,161,97,0.58)"/><circle cx="1049.11" cy="405.33" r="2.49" fill="rgba(197,214,255,0.8)"/><circle cx="1035.34" cy="108.33" r="0.60" fill="rgba(255,161,97,0.58)"/><circle cx="855.32" cy="169.62" r="2.38" fill="rgba(112,150,255,0.54)"/><circle cx="723.27" cy="492.17" r="1.05" fill="rgba(112,150,255,0.54)"/><circle cx="1028.46" cy="377.74" r="0.60" fill="rgba(197,214,255,0.8)"/><circle cx="763.16" cy="142.80" r="0.62" fill="rgba(112,150,255,0.54)"/><circle cx="1059.13" cy="127.78" r="2.58" fill="rgba(255,161,97,0.58)"/><circle cx="805.93" cy="164.81" r="2.32" fill="rgba(112,150,255,0.54)"/><circle cx="1080.52" cy="303.28" r="2.59" fill="rgba(197,214,255,0.8)"/><circle cx="927.63" cy="347.48" r="1.98" fill="rgba(112,150,255,0.54)"/><circle cx="1090.58" cy="478.77" r="1.91" fill="rgba(197,214,255,0.8)"/><circle cx="914.81" cy="220.13" r="1.35" fill="rgba(197,214,255,0.8)"/><circle cx="980.56" cy="398.96" r="2.13" fill="rgba(255,161,97,0.58)"/><circle cx="933.59" cy="185.23" r="2.60" fill="rgba(112,150,255,0.54)"/><circle cx="1109.71" cy="363.22" r="2.44" fill="rgba(112,150,255,0.54)"/><circle cx="800.27" cy="358.46" r="0.60" fill="rgba(197,214,255,0.8)"/><circle cx="819.99" cy="269.87" r="0.60" fill="rgba(112,150,255,0.54)"/><circle cx="848.46" cy="458.98" r="1.12" fill="rgba(112,150,255,0.54)"/><circle cx="988.78" cy="410.04" r="1.59" fill="rgba(255,161,97,0.58)"/><circle cx="882.57" cy="118.01" r="0.60" fill="rgba(255,161,97,0.58)"/><circle cx="1093.36" cy="131.05" r="2.43" fill="rgba(255,161,97,0.58)"/><circle cx="809.01" cy="334.78" r="0.60" fill="rgba(112,150,255,0.54)"/><circle cx="777.64" cy="283.11" r="1.03" fill="rgba(112,150,255,0.54)"/><circle cx="1012.36" cy="422.68" r="2.53" fill="rgba(112,150,255,0.54)"/><circle cx="932.94" cy="345.23" r="2.20" fill="rgba(197,214,255,0.8)"/><circle cx="805.23" cy="312.45" r="1.05" fill="rgba(112,150,255,0.54)"/><circle cx="778.99" cy="195.00" r="0.60" fill="rgba(197,214,255,0.8)"/><circle cx="876.43" cy="109.49" r="1.98" fill="rgba(255,161,97,0.58)"/><circle cx="1039.09" cy="206.59" r="2.09" fill="rgba(197,214,255,0.8)"/><circle cx="963.62" cy="421.23" r="0.90" fill="rgba(255,161,97,0.58)"/><circle cx="790.44" cy="177.03" r="1.03" fill="rgba(255,161,97,0.58)"/><circle cx="921.03" cy="371.63" r="1.74" fill="rgba(255,161,97,0.58)"/><circle cx="820.82" cy="201.31" r="0.60" fill="rgba(197,214,255,0.8)"/></g>
  </g>
  
  <g>
    <path d="M 66 85.04999999999998 L 54 85.04999999999998 L 54 513.072 L 66 513.072"
          stroke="rgba(186,199,255,0.4)" stroke-width="1.8" fill="none"/>
    <text x="78" y="138.6" fill="#FFF9F0" opacity="1" font-size="102.00000000000001" font-family="Geist, 'Helvetica Neue', Arial, sans-serif" font-weight="500" letter-spacing="-0.055em">AI-Native</text>
<text x="78" y="245.7" fill="#FFF9F0" opacity="0.92" font-size="102.00000000000001" font-family="Geist, 'Helvetica Neue', Arial, sans-serif" font-weight="300" letter-spacing="-0.055em">is not</text>
<text x="78" y="352.8" fill="#8E7BFF" opacity="1" font-size="102.00000000000001" font-family="Geist, 'Helvetica Neue', Arial, sans-serif" font-weight="600" letter-spacing="-0.045em">AI-First.</text>
    <text x="78" y="494.172" fill="#F2C7AB" opacity="0.96" font-size="33.6" font-family="Geist, 'Helvetica Neue', Arial, sans-serif" font-weight="700" letter-spacing="-0.02em">The org design is the AI strategy.</text>
    <text x="78" y="557.172" fill="#ECE6DC" opacity="0.9" font-size="22.8" font-family="Geist, 'Helvetica Neue', Arial, sans-serif" font-weight="400">
      <tspan x="78" dy="0">What changes when the cost of carrying context collapses.</tspan>
    </text>
  </g>
</svg>