<?xml version="1.0" encoding="UTF-8"?>
<svg xmlns="http://www.w3.org/2000/svg" width="1003" height="1568" viewBox="0 0 1003 1568" fill="none">
  <defs>
    <linearGradient id="bgGradient" x1="0" y1="0" x2="1003" y2="1568">
      <stop offset="0%" stop-color="#EBE9FF"/>
      <stop offset="42%" stop-color="#F2F1FF"/>
      <stop offset="100%" stop-color="#DFDBFF"/>
    </linearGradient>
    <radialGradient id="violetGlow" cx="0" cy="0" r="1" gradientUnits="userSpaceOnUse" gradientTransform="translate(80.24 125.44) rotate(40) scale(451.35 815.36)">
      <stop offset="0%" stop-color="#4736FE" stop-opacity="0.9"/>
      <stop offset="100%" stop-color="#4736FE" stop-opacity="0"/>
    </radialGradient>
    <radialGradient id="emberGlow" cx="0" cy="0" r="1" gradientUnits="userSpaceOnUse" gradientTransform="translate(842.52 972.16) rotate(210) scale(280.84000000000003 595.84)">
      <stop offset="0%" stop-color="#4736FE" stop-opacity="0.65"/>
      <stop offset="100%" stop-color="#4736FE" stop-opacity="0"/>
    </radialGradient>
    <filter id="softGlow" x="-40%" y="-40%" width="180%" height="180%">
      <feGaussianBlur stdDeviation="10" result="blur"/>
      <feMerge>
        <feMergeNode in="blur"/>
        <feMergeNode in="SourceGraphic"/>
      </feMerge>
    </filter>
    <filter id="fineGlow" x="-30%" y="-30%" width="160%" height="160%">
      <feGaussianBlur stdDeviation="3" result="blur"/>
      <feMerge>
        <feMergeNode in="blur"/>
        <feMergeNode in="SourceGraphic"/>
      </feMerge>
    </filter>
  </defs>
  
  <rect width="1003" height="1568" fill="url(#bgGradient)"/>
  <rect width="1003" height="1568" fill="url(#violetGlow)" opacity="0.08"/>
  <rect x="70.21000000000001" y="125.44" width="130.39000000000001" height="15.68" rx="3.136" fill="rgba(239,69,35,0.9)"/>
  <rect x="792.37" y="1411.2" width="120.36" height="15.68" rx="3.136" fill="rgba(71,54,254,0.8)"/>
  
  
  <g>
    <g opacity="0.74"><line x1="86.8598" y1="640.2144" x2="86.8598" y2="1263.9648" stroke="rgba(71,54,254,0.07)" stroke-width="1"/>
<line x1="215.94590000000002" y1="640.2144" x2="215.94590000000002" y2="1263.9648" stroke="rgba(71,54,254,0.07)" stroke-width="1"/>
<line x1="345.03200000000004" y1="640.2144" x2="345.03200000000004" y2="1263.9648" stroke="rgba(71,54,254,0.07)" stroke-width="1"/>
<line x1="474.1181000000001" y1="640.2144" x2="474.1181000000001" y2="1263.9648" stroke="rgba(71,54,254,0.07)" stroke-width="1"/>
<line x1="603.2042000000001" y1="640.2144" x2="603.2042000000001" y2="1263.9648" stroke="rgba(71,54,254,0.07)" stroke-width="1"/>
<line x1="732.2903000000001" y1="640.2144" x2="732.2903000000001" y2="1263.9648" stroke="rgba(71,54,254,0.07)" stroke-width="1"/>
<line x1="861.3764000000001" y1="640.2144" x2="861.3764000000001" y2="1263.9648" stroke="rgba(71,54,254,0.07)" stroke-width="1"/>
<line x1="86.8598" y1="640.2144" x2="861.3764000000001" y2="640.2144" stroke="rgba(71,54,254,0.07)" stroke-width="1"/>
<line x1="86.8598" y1="796.1519999999999" x2="861.3764000000001" y2="796.1519999999999" stroke="rgba(71,54,254,0.07)" stroke-width="1"/>
<line x1="86.8598" y1="952.0896" x2="861.3764000000001" y2="952.0896" stroke="rgba(71,54,254,0.07)" stroke-width="1"/>
<line x1="86.8598" y1="1108.0272" x2="861.3764000000001" y2="1108.0272" stroke="rgba(71,54,254,0.07)" stroke-width="1"/>
<line x1="86.8598" y1="1263.9648" x2="861.3764000000001" y2="1263.9648" stroke="rgba(71,54,254,0.07)" stroke-width="1"/></g>
    <g filter="url(#fineGlow)"><circle cx="80.45" cy="823.55" r="0.85" fill="rgba(71,54,254,0.03)"/><circle cx="562.92" cy="1034.97" r="1.90" fill="rgba(71,54,254,0.03)"/><circle cx="542.76" cy="791.56" r="0.60" fill="rgba(71,54,254,0.05)"/><circle cx="805.62" cy="737.70" r="1.56" fill="rgba(71,54,254,0.05)"/><circle cx="369.28" cy="836.09" r="2.03" fill="rgba(71,54,254,0.05)"/><circle cx="593.01" cy="893.62" r="1.24" fill="rgba(71,54,254,0.03)"/><circle cx="635.39" cy="1150.97" r="1.94" fill="rgba(71,54,254,0.05)"/><circle cx="100.36" cy="684.12" r="1.02" fill="rgba(71,54,254,0.03)"/><circle cx="685.17" cy="696.98" r="0.95" fill="rgba(71,54,254,0.05)"/><circle cx="637.62" cy="886.40" r="1.54" fill="rgba(71,54,254,0.03)"/><circle cx="733.57" cy="1143.98" r="1.73" fill="rgba(71,54,254,0.05)"/><circle cx="161.66" cy="824.18" r="0.85" fill="rgba(71,54,254,0.03)"/><circle cx="193.06" cy="1138.98" r="0.64" fill="rgba(71,54,254,0.05)"/><circle cx="436.42" cy="964.06" r="0.60" fill="rgba(71,54,254,0.03)"/><circle cx="91.53" cy="879.39" r="1.82" fill="rgba(71,54,254,0.03)"/><circle cx="508.67" cy="869.05" r="1.27" fill="rgba(71,54,254,0.05)"/><circle cx="829.09" cy="1180.07" r="0.60" fill="rgba(71,54,254,0.03)"/><circle cx="205.33" cy="1159.42" r="0.60" fill="rgba(71,54,254,0.05)"/><circle cx="318.22" cy="875.00" r="1.47" fill="rgba(71,54,254,0.05)"/><circle cx="213.16" cy="1039.67" r="0.60" fill="rgba(71,54,254,0.03)"/><circle cx="623.93" cy="1223.54" r="1.16" fill="rgba(71,54,254,0.05)"/><circle cx="839.16" cy="1218.49" r="1.40" fill="rgba(71,54,254,0.05)"/><circle cx="200.18" cy="786.20" r="2.10" fill="rgba(71,54,254,0.05)"/><circle cx="737.88" cy="719.24" r="0.97" fill="rgba(71,54,254,0.05)"/><circle cx="397.80" cy="958.59" r="1.47" fill="rgba(71,54,254,0.05)"/><circle cx="789.81" cy="742.20" r="1.25" fill="rgba(71,54,254,0.05)"/><circle cx="239.16" cy="1200.33" r="1.88" fill="rgba(71,54,254,0.03)"/><circle cx="327.95" cy="870.47" r="1.50" fill="rgba(71,54,254,0.05)"/><circle cx="143.29" cy="683.98" r="2.15" fill="rgba(71,54,254,0.05)"/><circle cx="756.43" cy="1155.17" r="0.60" fill="rgba(71,54,254,0.03)"/><circle cx="139.39" cy="979.33" r="1.94" fill="rgba(71,54,254,0.05)"/><circle cx="761.98" cy="1152.84" r="0.60" fill="rgba(71,54,254,0.05)"/><circle cx="228.65" cy="1111.11" r="1.75" fill="rgba(71,54,254,0.03)"/><circle cx="284.68" cy="672.40" r="1.67" fill="rgba(71,54,254,0.03)"/><circle cx="630.31" cy="944.76" r="1.80" fill="rgba(71,54,254,0.05)"/><circle cx="169.18" cy="1075.24" r="0.76" fill="rgba(71,54,254,0.03)"/><circle cx="768.43" cy="1178.45" r="1.29" fill="rgba(71,54,254,0.05)"/><circle cx="429.93" cy="1215.09" r="2.01" fill="rgba(71,54,254,0.03)"/><circle cx="538.99" cy="1131.78" r="0.60" fill="rgba(71,54,254,0.05)"/><circle cx="106.39" cy="1146.21" r="1.35" fill="rgba(71,54,254,0.05)"/><circle cx="403.19" cy="637.69" r="0.60" fill="rgba(71,54,254,0.03)"/><circle cx="346.68" cy="1143.37" r="2.15" fill="rgba(71,54,254,0.05)"/><circle cx="462.98" cy="1162.06" r="2.01" fill="rgba(71,54,254,0.05)"/><circle cx="509.05" cy="894.79" r="1.16" fill="rgba(71,54,254,0.03)"/><circle cx="809.59" cy="998.04" r="0.60" fill="rgba(71,54,254,0.05)"/><circle cx="686.05" cy="740.65" r="1.44" fill="rgba(71,54,254,0.05)"/><circle cx="163.59" cy="923.29" r="0.60" fill="rgba(71,54,254,0.03)"/><circle cx="416.91" cy="1155.33" r="0.81" fill="rgba(71,54,254,0.05)"/><circle cx="576.25" cy="833.42" r="1.97" fill="rgba(71,54,254,0.03)"/><circle cx="840.04" cy="1026.15" r="1.91" fill="rgba(71,54,254,0.05)"/><circle cx="356.87" cy="864.79" r="1.86" fill="rgba(71,54,254,0.03)"/><circle cx="698.61" cy="684.75" r="2.14" fill="rgba(71,54,254,0.05)"/><circle cx="472.13" cy="954.86" r="0.94" fill="rgba(71,54,254,0.05)"/><circle cx="368.43" cy="1054.41" r="1.35" fill="rgba(71,54,254,0.03)"/><circle cx="132.92" cy="904.04" r="1.46" fill="rgba(71,54,254,0.05)"/><circle cx="637.12" cy="742.66" r="0.60" fill="rgba(71,54,254,0.03)"/><circle cx="278.38" cy="667.14" r="2.01" fill="rgba(71,54,254,0.05)"/><circle cx="785.36" cy="843.45" r="0.60" fill="rgba(71,54,254,0.05)"/><circle cx="509.28" cy="1119.71" r="0.60" fill="rgba(71,54,254,0.05)"/><circle cx="183.11" cy="1077.73" r="2.11" fill="rgba(71,54,254,0.05)"/><circle cx="680.06" cy="1055.01" r="0.60" fill="rgba(71,54,254,0.03)"/><circle cx="427.77" cy="1092.78" r="0.98" fill="rgba(71,54,254,0.03)"/></g>
    
    <rect x="152.57636000000002" y="716.04288" width="524.1678" height="476.9856" rx="10" fill="rgba(71,54,254,0.05)"/>
    <rect x="141.6236" y="707.4816" width="524.1678" height="476.9856" rx="10" fill="rgba(255,255,255,0.94)" stroke="rgba(71,54,254,0.2)" stroke-width="1.2036"/>
    <rect x="173.073668" y="745.640448" width="99.59188200000001" height="38.158848" rx="9.539712" fill="rgba(239,69,35,0.12)"/>
    <rect x="173.073668" y="802.8787199999999" width="183.45873" height="14.309567999999999" rx="4.769856" fill="rgba(22,22,22,0.12)"/>
    <rect x="173.073668" y="836.267712" width="277.808934" height="11.4476544" rx="4.769856" fill="rgba(22,22,22,0.08)"/>
    <rect x="173.073668" y="860.116992" width="230.633832" height="11.4476544" rx="4.769856" fill="rgba(22,22,22,0.06)"/>
    <line x1="173.073668" y1="903.0456959999999" x2="634.341332" y2="903.0456959999999" stroke="rgba(71,54,254,0.12)" stroke-width="1.0030000000000001"/>
    <line x1="393.224144" y1="941.2045439999999" x2="393.224144" y2="1117.689216" stroke="rgba(71,54,254,0.12)" stroke-width="1.0030000000000001"/>
  
    
    <rect x="183.557024" y="945.9744" width="178.21705200000002" height="128.786112" rx="8" fill="rgba(71,54,254,0.04)" stroke="rgba(71,54,254,0.16)" stroke-width="1.0030000000000001"/>
    <path d="M 204.94307024000003 974.30734464 L 333.25934768 974.30734464" stroke="rgba(71,54,254,0.26)" stroke-width="2"/>
    <path d="M 215.63609336000002 958.8530112 L 215.63609336000002 1059.30617856" stroke="rgba(71,54,254,0.22)" stroke-width="2"/>
    <path d="M 204.94307024000003 1036.1246784 L 336.82368872000006 1002.6402892799999" stroke="rgba(71,54,254,0.18)" stroke-width="2"/>
    <circle cx="283.35857312" cy="1000.0645670399999" r="6" fill="rgba(239,69,35,0.9)"/>
    <circle cx="283.35857312" cy="1000.0645670399999" r="11" fill="none" stroke="rgba(239,69,35,0.3)" stroke-width="1.2"/>
  
    
    <rect x="414.19085600000005" y="979.363392" width="157.25034000000002" height="85.85740799999999" rx="8" fill="rgba(255,255,255,0.88)" stroke="rgba(71,54,254,0.14)" stroke-width="1.0030000000000001"/>
    <rect x="433.0608968000001" y="994.81772544" width="72.33515640000002" height="10.302888959999999" rx="3.4342963199999996" fill="rgba(22,22,22,0.1)"/>
    <rect x="433.0608968000001" y="1015.4235033599999" width="91.2051972" height="7.727166719999999" rx="3.4342963199999996" fill="rgba(22,22,22,0.07)"/>
    <rect x="433.0608968000001" y="1032.59498496" width="50.32010880000001" height="6.868592639999999" rx="3.4342963199999996" fill="rgba(239,69,35,0.18)"/>
  
    
    <g transform="rotate(-4 763.5839000000001 887.88)">
      <rect x="653.2739600000001" y="802.8787199999999" width="242.52540000000002" height="189.5712" rx="10" fill="rgba(71,54,254,0.05)"/>
      <rect x="642.3212000000001" y="793.0944" width="242.52540000000002" height="189.5712" rx="10" fill="rgba(255,255,255,0.94)" stroke="rgba(71,54,254,0.2)" stroke-width="1.0030000000000001"/>
      <rect x="676.2747560000001" y="829.112928" width="101.860668" height="15.165696" rx="5.687136" fill="rgba(22,22,22,0.09)"/>
      <rect x="676.2747560000001" y="857.548608" width="135.81422400000002" height="11.374272" rx="4.73928" fill="rgba(22,22,22,0.06)"/>
      <rect x="676.2747560000001" y="880.297152" width="87.309144" height="11.374272" rx="4.73928" fill="rgba(22,22,22,0.05)"/>
      <rect x="676.2747560000001" y="912.5242559999999" width="38.804064000000004" height="38.804064000000004" rx="8.488389000000002" fill="rgba(71,54,254,0.08)" stroke="rgba(71,54,254,0.38)" stroke-width="1.2036"/>
      <rect x="692.0389070000001" y="923.8985279999999" width="7.275762" height="16.976778000000003" rx="2.4252540000000002" fill="rgba(71,54,254,0.9)"/>
      <rect x="687.1883990000001" y="927.689952" width="16.976778000000003" height="7.275762" rx="2.4252540000000002" fill="rgba(71,54,254,0.9)"/>
      <path d="M 792.6869480000001 922.0028159999999 L 836.3415200000002 922.0028159999999" stroke="rgba(71,54,254,0.24)" stroke-width="2"/>
      <path d="M 814.5142340000001 903.0456959999999 L 814.5142340000001 940.959936" stroke="rgba(71,54,254,0.24)" stroke-width="2"/>
      <circle cx="814.5142340000001" cy="922.0028159999999" r="4" fill="rgba(239,69,35,0.92)"/>
    </g>
  
    
    
    <g>
      <path d="M 550.4744840000001 845.807424 L 613.6327922 845.807424 L 613.6327922 831.0086399999999 L 690.8262800000001 831.0086399999999"
            stroke="rgba(71,54,254,0.32)" stroke-width="1.5" stroke-linecap="round" stroke-linejoin="round" fill="none"/>
      <circle cx="550.4744840000001" cy="845.807424" r="11" fill="rgba(239,69,35,0.92)"/>
      <text x="550.4744840000001" y="849.807424" fill="#FFFFFF" text-anchor="middle" font-size="9" font-family="Geist, 'Helvetica Neue', Arial, sans-serif" font-weight="700" letter-spacing="0.04em">01</text>
    </g>
  
    
    <g>
      <path d="M 356.53239800000006 1103.3796479999999 L 323.604176804 1103.3796479999999 L 323.604176804 1000.0645670399999 L 283.35857312 1000.0645670399999"
            stroke="rgba(71,54,254,0.32)" stroke-width="1.5" stroke-linecap="round" stroke-linejoin="round" fill="none"/>
      <circle cx="356.53239800000006" cy="1103.3796479999999" r="11" fill="rgba(239,69,35,0.92)"/>
      <text x="356.53239800000006" y="1107.3796479999999" fill="#FFFFFF" text-anchor="middle" font-size="9" font-family="Geist, 'Helvetica Neue', Arial, sans-serif" font-weight="700" letter-spacing="0.04em">02</text>
    </g>
  
    
    <g>
      <path d="M 581.9245520000001 1050.911232 L 523.42742552 1050.911232 L 523.42742552 1032.59498496 L 451.93093760000005 1032.59498496"
            stroke="rgba(71,54,254,0.32)" stroke-width="1.5" stroke-linecap="round" stroke-linejoin="round" fill="none"/>
      <circle cx="581.9245520000001" cy="1050.911232" r="11" fill="rgba(239,69,35,0.92)"/>
      <text x="581.9245520000001" y="1054.911232" fill="#FFFFFF" text-anchor="middle" font-size="9" font-family="Geist, 'Helvetica Neue', Arial, sans-serif" font-weight="700" letter-spacing="0.04em">03</text>
    </g>
  
  
  </g>
  
  <g>
    <text x="75.225" y="156.8" fill="rgba(71,54,254,0.82)" font-size="19.19742" font-family="Geist, 'Helvetica Neue', Arial, sans-serif" font-weight="700" letter-spacing="0.14em">ROAD SAFETY / INDIA</text>
    <text x="75.225" y="266.56" fill="#4736FE" font-size="94.282" font-family="Geist, 'Helvetica Neue', Arial, sans-serif" font-weight="700" letter-spacing="-0.055em">India&apos;s road</text>
<text x="75.225" y="428.06399999999996" fill="#4736FE" font-size="94.282" font-family="Geist, 'Helvetica Neue', Arial, sans-serif" font-weight="300" letter-spacing="-0.045em">deaths are a</text>
<text x="75.225" y="589.568" fill="#4736FE" font-size="94.282" font-family="Geist, 'Helvetica Neue', Arial, sans-serif" font-weight="800" letter-spacing="-0.055em">trust problem.</text>
    <text x="75.225" y="783.3728000000001" fill="#4736FE" opacity="0.96" font-size="33.099000000000004" font-family="Geist, 'Helvetica Neue', Arial, sans-serif" font-weight="700" letter-spacing="-0.02em">Not a traffic problem.</text>
    <text x="75.225" y="893.1328000000001" fill="#161616" opacity="0.72" font-size="24.072" font-family="Geist, 'Helvetica Neue', Arial, sans-serif" font-weight="500">
      <tspan x="75.225" dy="0">Road safety fails when truth dies at each handoff.</tspan>
    </text>
  </g>
</svg>