<?xml version="1.0" encoding="UTF-8"?>
<svg xmlns="http://www.w3.org/2000/svg" width="1254" height="1254" viewBox="0 0 1254 1254" fill="none">
  <defs>
    <linearGradient id="bgGradient" x1="0" y1="0" x2="1254" y2="1254">
      <stop offset="0%" stop-color="#EBE9FF"/>
      <stop offset="42%" stop-color="#F2F1FF"/>
      <stop offset="100%" stop-color="#DFDBFF"/>
    </linearGradient>
    <radialGradient id="violetGlow" cx="0" cy="0" r="1" gradientUnits="userSpaceOnUse" gradientTransform="translate(100.32000000000001 100.32000000000001) rotate(40) scale(564.3000000000001 652.08)">
      <stop offset="0%" stop-color="#4736FE" stop-opacity="0.9"/>
      <stop offset="100%" stop-color="#4736FE" stop-opacity="0"/>
    </radialGradient>
    <radialGradient id="emberGlow" cx="0" cy="0" r="1" gradientUnits="userSpaceOnUse" gradientTransform="translate(1053.36 777.48) rotate(210) scale(351.12000000000006 476.52)">
      <stop offset="0%" stop-color="#4736FE" stop-opacity="0.65"/>
      <stop offset="100%" stop-color="#4736FE" stop-opacity="0"/>
    </radialGradient>
    <filter id="softGlow" x="-40%" y="-40%" width="180%" height="180%">
      <feGaussianBlur stdDeviation="10.032" result="blur"/>
      <feMerge>
        <feMergeNode in="blur"/>
        <feMergeNode in="SourceGraphic"/>
      </feMerge>
    </filter>
    <filter id="fineGlow" x="-30%" y="-30%" width="160%" height="160%">
      <feGaussianBlur stdDeviation="3" result="blur"/>
      <feMerge>
        <feMergeNode in="blur"/>
        <feMergeNode in="SourceGraphic"/>
      </feMerge>
    </filter>
  </defs>
  
  <rect width="1254" height="1254" fill="url(#bgGradient)"/>
  <rect width="1254" height="1254" fill="url(#violetGlow)" opacity="0.08"/>
  <rect x="87.78000000000002" y="100.32000000000001" width="163.02" height="12.540000000000001" rx="2.508" fill="rgba(239,69,35,0.9)"/>
  <rect x="990.6600000000001" y="1128.6000000000001" width="150.48" height="12.540000000000001" rx="2.508" fill="rgba(71,54,254,0.8)"/>
  
  
  <g>
    <g opacity="0.74"><line x1="200.5146" y1="214.9356" x2="200.5146" y2="1007.9652000000001" stroke="rgba(71,54,254,0.07)" stroke-width="1"/>
<line x1="339.14430000000004" y1="214.9356" x2="339.14430000000004" y2="1007.9652000000001" stroke="rgba(71,54,254,0.07)" stroke-width="1"/>
<line x1="477.774" y1="214.9356" x2="477.774" y2="1007.9652000000001" stroke="rgba(71,54,254,0.07)" stroke-width="1"/>
<line x1="616.4037000000001" y1="214.9356" x2="616.4037000000001" y2="1007.9652000000001" stroke="rgba(71,54,254,0.07)" stroke-width="1"/>
<line x1="755.0334" y1="214.9356" x2="755.0334" y2="1007.9652000000001" stroke="rgba(71,54,254,0.07)" stroke-width="1"/>
<line x1="893.6631" y1="214.9356" x2="893.6631" y2="1007.9652000000001" stroke="rgba(71,54,254,0.07)" stroke-width="1"/>
<line x1="1032.2928000000002" y1="214.9356" x2="1032.2928000000002" y2="1007.9652000000001" stroke="rgba(71,54,254,0.07)" stroke-width="1"/>
<line x1="200.5146" y1="214.9356" x2="1032.2928000000002" y2="214.9356" stroke="rgba(71,54,254,0.07)" stroke-width="1"/>
<line x1="200.5146" y1="413.193" x2="1032.2928000000002" y2="413.193" stroke="rgba(71,54,254,0.07)" stroke-width="1"/>
<line x1="200.5146" y1="611.4504000000001" x2="1032.2928000000002" y2="611.4504000000001" stroke="rgba(71,54,254,0.07)" stroke-width="1"/>
<line x1="200.5146" y1="809.7078000000001" x2="1032.2928000000002" y2="809.7078000000001" stroke="rgba(71,54,254,0.07)" stroke-width="1"/>
<line x1="200.5146" y1="1007.9652000000001" x2="1032.2928000000002" y2="1007.9652000000001" stroke="rgba(71,54,254,0.07)" stroke-width="1"/></g>
    <g filter="url(#fineGlow)"><circle cx="806.85" cy="298.59" r="0.93" fill="rgba(71,54,254,0.03)"/><circle cx="654.38" cy="881.26" r="2.44" fill="rgba(71,54,254,0.03)"/><circle cx="515.44" cy="327.66" r="1.50" fill="rgba(71,54,254,0.03)"/><circle cx="1010.45" cy="531.97" r="1.35" fill="rgba(71,54,254,0.03)"/><circle cx="899.66" cy="931.47" r="0.60" fill="rgba(71,54,254,0.05)"/><circle cx="649.21" cy="458.95" r="1.51" fill="rgba(71,54,254,0.05)"/><circle cx="1025.77" cy="813.80" r="2.61" fill="rgba(71,54,254,0.03)"/><circle cx="621.36" cy="803.48" r="2.46" fill="rgba(71,54,254,0.03)"/><circle cx="645.66" cy="706.92" r="1.21" fill="rgba(71,54,254,0.03)"/><circle cx="274.29" cy="836.32" r="0.60" fill="rgba(71,54,254,0.05)"/><circle cx="1005.89" cy="313.77" r="1.94" fill="rgba(71,54,254,0.05)"/><circle cx="359.88" cy="763.95" r="0.60" fill="rgba(71,54,254,0.05)"/><circle cx="286.52" cy="468.29" r="0.95" fill="rgba(71,54,254,0.05)"/><circle cx="262.91" cy="664.87" r="0.88" fill="rgba(71,54,254,0.05)"/><circle cx="438.26" cy="239.05" r="1.76" fill="rgba(71,54,254,0.03)"/><circle cx="638.49" cy="215.25" r="1.69" fill="rgba(71,54,254,0.05)"/><circle cx="218.50" cy="595.77" r="1.41" fill="rgba(71,54,254,0.03)"/><circle cx="634.33" cy="873.02" r="1.38" fill="rgba(71,54,254,0.05)"/><circle cx="209.15" cy="966.21" r="1.85" fill="rgba(71,54,254,0.03)"/><circle cx="899.95" cy="637.01" r="1.69" fill="rgba(71,54,254,0.03)"/><circle cx="265.70" cy="244.38" r="2.20" fill="rgba(71,54,254,0.03)"/><circle cx="201.22" cy="659.13" r="1.44" fill="rgba(71,54,254,0.03)"/><circle cx="870.72" cy="567.93" r="2.23" fill="rgba(71,54,254,0.05)"/><circle cx="747.29" cy="940.77" r="1.73" fill="rgba(71,54,254,0.03)"/><circle cx="1005.76" cy="232.28" r="0.60" fill="rgba(71,54,254,0.03)"/><circle cx="573.05" cy="648.54" r="2.69" fill="rgba(71,54,254,0.03)"/><circle cx="627.19" cy="373.92" r="2.23" fill="rgba(71,54,254,0.05)"/><circle cx="924.73" cy="462.16" r="0.60" fill="rgba(71,54,254,0.03)"/><circle cx="916.07" cy="720.71" r="2.75" fill="rgba(71,54,254,0.03)"/><circle cx="672.25" cy="412.29" r="1.76" fill="rgba(71,54,254,0.03)"/><circle cx="1003.24" cy="251.88" r="2.23" fill="rgba(71,54,254,0.05)"/><circle cx="871.48" cy="644.08" r="0.69" fill="rgba(71,54,254,0.03)"/><circle cx="597.26" cy="740.20" r="2.03" fill="rgba(71,54,254,0.03)"/><circle cx="247.39" cy="457.54" r="2.48" fill="rgba(71,54,254,0.05)"/><circle cx="961.75" cy="954.76" r="0.60" fill="rgba(71,54,254,0.05)"/><circle cx="574.29" cy="447.94" r="1.44" fill="rgba(71,54,254,0.05)"/><circle cx="798.55" cy="350.88" r="1.86" fill="rgba(71,54,254,0.05)"/><circle cx="348.05" cy="453.57" r="2.69" fill="rgba(71,54,254,0.05)"/></g>
    
    <rect x="271.08972" y="311.34312" width="562.9206" height="606.4344" rx="10.032" fill="rgba(71,54,254,0.05)"/>
    <rect x="259.3272" y="300.4584" width="562.9206" height="606.4344" rx="10.032" fill="rgba(255,255,255,0.94)" stroke="rgba(71,54,254,0.2)" stroke-width="1.5048"/>
    <rect x="293.102436" y="348.97315199999997" width="106.954914" height="48.514752" rx="12.128688" fill="rgba(239,69,35,0.12)"/>
    <rect x="293.102436" y="421.74528" width="197.02221" height="18.193032" rx="6.064344" fill="rgba(22,22,22,0.12)"/>
    <rect x="293.102436" y="464.195688" width="298.34791800000005" height="14.5544256" rx="6.064344" fill="rgba(22,22,22,0.08)"/>
    <rect x="293.102436" y="494.517408" width="247.685064" height="14.5544256" rx="6.064344" fill="rgba(22,22,22,0.06)"/>
    <line x1="293.102436" y1="549.096504" x2="788.4725639999999" y2="549.096504" stroke="rgba(71,54,254,0.12)" stroke-width="1.254"/>
    <line x1="529.529088" y1="597.6112559999999" x2="529.529088" y2="821.991984" stroke="rgba(71,54,254,0.12)" stroke-width="1.254"/>
  
    
    <rect x="304.36084800000003" y="603.6756" width="191.39300400000002" height="163.737288" rx="8" fill="rgba(71,54,254,0.04)" stroke="rgba(71,54,254,0.16)" stroke-width="1.254"/>
    <path d="M 327.32800848000005 639.6978033600001 L 465.13097136000005 639.6978033600001" stroke="rgba(71,54,254,0.26)" stroke-width="2.2572"/>
    <path d="M 338.81158872000003 620.0493288 L 338.81158872000003 747.76441344" stroke="rgba(71,54,254,0.22)" stroke-width="2.2572"/>
    <path d="M 327.32800848000005 718.2917016 L 468.95883144000004 675.72000672" stroke="rgba(71,54,254,0.18)" stroke-width="2.0064"/>
    <circle cx="411.5409302400001" cy="672.44526096" r="6" fill="rgba(239,69,35,0.9)"/>
    <circle cx="411.5409302400001" cy="672.44526096" r="11" fill="none" stroke="rgba(239,69,35,0.3)" stroke-width="1.3794000000000002"/>
  
    
    <rect x="552.045912" y="646.126008" width="168.87618" height="109.158192" rx="8" fill="rgba(255,255,255,0.88)" stroke="rgba(71,54,254,0.14)" stroke-width="1.254"/>
    <rect x="572.3110536" y="665.7744825599999" width="77.68304280000001" height="13.09898304" rx="4.36632768" fill="rgba(22,22,22,0.1)"/>
    <rect x="572.3110536" y="691.9724486399999" width="97.9481844" height="9.82423728" rx="4.36632768" fill="rgba(22,22,22,0.07)"/>
    <rect x="572.3110536" y="713.80408704" width="54.0403776" height="8.73265536" rx="4.36632768" fill="rgba(239,69,35,0.18)"/>
  
    
    <g transform="rotate(-4 927.2703000000001 529.815)">
      <rect x="808.8049200000002" y="421.74528000000004" width="260.4558" height="241.0188" rx="10" fill="rgba(71,54,254,0.05)"/>
      <rect x="797.0424000000002" y="409.3056" width="260.4558" height="241.0188" rx="10" fill="rgba(255,255,255,0.94)" stroke="rgba(71,54,254,0.2)" stroke-width="1.254"/>
      <rect x="833.5062120000001" y="455.099172" width="109.391436" height="19.281504" rx="7.230563999999999" fill="rgba(22,22,22,0.09)"/>
      <rect x="833.5062120000001" y="491.25199200000003" width="145.85524800000002" height="14.461127999999999" rx="6.02547" fill="rgba(22,22,22,0.06)"/>
      <rect x="833.5062120000001" y="520.174248" width="93.764088" height="14.461127999999999" rx="6.02547" fill="rgba(22,22,22,0.05)"/>
      <rect x="833.5062120000001" y="561.1474440000001" width="41.672928000000006" height="41.672928000000006" rx="9.115953000000001" fill="rgba(71,54,254,0.08)" stroke="rgba(71,54,254,0.38)" stroke-width="1.5048"/>
      <rect x="850.4358390000002" y="575.608572" width="7.813674" height="18.231906000000002" rx="2.6045580000000004" fill="rgba(71,54,254,0.9)"/>
      <rect x="845.2267230000001" y="580.428948" width="18.231906000000002" height="7.813674" rx="2.6045580000000004" fill="rgba(71,54,254,0.9)"/>
      <path d="M 958.5249960000001 573.198384 L 1005.4070400000002 573.198384" stroke="rgba(71,54,254,0.24)" stroke-width="2.0064"/>
      <path d="M 981.9660180000002 549.096504 L 981.9660180000002 597.300264" stroke="rgba(71,54,254,0.24)" stroke-width="2.0064"/>
      <circle cx="981.9660180000002" cy="573.198384" r="4.0128" fill="rgba(239,69,35,0.92)"/>
    </g>
  
    
    
    <g>
      <path d="M 698.405268 476.324376 L 766.2329994 476.324376 L 766.2329994 457.50936 L 849.1335600000002 457.50936"
            stroke="rgba(71,54,254,0.32)" stroke-width="1.5" stroke-linecap="round" stroke-linejoin="round" fill="none"/>
      <circle cx="698.405268" cy="476.324376" r="11" fill="rgba(239,69,35,0.92)"/>
      <text x="698.405268" y="480.324376" fill="#FFFFFF" text-anchor="middle" font-size="9" font-family="Geist, 'Helvetica Neue', Arial, sans-serif" font-weight="700" letter-spacing="0.04em">01</text>
    </g>
  
    
    <g>
      <path d="M 490.124646 803.7989519999999 L 454.761973908 803.7989519999999 L 454.761973908 672.44526096 L 411.5409302400001 672.44526096"
            stroke="rgba(71,54,254,0.32)" stroke-width="1.5" stroke-linecap="round" stroke-linejoin="round" fill="none"/>
      <circle cx="490.124646" cy="803.7989519999999" r="11" fill="rgba(239,69,35,0.92)"/>
      <text x="490.124646" y="807.7989519999999" fill="#FFFFFF" text-anchor="middle" font-size="9" font-family="Geist, 'Helvetica Neue', Arial, sans-serif" font-weight="700" letter-spacing="0.04em">02</text>
    </g>
  
    
    <g>
      <path d="M 732.180504 737.0911679999999 L 669.35856504 737.0911679999999 L 669.35856504 713.80408704 L 592.5761952 713.80408704"
            stroke="rgba(71,54,254,0.32)" stroke-width="1.5" stroke-linecap="round" stroke-linejoin="round" fill="none"/>
      <circle cx="732.180504" cy="737.0911679999999" r="11" fill="rgba(239,69,35,0.92)"/>
      <text x="732.180504" y="741.0911679999999" fill="#FFFFFF" text-anchor="middle" font-size="9" font-family="Geist, 'Helvetica Neue', Arial, sans-serif" font-weight="700" letter-spacing="0.04em">03</text>
    </g>
  
  
  </g>
  
  <g>
    <text x="94.05" y="150.48" fill="rgba(71,54,254,0.82)" font-size="21.09228" font-family="Geist, 'Helvetica Neue', Arial, sans-serif" font-weight="700" letter-spacing="0.14em">ROAD SAFETY / INDIA</text>
    <text x="94.05" y="250.8" fill="#4736FE" font-size="102.828" font-family="Geist, 'Helvetica Neue', Arial, sans-serif" font-weight="700" letter-spacing="-0.055em">India&apos;s road</text>
<text x="94.05" y="395.01" fill="#4736FE" font-size="102.828" font-family="Geist, 'Helvetica Neue', Arial, sans-serif" font-weight="300" letter-spacing="-0.045em">deaths are a</text>
<text x="94.05" y="539.22" fill="#4736FE" font-size="102.828" font-family="Geist, 'Helvetica Neue', Arial, sans-serif" font-weight="800" letter-spacing="-0.055em">trust problem.</text>
    <text x="94.05" y="712.272" fill="#4736FE" opacity="0.96" font-size="36.366" font-family="Geist, 'Helvetica Neue', Arial, sans-serif" font-weight="700" letter-spacing="-0.02em">Not a traffic problem.</text>
    <text x="94.05" y="810.0840000000001" fill="#161616" opacity="0.72" font-size="26.334000000000003" font-family="Geist, 'Helvetica Neue', Arial, sans-serif" font-weight="500">
      <tspan x="94.05" dy="0">Road safety fails when truth dies at each handoff.</tspan>
    </text>
  </g>
</svg>