<svg width="1200" height="630" viewBox="0 0 1200 630" fill="none" xmlns="http://www.w3.org/2000/svg">
  <defs>
    <linearGradient id="bg" x1="62" y1="28" x2="1138" y2="602" gradientUnits="userSpaceOnUse">
      <stop stop-color="#142232"/>
      <stop offset="1" stop-color="#0C141B"/>
    </linearGradient>
    <linearGradient id="panel" x1="82" y1="54" x2="1116" y2="178" gradientUnits="userSpaceOnUse">
      <stop stop-color="#E6EEF2"/>
      <stop offset="1" stop-color="#C9D8E0"/>
    </linearGradient>
    <linearGradient id="glow" x1="770" y1="250" x2="1014" y2="510" gradientUnits="userSpaceOnUse">
      <stop stop-color="#F27A4A" stop-opacity="0.36"/>
      <stop offset="1" stop-color="#F27A4A" stop-opacity="0"/>
    </linearGradient>
  </defs>

  <rect width="1200" height="630" fill="url(#bg)"/>
  <path d="M0 220H1200" stroke="#22374A" stroke-width="2"/>
  <path d="M0 340H1200" stroke="#172735" stroke-width="2"/>
  <path d="M0 460H1200" stroke="#172735" stroke-width="2"/>
  <path d="M200 220V630" stroke="#172735" stroke-width="2"/>
  <path d="M400 220V630" stroke="#172735" stroke-width="2"/>
  <path d="M600 220V630" stroke="#172735" stroke-width="2"/>
  <path d="M800 220V630" stroke="#172735" stroke-width="2"/>
  <path d="M1000 220V630" stroke="#172735" stroke-width="2"/>

  <rect x="76" y="54" width="1048" height="116" rx="22" fill="url(#panel)"/>
  <rect x="122" y="88" width="18" height="18" rx="4" stroke="#304A5E" stroke-width="4"/>
  <path d="M154 97H316" stroke="#304A5E" stroke-width="8" stroke-linecap="round"/>
  <rect x="122" y="122" width="18" height="18" rx="4" stroke="#304A5E" stroke-width="4"/>
  <path d="M154 131H284" stroke="#304A5E" stroke-width="8" stroke-linecap="round"/>
  <rect x="460" y="88" width="112" height="18" rx="9" fill="#8FA6B4"/>
  <rect x="586" y="88" width="146" height="18" rx="9" fill="#5B7382"/>
  <rect x="746" y="88" width="82" height="18" rx="9" fill="#8FA6B4"/>
  <rect x="460" y="122" width="182" height="18" rx="9" fill="#5B7382"/>
  <rect x="656" y="122" width="110" height="18" rx="9" fill="#8FA6B4"/>
  <rect x="896" y="84" width="188" height="60" rx="14" fill="#DEE8ED" stroke="#7D96A5" stroke-width="4"/>
  <path d="M936 114H1044" stroke="#7D96A5" stroke-width="8" stroke-linecap="round"/>

  <circle cx="834" cy="392" r="110" fill="url(#glow)"/>

  <circle cx="676" cy="308" r="18" fill="#D5E1E7"/>
  <circle cx="810" cy="276" r="18" fill="#D5E1E7"/>
  <circle cx="970" cy="314" r="18" fill="#D5E1E7"/>
  <circle cx="738" cy="454" r="18" fill="#D5E1E7"/>
  <circle cx="896" cy="474" r="18" fill="#D5E1E7"/>
  <circle cx="1052" cy="438" r="18" fill="#D5E1E7"/>
  <path d="M694 304L792 280" stroke="#8FA6B4" stroke-width="8" stroke-linecap="round"/>
  <path d="M826 280L952 310" stroke="#8FA6B4" stroke-width="8" stroke-linecap="round"/>
  <path d="M694 318L724 442" stroke="#8FA6B4" stroke-width="8" stroke-linecap="round"/>
  <path d="M754 454L878 472" stroke="#8FA6B4" stroke-width="8" stroke-linecap="round"/>
  <path d="M914 468L1034 442" stroke="#8FA6B4" stroke-width="8" stroke-linecap="round"/>

  <circle cx="850" cy="372" r="22" fill="#F27A4A"/>
  <path d="M812 324L844 352" stroke="#F27A4A" stroke-width="8" stroke-linecap="round" stroke-dasharray="10 14"/>
  <path d="M860 392L884 454" stroke="#F27A4A" stroke-width="8" stroke-linecap="round" stroke-dasharray="10 14"/>
  <path d="M862 356L950 322" stroke="#F27A4A" stroke-width="8" stroke-linecap="round" stroke-dasharray="10 14"/>
  <path d="M850 352V172" stroke="#F27A4A" stroke-width="6" stroke-linecap="round" stroke-dasharray="8 14"/>

  <text x="90" y="386" fill="#F6F1E9" font-family="'Helvetica Neue', Arial, sans-serif" font-size="54" font-weight="700" letter-spacing="-1.4">
    <tspan x="90" dy="0">EXECUTION PROBLEMS</tspan>
    <tspan x="90" dy="64">OFTEN BEGIN AS</tspan>
    <tspan x="90" dy="64">TRUST PROBLEMS</tspan>
  </text>
</svg>
