<svg width="1200" height="630" viewBox="0 0 1200 630" fill="none" xmlns="http://www.w3.org/2000/svg">
  <defs>
    <linearGradient id="bg" x1="72" y1="18" x2="1136" y2="606" gradientUnits="userSpaceOnUse">
      <stop stop-color="#5A4DFF"/>
      <stop offset="0.44" stop-color="#4736FE"/>
      <stop offset="1" stop-color="#22177E"/>
    </linearGradient>
    <radialGradient id="glowA" cx="0" cy="0" r="1" gradientUnits="userSpaceOnUse" gradientTransform="translate(202 102) rotate(32) scale(356 236)">
      <stop stop-color="#FFFFFF" stop-opacity="0.82"/>
      <stop offset="1" stop-color="#FFFFFF" stop-opacity="0"/>
    </radialGradient>
    <radialGradient id="glowB" cx="0" cy="0" r="1" gradientUnits="userSpaceOnUse" gradientTransform="translate(982 414) rotate(212) scale(302 222)">
      <stop stop-color="#EF4523" stop-opacity="0.6"/>
      <stop offset="1" stop-color="#EF4523" stop-opacity="0"/>
    </radialGradient>
  </defs>

  <rect width="1200" height="630" fill="url(#bg)"/>
  <rect width="1200" height="630" fill="url(#glowA)" opacity="0.18"/>
  <rect width="1200" height="630" fill="url(#glowB)" opacity="0.24"/>
  <ellipse cx="966" cy="124" rx="188" ry="108" fill="#FFFFFF" opacity="0.06"/>
  <ellipse cx="176" cy="520" rx="202" ry="116" fill="#EF4523" opacity="0.08"/>

  <rect x="82" y="50" width="110" height="6" rx="3" fill="#FFFFFF" opacity="0.92"/>
  <rect x="1010" y="566" width="92" height="6" rx="3" fill="#EF4523" opacity="0.86"/>

  <path d="M796 208C854 172 916 156 986 162C1042 168 1092 194 1130 238" stroke="#FFFFFF" stroke-opacity="0.28" stroke-width="2.4" stroke-linecap="round"/>
  <path d="M742 302C826 250 904 222 984 228C1066 234 1126 272 1170 328" stroke="#FFFFFF" stroke-opacity="0.24" stroke-width="2.4" stroke-linecap="round"/>
  <path d="M720 412C796 374 872 358 952 364C1044 372 1110 412 1164 470" stroke="#EF4523" stroke-opacity="0.34" stroke-width="2.8" stroke-linecap="round"/>

  <circle cx="820" cy="192" r="8" fill="#FFFFFF" opacity="0.92"/>
  <circle cx="930" cy="162" r="8" fill="#FFFFFF" opacity="0.92"/>
  <circle cx="1070" cy="208" r="8" fill="#FFFFFF" opacity="0.92"/>
  <circle cx="764" cy="292" r="9" fill="#FFFFFF" opacity="0.92"/>
  <circle cx="900" cy="246" r="9" fill="#FFFFFF" opacity="0.92"/>
  <circle cx="1046" cy="290" r="9" fill="#FFFFFF" opacity="0.92"/>
  <circle cx="736" cy="404" r="10" fill="#FFFFFF" opacity="0.92"/>
  <circle cx="876" cy="372" r="10" fill="#FFFFFF" opacity="0.92"/>
  <circle cx="1026" cy="392" r="10" fill="#FFFFFF" opacity="0.92"/>
  <circle cx="1136" cy="470" r="10" fill="#EF4523" opacity="0.96"/>

  <path d="M828 192L920 166" stroke="#FFFFFF" stroke-opacity="0.34" stroke-width="5" stroke-linecap="round"/>
  <path d="M938 166L1058 206" stroke="#FFFFFF" stroke-opacity="0.34" stroke-width="5" stroke-linecap="round"/>
  <path d="M772 294L892 248" stroke="#FFFFFF" stroke-opacity="0.28" stroke-width="5" stroke-linecap="round"/>
  <path d="M910 250L1032 288" stroke="#FFFFFF" stroke-opacity="0.28" stroke-width="5" stroke-linecap="round"/>
  <path d="M748 404L868 372" stroke="#FFFFFF" stroke-opacity="0.26" stroke-width="5" stroke-linecap="round"/>
  <path d="M886 374L1016 392" stroke="#FFFFFF" stroke-opacity="0.26" stroke-width="5" stroke-linecap="round"/>
  <path d="M1038 398L1124 468" stroke="#EF4523" stroke-opacity="0.58" stroke-width="6" stroke-linecap="round" stroke-dasharray="10 14"/>

  <text x="82" y="106" fill="#FFFFFF" opacity="0.72" font-family="'Helvetica Neue', Arial, sans-serif" font-size="16" font-weight="700" letter-spacing="0.16em">ESSAYS</text>
  <text x="82" y="214" fill="#FFFFFF" font-family="Georgia, 'Times New Roman', serif" font-size="90" letter-spacing="-1.8">
    <tspan x="82" dy="0">Vikram Chopra</tspan>
  </text>
  <text x="82" y="322" fill="#FFFFFF" opacity="0.96" font-family="'Helvetica Neue', Arial, sans-serif" font-size="32" font-weight="700" letter-spacing="-0.4">
    <tspan x="82" dy="0">I write to think. I publish to be argued with.</tspan>
  </text>
  <text x="82" y="386" fill="#FFFFFF" opacity="0.82" font-family="'Helvetica Neue', Arial, sans-serif" font-size="23" font-weight="500">
    <tspan x="82" dy="0">Cars24. Ownership. Trust. AI-native companies.</tspan>
  </text>
</svg>
