<?xml version="1.0" encoding="UTF-8"?>
<svg xmlns="http://www.w3.org/2000/svg" width="1254" height="1254" viewBox="0 0 1254 1254" fill="none">
  <defs>
    <linearGradient id="bgGradient" x1="0" y1="0" x2="1254" y2="1254">
      <stop offset="0%" stop-color="#F7F4FF"/>
      <stop offset="42%" stop-color="#EFEAFF"/>
      <stop offset="100%" stop-color="#E7E1FF"/>
    </linearGradient>
    <radialGradient id="violetGlow" cx="0" cy="0" r="1" gradientUnits="userSpaceOnUse" gradientTransform="translate(100.32000000000001 100.32000000000001) rotate(40) scale(564.3000000000001 652.08)">
      <stop offset="0%" stop-color="#4736FE" stop-opacity="0.9"/>
      <stop offset="100%" stop-color="#4736FE" stop-opacity="0"/>
    </radialGradient>
    <radialGradient id="emberGlow" cx="0" cy="0" r="1" gradientUnits="userSpaceOnUse" gradientTransform="translate(1053.36 777.48) rotate(210) scale(351.12000000000006 476.52)">
      <stop offset="0%" stop-color="#EF4523" stop-opacity="0.65"/>
      <stop offset="100%" stop-color="#EF4523" stop-opacity="0"/>
    </radialGradient>
    <filter id="softGlow" x="-40%" y="-40%" width="180%" height="180%">
      <feGaussianBlur stdDeviation="10.032" result="blur"/>
      <feMerge>
        <feMergeNode in="blur"/>
        <feMergeNode in="SourceGraphic"/>
      </feMerge>
    </filter>
    <filter id="fineGlow" x="-30%" y="-30%" width="160%" height="160%">
      <feGaussianBlur stdDeviation="3" result="blur"/>
      <feMerge>
        <feMergeNode in="blur"/>
        <feMergeNode in="SourceGraphic"/>
      </feMerge>
    </filter>
  </defs>
  
  <rect width="1254" height="1254" fill="url(#bgGradient)"/>
  <rect width="1254" height="1254" fill="url(#violetGlow)" opacity="0.04"/>
  <ellipse cx="978.12" cy="351.12000000000006" rx="275.88" ry="275.88" fill="rgba(71,54,254,0.05)"/>
  <ellipse cx="225.72" cy="1028.28" rx="225.72" ry="225.72" fill="rgba(239,69,35,0.035)"/>
  <g><line x1="62.7" y1="125.4" x2="62.7" y2="1128.6000000000001" stroke="rgba(71,54,254,0.05)" stroke-width="1.0032"/>
<line x1="175.56" y1="125.4" x2="175.56" y2="1128.6000000000001" stroke="rgba(71,54,254,0.05)" stroke-width="1.0032"/>
<line x1="288.42" y1="125.4" x2="288.42" y2="1128.6000000000001" stroke="rgba(71,54,254,0.05)" stroke-width="1.0032"/>
<line x1="401.28000000000003" y1="125.4" x2="401.28000000000003" y2="1128.6000000000001" stroke="rgba(71,54,254,0.05)" stroke-width="1.0032"/>
<line x1="514.1400000000001" y1="125.4" x2="514.1400000000001" y2="1128.6000000000001" stroke="rgba(71,54,254,0.05)" stroke-width="1.0032"/>
<line x1="627.0000000000001" y1="125.4" x2="627.0000000000001" y2="1128.6000000000001" stroke="rgba(71,54,254,0.05)" stroke-width="1.0032"/>
<line x1="739.8600000000001" y1="125.4" x2="739.8600000000001" y2="1128.6000000000001" stroke="rgba(71,54,254,0.05)" stroke-width="1.0032"/>
<line x1="852.7200000000001" y1="125.4" x2="852.7200000000001" y2="1128.6000000000001" stroke="rgba(71,54,254,0.05)" stroke-width="1.0032"/>
<line x1="965.5800000000002" y1="125.4" x2="965.5800000000002" y2="1128.6000000000001" stroke="rgba(71,54,254,0.05)" stroke-width="1.0032"/>
<line x1="1078.44" y1="125.4" x2="1078.44" y2="1128.6000000000001" stroke="rgba(71,54,254,0.05)" stroke-width="1.0032"/>
<line x1="1191.3000000000002" y1="125.4" x2="1191.3000000000002" y2="1128.6000000000001" stroke="rgba(71,54,254,0.05)" stroke-width="1.0032"/>
<line x1="62.7" y1="125.4" x2="1191.3" y2="125.4" stroke="rgba(71,54,254,0.05)" stroke-width="1.0032"/>
<line x1="62.7" y1="268.7142857142857" x2="1191.3" y2="268.7142857142857" stroke="rgba(71,54,254,0.05)" stroke-width="1.0032"/>
<line x1="62.7" y1="412.02857142857147" x2="1191.3" y2="412.02857142857147" stroke="rgba(71,54,254,0.05)" stroke-width="1.0032"/>
<line x1="62.7" y1="555.3428571428572" x2="1191.3" y2="555.3428571428572" stroke="rgba(71,54,254,0.05)" stroke-width="1.0032"/>
<line x1="62.7" y1="698.6571428571428" x2="1191.3" y2="698.6571428571428" stroke="rgba(71,54,254,0.05)" stroke-width="1.0032"/>
<line x1="62.7" y1="841.9714285714285" x2="1191.3" y2="841.9714285714285" stroke="rgba(71,54,254,0.05)" stroke-width="1.0032"/>
<line x1="62.7" y1="985.2857142857143" x2="1191.3" y2="985.2857142857143" stroke="rgba(71,54,254,0.05)" stroke-width="1.0032"/>
<line x1="62.7" y1="1128.6000000000001" x2="1191.3" y2="1128.6000000000001" stroke="rgba(71,54,254,0.05)" stroke-width="1.0032"/></g>
  <rect x="90.288" y="106.59" width="137.94" height="11.286" rx="2.508" fill="rgba(71,54,254,0.9)"/>
  <rect x="1053.36" y="1109.79" width="100.32000000000001" height="11.286" rx="2.508" fill="rgba(239,69,35,0.82)"/>
  
  
  <g>
    <rect x="100.32000000000001" y="150.48" width="1028.28" height="902.88" rx="24" fill="rgba(255,255,255,0.26)" stroke="rgba(71,54,254,0.08)" stroke-width="1.254"/>
    <ellipse cx="943.5096" cy="312.99839999999995" rx="164.5248" ry="162.51839999999999" fill="rgba(71,54,254,0.05)"/>
    <circle cx="120.88560000000001" cy="168.5376" r="2.4" fill="rgba(239,69,35,0.24)"/>
<circle cx="285.4104" cy="168.5376" r="2.4" fill="rgba(71,54,254,0.14)"/>
<circle cx="449.9352" cy="168.5376" r="2.4" fill="rgba(71,54,254,0.14)"/>
<circle cx="614.46" cy="168.5376" r="2.4" fill="rgba(71,54,254,0.14)"/>
<circle cx="778.9848000000001" cy="168.5376" r="2.4" fill="rgba(71,54,254,0.14)"/>
<circle cx="943.5096000000001" cy="168.5376" r="2.4" fill="rgba(239,69,35,0.24)"/>
<circle cx="120.88560000000001" cy="439.40160000000003" r="2.4" fill="rgba(71,54,254,0.14)"/>
<circle cx="285.4104" cy="439.40160000000003" r="2.4" fill="rgba(71,54,254,0.14)"/>
<circle cx="449.9352" cy="439.40160000000003" r="2.4" fill="rgba(71,54,254,0.14)"/>
<circle cx="614.46" cy="439.40160000000003" r="2.4" fill="rgba(71,54,254,0.14)"/>
<circle cx="778.9848000000001" cy="439.40160000000003" r="2.4" fill="rgba(239,69,35,0.24)"/>
<circle cx="943.5096000000001" cy="439.40160000000003" r="2.4" fill="rgba(71,54,254,0.14)"/>
<circle cx="120.88560000000001" cy="710.2656000000001" r="2.4" fill="rgba(71,54,254,0.14)"/>
<circle cx="285.4104" cy="710.2656000000001" r="2.4" fill="rgba(71,54,254,0.14)"/>
<circle cx="449.9352" cy="710.2656000000001" r="2.4" fill="rgba(71,54,254,0.14)"/>
<circle cx="614.46" cy="710.2656000000001" r="2.4" fill="rgba(239,69,35,0.24)"/>
<circle cx="778.9848000000001" cy="710.2656000000001" r="2.4" fill="rgba(71,54,254,0.14)"/>
<circle cx="943.5096000000001" cy="710.2656000000001" r="2.4" fill="rgba(71,54,254,0.14)"/>
    
      <rect x="182.5824" y="222.7104" width="596.4024" height="108.34559999999999" rx="14"
            fill="rgba(255,255,255,0.95)" stroke="rgba(71,54,254,0.16)" stroke-width="1.254"/>
      <rect x="223.71359999999999" y="246.54643199999998" width="131.208528" height="15.168384" rx="4.333824" fill="rgba(71,54,254,0.14)"/>
      <rect x="223.71359999999999" y="276.8832" width="250.48900799999996" height="10.83456" rx="4.333824" fill="rgba(22,22,22,0.08)"/>
      <circle cx="964.0752" cy="276.8832" r="8" fill="rgba(71,54,254,0.88)"/>
    

      <rect x="182.5824" y="363.55967999999996" width="719.7959999999999" height="108.34559999999999" rx="14"
            fill="rgba(255,255,255,0.95)" stroke="rgba(71,54,254,0.16)" stroke-width="1.254"/>
      <rect x="223.71359999999999" y="387.39571199999995" width="158.35512" height="15.168384" rx="4.333824" fill="rgba(71,54,254,0.14)"/>
      <rect x="223.71359999999999" y="417.73247999999995" width="302.31431999999995" height="10.83456" rx="4.333824" fill="rgba(22,22,22,0.08)"/>
      <circle cx="964.0752" cy="417.73247999999995" r="8" fill="rgba(239,69,35,0.88)"/>
    

      <rect x="182.5824" y="504.40896" width="596.4024" height="108.34559999999999" rx="14"
            fill="rgba(255,255,255,0.95)" stroke="rgba(71,54,254,0.16)" stroke-width="1.254"/>
      <rect x="223.71359999999999" y="528.244992" width="131.208528" height="15.168384" rx="4.333824" fill="rgba(71,54,254,0.14)"/>
      <rect x="223.71359999999999" y="558.58176" width="250.48900799999996" height="10.83456" rx="4.333824" fill="rgba(22,22,22,0.08)"/>
      <circle cx="964.0752" cy="558.58176" r="8" fill="rgba(71,54,254,0.88)"/>
    

      <rect x="182.5824" y="645.2582399999999" width="719.7959999999999" height="108.34559999999999" rx="14"
            fill="rgba(255,255,255,0.95)" stroke="rgba(71,54,254,0.16)" stroke-width="1.254"/>
      <rect x="223.71359999999999" y="669.0942719999999" width="158.35512" height="15.168384" rx="4.333824" fill="rgba(71,54,254,0.14)"/>
      <rect x="223.71359999999999" y="699.4310399999999" width="302.31431999999995" height="10.83456" rx="4.333824" fill="rgba(22,22,22,0.08)"/>
      <circle cx="964.0752" cy="699.4310399999999" r="8" fill="rgba(239,69,35,0.88)"/>
    

      <rect x="182.5824" y="786.10752" width="596.4024" height="108.34559999999999" rx="14"
            fill="rgba(255,255,255,0.95)" stroke="rgba(71,54,254,0.16)" stroke-width="1.254"/>
      <rect x="223.71359999999999" y="809.9435520000001" width="131.208528" height="15.168384" rx="4.333824" fill="rgba(71,54,254,0.14)"/>
      <rect x="223.71359999999999" y="840.2803200000001" width="250.48900799999996" height="10.83456" rx="4.333824" fill="rgba(22,22,22,0.08)"/>
      <circle cx="964.0752" cy="840.2803200000001" r="8" fill="rgba(71,54,254,0.88)"/>
    
    <path d="M 964.0752 276.8832 C 1046.3376 276.8832, 1046.3376 417.73247999999995, 964.0752 417.73247999999995" stroke="rgba(71,54,254,0.26)" stroke-width="2" fill="none" stroke-dasharray="6 8"/>
<path d="M 964.0752 417.73247999999995 C 1046.3376 417.73247999999995, 1046.3376 558.58176, 964.0752 558.58176" stroke="rgba(71,54,254,0.26)" stroke-width="2" fill="none" stroke-dasharray="6 8"/>
<path d="M 964.0752 558.58176 C 1046.3376 558.58176, 1046.3376 699.4310399999999, 964.0752 699.4310399999999" stroke="rgba(71,54,254,0.26)" stroke-width="2" fill="none" stroke-dasharray="6 8"/>
<path d="M 964.0752 699.4310399999999 C 1046.3376 699.4310399999999, 1046.3376 840.2803200000001, 964.0752 840.2803200000001" stroke="rgba(71,54,254,0.26)" stroke-width="2" fill="none" stroke-dasharray="6 8"/>
  </g>
  
  <g>
    <text x="94.05" y="150.48" fill="rgba(71,54,254,0.74)" font-size="20.214480000000002" font-family="Geist, 'Helvetica Neue', Arial, sans-serif" font-weight="700" letter-spacing="0.12em">OWNERSHIP / INDIA</text>
    <text x="94.05" y="238.26" fill="#4736FE" font-size="100.32000000000001" font-family="Arapey, Georgia, 'Times New Roman', serif" font-style="normal" font-weight="400" letter-spacing="-0.045em">The coming</text>
<text x="94.05" y="369.92999999999995" fill="#4736FE" font-size="100.32000000000001" font-family="Arapey, Georgia, 'Times New Roman', serif" font-style="normal" font-weight="400" letter-spacing="-0.045em">decade of car</text>
<text x="94.05" y="501.59999999999997" fill="#4736FE" font-size="100.32000000000001" font-family="Arapey, Georgia, 'Times New Roman', serif" font-style="italic" font-weight="400" letter-spacing="-0.045em">ownership in India.</text>
    <text x="94.05" y="670.1376" fill="#4736FE" opacity="0.96" font-size="38.874" font-family="Geist, 'Helvetica Neue', Arial, sans-serif" font-weight="700" letter-spacing="-0.02em">Pre-owned. Transfer-heavy. Trust-led.</text>
    <text x="94.05" y="772.9656" fill="#161616" opacity="0.82" font-size="27.587999999999997" font-family="Geist, 'Helvetica Neue', Arial, sans-serif" font-weight="500">
      <tspan x="94.05" dy="0">The market grows when ownership feels survivable, then normal.</tspan>
    </text>
  </g>
</svg>