<?xml version="1.0" encoding="UTF-8"?>
<svg xmlns="http://www.w3.org/2000/svg" width="1200" height="630" viewBox="0 0 1200 630" fill="none">
  <defs>
    <linearGradient id="bgGradient" x1="0" y1="0" x2="1200" y2="630">
      <stop offset="0%" stop-color="#F6F3FF"/>
      <stop offset="42%" stop-color="#F0ECFF"/>
      <stop offset="100%" stop-color="#E7E1FF"/>
    </linearGradient>
    <radialGradient id="violetGlow" cx="0" cy="0" r="1" gradientUnits="userSpaceOnUse" gradientTransform="translate(96 50.4) rotate(40) scale(540 327.6)">
      <stop offset="0%" stop-color="#4736FE" stop-opacity="0.9"/>
      <stop offset="100%" stop-color="#4736FE" stop-opacity="0"/>
    </radialGradient>
    <radialGradient id="emberGlow" cx="0" cy="0" r="1" gradientUnits="userSpaceOnUse" gradientTransform="translate(1008 390.6) rotate(210) scale(336.00000000000006 239.4)">
      <stop offset="0%" stop-color="#EF4523" stop-opacity="0.65"/>
      <stop offset="100%" stop-color="#EF4523" stop-opacity="0"/>
    </radialGradient>
    <filter id="softGlow" x="-40%" y="-40%" width="180%" height="180%">
      <feGaussianBlur stdDeviation="10" result="blur"/>
      <feMerge>
        <feMergeNode in="blur"/>
        <feMergeNode in="SourceGraphic"/>
      </feMerge>
    </filter>
    <filter id="fineGlow" x="-30%" y="-30%" width="160%" height="160%">
      <feGaussianBlur stdDeviation="3" result="blur"/>
      <feMerge>
        <feMergeNode in="blur"/>
        <feMergeNode in="SourceGraphic"/>
      </feMerge>
    </filter>
  </defs>
  
  <rect width="1200" height="630" fill="url(#bgGradient)"/>
  <rect width="1200" height="630" fill="url(#violetGlow)" opacity="0.08"/>
  <rect x="84.00000000000001" y="50.4" width="156" height="8" rx="2" fill="rgba(239,69,35,0.9)"/>
  <rect x="948" y="567" width="144" height="8" rx="2" fill="rgba(71,54,254,0.8)"/>
  
  
  <g>
    <rect x="696" y="113.39999999999999" width="336.00000000000006" height="365.4" rx="24" fill="rgba(255,255,255,0.24)" stroke="rgba(71,54,254,0.08)" stroke-width="1.2"/>
    
    <circle cx="771.8016" cy="270.08351999999996" r="70.56" stroke="rgba(71,54,254,0.14)" stroke-width="2" fill="none"/>
    <circle cx="771.8016" cy="270.08351999999996" r="90.72000000000003" stroke="rgba(239,69,35,0.12)" stroke-width="2" fill="none" stroke-dasharray="10 10"/>
  
    <rect x="736.32" y="171.86399999999998" width="80.64000000000001" height="204.624" rx="18" fill="rgba(255,255,255,0.96)" stroke="rgba(71,54,254,0.18)" stroke-width="1.2"/>
    <rect x="762.1248" y="159.58655999999996" width="14.515200000000002" height="10.231200000000001" rx="3.0693599999999996" fill="rgba(71,54,254,0.84)"/>
    <rect x="750.8352000000001" y="200.51135999999997" width="40.32000000000001" height="20.462400000000002" rx="6.138719999999999" fill="rgba(71,54,254,0.88)"/>
<rect x="750.8352000000001" y="237.34367999999998" width="40.32000000000001" height="20.462400000000002" rx="6.138719999999999" fill="rgba(71,54,254,0.88)"/>
<rect x="750.8352000000001" y="274.176" width="40.32000000000001" height="20.462400000000002" rx="6.138719999999999" fill="rgba(71,54,254,0.88)"/>
<rect x="750.8352000000001" y="311.00831999999997" width="40.32000000000001" height="20.462400000000002" rx="6.138719999999999" fill="rgba(239,69,35,0.54)"/>
    <path d="M 816.96 208.69631999999996 C 823.6800000000001 208.69631999999996, 837.12 179.17199999999997, 857.28 179.17199999999997" stroke="rgba(71,54,254,0.28)" stroke-width="1.8" fill="none"/>
<path d="M 816.96 245.52863999999997 C 823.6800000000001 245.52863999999997, 837.12 244.94399999999996, 857.28 244.94399999999996" stroke="rgba(71,54,254,0.28)" stroke-width="1.8" fill="none"/>
<path d="M 816.96 282.36096 C 823.6800000000001 282.36096, 837.12 310.716, 857.28 310.716" stroke="rgba(71,54,254,0.28)" stroke-width="1.8" fill="none"/>
<path d="M 816.96 319.19327999999996 C 823.6800000000001 319.19327999999996, 837.12 376.48799999999994, 857.28 376.48799999999994" stroke="rgba(71,54,254,0.28)" stroke-width="1.8" fill="none"/>
    
      <rect x="857.28" y="157.248" width="114.24000000000002" height="43.848" rx="12" fill="rgba(255,255,255,0.95)" stroke="rgba(71,54,254,0.14)" stroke-width="1.2"/>
      <rect x="870.72" y="168.20999999999998" width="30.240000000000006" height="9.135" rx="3.654" fill="rgba(71,54,254,0.14)"/>
      <rect x="870.72" y="180.999" width="67.20000000000002" height="6.5771999999999995" rx="3.654" fill="rgba(22,22,22,0.08)"/>
    

      <rect x="857.28" y="223.01999999999998" width="114.24000000000002" height="43.848" rx="12" fill="rgba(255,255,255,0.95)" stroke="rgba(71,54,254,0.14)" stroke-width="1.2"/>
      <rect x="870.72" y="233.98199999999997" width="30.240000000000006" height="9.135" rx="3.654" fill="rgba(239,69,35,0.14)"/>
      <rect x="870.72" y="246.771" width="67.20000000000002" height="6.5771999999999995" rx="3.654" fill="rgba(22,22,22,0.08)"/>
    

      <rect x="857.28" y="288.792" width="114.24000000000002" height="43.848" rx="12" fill="rgba(255,255,255,0.95)" stroke="rgba(71,54,254,0.14)" stroke-width="1.2"/>
      <rect x="870.72" y="299.75399999999996" width="30.240000000000006" height="9.135" rx="3.654" fill="rgba(71,54,254,0.14)"/>
      <rect x="870.72" y="312.54299999999995" width="67.20000000000002" height="6.5771999999999995" rx="3.654" fill="rgba(22,22,22,0.08)"/>
    

      <rect x="857.28" y="354.56399999999996" width="114.24000000000002" height="43.848" rx="12" fill="rgba(255,255,255,0.95)" stroke="rgba(71,54,254,0.14)" stroke-width="1.2"/>
      <rect x="870.72" y="365.52599999999995" width="30.240000000000006" height="9.135" rx="3.654" fill="rgba(239,69,35,0.14)"/>
      <rect x="870.72" y="378.31499999999994" width="67.20000000000002" height="6.5771999999999995" rx="3.654" fill="rgba(22,22,22,0.08)"/>
    
  </g>
  
  <g>
    <text x="86.39999999999999" y="81.9" fill="rgba(71,54,254,0.72)" font-size="19.44" font-family="Geist, 'Helvetica Neue', Arial, sans-serif" font-weight="700" letter-spacing="0.12em">ORG DESIGN / AI</text>
    <text x="86.39999999999999" y="138.6" fill="#4736FE" font-size="103.19999999999999" font-family="Geist, 'Helvetica Neue', Arial, sans-serif" font-weight="500" letter-spacing="-0.06em">The greenest car</text>
<text x="86.39999999999999" y="245.7" fill="#4736FE" font-size="103.19999999999999" font-family="Geist, 'Helvetica Neue', Arial, sans-serif" font-weight="500" letter-spacing="-0.06em">in India is the</text>
<text x="86.39999999999999" y="352.8" fill="#6F5BFF" font-size="103.19999999999999" font-family="Geist, 'Helvetica Neue', Arial, sans-serif" font-weight="700" letter-spacing="-0.05em">one already built.</text>
    <text x="86.39999999999999" y="492.03" fill="#4736FE" opacity="0.96" font-size="36" font-family="Geist, 'Helvetica Neue', Arial, sans-serif" font-weight="700" letter-spacing="-0.02em">Reuse works only when trust works.</text>
    <text x="86.39999999999999" y="555.03" fill="#161616" opacity="0.76" font-size="22.8" font-family="Geist, 'Helvetica Neue', Arial, sans-serif" font-weight="500">
      <tspan x="86.39999999999999" dy="0">Battery legibility and transfer rails make climate real.</tspan>
    </text>
  </g>
</svg>