<?xml version="1.0" encoding="UTF-8"?>
<svg xmlns="http://www.w3.org/2000/svg" width="1672" height="941" viewBox="0 0 1672 941" fill="none">
  <defs>
    <linearGradient id="bgGradient" x1="0" y1="0" x2="1672" y2="941">
      <stop offset="0%" stop-color="#5A4DFF"/>
      <stop offset="42%" stop-color="#4736FE"/>
      <stop offset="100%" stop-color="#21167F"/>
    </linearGradient>
    <radialGradient id="violetGlow" cx="0" cy="0" r="1" gradientUnits="userSpaceOnUse" gradientTransform="translate(133.76 75.28) rotate(40) scale(752.4 489.32)">
      <stop offset="0%" stop-color="#FFFFFF" stop-opacity="0.9"/>
      <stop offset="100%" stop-color="#FFFFFF" stop-opacity="0"/>
    </radialGradient>
    <radialGradient id="emberGlow" cx="0" cy="0" r="1" gradientUnits="userSpaceOnUse" gradientTransform="translate(1404.48 583.42) rotate(210) scale(468.16 357.58)">
      <stop offset="0%" stop-color="#EF4523" stop-opacity="0.65"/>
      <stop offset="100%" stop-color="#EF4523" stop-opacity="0"/>
    </radialGradient>
    <filter id="softGlow" x="-40%" y="-40%" width="180%" height="180%">
      <feGaussianBlur stdDeviation="13.376" result="blur"/>
      <feMerge>
        <feMergeNode in="blur"/>
        <feMergeNode in="SourceGraphic"/>
      </feMerge>
    </filter>
    <filter id="fineGlow" x="-30%" y="-30%" width="160%" height="160%">
      <feGaussianBlur stdDeviation="3.6784000000000003" result="blur"/>
      <feMerge>
        <feMergeNode in="blur"/>
        <feMergeNode in="SourceGraphic"/>
      </feMerge>
    </filter>
  </defs>
  
  <rect width="1672" height="941" fill="url(#bgGradient)"/>
  <rect width="1672" height="941" fill="url(#violetGlow)" opacity="0.16"/>
  <rect width="1672" height="941" fill="url(#emberGlow)" opacity="0.18"/>
  <ellipse cx="1371.04" cy="225.84" rx="367.84" ry="207.02" fill="rgba(255,255,255,0.05)"/>
  <ellipse cx="234.08" cy="752.8000000000001" rx="300.96" ry="188.20000000000002" fill="rgba(239,69,35,0.08)"/>
  <rect x="120.38399999999999" y="79.985" width="183.92" height="8.469" rx="2" fill="rgba(255,255,255,0.82)"/>
  <rect x="1404.48" y="832.785" width="133.76" height="8.469" rx="2" fill="rgba(239,69,35,0.82)"/>
  
  
  <g>
    
    <ellipse cx="1199.8272" cy="214.548" rx="299.6224" ry="130.9872" fill="rgba(255,255,255,0.06)"/>
    <ellipse cx="429.3696" cy="640.2564" rx="214.016" ry="98.2404" fill="rgba(239,69,35,0.08)"/>
  
    
    <path d="M 493.57439999999997 542.016
             C 493.57439999999997 258.2104, 1178.4255999999998 258.2104, 1178.4255999999998 542.016"
          stroke="rgba(255,255,255,0.18)"
          stroke-width="3.0096"
          stroke-linecap="round"
          fill="none"
          filter="url(#softGlow)"/>
  
    
    <rect x="386.5664" y="585.6784" width="898.8671999999999" height="81.86699999999999"
          rx="21.736"
          fill="rgba(255,255,255,0.12)"
          stroke="rgba(255,255,255,0.12)"
          stroke-width="1.8392000000000002"/>
  

    <rect x="472.17279999999994" y="498.35360000000003" width="727.6544" height="60.035799999999995"
          rx="21.736"
          fill="rgba(255,255,255,0.16)"
          stroke="rgba(255,255,255,0.12)"
          stroke-width="1.8392000000000002"/>
  

    <rect x="557.7792" y="421.9444" width="556.4416" height="49.1202"
          rx="21.736"
          fill="rgba(255,255,255,0.2)"
          stroke="rgba(255,255,255,0.12)"
          stroke-width="1.8392000000000002"/>
  
    
    <rect x="450.7712" y="258.2104" width="770.4576" height="272.89"
          rx="26.0832"
          fill="rgba(255,255,255,0.06)"
          stroke="rgba(255,255,255,0.1)"
          stroke-width="1.8392000000000002"/>
  
    
    <path d="M 514.976 350.99299999999994
             C 664.7872 350.99299999999994, 707.5903999999999 421.94440000000003, 664.7872 421.94440000000003"
          stroke="rgba(255,255,255,0.46)"
          stroke-width="2.6752000000000002"
          stroke-linecap="round"
          fill="none"/>
    <path d="M 1157.024 350.99299999999994
             C 1007.2128 350.99299999999994, 964.4096 421.94440000000003, 1007.2128 421.94440000000003"
          stroke="rgba(239,69,35,0.62)"
          stroke-width="2.6752000000000002"
          stroke-linecap="round"
          fill="none"/>
    <path d="M 836 487.438 L 836 569.305"
          stroke="rgba(255,255,255,0.34)"
          stroke-width="2.6752000000000002"
          stroke-linecap="round"/>
  
    <g>
    <rect x="407.96799999999996" y="280.0416" width="214.016" height="70.95139999999999" rx="31.928129999999996" fill="rgba(255,255,255,0.1)" stroke="rgba(255,255,255,0.16)" stroke-width="1.672"/>
  
      <rect x="433.64991999999995" y="294.23188" width="38.522879999999994" height="7.804653999999999" rx="3.54757" fill="rgba(239,69,35,0.16)"/>
      <rect x="433.64991999999995" y="309.841188" width="94.16704" height="5.676112" rx="2.838056" fill="rgba(255,255,255,0.24)"/>
      <rect x="433.64991999999995" y="321.193412" width="68.48512" height="4.966598" rx="2.483299" fill="rgba(255,255,255,0.16)"/>
      <circle cx="583.4611199999999" cy="315.51730000000003" r="5.6848" fill="rgba(239,69,35,0.92)"/>
    </g>
    <g>
    <rect x="1050.0159999999998" y="280.0416" width="214.016" height="70.95139999999999" rx="31.928129999999996" fill="rgba(255,255,255,0.1)" stroke="rgba(255,255,255,0.16)" stroke-width="1.672"/>
  
      <path d="M 1161.3043199999997 297.069936
               L 1195.5468799999999 301.32702
               L 1189.1263999999999 316.936328
               C 1182.7059199999999 328.28855200000004, 1169.8649599999999 335.383692, 1152.7436799999998 339.640776
               C 1135.6223999999997 335.383692, 1122.7814399999997 328.28855200000004, 1116.3609599999997 316.936328
               L 1109.9404799999998 301.32702 Z"
            fill="none" stroke="rgba(255,255,255,0.82)" stroke-width="2.3407999999999998" stroke-linejoin="round"/>
      <path d="M 1139.9027199999998 318.35535600000003 L 1154.8838399999997 324.031468 L 1180.56576 313.388758"
            stroke="rgba(255,255,255,0.92)" stroke-width="2.6752000000000002" stroke-linecap="round" stroke-linejoin="round" fill="none"/>
    </g>
    <g>
    <rect x="686.1887999999999" y="569.305" width="299.6224" height="60.035799999999995" rx="27.016109999999998" fill="rgba(255,255,255,0.1)" stroke="rgba(255,255,255,0.16)" stroke-width="1.672"/>
  
      <path d="M 740.120832 606.527196 L 800.045312 596.921468 L 859.9697919999999 607.727912 L 925.88672 593.31932"
            stroke="rgba(255,255,255,0.62)" stroke-width="2.3407999999999998" fill="none" stroke-linecap="round" stroke-linejoin="round"/>
      <circle cx="740.120832" cy="606.527196" r="5.3504000000000005" fill="rgba(255,255,255,0.92)"/>
      <circle cx="800.045312" cy="596.921468" r="5.3504000000000005" fill="rgba(255,255,255,0.92)"/>
      <circle cx="859.9697919999999" cy="607.727912" r="5.3504000000000005" fill="rgba(255,255,255,0.92)"/>
      <circle cx="925.88672" cy="593.31932" r="5.3504000000000005" fill="rgba(255,255,255,0.92)"/>
    </g>
    
    
    <g filter="url(#fineGlow)">
      <circle cx="514.976" cy="350.99299999999994" r="7.356800000000001" fill="rgba(255,255,255,0.94)"/>
      <circle cx="514.976" cy="350.99299999999994" r="3.6784000000000003" fill="rgba(71,54,254,0.92)"/>
    </g>
  
    
    <g filter="url(#fineGlow)">
      <circle cx="1157.024" cy="350.99299999999994" r="7.356800000000001" fill="rgba(239,69,35,0.92)"/>
      <circle cx="1157.024" cy="350.99299999999994" r="3.6784000000000003" fill="rgba(239,69,35,0.92)"/>
    </g>
  
    
    <g filter="url(#fineGlow)">
      <circle cx="836" cy="569.305" r="7.356800000000001" fill="rgba(255,255,255,0.94)"/>
      <circle cx="836" cy="569.305" r="3.6784000000000003" fill="rgba(71,54,254,0.92)"/>
    </g>
  
  
    
    <g>
      <ellipse cx="836" cy="474.994216" rx="152.807424" ry="29.799587999999996" fill="rgba(239,69,35,0.16)"/>
      <rect x="654.0864" y="381.0109" width="363.8272" height="114.61379999999998" rx="32.744448" fill="rgba(255,255,255,0.96)" stroke="rgba(255,255,255,0.22)" stroke-width="2.0063999999999997"/>
      <rect x="683.192576" y="399.349108" width="94.595072" height="11.461379999999998" rx="5.730689999999999" fill="rgba(71,54,254,0.14)"/>
      <path d="M 726.85184 445.19462799999997
               C 744.3155456000001 428.80485459999994, 779.2429568 423.00539632, 809.8044416 423.00539632
               L 866.5614848 423.00539632
               C 899.3059328 423.00539632, 927.6844544 431.32635819999996, 945.1481600000001 445.19462799999997
               L 945.1481600000001 446.70753016
               L 726.85184 446.70753016 Z"
            fill="none" stroke="rgba(71,54,254,0.86)" stroke-width="2.8424" stroke-linecap="round" stroke-linejoin="round"/>
      <circle cx="779.2429568" cy="446.70753016" r="5.3504000000000005" fill="rgba(71,54,254,0.9)"/>
      <circle cx="897.1229696" cy="446.70753016" r="5.3504000000000005" fill="rgba(71,54,254,0.9)"/>
      <rect x="719.575296" y="468.117388" width="232.849408" height="9.169103999999999" rx="4.5845519999999995" fill="rgba(239,69,35,0.9)"/>
    </g>
  
    <g filter="url(#fineGlow)"><circle cx="1022.25" cy="278.51" r="0.88" fill="rgba(255,255,255,0.08)"/><circle cx="838.89" cy="263.09" r="1.58" fill="rgba(239,69,35,0.14)"/><circle cx="843.88" cy="275.75" r="0.89" fill="rgba(255,255,255,0.08)"/><circle cx="1142.32" cy="538.34" r="1.88" fill="rgba(255,255,255,0.08)"/><circle cx="754.93" cy="429.01" r="0.60" fill="rgba(239,69,35,0.14)"/><circle cx="716.75" cy="323.86" r="2.65" fill="rgba(239,69,35,0.14)"/><circle cx="520.23" cy="400.40" r="3.06" fill="rgba(255,255,255,0.08)"/><circle cx="531.75" cy="250.36" r="0.60" fill="rgba(255,255,255,0.08)"/><circle cx="1081.13" cy="285.38" r="0.79" fill="rgba(255,255,255,0.12)"/><circle cx="486.23" cy="344.02" r="3.50" fill="rgba(255,255,255,0.08)"/><circle cx="719.66" cy="273.94" r="1.16" fill="rgba(255,255,255,0.08)"/><circle cx="830.55" cy="524.86" r="3.14" fill="rgba(255,255,255,0.12)"/><circle cx="1101.75" cy="269.13" r="1.99" fill="rgba(255,255,255,0.08)"/><circle cx="1086.46" cy="539.90" r="3.34" fill="rgba(239,69,35,0.14)"/><circle cx="1049.10" cy="475.11" r="3.29" fill="rgba(239,69,35,0.14)"/><circle cx="878.05" cy="411.39" r="1.09" fill="rgba(239,69,35,0.14)"/><circle cx="1055.85" cy="360.39" r="1.33" fill="rgba(255,255,255,0.12)"/><circle cx="858.08" cy="543.35" r="2.98" fill="rgba(239,69,35,0.14)"/><circle cx="525.25" cy="482.39" r="3.31" fill="rgba(239,69,35,0.14)"/><circle cx="851.00" cy="237.38" r="0.63" fill="rgba(255,255,255,0.12)"/><circle cx="540.20" cy="411.52" r="3.13" fill="rgba(255,255,255,0.12)"/><circle cx="848.26" cy="460.09" r="1.58" fill="rgba(255,255,255,0.08)"/><circle cx="494.20" cy="262.20" r="0.60" fill="rgba(255,255,255,0.12)"/><circle cx="515.62" cy="515.61" r="0.60" fill="rgba(239,69,35,0.14)"/><circle cx="543.00" cy="376.51" r="1.84" fill="rgba(255,255,255,0.12)"/><circle cx="736.06" cy="300.65" r="1.93" fill="rgba(255,255,255,0.12)"/><circle cx="923.24" cy="398.64" r="1.74" fill="rgba(255,255,255,0.12)"/><circle cx="586.37" cy="393.67" r="3.28" fill="rgba(255,255,255,0.08)"/><circle cx="568.63" cy="523.62" r="2.79" fill="rgba(255,255,255,0.12)"/><circle cx="953.73" cy="516.28" r="0.60" fill="rgba(255,255,255,0.12)"/><circle cx="1175.05" cy="519.32" r="0.60" fill="rgba(255,255,255,0.12)"/><circle cx="537.97" cy="245.16" r="0.60" fill="rgba(255,255,255,0.08)"/><circle cx="1180.82" cy="366.19" r="3.44" fill="rgba(255,255,255,0.08)"/><circle cx="1183.58" cy="391.56" r="2.77" fill="rgba(239,69,35,0.14)"/></g>
  </g>
  
</svg>