<?xml version="1.0" encoding="UTF-8"?>
<svg xmlns="http://www.w3.org/2000/svg" width="1200" height="630" viewBox="0 0 1200 630" fill="none">
  <defs>
    <linearGradient id="bgGradient" x1="0" y1="0" x2="1200" y2="630">
      <stop offset="0%" stop-color="#5A4DFF"/>
      <stop offset="42%" stop-color="#4736FE"/>
      <stop offset="100%" stop-color="#21167F"/>
    </linearGradient>
    <radialGradient id="violetGlow" cx="0" cy="0" r="1" gradientUnits="userSpaceOnUse" gradientTransform="translate(96 50.4) rotate(40) scale(540 327.6)">
      <stop offset="0%" stop-color="#FFFFFF" stop-opacity="0.9"/>
      <stop offset="100%" stop-color="#FFFFFF" stop-opacity="0"/>
    </radialGradient>
    <radialGradient id="emberGlow" cx="0" cy="0" r="1" gradientUnits="userSpaceOnUse" gradientTransform="translate(1008 390.6) rotate(210) scale(336.00000000000006 239.4)">
      <stop offset="0%" stop-color="#EF4523" stop-opacity="0.65"/>
      <stop offset="100%" stop-color="#EF4523" stop-opacity="0"/>
    </radialGradient>
    <filter id="softGlow" x="-40%" y="-40%" width="180%" height="180%">
      <feGaussianBlur stdDeviation="10" result="blur"/>
      <feMerge>
        <feMergeNode in="blur"/>
        <feMergeNode in="SourceGraphic"/>
      </feMerge>
    </filter>
    <filter id="fineGlow" x="-30%" y="-30%" width="160%" height="160%">
      <feGaussianBlur stdDeviation="3" result="blur"/>
      <feMerge>
        <feMergeNode in="blur"/>
        <feMergeNode in="SourceGraphic"/>
      </feMerge>
    </filter>
  </defs>
  
  <rect width="1200" height="630" fill="url(#bgGradient)"/>
  <rect width="1200" height="630" fill="url(#violetGlow)" opacity="0.16"/>
  <rect width="1200" height="630" fill="url(#emberGlow)" opacity="0.18"/>
  <ellipse cx="983.9999999999999" cy="151.2" rx="264" ry="138.6" fill="rgba(255,255,255,0.05)"/>
  <ellipse cx="168.00000000000003" cy="504" rx="216" ry="126" fill="rgba(239,69,35,0.08)"/>
  <rect x="86.39999999999999" y="53.550000000000004" width="132" height="8" rx="2" fill="rgba(255,255,255,0.82)"/>
  <rect x="1008" y="557.55" width="96" height="8" rx="2" fill="rgba(239,69,35,0.82)"/>
  
  
  <g>
    <ellipse cx="944.6400000000001" cy="176.904" rx="60.48000000000001" ry="70.56" fill="rgba(239,69,35,0.08)"/>
    <ellipse cx="763.2" cy="402.69599999999997" rx="53.76000000000001" ry="56.448" fill="rgba(255,255,255,0.08)"/>
    <rect x="702.72" y="367.416" width="309.12000000000006" height="56.448" rx="16" fill="rgba(255,255,255,0.14)" stroke="rgba(255,255,255,0.12)" stroke-width="1.2"/>
<rect x="722.88" y="289.8" width="262.08000000000004" height="49.392" rx="16" fill="rgba(255,255,255,0.18)" stroke="rgba(255,255,255,0.12)" stroke-width="1.2"/>
<rect x="749.76" y="219.24" width="208.32000000000002" height="42.336" rx="16" fill="rgba(255,255,255,0.22)" stroke="rgba(255,255,255,0.12)" stroke-width="1.2"/>
<rect x="776.64" y="162.792" width="154.56000000000003" height="35.28" rx="16" fill="rgba(255,255,255,0.28)" stroke="rgba(255,255,255,0.12)" stroke-width="1.2"/>
    <path d="M 756.48 395.64 L 776.64 314.496" stroke="rgba(239,69,35,0.72)" stroke-width="2" fill="none"/>
<path d="M 810.24 395.64 L 776.64 314.496" stroke="rgba(255,255,255,0.48)" stroke-width="2" fill="none"/>
<path d="M 864 395.64 L 843.84 314.496" stroke="rgba(255,255,255,0.48)" stroke-width="2" fill="none"/>
<path d="M 917.76 395.64 L 911.0400000000001 314.496" stroke="rgba(239,69,35,0.72)" stroke-width="2" fill="none"/>
<path d="M 776.64 314.496 L 803.52 240.408" stroke="rgba(255,255,255,0.48)" stroke-width="2" fill="none"/>
<path d="M 843.84 314.496 L 803.52 240.408" stroke="rgba(255,255,255,0.48)" stroke-width="2" fill="none"/>
<path d="M 843.84 314.496 L 877.44 240.408" stroke="rgba(239,69,35,0.72)" stroke-width="2" fill="none"/>
<path d="M 911.0400000000001 314.496 L 877.44 240.408" stroke="rgba(255,255,255,0.48)" stroke-width="2" fill="none"/>
<path d="M 803.52 240.408 L 843.84 180.432" stroke="rgba(255,255,255,0.48)" stroke-width="2" fill="none"/>
<path d="M 877.44 240.408 L 843.84 180.432" stroke="rgba(239,69,35,0.72)" stroke-width="2" fill="none"/>
    <circle cx="756.48" cy="395.64" r="6" fill="rgba(255,255,255,0.86)"/>
<circle cx="810.24" cy="395.64" r="6" fill="rgba(255,255,255,0.86)"/>
<circle cx="864" cy="395.64" r="6" fill="rgba(255,255,255,0.86)"/>
<circle cx="917.76" cy="395.64" r="6" fill="rgba(255,255,255,0.86)"/>
<circle cx="776.64" cy="314.496" r="6" fill="rgba(255,255,255,0.86)"/>
<circle cx="843.84" cy="314.496" r="6" fill="rgba(255,255,255,0.86)"/>
<circle cx="911.0400000000001" cy="314.496" r="6" fill="rgba(255,255,255,0.86)"/>
<circle cx="803.52" cy="240.408" r="6" fill="rgba(255,255,255,0.86)"/>
<circle cx="877.44" cy="240.408" r="6" fill="rgba(255,255,255,0.86)"/>
<circle cx="843.84" cy="180.432" r="6" fill="rgba(239,69,35,0.92)"/>
  </g>
  
  <g>
    <path d="M 66 85.04999999999998 L 54 85.04999999999998 L 54 513.072 L 66 513.072"
          stroke="rgba(186,199,255,0.4)" stroke-width="1.8" fill="none"/>
    <text x="78" y="138.6" fill="#FFFFFF" opacity="1" font-size="102.00000000000001" font-family="Geist, 'Helvetica Neue', Arial, sans-serif" font-weight="500" letter-spacing="-0.055em">The car is</text>
<text x="78" y="245.7" fill="#FFFFFF" opacity="1" font-size="102.00000000000001" font-family="Geist, 'Helvetica Neue', Arial, sans-serif" font-weight="500" letter-spacing="-0.055em">the artifact.</text>
<text x="78" y="352.8" fill="#FFFFFF" opacity="1" font-size="102.00000000000001" font-family="Geist, 'Helvetica Neue', Arial, sans-serif" font-weight="600" letter-spacing="-0.045em">Trust is the product.</text>
    <text x="78" y="494.172" fill="#FFFFFF" opacity="0.96" font-size="33.6" font-family="Geist, 'Helvetica Neue', Arial, sans-serif" font-weight="700" letter-spacing="-0.02em">Certainty is what compounds in mobility.</text>
    <text x="78" y="557.172" fill="#FFFFFF" opacity="0.9" font-size="22.8" font-family="Geist, 'Helvetica Neue', Arial, sans-serif" font-weight="400">
      <tspan x="78" dy="0">Ownership becomes a business when trust becomes a system.</tspan>
    </text>
  </g>
</svg>