<?xml version="1.0" encoding="UTF-8"?>
<svg xmlns="http://www.w3.org/2000/svg" width="1200" height="630" viewBox="0 0 1200 630" fill="none">
  <defs>
    <linearGradient id="bgGradient" x1="0" y1="0" x2="1200" y2="630">
      <stop offset="0%" stop-color="#F7F4FF"/>
      <stop offset="42%" stop-color="#EFEAFF"/>
      <stop offset="100%" stop-color="#E7E1FF"/>
    </linearGradient>
    <radialGradient id="violetGlow" cx="0" cy="0" r="1" gradientUnits="userSpaceOnUse" gradientTransform="translate(96 50.4) rotate(40) scale(540 327.6)">
      <stop offset="0%" stop-color="#4736FE" stop-opacity="0.9"/>
      <stop offset="100%" stop-color="#4736FE" stop-opacity="0"/>
    </radialGradient>
    <radialGradient id="emberGlow" cx="0" cy="0" r="1" gradientUnits="userSpaceOnUse" gradientTransform="translate(1008 390.6) rotate(210) scale(336.00000000000006 239.4)">
      <stop offset="0%" stop-color="#EF4523" stop-opacity="0.65"/>
      <stop offset="100%" stop-color="#EF4523" stop-opacity="0"/>
    </radialGradient>
    <filter id="softGlow" x="-40%" y="-40%" width="180%" height="180%">
      <feGaussianBlur stdDeviation="10" result="blur"/>
      <feMerge>
        <feMergeNode in="blur"/>
        <feMergeNode in="SourceGraphic"/>
      </feMerge>
    </filter>
    <filter id="fineGlow" x="-30%" y="-30%" width="160%" height="160%">
      <feGaussianBlur stdDeviation="3" result="blur"/>
      <feMerge>
        <feMergeNode in="blur"/>
        <feMergeNode in="SourceGraphic"/>
      </feMerge>
    </filter>
  </defs>
  
  <rect width="1200" height="630" fill="url(#bgGradient)"/>
  <rect width="1200" height="630" fill="url(#violetGlow)" opacity="0.04"/>
  <ellipse cx="936" cy="176.4" rx="264" ry="138.6" fill="rgba(71,54,254,0.05)"/>
  <ellipse cx="216" cy="516.6" rx="216" ry="113.39999999999999" fill="rgba(239,69,35,0.035)"/>
  <g><line x1="60" y1="63" x2="60" y2="567" stroke="rgba(71,54,254,0.05)" stroke-width="1"/>
<line x1="168" y1="63" x2="168" y2="567" stroke="rgba(71,54,254,0.05)" stroke-width="1"/>
<line x1="276" y1="63" x2="276" y2="567" stroke="rgba(71,54,254,0.05)" stroke-width="1"/>
<line x1="384" y1="63" x2="384" y2="567" stroke="rgba(71,54,254,0.05)" stroke-width="1"/>
<line x1="492" y1="63" x2="492" y2="567" stroke="rgba(71,54,254,0.05)" stroke-width="1"/>
<line x1="600" y1="63" x2="600" y2="567" stroke="rgba(71,54,254,0.05)" stroke-width="1"/>
<line x1="708" y1="63" x2="708" y2="567" stroke="rgba(71,54,254,0.05)" stroke-width="1"/>
<line x1="816" y1="63" x2="816" y2="567" stroke="rgba(71,54,254,0.05)" stroke-width="1"/>
<line x1="924" y1="63" x2="924" y2="567" stroke="rgba(71,54,254,0.05)" stroke-width="1"/>
<line x1="1032" y1="63" x2="1032" y2="567" stroke="rgba(71,54,254,0.05)" stroke-width="1"/>
<line x1="1140" y1="63" x2="1140" y2="567" stroke="rgba(71,54,254,0.05)" stroke-width="1"/>
<line x1="60" y1="63" x2="1140" y2="63" stroke="rgba(71,54,254,0.05)" stroke-width="1"/>
<line x1="60" y1="135" x2="1140" y2="135" stroke="rgba(71,54,254,0.05)" stroke-width="1"/>
<line x1="60" y1="207" x2="1140" y2="207" stroke="rgba(71,54,254,0.05)" stroke-width="1"/>
<line x1="60" y1="279" x2="1140" y2="279" stroke="rgba(71,54,254,0.05)" stroke-width="1"/>
<line x1="60" y1="351" x2="1140" y2="351" stroke="rgba(71,54,254,0.05)" stroke-width="1"/>
<line x1="60" y1="423" x2="1140" y2="423" stroke="rgba(71,54,254,0.05)" stroke-width="1"/>
<line x1="60" y1="495" x2="1140" y2="495" stroke="rgba(71,54,254,0.05)" stroke-width="1"/>
<line x1="60" y1="567" x2="1140" y2="567" stroke="rgba(71,54,254,0.05)" stroke-width="1"/></g>
  <rect x="86.39999999999999" y="53.550000000000004" width="132" height="8" rx="2" fill="rgba(71,54,254,0.9)"/>
  <rect x="1008" y="557.55" width="96" height="8" rx="2" fill="rgba(239,69,35,0.82)"/>
  
  
  <g>
    <rect x="660" y="113.39999999999999" width="408.00000000000006" height="352.8" rx="24" fill="rgba(255,255,255,0.26)" stroke="rgba(71,54,254,0.08)" stroke-width="1.2"/>
    <ellipse cx="994.56" cy="176.904" rx="65.28000000000002" ry="63.504" fill="rgba(71,54,254,0.05)"/>
    <circle cx="668.16" cy="120.45599999999999" r="2.4" fill="rgba(239,69,35,0.24)"/>
<circle cx="733.44" cy="120.45599999999999" r="2.4" fill="rgba(71,54,254,0.14)"/>
<circle cx="798.72" cy="120.45599999999999" r="2.4" fill="rgba(71,54,254,0.14)"/>
<circle cx="864" cy="120.45599999999999" r="2.4" fill="rgba(71,54,254,0.14)"/>
<circle cx="929.28" cy="120.45599999999999" r="2.4" fill="rgba(71,54,254,0.14)"/>
<circle cx="994.5600000000001" cy="120.45599999999999" r="2.4" fill="rgba(239,69,35,0.24)"/>
<circle cx="668.16" cy="226.296" r="2.4" fill="rgba(71,54,254,0.14)"/>
<circle cx="733.44" cy="226.296" r="2.4" fill="rgba(71,54,254,0.14)"/>
<circle cx="798.72" cy="226.296" r="2.4" fill="rgba(71,54,254,0.14)"/>
<circle cx="864" cy="226.296" r="2.4" fill="rgba(71,54,254,0.14)"/>
<circle cx="929.28" cy="226.296" r="2.4" fill="rgba(239,69,35,0.24)"/>
<circle cx="994.5600000000001" cy="226.296" r="2.4" fill="rgba(71,54,254,0.14)"/>
<circle cx="668.16" cy="332.136" r="2.4" fill="rgba(71,54,254,0.14)"/>
<circle cx="733.44" cy="332.136" r="2.4" fill="rgba(71,54,254,0.14)"/>
<circle cx="798.72" cy="332.136" r="2.4" fill="rgba(71,54,254,0.14)"/>
<circle cx="864" cy="332.136" r="2.4" fill="rgba(239,69,35,0.24)"/>
<circle cx="929.28" cy="332.136" r="2.4" fill="rgba(71,54,254,0.14)"/>
<circle cx="994.5600000000001" cy="332.136" r="2.4" fill="rgba(71,54,254,0.14)"/>
    
      <rect x="692.64" y="141.624" width="236.64000000000001" height="42.336" rx="14"
            fill="rgba(255,255,255,0.95)" stroke="rgba(71,54,254,0.16)" stroke-width="1.2"/>
      <rect x="708.96" y="150.93792" width="52.0608" height="5.927040000000001" rx="1.69344" fill="rgba(71,54,254,0.14)"/>
      <rect x="708.96" y="162.792" width="99.3888" height="4.2336" rx="1.69344" fill="rgba(22,22,22,0.08)"/>
      <circle cx="1002.72" cy="162.792" r="8" fill="rgba(71,54,254,0.88)"/>
    

      <rect x="692.64" y="196.6608" width="285.6" height="42.336" rx="14"
            fill="rgba(255,255,255,0.95)" stroke="rgba(71,54,254,0.16)" stroke-width="1.2"/>
      <rect x="708.96" y="205.97472" width="62.83200000000001" height="5.927040000000001" rx="1.69344" fill="rgba(71,54,254,0.14)"/>
      <rect x="708.96" y="217.8288" width="119.952" height="4.2336" rx="1.69344" fill="rgba(22,22,22,0.08)"/>
      <circle cx="1002.72" cy="217.8288" r="8" fill="rgba(239,69,35,0.88)"/>
    

      <rect x="692.64" y="251.69760000000002" width="236.64000000000001" height="42.336" rx="14"
            fill="rgba(255,255,255,0.95)" stroke="rgba(71,54,254,0.16)" stroke-width="1.2"/>
      <rect x="708.96" y="261.01152" width="52.0608" height="5.927040000000001" rx="1.69344" fill="rgba(71,54,254,0.14)"/>
      <rect x="708.96" y="272.86560000000003" width="99.3888" height="4.2336" rx="1.69344" fill="rgba(22,22,22,0.08)"/>
      <circle cx="1002.72" cy="272.86560000000003" r="8" fill="rgba(71,54,254,0.88)"/>
    

      <rect x="692.64" y="306.7344" width="285.6" height="42.336" rx="14"
            fill="rgba(255,255,255,0.95)" stroke="rgba(71,54,254,0.16)" stroke-width="1.2"/>
      <rect x="708.96" y="316.04832" width="62.83200000000001" height="5.927040000000001" rx="1.69344" fill="rgba(71,54,254,0.14)"/>
      <rect x="708.96" y="327.9024" width="119.952" height="4.2336" rx="1.69344" fill="rgba(22,22,22,0.08)"/>
      <circle cx="1002.72" cy="327.9024" r="8" fill="rgba(239,69,35,0.88)"/>
    

      <rect x="692.64" y="361.77119999999996" width="236.64000000000001" height="42.336" rx="14"
            fill="rgba(255,255,255,0.95)" stroke="rgba(71,54,254,0.16)" stroke-width="1.2"/>
      <rect x="708.96" y="371.08511999999996" width="52.0608" height="5.927040000000001" rx="1.69344" fill="rgba(71,54,254,0.14)"/>
      <rect x="708.96" y="382.93919999999997" width="99.3888" height="4.2336" rx="1.69344" fill="rgba(22,22,22,0.08)"/>
      <circle cx="1002.72" cy="382.93919999999997" r="8" fill="rgba(71,54,254,0.88)"/>
    
    <path d="M 1002.72 162.792 C 1035.3600000000001 162.792, 1035.3600000000001 217.8288, 1002.72 217.8288" stroke="rgba(71,54,254,0.26)" stroke-width="2" fill="none" stroke-dasharray="6 8"/>
<path d="M 1002.72 217.8288 C 1035.3600000000001 217.8288, 1035.3600000000001 272.86560000000003, 1002.72 272.86560000000003" stroke="rgba(71,54,254,0.26)" stroke-width="2" fill="none" stroke-dasharray="6 8"/>
<path d="M 1002.72 272.86560000000003 C 1035.3600000000001 272.86560000000003, 1035.3600000000001 327.9024, 1002.72 327.9024" stroke="rgba(71,54,254,0.26)" stroke-width="2" fill="none" stroke-dasharray="6 8"/>
<path d="M 1002.72 327.9024 C 1035.3600000000001 327.9024, 1035.3600000000001 382.93919999999997, 1002.72 382.93919999999997" stroke="rgba(71,54,254,0.26)" stroke-width="2" fill="none" stroke-dasharray="6 8"/>
  </g>
  
  <g>
    <text x="84.00000000000001" y="75.6" fill="rgba(71,54,254,0.74)" font-size="17.472" font-family="Geist, 'Helvetica Neue', Arial, sans-serif" font-weight="700" letter-spacing="0.12em">OWNERSHIP / INDIA</text>
    <text x="84.00000000000001" y="151.2" fill="#4736FE" font-size="93.6" font-family="Arapey, Georgia, 'Times New Roman', serif" font-style="normal" font-weight="400" letter-spacing="-0.045em">The coming</text>
<text x="84.00000000000001" y="252" fill="#4736FE" font-size="93.6" font-family="Arapey, Georgia, 'Times New Roman', serif" font-style="normal" font-weight="400" letter-spacing="-0.045em">decade of car</text>
<text x="84.00000000000001" y="352.79999999999995" fill="#4736FE" font-size="93.6" font-family="Arapey, Georgia, 'Times New Roman', serif" font-style="italic" font-weight="400" letter-spacing="-0.045em">ownership in India.</text>
    <text x="84.00000000000001" y="481.824" fill="#4736FE" opacity="0.96" font-size="33.6" font-family="Geist, 'Helvetica Neue', Arial, sans-serif" font-weight="700" letter-spacing="-0.02em">Pre-owned. Transfer-heavy. Trust-led.</text>
    <text x="84.00000000000001" y="538.524" fill="#161616" opacity="0.82" font-size="22.8" font-family="Geist, 'Helvetica Neue', Arial, sans-serif" font-weight="500">
      <tspan x="84.00000000000001" dy="0">The market grows when ownership feels survivable, then normal.</tspan>
    </text>
  </g>
</svg>