<?xml version="1.0" encoding="UTF-8"?>
<svg xmlns="http://www.w3.org/2000/svg" width="1672" height="941" viewBox="0 0 1672 941" fill="none">
  <defs>
    <linearGradient id="bg" x1="118" y1="42" x2="1554" y2="902" gradientUnits="userSpaceOnUse">
      <stop stop-color="#0F1A4A"/>
      <stop offset="1" stop-color="#070D25"/>
    </linearGradient>
    <radialGradient id="glow" cx="0" cy="0" r="1" gradientUnits="userSpaceOnUse" gradientTransform="translate(1294 430) rotate(90) scale(258 258)">
      <stop stop-color="#FF7A45" stop-opacity="0.44"/>
      <stop offset="1" stop-color="#FF7A45" stop-opacity="0"/>
    </radialGradient>
    <filter id="soft" x="-30%" y="-30%" width="160%" height="160%">
      <feGaussianBlur stdDeviation="18"/>
    </filter>
  </defs>
  <rect width="1672" height="941" fill="url(#bg)"/>
  <rect width="1672" height="941" fill="url(#glow)"/>
  <circle cx="1452" cy="126" r="118" fill="#172560" opacity="0.9"/>
  <rect x="118" y="96" width="182" height="10" rx="4" fill="#D6E0FF" opacity="0.92"/>
  <rect x="118" y="116" width="136" height="8" rx="4" fill="#FF7A45"/>

  <circle cx="432" cy="286" r="32" fill="#D8E1FF"/>
  <circle cx="432" cy="286" r="72" stroke="#D8E1FF" stroke-opacity="0.18" stroke-width="22"/>
  <circle cx="324" cy="618" r="32" fill="#D8E1FF"/>
  <circle cx="324" cy="618" r="72" stroke="#D8E1FF" stroke-opacity="0.18" stroke-width="22"/>
  <circle cx="716" cy="700" r="32" fill="#D8E1FF"/>
  <circle cx="716" cy="700" r="72" stroke="#D8E1FF" stroke-opacity="0.18" stroke-width="22"/>
  <circle cx="984" cy="366" r="32" fill="#D8E1FF"/>
  <circle cx="984" cy="366" r="72" stroke="#D8E1FF" stroke-opacity="0.18" stroke-width="22"/>

  <path d="M486 308C636 322 812 340 1158 418" stroke="#9EB3FF" stroke-width="12" stroke-linecap="round" stroke-dasharray="18 18"/>
  <path d="M374 584C612 526 824 492 1162 430" stroke="#9EB3FF" stroke-width="12" stroke-linecap="round" stroke-dasharray="18 18"/>
  <path d="M764 662C914 594 1012 536 1176 446" stroke="#9EB3FF" stroke-width="12" stroke-linecap="round" stroke-dasharray="18 18"/>
  <path d="M1030 356C1102 378 1150 394 1196 410" stroke="#9EB3FF" stroke-width="12" stroke-linecap="round" stroke-dasharray="18 18"/>

  <circle cx="1284" cy="430" r="66" fill="#FF6A3A"/>
  <circle cx="1284" cy="430" r="128" stroke="#FF8D65" stroke-opacity="0.24" stroke-width="30"/>
  <circle cx="1284" cy="430" r="208" stroke="#FF8D65" stroke-opacity="0.1" stroke-width="22"/>

  <g filter="url(#soft)" opacity="0.18">
    <ellipse cx="1118" cy="760" rx="308" ry="108" fill="#FF7A45"/>
  </g>

  <text x="118" y="760" fill="#F6F1E8" font-family="Georgia, 'Times New Roman', serif" font-size="88" letter-spacing="-1.6">
    <tspan x="118" dy="0">Who Taught You</tspan>
    <tspan x="118" dy="98">to Want This?</tspan>
  </text>
</svg>
