<svg width="1200" height="630" viewBox="0 0 1200 630" fill="none" xmlns="http://www.w3.org/2000/svg">
  <defs>
    <linearGradient id="bg" x1="120" y1="48" x2="1104" y2="596" gradientUnits="userSpaceOnUse">
      <stop stop-color="#0F1A4A"/>
      <stop offset="1" stop-color="#080E27"/>
    </linearGradient>
    <radialGradient id="glow" cx="0" cy="0" r="1" gradientUnits="userSpaceOnUse" gradientTransform="translate(1012 298) rotate(90) scale(180 180)">
      <stop stop-color="#FF7A45" stop-opacity="0.45"/>
      <stop offset="1" stop-color="#FF7A45" stop-opacity="0"/>
    </radialGradient>
  </defs>
  <rect width="1200" height="630" fill="url(#bg)"/>
  <rect width="1200" height="630" fill="url(#glow)"/>
  <circle cx="1038" cy="98" r="82" fill="#172560" opacity="0.9"/>
  <circle cx="966" cy="172" r="6" fill="#FFB08B" opacity="0.7"/>
  <circle cx="1096" cy="170" r="5" fill="#FFB08B" opacity="0.65"/>

  <circle cx="332" cy="190" r="24" fill="#D8E1FF"/>
  <circle cx="332" cy="190" r="54" stroke="#D8E1FF" stroke-opacity="0.18" stroke-width="16"/>
  <circle cx="258" cy="382" r="24" fill="#D8E1FF"/>
  <circle cx="258" cy="382" r="54" stroke="#D8E1FF" stroke-opacity="0.18" stroke-width="16"/>
  <circle cx="530" cy="440" r="24" fill="#D8E1FF"/>
  <circle cx="530" cy="440" r="54" stroke="#D8E1FF" stroke-opacity="0.18" stroke-width="16"/>
  <circle cx="720" cy="236" r="24" fill="#D8E1FF"/>
  <circle cx="720" cy="236" r="54" stroke="#D8E1FF" stroke-opacity="0.18" stroke-width="16"/>

  <path d="M372 204C484 214 612 230 856 292" stroke="#9EB3FF" stroke-width="8" stroke-linecap="round" stroke-dasharray="12 16"/>
  <path d="M298 360C466 324 618 310 858 298" stroke="#9EB3FF" stroke-width="8" stroke-linecap="round" stroke-dasharray="12 16"/>
  <path d="M566 420C670 380 748 350 860 310" stroke="#9EB3FF" stroke-width="8" stroke-linecap="round" stroke-dasharray="12 16"/>
  <path d="M758 244C810 258 846 274 878 286" stroke="#9EB3FF" stroke-width="8" stroke-linecap="round" stroke-dasharray="12 16"/>

  <circle cx="958" cy="302" r="46" fill="#FF6A3A"/>
  <circle cx="958" cy="302" r="90" stroke="#FF8D65" stroke-opacity="0.26" stroke-width="24"/>
  <circle cx="958" cy="302" r="144" stroke="#FF8D65" stroke-opacity="0.12" stroke-width="18"/>

  <text x="104" y="468" fill="#F6F1E8" font-family="Georgia, 'Times New Roman', serif" font-size="58" letter-spacing="-1.2">
    <tspan x="104" dy="0">Who Taught You</tspan>
    <tspan x="104" dy="68">to Want This?</tspan>
  </text>
</svg>
